  0
SECTION
  2
HEADER
  9
$ACADVER
  1
AC1024
  9
$ACADMAINTVER
 70
6
  9
$DWGCODEPAGE
  3
ANSI_1252
  9
$LASTSAVEDBY
  1
ezdxf
  9
$INSBASE
 10
0.0
 20
0.0
 30
0.0
  9
$EXTMIN
 10
1e+20
 20
1e+20
 30
1e+20
  9
$EXTMAX
 10
-1e+20
 20
-1e+20
 30
-1e+20
  9
$LIMMIN
 10
0.0
 20
0.0
  9
$LIMMAX
 10
420.0
 20
297.0
  9
$ORTHOMODE
 70
0
  9
$REGENMODE
 70
1
  9
$FILLMODE
 70
1
  9
$QTEXTMODE
 70
0
  9
$MIRRTEXT
 70
1
  9
$LTSCALE
 40
1.0
  9
$ATTMODE
 70
1
  9
$TEXTSIZE
 40
2.5
  9
$TRACEWID
 40
1.0
  9
$TEXTSTYLE
  7
Standard
  9
$CLAYER
  8
0
  9
$CELTYPE
  6
ByLayer
  9
$CECOLOR
 62
256
  9
$CELTSCALE
 40
1.0
  9
$DISPSILH
 70
0
  9
$DIMSCALE
 40
1.0
  9
$DIMASZ
 40
2.5
  9
$DIMEXO
 40
0.625
  9
$DIMDLI
 40
3.75
  9
$DIMRND
 40
0.0
  9
$DIMDLE
 40
0.0
  9
$DIMEXE
 40
1.25
  9
$DIMTP
 40
0.0
  9
$DIMTM
 40
0.0
  9
$DIMTXT
 40
2.5
  9
$DIMCEN
 40
2.5
  9
$DIMTSZ
 40
0.0
  9
$DIMTOL
 70
0
  9
$DIMLIM
 70
0
  9
$DIMTIH
 70
0
  9
$DIMTOH
 70
0
  9
$DIMSE1
 70
0
  9
$DIMSE2
 70
0
  9
$DIMTAD
 70
1
  9
$DIMZIN
 70
8
  9
$DIMBLK
  1

  9
$DIMASO
 70
1
  9
$DIMSHO
 70
1
  9
$DIMPOST
  1

  9
$DIMAPOST
  1

  9
$DIMALT
 70
0
  9
$DIMALTD
 70
3
  9
$DIMALTF
 40
0.03937007874
  9
$DIMLFAC
 40
1.0
  9
$DIMTOFL
 70
1
  9
$DIMTVP
 40
0.0
  9
$DIMTIX
 70
0
  9
$DIMSOXD
 70
0
  9
$DIMSAH
 70
0
  9
$DIMBLK1
  1

  9
$DIMBLK2
  1

  9
$DIMSTYLE
  2
ISO-25
  9
$DIMCLRD
 70
0
  9
$DIMCLRE
 70
0
  9
$DIMCLRT
 70
0
  9
$DIMTFAC
 40
1.0
  9
$DIMGAP
 40
0.625
  9
$DIMJUST
 70
0
  9
$DIMSD1
 70
0
  9
$DIMSD2
 70
0
  9
$DIMTOLJ
 70
0
  9
$DIMTZIN
 70
8
  9
$DIMALTZ
 70
0
  9
$DIMALTTZ
 70
0
  9
$DIMUPT
 70
0
  9
$DIMDEC
 70
2
  9
$DIMTDEC
 70
2
  9
$DIMALTU
 70
2
  9
$DIMALTTD
 70
3
  9
$DIMTXSTY
  7
Standard
  9
$DIMAUNIT
 70
0
  9
$DIMADEC
 70
0
  9
$DIMALTRND
 40
0.0
  9
$DIMAZIN
 70
0
  9
$DIMDSEP
 70
44
  9
$DIMATFIT
 70
3
  9
$DIMFRAC
 70
0
  9
$DIMLDRBLK
  1

  9
$DIMLUNIT
 70
2
  9
$DIMLWD
 70
-2
  9
$DIMLWE
 70
-2
  9
$DIMTMOVE
 70
0
  9
$DIMFXL
 40
1.0
  9
$DIMFXLON
 70
0
  9
$DIMJOGANG
 40
0.785398163397
  9
$DIMTFILL
 70
0
  9
$DIMTFILLCLR
 70
0
  9
$DIMARCSYM
 70
0
  9
$DIMLTYPE
  6

  9
$DIMLTEX1
  6

  9
$DIMLTEX2
  6

  9
$DIMTXTDIRECTION
 70
0
  9
$LUNITS
 70
2
  9
$LUPREC
 70
4
  9
$SKETCHINC
 40
1.0
  9
$FILLETRAD
 40
10.0
  9
$AUNITS
 70
0
  9
$AUPREC
 70
2
  9
$MENU
  1
.
  9
$ELEVATION
 40
0.0
  9
$PELEVATION
 40
0.0
  9
$THICKNESS
 40
0.0
  9
$LIMCHECK
 70
0
  9
$CHAMFERA
 40
0.0
  9
$CHAMFERB
 40
0.0
  9
$CHAMFERC
 40
0.0
  9
$CHAMFERD
 40
0.0
  9
$SKPOLY
 70
0
  9
$TDCREATE
 40
2461283.473761574
  9
$TDUCREATE
 40
2458532.153996898
  9
$TDUPDATE
 40
2461283.473761574
  9
$TDUUPDATE
 40
2458532.1544311
  9
$TDINDWG
 40
0.0
  9
$TDUSRTIMER
 40
0.0
  9
$USRTIMER
 70
1
  9
$ANGBASE
 50
0.0
  9
$ANGDIR
 70
0
  9
$PDMODE
 70
0
  9
$PDSIZE
 40
0.0
  9
$PLINEWID
 40
0.0
  9
$SPLFRAME
 70
0
  9
$SPLINETYPE
 70
6
  9
$SPLINESEGS
 70
8
  9
$HANDSEED
  5
226
  9
$SURFTAB1
 70
6
  9
$SURFTAB2
 70
6
  9
$SURFTYPE
 70
6
  9
$SURFU
 70
6
  9
$SURFV
 70
6
  9
$UCSBASE
  2

  9
$UCSNAME
  2

  9
$UCSORG
 10
0.0
 20
0.0
 30
0.0
  9
$UCSXDIR
 10
1.0
 20
0.0
 30
0.0
  9
$UCSYDIR
 10
0.0
 20
1.0
 30
0.0
  9
$UCSORTHOREF
  2

  9
$UCSORTHOVIEW
 70
0
  9
$UCSORGTOP
 10
0.0
 20
0.0
 30
0.0
  9
$UCSORGBOTTOM
 10
0.0
 20
0.0
 30
0.0
  9
$UCSORGLEFT
 10
0.0
 20
0.0
 30
0.0
  9
$UCSORGRIGHT
 10
0.0
 20
0.0
 30
0.0
  9
$UCSORGFRONT
 10
0.0
 20
0.0
 30
0.0
  9
$UCSORGBACK
 10
0.0
 20
0.0
 30
0.0
  9
$PUCSBASE
  2

  9
$PUCSNAME
  2

  9
$PUCSORG
 10
0.0
 20
0.0
 30
0.0
  9
$PUCSXDIR
 10
1.0
 20
0.0
 30
0.0
  9
$PUCSYDIR
 10
0.0
 20
1.0
 30
0.0
  9
$PUCSORTHOREF
  2

  9
$PUCSORTHOVIEW
 70
0
  9
$PUCSORGTOP
 10
0.0
 20
0.0
 30
0.0
  9
$PUCSORGBOTTOM
 10
0.0
 20
0.0
 30
0.0
  9
$PUCSORGLEFT
 10
0.0
 20
0.0
 30
0.0
  9
$PUCSORGRIGHT
 10
0.0
 20
0.0
 30
0.0
  9
$PUCSORGFRONT
 10
0.0
 20
0.0
 30
0.0
  9
$PUCSORGBACK
 10
0.0
 20
0.0
 30
0.0
  9
$USERI1
 70
0
  9
$USERI2
 70
0
  9
$USERI3
 70
0
  9
$USERI4
 70
0
  9
$USERI5
 70
0
  9
$USERR1
 40
0.0
  9
$USERR2
 40
0.0
  9
$USERR3
 40
0.0
  9
$USERR4
 40
0.0
  9
$USERR5
 40
0.0
  9
$WORLDVIEW
 70
1
  9
$SHADEDGE
 70
3
  9
$SHADEDIF
 70
70
  9
$TILEMODE
 70
1
  9
$MAXACTVP
 70
64
  9
$PINSBASE
 10
0.0
 20
0.0
 30
0.0
  9
$PLIMCHECK
 70
0
  9
$PEXTMIN
 10
1e+20
 20
1e+20
 30
1e+20
  9
$PEXTMAX
 10
-1e+20
 20
-1e+20
 30
-1e+20
  9
$PLIMMIN
 10
0.0
 20
0.0
  9
$PLIMMAX
 10
420.0
 20
297.0
  9
$UNITMODE
 70
0
  9
$VISRETAIN
 70
1
  9
$PLINEGEN
 70
0
  9
$PSLTSCALE
 70
1
  9
$TREEDEPTH
 70
3020
  9
$CMLSTYLE
  2
Standard
  9
$CMLJUST
 70
0
  9
$CMLSCALE
 40
20.0
  9
$PROXYGRAPHICS
 70
1
  9
$MEASUREMENT
 70
1
  9
$CELWEIGHT
370
-1
  9
$ENDCAPS
280
0
  9
$JOINSTYLE
280
0
  9
$LWDISPLAY
290
0
  9
$INSUNITS
 70
6
  9
$HYPERLINKBASE
  1

  9
$STYLESHEET
  1

  9
$XEDIT
290
1
  9
$CEPSNTYPE
380
0
  9
$PSTYLEMODE
290
1
  9
$FINGERPRINTGUID
  2
{C8A797A0-C0AF-43D9-A83B-A78234A98045}
  9
$VERSIONGUID
  2
{71D2A7A9-796D-439D-8E89-2583115A7B11}
  9
$EXTNAMES
290
1
  9
$PSVPSCALE
 40
0.0
  9
$OLESTARTUP
290
0
  9
$SORTENTS
280
127
  9
$INDEXCTL
280
0
  9
$HIDETEXT
280
1
  9
$XCLIPFRAME
280
1
  9
$HALOGAP
280
0
  9
$OBSCOLOR
 70
257
  9
$OBSLTYPE
280
0
  9
$INTERSECTIONDISPLAY
280
0
  9
$INTERSECTIONCOLOR
 70
257
  9
$DIMASSOC
280
2
  9
$PROJECTNAME
  1

  9
$CAMERADISPLAY
290
0
  9
$LENSLENGTH
 40
50.0
  9
$CAMERAHEIGHT
 40
0.0
  9
$STEPSPERSEC
 40
24.0
  9
$STEPSIZE
 40
100.0
  9
$3DDWFPREC
 40
2.0
  9
$PSOLWIDTH
 40
0.005
  9
$PSOLHEIGHT
 40
0.08
  9
$LOFTANG1
 40
1.570796326795
  9
$LOFTANG2
 40
1.570796326795
  9
$LOFTMAG1
 40
0.0
  9
$LOFTMAG2
 40
0.0
  9
$LOFTPARAM
 70
7
  9
$LOFTNORMALS
280
1
  9
$LATITUDE
 40
37.795
  9
$LONGITUDE
 40
-122.394
  9
$NORTHDIRECTION
 40
0.0
  9
$TIMEZONE
 70
-8000
  9
$LIGHTGLYPHDISPLAY
280
1
  9
$TILEMODELIGHTSYNCH
280
1
  9
$CMATERIAL
347
20
  9
$SOLIDHIST
280
0
  9
$SHOWHIST
280
1
  9
$DWFFRAME
280
2
  9
$DGNFRAME
280
2
  9
$REALWORLDSCALE
290
1
  9
$INTERFERECOLOR
 62
256
  9
$CSHADOW
280
0
  9
$SHADOWPLANELOCATION
 40
0.0
  0
ENDSEC
  0
SECTION
  2
CLASSES
  0
CLASS
  1
ACDBDICTIONARYWDFLT
  2
AcDbDictionaryWithDefault
  3
ObjectDBX Classes
 90
0
 91
0
280
0
281
0
  0
CLASS
  1
SUN
  2
AcDbSun
  3
SCENEOE
 90
1153
 91
0
280
0
281
0
  0
CLASS
  1
VISUALSTYLE
  2
AcDbVisualStyle
  3
ObjectDBX Classes
 90
4095
 91
0
280
0
281
0
  0
CLASS
  1
MATERIAL
  2
AcDbMaterial
  3
ObjectDBX Classes
 90
1153
 91
0
280
0
281
0
  0
CLASS
  1
SCALE
  2
AcDbScale
  3
ObjectDBX Classes
 90
1153
 91
0
280
0
281
0
  0
CLASS
  1
TABLESTYLE
  2
AcDbTableStyle
  3
ObjectDBX Classes
 90
4095
 91
0
280
0
281
0
  0
CLASS
  1
MLEADERSTYLE
  2
AcDbMLeaderStyle
  3
ACDB_MLEADERSTYLE_CLASS
 90
4095
 91
0
280
0
281
0
  0
CLASS
  1
DICTIONARYVAR
  2
AcDbDictionaryVar
  3
ObjectDBX Classes
 90
0
 91
0
280
0
281
0
  0
CLASS
  1
CELLSTYLEMAP
  2
AcDbCellStyleMap
  3
ObjectDBX Classes
 90
1152
 91
0
280
0
281
0
  0
CLASS
  1
MENTALRAYRENDERSETTINGS
  2
AcDbMentalRayRenderSettings
  3
SCENEOE
 90
1024
 91
0
280
0
281
0
  0
CLASS
  1
ACDBDETAILVIEWSTYLE
  2
AcDbDetailViewStyle
  3
ObjectDBX Classes
 90
1025
 91
0
280
0
281
0
  0
CLASS
  1
ACDBSECTIONVIEWSTYLE
  2
AcDbSectionViewStyle
  3
ObjectDBX Classes
 90
1025
 91
0
280
0
281
0
  0
CLASS
  1
RASTERVARIABLES
  2
AcDbRasterVariables
  3
ISM
 90
0
 91
0
280
0
281
0
  0
CLASS
  1
LAYOUT
  2
AcDbLayout
  3
ObjectDBX Classes
 90
0
 91
0
280
0
281
0
  0
CLASS
  1
ACDBPLACEHOLDER
  2
AcDbPlaceHolder
  3
ObjectDBX Classes
 90
0
 91
0
280
0
281
0
  0
ENDSEC
  0
SECTION
  2
TABLES
  0
TABLE
  2
VPORT
  5
8
330
0
100
AcDbSymbolTable
 70
1
  0
VPORT
  5
23
330
8
100
AcDbSymbolTableRecord
100
AcDbViewportTableRecord
  2
*Active
 70
0
 10
0.0
 20
0.0
 11
1.0
 21
1.0
 12
0.0
 22
0.0
 13
0.0
 23
0.0
 14
0.5
 24
0.5
 15
0.5
 25
0.5
 16
0.0
 26
0.0
 36
1.0
 17
0.0
 27
0.0
 37
0.0
 40
1000.0
 41
1.34
 42
50.0
 43
0.0
 44
0.0
 50
0.0
 51
0.0
 71
0
 72
1000
 73
1
 74
3
 75
0
 76
0
 77
0
 78
0
281
0
 65
0
146
0.0
  0
ENDTAB
  0
TABLE
  2
LTYPE
  5
2
330
0
100
AcDbSymbolTable
 70
3
  0
LTYPE
  5
24
330
2
100
AcDbSymbolTableRecord
100
AcDbLinetypeTableRecord
  2
ByBlock
 70
0
  3

 72
65
 73
0
 40
0.0
  0
LTYPE
  5
25
330
2
100
AcDbSymbolTableRecord
100
AcDbLinetypeTableRecord
  2
ByLayer
 70
0
  3

 72
65
 73
0
 40
0.0
  0
LTYPE
  5
26
330
2
100
AcDbSymbolTableRecord
100
AcDbLinetypeTableRecord
  2
Continuous
 70
0
  3

 72
65
 73
0
 40
0.0
  0
ENDTAB
  0
TABLE
  2
LAYER
  5
1
330
0
100
AcDbSymbolTable
 70
6
  0
LAYER
  5
27
330
1
100
AcDbSymbolTableRecord
100
AcDbLayerTableRecord
  2
0
 70
0
 62
7
  6
Continuous
370
-3
390
13
347
21
  0
LAYER
  5
28
330
1
100
AcDbSymbolTableRecord
100
AcDbLayerTableRecord
  2
Defpoints
 70
0
 62
7
  6
Continuous
290
0
370
-3
390
13
347
21
  0
LAYER
  5
2F
330
1
100
AcDbSymbolTableRecord
100
AcDbLayerTableRecord
  2
CUT_REFERENCE
 70
0
 62
1
  6
Continuous
370
-3
390
13
347
21
  0
LAYER
  5
30
330
1
100
AcDbSymbolTableRecord
100
AcDbLayerTableRecord
  2
ENGRAVE_COMPASS
 70
0
 62
7
  6
Continuous
370
-3
390
13
347
21
  0
LAYER
  5
31
330
1
100
AcDbSymbolTableRecord
100
AcDbLayerTableRecord
  2
ENGRAVE_AWA
 70
0
 62
4
  6
Continuous
370
-3
390
13
347
21
  0
LAYER
  5
32
330
1
100
AcDbSymbolTableRecord
100
AcDbLayerTableRecord
  2
ENGRAVE_TEXT
 70
0
 62
7
  6
Continuous
370
-3
390
13
347
21
  0
ENDTAB
  0
TABLE
  2
STYLE
  5
5
330
0
100
AcDbSymbolTable
 70
1
  0
STYLE
  5
29
330
5
100
AcDbSymbolTableRecord
100
AcDbTextStyleTableRecord
  2
Standard
 70
0
 40
0.0
 41
1.0
 50
0.0
 71
0
 42
2.5
  3
txt
  4

  0
ENDTAB
  0
TABLE
  2
VIEW
  5
7
330
0
100
AcDbSymbolTable
 70
0
  0
ENDTAB
  0
TABLE
  2
UCS
  5
6
330
0
100
AcDbSymbolTable
 70
0
  0
ENDTAB
  0
TABLE
  2
APPID
  5
3
330
0
100
AcDbSymbolTable
 70
3
  0
APPID
  5
2A
330
3
100
AcDbSymbolTableRecord
100
AcDbRegAppTableRecord
  2
ACAD
 70
0
  0
APPID
  5
223
330
3
100
AcDbSymbolTableRecord
100
AcDbRegAppTableRecord
  2
HATCHBACKGROUNDCOLOR
 70
0
  0
APPID
  5
224
330
3
100
AcDbSymbolTableRecord
100
AcDbRegAppTableRecord
  2
EZDXF
 70
0
  0
ENDTAB
  0
TABLE
  2
DIMSTYLE
  5
4
330
0
100
AcDbSymbolTable
 70
1
100
AcDbDimStyleTable
  0
DIMSTYLE
105
2B
330
4
100
AcDbSymbolTableRecord
100
AcDbDimStyleTableRecord
  2
Standard
 70
0
 40
1.0
 41
2.5
 42
0.625
 43
3.75
 44
1.25
 45
0.0
 46
0.0
 47
0.0
 48
0.0
 49
2.5
140
2.5
141
2.5
142
0.0
143
0.03937007874
144
1.0
145
0.0
146
1.0
147
0.625
148
0.0
 69
0
 70
0
 71
0
 72
0
 73
0
 74
0
 75
0
 76
0
 77
1
 78
8
 79
3
170
0
171
3
172
1
173
0
174
0
175
0
176
0
177
0
178
0
179
2
271
2
272
2
273
2
274
3
275
0
276
0
277
2
278
44
279
0
280
0
281
0
282
0
283
0
284
8
285
0
286
0
288
0
289
3
290
0
371
-2
372
-2
  0
ENDTAB
  0
TABLE
  2
BLOCK_RECORD
  5
9
330
0
100
AcDbSymbolTable
 70
2
  0
BLOCK_RECORD
  5
17
330
9
100
AcDbSymbolTableRecord
100
AcDbBlockTableRecord
  2
*Model_Space
340
1A
 70
0
280
1
281
0
  0
BLOCK_RECORD
  5
1B
330
9
100
AcDbSymbolTableRecord
100
AcDbBlockTableRecord
  2
*Paper_Space
340
1E
 70
0
280
1
281
0
  0
ENDTAB
  0
ENDSEC
  0
SECTION
  2
BLOCKS
  0
BLOCK
  5
18
330
17
100
AcDbEntity
  8
0
100
AcDbBlockBegin
  2
*Model_Space
 70
0
 10
0.0
 20
0.0
 30
0.0
  3
*Model_Space
  1

  0
ENDBLK
  5
19
330
17
100
AcDbEntity
  8
0
100
AcDbBlockEnd
  0
BLOCK
  5
1C
330
1B
100
AcDbEntity
  8
0
100
AcDbBlockBegin
  2
*Paper_Space
 70
0
 10
0.0
 20
0.0
 30
0.0
  3
*Paper_Space
  1

  0
ENDBLK
  5
1D
330
1B
100
AcDbEntity
  8
0
100
AcDbBlockEnd
  0
ENDSEC
  0
SECTION
  2
ENTITIES
  0
CIRCLE
  5
33
330
17
100
AcDbEntity
  8
CUT_REFERENCE
100
AcDbCircle
 10
0.0
 20
0.0
 30
0.0
 40
57.5
  0
CIRCLE
  5
34
330
17
100
AcDbEntity
  8
CUT_REFERENCE
100
AcDbCircle
 10
0.0
 20
0.0
 30
0.0
 40
47.0
  0
CIRCLE
  5
35
330
17
100
AcDbEntity
  8
CUT_REFERENCE
100
AcDbCircle
 10
0.0
 20
0.0
 30
0.0
 40
1.6
  0
CIRCLE
  5
36
330
17
100
AcDbEntity
  8
ENGRAVE_AWA
100
AcDbCircle
 10
0.0
 20
0.0
 30
0.0
 40
7.791666666666668
  0
TEXT
  5
37
330
17
100
AcDbEntity
  8
ENGRAVE_TEXT
100
AcDbText
 10
7.791666666666668
 20
0.8
 30
0.0
 40
2.8
  1
0.2
 72
1
 11
7.791666666666668
 21
0.8
 31
0.0
100
AcDbText
 73
1
  0
CIRCLE
  5
38
330
17
100
AcDbEntity
  8
ENGRAVE_AWA
100
AcDbCircle
 10
0.0
 20
0.0
 30
0.0
 40
15.583333333333336
  0
TEXT
  5
39
330
17
100
AcDbEntity
  8
ENGRAVE_TEXT
100
AcDbText
 10
15.583333333333336
 20
0.8
 30
0.0
 40
2.8
  1
0.4
 72
1
 11
15.583333333333336
 21
0.8
 31
0.0
100
AcDbText
 73
1
  0
CIRCLE
  5
3A
330
17
100
AcDbEntity
  8
ENGRAVE_AWA
100
AcDbCircle
 10
0.0
 20
0.0
 30
0.0
 40
23.375000000000004
  0
TEXT
  5
3B
330
17
100
AcDbEntity
  8
ENGRAVE_TEXT
100
AcDbText
 10
23.375000000000004
 20
0.8
 30
0.0
 40
2.8
  1
0.6
 72
1
 11
23.375000000000004
 21
0.8
 31
0.0
100
AcDbText
 73
1
  0
CIRCLE
  5
3C
330
17
100
AcDbEntity
  8
ENGRAVE_AWA
100
AcDbCircle
 10
0.0
 20
0.0
 30
0.0
 40
31.16666666666667
  0
TEXT
  5
3D
330
17
100
AcDbEntity
  8
ENGRAVE_TEXT
100
AcDbText
 10
31.16666666666667
 20
0.8
 30
0.0
 40
2.8
  1
0.8
 72
1
 11
31.16666666666667
 21
0.8
 31
0.0
100
AcDbText
 73
1
  0
CIRCLE
  5
3E
330
17
100
AcDbEntity
  8
ENGRAVE_AWA
100
AcDbCircle
 10
0.0
 20
0.0
 30
0.0
 40
38.95833333333334
  0
TEXT
  5
3F
330
17
100
AcDbEntity
  8
ENGRAVE_TEXT
100
AcDbText
 10
38.95833333333334
 20
0.8
 30
0.0
 40
2.8
  1
1.0
 72
1
 11
38.95833333333334
 21
0.8
 31
0.0
100
AcDbText
 73
1
  0
LINE
  5
40
330
17
100
AcDbEntity
  8
ENGRAVE_AWA
100
AcDbLine
 10
0.0
 20
0.0
 30
0.0
 11
0.0
 21
45.5
 31
0.0
  0
LINE
  5
41
330
17
100
AcDbEntity
  8
ENGRAVE_AWA
100
AcDbLine
 10
0.0
 20
45.5
 30
0.0
 11
-1.5
 21
42.5
 31
0.0
  0
LINE
  5
42
330
17
100
AcDbEntity
  8
ENGRAVE_AWA
100
AcDbLine
 10
0.0
 20
45.5
 30
0.0
 11
1.5
 21
42.5
 31
0.0
  0
LINE
  5
43
330
17
100
AcDbEntity
  8
ENGRAVE_AWA
100
AcDbLine
 10
0.0
 20
-38.958333333333336
 30
0.0
 11
0.0
 21
46.49999999999999
 31
0.0
  0
LINE
  5
44
330
17
100
AcDbEntity
  8
ENGRAVE_AWA
100
AcDbLine
 10
0.0
 20
-38.958333333333336
 30
0.0
 11
14.650997385669678
 21
44.131601779281716
 31
0.0
  0
TEXT
  5
45
330
17
100
AcDbEntity
  8
ENGRAVE_TEXT
100
AcDbText
 10
2.570716563544181
 20
-24.379075223115105
 30
0.0
 40
2.6
  1
10°
 50
-10.0
 72
1
 11
2.570716563544181
 21
-24.379075223115105
 31
0.0
100
AcDbText
 73
2
  0
LINE
  5
46
330
17
100
AcDbEntity
  8
ENGRAVE_AWA
100
AcDbLine
 10
0.0
 20
-38.958333333333336
 30
0.0
 11
27.757980770513594
 21
37.30609204330839
 31
0.0
  0
TEXT
  5
47
330
17
100
AcDbEntity
  8
ENGRAVE_TEXT
100
AcDbText
 10
5.063323205150421
 20
-25.04696715978195
 30
0.0
 40
2.6
  1
20°
 50
-20.0
 72
1
 11
5.063323205150421
 21
-25.04696715978195
 31
0.0
100
AcDbText
 73
2
  0
LINE
  5
48
330
17
100
AcDbEntity
  8
ENGRAVE_AWA
100
AcDbLine
 10
0.0
 20
-38.958333333333336
 30
0.0
 11
37.98113280062059
 21
26.826918406362346
 31
0.0
  0
TEXT
  5
49
330
17
100
AcDbEntity
  8
ENGRAVE_TEXT
100
AcDbText
 10
7.402083333333333
 20
-26.137548918141206
 30
0.0
 40
2.6
  1
30°
 50
-30.0
 72
1
 11
7.402083333333333
 21
-26.137548918141206
 31
0.0
100
AcDbText
 73
2
  0
LINE
  5
4A
330
17
100
AcDbEntity
  8
ENGRAVE_AWA
100
AcDbLine
 10
0.0
 20
-38.958333333333336
 30
0.0
 11
44.36830210942992
 21
13.917750102885044
 31
0.0
  0
TEXT
  5
4B
330
17
100
AcDbEntity
  8
ENGRAVE_TEXT
100
AcDbText
 10
9.515934905067809
 20
-27.61768372332613
 30
0.0
 40
2.6
  1
40°
 50
-40.0
 72
1
 11
9.515934905067809
 21
-27.61768372332613
 31
0.0
100
AcDbText
 73
2
  0
LINE
  5
4C
330
17
100
AcDbEntity
  8
ENGRAVE_AWA
100
AcDbLine
 10
0.0
 20
-38.958333333333336
 30
0.0
 11
46.49996158999977
 21
0.05976728659315711
 31
0.0
  0
TEXT
  5
4D
330
17
100
AcDbEntity
  8
ENGRAVE_TEXT
100
AcDbText
 10
11.340649610007205
 20
-29.442398428265527
 30
0.0
 40
2.6
  1
50°
 50
-50.0
 72
1
 11
11.340649610007205
 21
-29.442398428265527
 31
0.0
100
AcDbText
 73
2
  0
LINE
  5
4E
330
17
100
AcDbEntity
  8
ENGRAVE_AWA
100
AcDbLine
 10
0.0
 20
-38.958333333333336
 30
0.0
 11
44.58140273827258
 21
-13.219248461540534
 31
0.0
  0
TEXT
  5
4F
330
17
100
AcDbEntity
  8
ENGRAVE_TEXT
100
AcDbText
 10
12.820784415192128
 20
-31.55625
 30
0.0
 40
2.6
  1
60°
 50
-60.0
 72
1
 11
12.820784415192128
 21
-31.55625
 31
0.0
100
AcDbText
 73
2
  0
LINE
  5
50
330
17
100
AcDbEntity
  8
ENGRAVE_AWA
100
AcDbLine
 10
0.0
 20
-38.958333333333336
 30
0.0
 11
39.46314400622531
 21
-24.594923564506622
 31
0.0
  0
TEXT
  5
51
330
17
100
AcDbEntity
  8
ENGRAVE_TEXT
100
AcDbText
 10
13.911366173551384
 20
-33.89501012818291
 30
0.0
 40
2.6
  1
70°
 50
-70.0
 72
1
 11
13.911366173551384
 21
-33.89501012818291
 31
0.0
100
AcDbText
 73
2
  0
LINE
  5
52
330
17
100
AcDbEntity
  8
ENGRAVE_AWA
100
AcDbLine
 10
0.0
 20
-38.958333333333336
 30
0.0
 11
32.53600057831204
 21
-33.2213585870307
 31
0.0
  0
TEXT
  5
53
330
17
100
AcDbEntity
  8
ENGRAVE_TEXT
100
AcDbText
 10
14.57925811021823
 20
-36.387616769789155
 30
0.0
 40
2.6
  1
80°
 50
-80.0
 72
1
 11
14.57925811021823
 21
-36.387616769789155
 31
0.0
100
AcDbText
 73
2
  0
LINE
  5
54
330
17
100
AcDbEntity
  8
ENGRAVE_AWA
100
AcDbLine
 10
0.0
 20
-38.958333333333336
 30
0.0
 11
25.386970356639427
 21
-38.958333333333336
 31
0.0
  0
LINE
  5
55
330
17
100
AcDbEntity
  8
ENGRAVE_AWA
100
AcDbLine
 10
0.0
 20
-38.958333333333336
 30
0.0
 11
19.211465827916193
 21
-42.34583309775365
 31
0.0
  0
LINE
  5
56
330
17
100
AcDbEntity
  8
ENGRAVE_AWA
100
AcDbLine
 10
0.0
 20
-38.958333333333336
 30
0.0
 11
14.421210045520546
 21
-44.20722453200356
 31
0.0
  0
LINE
  5
57
330
17
100
AcDbEntity
  8
ENGRAVE_AWA
100
AcDbLine
 10
0.0
 20
-38.958333333333336
 30
0.0
 11
10.842496382503827
 21
-45.21825153845946
 31
0.0
  0
LINE
  5
58
330
17
100
AcDbEntity
  8
ENGRAVE_AWA
100
AcDbLine
 10
0.0
 20
-38.958333333333336
 30
0.0
 11
8.133492878899155
 21
-45.78314420820065
 31
0.0
  0
LINE
  5
59
330
17
100
AcDbEntity
  8
ENGRAVE_AWA
100
AcDbLine
 10
0.0
 20
-38.958333333333336
 30
0.0
 11
6.001833398329315
 21
-46.11103984794421
 31
0.0
  0
LINE
  5
5A
330
17
100
AcDbEntity
  8
ENGRAVE_AWA
100
AcDbLine
 10
0.0
 20
-38.958333333333336
 30
0.0
 11
4.242226444851836
 21
-46.30608507302901
 31
0.0
  0
LINE
  5
5B
330
17
100
AcDbEntity
  8
ENGRAVE_AWA
100
AcDbLine
 10
0.0
 20
-38.958333333333336
 30
0.0
 11
2.7160468098088355
 21
-46.42061061346487
 31
0.0
  0
LINE
  5
5C
330
17
100
AcDbEntity
  8
ENGRAVE_AWA
100
AcDbLine
 10
0.0
 20
-38.958333333333336
 30
0.0
 11
1.3264626352738333
 21
-46.481076761164026
 31
0.0
  0
LINE
  5
5D
330
17
100
AcDbEntity
  8
ENGRAVE_AWA
100
AcDbLine
 10
0.0
 20
-38.958333333333336
 30
0.0
 11
9.235877943569623e-16
 21
-46.5
 31
0.0
  0
LINE
  5
5E
330
17
100
AcDbEntity
  8
ENGRAVE_AWA
100
AcDbLine
 10
0.0
 20
-38.958333333333336
 30
0.0
 11
-1.3264626352738347
 21
-46.481076761164026
 31
0.0
  0
LINE
  5
5F
330
17
100
AcDbEntity
  8
ENGRAVE_AWA
100
AcDbLine
 10
0.0
 20
-38.958333333333336
 30
0.0
 11
-2.7160468098088337
 21
-46.42061061346487
 31
0.0
  0
LINE
  5
60
330
17
100
AcDbEntity
  8
ENGRAVE_AWA
100
AcDbLine
 10
0.0
 20
-38.958333333333336
 30
0.0
 11
-4.2422264448518385
 21
-46.30608507302901
 31
0.0
  0
LINE
  5
61
330
17
100
AcDbEntity
  8
ENGRAVE_AWA
100
AcDbLine
 10
0.0
 20
-38.958333333333336
 30
0.0
 11
-6.001833398329311
 21
-46.111039847944205
 31
0.0
  0
LINE
  5
62
330
17
100
AcDbEntity
  8
ENGRAVE_AWA
100
AcDbLine
 10
0.0
 20
-38.958333333333336
 30
0.0
 11
-8.133492878899153
 21
-45.78314420820065
 31
0.0
  0
LINE
  5
63
330
17
100
AcDbEntity
  8
ENGRAVE_AWA
100
AcDbLine
 10
0.0
 20
-38.958333333333336
 30
0.0
 11
-10.842496382503812
 21
-45.21825153845946
 31
0.0
  0
LINE
  5
64
330
17
100
AcDbEntity
  8
ENGRAVE_AWA
100
AcDbLine
 10
0.0
 20
-38.958333333333336
 30
0.0
 11
-14.421210045520548
 21
-44.20722453200356
 31
0.0
  0
LINE
  5
65
330
17
100
AcDbEntity
  8
ENGRAVE_AWA
100
AcDbLine
 10
0.0
 20
-38.958333333333336
 30
0.0
 11
-19.211465827916193
 21
-42.34583309775365
 31
0.0
  0
LINE
  5
66
330
17
100
AcDbEntity
  8
ENGRAVE_AWA
100
AcDbLine
 10
0.0
 20
-38.958333333333336
 30
0.0
 11
-25.386970356639413
 21
-38.95833333333334
 31
0.0
  0
LINE
  5
67
330
17
100
AcDbEntity
  8
ENGRAVE_AWA
100
AcDbLine
 10
0.0
 20
-38.958333333333336
 30
0.0
 11
-32.53600057831203
 21
-33.22135858703072
 31
0.0
  0
TEXT
  5
68
330
17
100
AcDbEntity
  8
ENGRAVE_TEXT
100
AcDbText
 10
-14.579258110218232
 20
-36.38761676978916
 30
0.0
 40
2.6
  1
80°
 50
-280.0
 72
1
 11
-14.579258110218232
 21
-36.38761676978916
 31
0.0
100
AcDbText
 73
2
  0
LINE
  5
69
330
17
100
AcDbEntity
  8
ENGRAVE_AWA
100
AcDbLine
 10
0.0
 20
-38.958333333333336
 30
0.0
 11
-39.46314400622531
 21
-24.594923564506615
 31
0.0
  0
TEXT
  5
6A
330
17
100
AcDbEntity
  8
ENGRAVE_TEXT
100
AcDbText
 10
-13.911366173551384
 20
-33.89501012818291
 30
0.0
 40
2.6
  1
70°
 50
-290.0
 72
1
 11
-13.911366173551384
 21
-33.89501012818291
 31
0.0
100
AcDbText
 73
2
  0
LINE
  5
6B
330
17
100
AcDbEntity
  8
ENGRAVE_AWA
100
AcDbLine
 10
0.0
 20
-38.958333333333336
 30
0.0
 11
-44.58140273827258
 21
-13.219248461540534
 31
0.0
  0
TEXT
  5
6C
330
17
100
AcDbEntity
  8
ENGRAVE_TEXT
100
AcDbText
 10
-12.820784415192128
 20
-31.55625
 30
0.0
 40
2.6
  1
60°
 50
-300.0
 72
1
 11
-12.820784415192128
 21
-31.55625
 31
0.0
100
AcDbText
 73
2
  0
LINE
  5
6D
330
17
100
AcDbEntity
  8
ENGRAVE_AWA
100
AcDbLine
 10
0.0
 20
-38.958333333333336
 30
0.0
 11
-46.499961589999764
 21
0.0597672865931429
 31
0.0
  0
TEXT
  5
6E
330
17
100
AcDbEntity
  8
ENGRAVE_TEXT
100
AcDbText
 10
-11.340649610007207
 20
-29.442398428265527
 30
0.0
 40
2.6
  1
50°
 50
-310.0
 72
1
 11
-11.340649610007207
 21
-29.442398428265527
 31
0.0
100
AcDbText
 73
2
  0
LINE
  5
6F
330
17
100
AcDbEntity
  8
ENGRAVE_AWA
100
AcDbLine
 10
0.0
 20
-38.958333333333336
 30
0.0
 11
-44.36830210942993
 21
13.917750102885023
 31
0.0
  0
TEXT
  5
70
330
17
100
AcDbEntity
  8
ENGRAVE_TEXT
100
AcDbText
 10
-9.515934905067814
 20
-27.617683723326135
 30
0.0
 40
2.6
  1
40°
 50
-320.0
 72
1
 11
-9.515934905067814
 21
-27.617683723326135
 31
0.0
100
AcDbText
 73
2
  0
LINE
  5
71
330
17
100
AcDbEntity
  8
ENGRAVE_AWA
100
AcDbLine
 10
0.0
 20
-38.958333333333336
 30
0.0
 11
-37.98113280062061
 21
26.82691840636229
 31
0.0
  0
TEXT
  5
72
330
17
100
AcDbEntity
  8
ENGRAVE_TEXT
100
AcDbText
 10
-7.40208333333334
 20
-26.137548918141214
 30
0.0
 40
2.6
  1
30°
 50
-330.0
 72
1
 11
-7.40208333333334
 21
-26.137548918141214
 31
0.0
100
AcDbText
 73
2
  0
LINE
  5
73
330
17
100
AcDbEntity
  8
ENGRAVE_AWA
100
AcDbLine
 10
0.0
 20
-38.958333333333336
 30
0.0
 11
-27.75798077051359
 21
37.306092043308404
 31
0.0
  0
TEXT
  5
74
330
17
100
AcDbEntity
  8
ENGRAVE_TEXT
100
AcDbText
 10
-5.063323205150419
 20
-25.04696715978195
 30
0.0
 40
2.6
  1
20°
 50
-340.0
 72
1
 11
-5.063323205150419
 21
-25.04696715978195
 31
0.0
100
AcDbText
 73
2
  0
LINE
  5
75
330
17
100
AcDbEntity
  8
ENGRAVE_AWA
100
AcDbLine
 10
0.0
 20
-38.958333333333336
 30
0.0
 11
-14.650997385669681
 21
44.131601779281716
 31
0.0
  0
TEXT
  5
76
330
17
100
AcDbEntity
  8
ENGRAVE_TEXT
100
AcDbText
 10
-2.570716563544182
 20
-24.379075223115105
 30
0.0
 40
2.6
  1
10°
 50
-350.0
 72
1
 11
-2.570716563544182
 21
-24.379075223115105
 31
0.0
100
AcDbText
 73
2
  0
ARC
  5
77
330
17
100
AcDbEntity
  8
ENGRAVE_AWA
100
AcDbCircle
 10
0.0
 20
-38.958333333333336
 30
0.0
 40
7.791666666666668
100
AcDbArc
 50
285.92946943394736
 51
254.0705305660526
  0
TEXT
  5
78
330
17
100
AcDbEntity
  8
ENGRAVE_TEXT
100
AcDbText
 10
0.8
 20
-31.166666666666668
 30
0.0
 40
2.6
  1
0.2
 11
0.8
 21
-31.166666666666668
 31
0.0
100
AcDbText
 73
1
  0
ARC
  5
79
330
17
100
AcDbEntity
  8
ENGRAVE_AWA
100
AcDbCircle
 10
0.0
 20
-38.958333333333336
 30
0.0
 40
15.583333333333336
100
AcDbArc
 50
340.68265224777025
 51
199.31734775222978
  0
TEXT
  5
7A
330
17
100
AcDbEntity
  8
ENGRAVE_TEXT
100
AcDbText
 10
0.8
 20
-23.375
 30
0.0
 40
2.6
  1
0.4
 11
0.8
 21
-23.375
 31
0.0
100
AcDbText
 73
1
  0
ARC
  5
7B
330
17
100
AcDbEntity
  8
ENGRAVE_AWA
100
AcDbCircle
 10
0.0
 20
-38.958333333333336
 30
0.0
 40
23.375000000000004
100
AcDbArc
 50
356.9121675809565
 51
183.08783241904345
  0
TEXT
  5
7C
330
17
100
AcDbEntity
  8
ENGRAVE_TEXT
100
AcDbText
 10
0.8
 20
-15.583333333333332
 30
0.0
 40
2.6
  1
0.6
 11
0.8
 21
-15.583333333333332
 31
0.0
100
AcDbText
 73
1
  0
ARC
  5
7D
330
17
100
AcDbEntity
  8
ENGRAVE_AWA
100
AcDbCircle
 10
0.0
 20
-38.958333333333336
 30
0.0
 40
31.16666666666667
100
AcDbArc
 50
7.735486501975511
 51
172.26451349802448
  0
TEXT
  5
7E
330
17
100
AcDbEntity
  8
ENGRAVE_TEXT
100
AcDbText
 10
0.8
 20
-7.791666666666664
 30
0.0
 40
2.6
  1
0.8
 11
0.8
 21
-7.791666666666664
 31
0.0
100
AcDbText
 73
1
  0
ARC
  5
7F
330
17
100
AcDbEntity
  8
ENGRAVE_AWA
100
AcDbCircle
 10
0.0
 20
-38.958333333333336
 30
0.0
 40
38.95833333333334
100
AcDbArc
 50
16.719108586896688
 51
163.28089141310332
  0
TEXT
  5
80
330
17
100
AcDbEntity
  8
ENGRAVE_TEXT
100
AcDbText
 10
0.8
 20
7.105427357601002e-15
 30
0.0
 40
2.6
  1
1.0
 11
0.8
 21
7.105427357601002e-15
 31
0.0
100
AcDbText
 73
1
  0
ARC
  5
81
330
17
100
AcDbEntity
  8
ENGRAVE_AWA
100
AcDbCircle
 10
0.0
 20
-38.958333333333336
 30
0.0
 40
46.75000000000001
100
AcDbArc
 50
25.02834804398752
 51
154.97165195601247
  0
TEXT
  5
82
330
17
100
AcDbEntity
  8
ENGRAVE_TEXT
100
AcDbText
 10
0.8
 20
7.791666666666671
 30
0.0
 40
2.6
  1
1.2
 11
0.8
 21
7.791666666666671
 31
0.0
100
AcDbText
 73
1
  0
ARC
  5
83
330
17
100
AcDbEntity
  8
ENGRAVE_AWA
100
AcDbCircle
 10
0.0
 20
-38.958333333333336
 30
0.0
 40
54.54166666666667
100
AcDbArc
 50
33.253397475259014
 51
146.74660252474098
  0
TEXT
  5
84
330
17
100
AcDbEntity
  8
ENGRAVE_TEXT
100
AcDbText
 10
0.8
 20
15.583333333333336
 30
0.0
 40
2.6
  1
1.4
 11
0.8
 21
15.583333333333336
 31
0.0
100
AcDbText
 73
1
  0
ARC
  5
85
330
17
100
AcDbEntity
  8
ENGRAVE_AWA
100
AcDbCircle
 10
0.0
 20
-38.958333333333336
 30
0.0
 40
62.33333333333334
100
AcDbArc
 50
41.85901533392283
 51
138.14098466607717
  0
TEXT
  5
86
330
17
100
AcDbEntity
  8
ENGRAVE_TEXT
100
AcDbText
 10
0.8
 20
23.375000000000007
 30
0.0
 40
2.6
  1
1.6
 11
0.8
 21
23.375000000000007
 31
0.0
100
AcDbText
 73
1
  0
ARC
  5
87
330
17
100
AcDbEntity
  8
ENGRAVE_AWA
100
AcDbCircle
 10
0.0
 20
-38.958333333333336
 30
0.0
 40
70.12500000000001
100
AcDbArc
 50
51.4481430212152
 51
128.5518569787848
  0
TEXT
  5
88
330
17
100
AcDbEntity
  8
ENGRAVE_TEXT
100
AcDbText
 10
0.8
 20
31.16666666666668
 30
0.0
 40
2.6
  1
1.8
 11
0.8
 21
31.16666666666668
 31
0.0
100
AcDbText
 73
1
  0
ARC
  5
89
330
17
100
AcDbEntity
  8
ENGRAVE_AWA
100
AcDbCircle
 10
0.0
 20
-38.958333333333336
 30
0.0
 40
77.91666666666669
100
AcDbArc
 50
63.35981451017795
 51
116.64018548982204
  0
TEXT
  5
8A
330
17
100
AcDbEntity
  8
ENGRAVE_TEXT
100
AcDbText
 10
0.8
 20
38.95833333333335
 30
0.0
 40
2.6
  1
2.0
 11
0.8
 21
38.95833333333335
 31
0.0
100
AcDbText
 73
1
  0
TEXT
  5
8B
330
17
100
AcDbEntity
  8
ENGRAVE_TEXT
100
AcDbText
 10
22.26631326796153
 20
23.527237643646693
 30
0.0
 40
3.6
  1
6
 72
1
 11
22.26631326796153
 21
23.527237643646693
 31
0.0
100
AcDbText
 73
2
  0
TEXT
  5
8C
330
17
100
AcDbEntity
  8
ENGRAVE_TEXT
100
AcDbText
 10
-22.26631326796153
 20
23.527237643646693
 30
0.0
 40
3.6
  1
6
 72
1
 11
-22.26631326796153
 21
23.527237643646693
 31
0.0
100
AcDbText
 73
2
  0
TEXT
  5
8D
330
17
100
AcDbEntity
  8
ENGRAVE_TEXT
100
AcDbText
 10
19.25611462493301
 20
21.522399183999987
 30
0.0
 40
3.6
  1
8
 72
1
 11
19.25611462493301
 21
21.522399183999987
 31
0.0
100
AcDbText
 73
2
  0
TEXT
  5
8E
330
17
100
AcDbEntity
  8
ENGRAVE_TEXT
100
AcDbText
 10
-19.25611462493301
 20
21.522399183999987
 30
0.0
 40
3.6
  1
8
 72
1
 11
-19.25611462493301
 21
21.522399183999987
 31
0.0
100
AcDbText
 73
2
  0
TEXT
  5
8F
330
17
100
AcDbEntity
  8
ENGRAVE_TEXT
100
AcDbText
 10
16.439683156736248
 20
19.20440484972725
 30
0.0
 40
3.6
  1
10
 72
1
 11
16.439683156736248
 21
19.20440484972725
 31
0.0
100
AcDbText
 73
2
  0
TEXT
  5
90
330
17
100
AcDbEntity
  8
ENGRAVE_TEXT
100
AcDbText
 10
-16.439683156736248
 20
19.20440484972725
 30
0.0
 40
3.6
  1
10
 72
1
 11
-16.439683156736248
 21
19.20440484972725
 31
0.0
100
AcDbText
 73
2
  0
TEXT
  5
91
330
17
100
AcDbEntity
  8
ENGRAVE_TEXT
100
AcDbText
 10
14.077464668284078
 20
16.74384367309288
 30
0.0
 40
3.6
  1
12
 72
1
 11
14.077464668284078
 21
16.74384367309288
 31
0.0
100
AcDbText
 73
2
  0
TEXT
  5
92
330
17
100
AcDbEntity
  8
ENGRAVE_TEXT
100
AcDbText
 10
-14.077464668284078
 20
16.74384367309288
 30
0.0
 40
3.6
  1
12
 72
1
 11
-14.077464668284078
 21
16.74384367309288
 31
0.0
100
AcDbText
 73
2
  0
TEXT
  5
93
330
17
100
AcDbEntity
  8
ENGRAVE_TEXT
100
AcDbText
 10
12.367398082624867
 20
14.694337653845517
 30
0.0
 40
3.6
  1
14
 72
1
 11
12.367398082624867
 21
14.694337653845517
 31
0.0
100
AcDbText
 73
2
  0
TEXT
  5
94
330
17
100
AcDbEntity
  8
ENGRAVE_TEXT
100
AcDbText
 10
-12.367398082624867
 20
14.694337653845517
 30
0.0
 40
3.6
  1
14
 72
1
 11
-12.367398082624867
 21
14.694337653845517
 31
0.0
100
AcDbText
 73
2
  0
TEXT
  5
95
330
17
100
AcDbEntity
  8
ENGRAVE_TEXT
100
AcDbText
 10
11.215159102269096
 20
13.039384441374954
 30
0.0
 40
3.6
  1
16
 72
1
 11
11.215159102269096
 21
13.039384441374954
 31
0.0
100
AcDbText
 73
2
  0
TEXT
  5
96
330
17
100
AcDbEntity
  8
ENGRAVE_TEXT
100
AcDbText
 10
-11.215159102269096
 20
13.039384441374954
 30
0.0
 40
3.6
  1
16
 72
1
 11
-11.215159102269096
 21
13.039384441374954
 31
0.0
100
AcDbText
 73
2
  0
TEXT
  5
97
330
17
100
AcDbEntity
  8
ENGRAVE_TEXT
100
AcDbText
 10
9.370155245690855
 20
10.5666007782118
 30
0.0
 40
3.6
  1
20
 72
1
 11
9.370155245690855
 21
10.5666007782118
 31
0.0
100
AcDbText
 73
2
  0
TEXT
  5
98
330
17
100
AcDbEntity
  8
ENGRAVE_TEXT
100
AcDbText
 10
-9.370155245690855
 20
10.5666007782118
 30
0.0
 40
3.6
  1
20
 72
1
 11
-9.370155245690855
 21
10.5666007782118
 31
0.0
100
AcDbText
 73
2
  0
TEXT
  5
99
330
17
100
AcDbEntity
  8
ENGRAVE_TEXT
100
AcDbText
 10
8.249764972351342
 20
8.602968843254079
 30
0.0
 40
3.6
  1
24
 72
1
 11
8.249764972351342
 21
8.602968843254079
 31
0.0
100
AcDbText
 73
2
  0
TEXT
  5
9A
330
17
100
AcDbEntity
  8
ENGRAVE_TEXT
100
AcDbText
 10
-8.249764972351342
 20
8.602968843254079
 30
0.0
 40
3.6
  1
24
 72
1
 11
-8.249764972351342
 21
8.602968843254079
 31
0.0
100
AcDbText
 73
2
  0
CIRCLE
  5
9B
330
17
100
AcDbEntity
  8
ENGRAVE_COMPASS
100
AcDbCircle
 10
0.0
 20
0.0
 30
0.0
 40
57.2
  0
LINE
  5
9C
330
17
100
AcDbEntity
  8
ENGRAVE_COMPASS
100
AcDbLine
 10
3.5024898455614302e-15
 20
57.2
 30
0.0
 11
3.392271633638169e-15
 21
55.400000000000006
 31
0.0
  0
TEXT
  5
9D
330
17
100
AcDbEntity
  8
ENGRAVE_TEXT
100
AcDbText
 10
3.2636837197276966e-15
 20
53.300000000000004
 30
0.0
 40
3.4
  1
0°/360°
 72
1
 11
3.2636837197276966e-15
 21
53.300000000000004
 31
0.0
100
AcDbText
 73
2
  0
LINE
  5
9E
330
17
100
AcDbEntity
  8
ENGRAVE_COMPASS
100
AcDbLine
 10
1.996251211383062
 20
57.16515530549228
 30
0.0
 11
1.9613517146805608
 21
56.165764478473186
 31
0.0
  0
LINE
  5
9F
330
17
100
AcDbEntity
  8
ENGRAVE_COMPASS
100
AcDbLine
 10
3.9900702981639635
 20
57.06066367486195
 30
0.0
 11
3.9203138244198383
 21
56.063099624602124
 31
0.0
  0
LINE
  5
A0
330
17
100
AcDbEntity
  8
ENGRAVE_COMPASS
100
AcDbLine
 10
5.979028098909778
 20
56.886652415065235
 30
0.0
 11
5.874499635642125
 21
55.89213051969696
 31
0.0
  0
LINE
  5
A1
330
17
100
AcDbEntity
  8
ENGRAVE_COMPASS
100
AcDbLine
 10
7.960701374915745
 20
56.64333353201783
 30
0.0
 11
7.821528273955679
 21
55.653065463276256
 31
0.0
  0
LINE
  5
A2
330
17
100
AcDbEntity
  8
ENGRAVE_COMPASS
100
AcDbLine
 10
9.93267576254842
 20
56.3310034722983
 30
0.0
 11
9.620109042747947
 21
54.558349516876326
 31
0.0
  0
LINE
  5
A3
330
17
100
AcDbEntity
  8
ENGRAVE_COMPASS
100
AcDbLine
 10
11.892548714775842
 20
55.950042761973684
 30
0.0
 11
11.684637023958082
 21
54.97189516123988
 31
0.0
  0
LINE
  5
A4
330
17
100
AcDbEntity
  8
ENGRAVE_COMPASS
100
AcDbLine
 10
13.837932428300991
 20
55.500915542987
 30
0.0
 11
13.596010532701325
 21
54.530619816711
 31
0.0
  0
LINE
  5
A5
330
17
100
AcDbEntity
  8
ENGRAVE_COMPASS
100
AcDbLine
 10
15.766456752732353
 20
54.984169007671845
 30
0.0
 11
15.490819396915354
 21
54.022907311733526
 31
0.0
  0
LINE
  5
A6
330
17
100
AcDbEntity
  8
ENGRAVE_COMPASS
100
AcDbLine
 10
17.675772078246997
 20
54.400432732082784
 30
0.0
 11
17.366755083872047
 21
53.44937621578763
 31
0.0
  0
LINE
  5
A7
330
17
100
AcDbEntity
  8
ENGRAVE_COMPASS
100
AcDbLine
 10
19.56355219822826
 20
53.750417908953956
 30
0.0
 11
18.947915940242055
 21
52.05897119153933
 31
0.0
  0
LINE
  5
A8
330
17
100
AcDbEntity
  8
ENGRAVE_COMPASS
100
AcDbLine
 10
21.427497143390166
 20
53.03491648122024
 30
0.0
 11
21.052890549974254
 21
52.10773262665346
 31
0.0
  0
LINE
  5
A9
330
17
100
AcDbEntity
  8
ENGRAVE_COMPASS
100
AcDbLine
 10
23.265335983935774
 20
52.254800177156774
 30
0.0
 11
22.85859934085997
 21
51.34125471951417
 31
0.0
  0
LINE
  5
AA
330
17
100
AcDbEntity
  8
ENGRAVE_COMPASS
100
AcDbLine
 10
25.07482959633523
 20
51.41101944831236
 30
0.0
 11
24.636458449546154
 21
50.51222540201319
 31
0.0
  0
LINE
  5
AB
330
17
100
AcDbEntity
  8
ENGRAVE_COMPASS
100
AcDbLine
 10
26.85377339135296
 20
50.50460231153062
 30
0.0
 11
26.384301828567068
 21
49.62165471867169
 31
0.0
  0
LINE
  5
AC
330
17
100
AcDbEntity
  8
ENGRAVE_COMPASS
100
AcDbLine
 10
28.60000000000001
 20
49.53665309646989
 30
0.0
 11
27.70000000000001
 21
47.9778073696579
 31
0.0
  0
TEXT
  5
AD
330
17
100
AcDbEntity
  8
ENGRAVE_TEXT
100
AcDbText
 10
26.65000000000001
 20
46.15915402171058
 30
0.0
 40
3.4
  1
30°
 50
-30.0
 72
1
 11
26.65000000000001
 21
46.15915402171058
 31
0.0
100
AcDbText
 73
2
  0
LINE
  5
AE
330
17
100
AcDbEntity
  8
ENGRAVE_COMPASS
100
AcDbLine
 10
30.31138191413932
 20
48.508351100147564
 30
0.0
 11
29.781462649906118
 21
47.66030300399114
 31
0.0
  0
LINE
  5
AF
330
17
100
AcDbEntity
  8
ENGRAVE_COMPASS
100
AcDbLine
 10
31.985834078526718
 20
47.42094915014839
 30
0.0
 11
31.42664117505597
 21
46.59191157759335
 31
0.0
  0
LINE
  5
B0
330
17
100
AcDbEntity
  8
ENGRAVE_COMPASS
100
AcDbLine
 10
33.621316431129465
 20
46.275772078246995
 30
0.0
 11
33.033531178836995
 21
45.46675508387205
 31
0.0
  0
LINE
  5
B1
330
17
100
AcDbEntity
  8
ENGRAVE_COMPASS
100
AcDbLine
 10
35.21583638862766
 20
45.0742151063045
 30
0.0
 11
34.600174913302
 21
44.28620435269778
 31
0.0
  0
LINE
  5
B2
330
17
100
AcDbEntity
  8
ENGRAVE_COMPASS
100
AcDbLine
 10
36.767451274070055
 20
43.81774214640554
 30
0.0
 11
35.610433576634286
 21
42.43886214879139
 31
0.0
  0
LINE
  5
B3
330
17
100
AcDbEntity
  8
ENGRAVE_COMPASS
100
AcDbLine
 10
38.27427068372669
 20
42.50788401730695
 30
0.0
 11
37.605140077367835
 21
41.764739191829555
 31
0.0
  0
LINE
  5
B4
330
17
100
AcDbEntity
  8
ENGRAVE_COMPASS
100
AcDbLine
 10
39.73445879025464
 20
41.14623657937084
 30
0.0
 11
39.03980041979565
 21
40.42689677903219
 31
0.0
  0
LINE
  5
B5
330
17
100
AcDbEntity
  8
ENGRAVE_COMPASS
100
AcDbLine
 10
41.14623657937085
 20
39.73445879025464
 30
0.0
 11
40.4268967790322
 21
39.03980041979565
 31
0.0
  0
LINE
  5
B6
330
17
100
AcDbEntity
  8
ENGRAVE_COMPASS
100
AcDbLine
 10
42.50788401730695
 20
38.27427068372669
 30
0.0
 11
41.764739191829555
 21
37.605140077367835
 31
0.0
  0
LINE
  5
B7
330
17
100
AcDbEntity
  8
ENGRAVE_COMPASS
100
AcDbLine
 10
43.81774214640554
 20
36.76745127407005
 30
0.0
 11
42.43886214879139
 21
35.61043357663428
 31
0.0
  0
LINE
  5
B8
330
17
100
AcDbEntity
  8
ENGRAVE_COMPASS
100
AcDbLine
 10
45.07421510630449
 20
35.21583638862766
 30
0.0
 11
44.28620435269777
 21
34.600174913302
 31
0.0
  0
LINE
  5
B9
330
17
100
AcDbEntity
  8
ENGRAVE_COMPASS
100
AcDbLine
 10
46.275772078246995
 20
33.621316431129465
 30
0.0
 11
45.46675508387205
 21
33.033531178836995
 31
0.0
  0
LINE
  5
BA
330
17
100
AcDbEntity
  8
ENGRAVE_COMPASS
100
AcDbLine
 10
47.42094915014838
 20
31.985834078526725
 30
0.0
 11
46.59191157759334
 21
31.426641175055977
 31
0.0
  0
LINE
  5
BB
330
17
100
AcDbEntity
  8
ENGRAVE_COMPASS
100
AcDbLine
 10
48.508351100147564
 20
30.31138191413932
 30
0.0
 11
47.66030300399114
 21
29.781462649906118
 31
0.0
  0
LINE
  5
BC
330
17
100
AcDbEntity
  8
ENGRAVE_COMPASS
100
AcDbLine
 10
49.5366530964699
 20
28.599999999999998
 30
0.0
 11
47.97780736965791
 21
27.7
 31
0.0
  0
TEXT
  5
BD
330
17
100
AcDbEntity
  8
ENGRAVE_TEXT
100
AcDbText
 10
46.159154021710584
 20
26.65
 30
0.0
 40
3.4
  1
60°
 50
-60.0
 72
1
 11
46.159154021710584
 21
26.65
 31
0.0
100
AcDbText
 73
2
  0
LINE
  5
BE
330
17
100
AcDbEntity
  8
ENGRAVE_COMPASS
100
AcDbLine
 10
50.504602311530626
 20
26.853773391352956
 30
0.0
 11
49.6216547186717
 21
26.384301828567065
 31
0.0
  0
LINE
  5
BF
330
17
100
AcDbEntity
  8
ENGRAVE_COMPASS
100
AcDbLine
 10
51.41101944831236
 20
25.074829596335228
 30
0.0
 11
50.51222540201319
 21
24.63645844954615
 31
0.0
  0
LINE
  5
C0
330
17
100
AcDbEntity
  8
ENGRAVE_COMPASS
100
AcDbLine
 10
52.254800177156774
 20
23.265335983935774
 30
0.0
 11
51.34125471951417
 21
22.85859934085997
 31
0.0
  0
LINE
  5
C1
330
17
100
AcDbEntity
  8
ENGRAVE_COMPASS
100
AcDbLine
 10
53.03491648122024
 20
21.42749714339017
 30
0.0
 11
52.10773262665346
 21
21.052890549974258
 31
0.0
  0
LINE
  5
C2
330
17
100
AcDbEntity
  8
ENGRAVE_COMPASS
100
AcDbLine
 10
53.75041790895396
 20
19.56355219822825
 30
0.0
 11
52.058971191539335
 21
18.947915940242048
 31
0.0
  0
LINE
  5
C3
330
17
100
AcDbEntity
  8
ENGRAVE_COMPASS
100
AcDbLine
 10
54.400432732082784
 20
17.675772078246993
 30
0.0
 11
53.44937621578763
 21
17.366755083872043
 31
0.0
  0
LINE
  5
C4
330
17
100
AcDbEntity
  8
ENGRAVE_COMPASS
100
AcDbLine
 10
54.984169007671845
 20
15.766456752732353
 30
0.0
 11
54.022907311733526
 21
15.490819396915354
 31
0.0
  0
LINE
  5
C5
330
17
100
AcDbEntity
  8
ENGRAVE_COMPASS
100
AcDbLine
 10
55.500915542987
 20
13.837932428300995
 30
0.0
 11
54.530619816711
 21
13.596010532701326
 31
0.0
  0
LINE
  5
C6
330
17
100
AcDbEntity
  8
ENGRAVE_COMPASS
100
AcDbLine
 10
55.95004276197369
 20
11.892548714775835
 30
0.0
 11
54.971895161239885
 21
11.684637023958075
 31
0.0
  0
LINE
  5
C7
330
17
100
AcDbEntity
  8
ENGRAVE_COMPASS
100
AcDbLine
 10
56.3310034722983
 20
9.932675762548415
 30
0.0
 11
54.558349516876326
 21
9.620109042747941
 31
0.0
  0
LINE
  5
C8
330
17
100
AcDbEntity
  8
ENGRAVE_COMPASS
100
AcDbLine
 10
56.64333353201783
 20
7.960701374915743
 30
0.0
 11
55.653065463276256
 21
7.821528273955678
 31
0.0
  0
LINE
  5
C9
330
17
100
AcDbEntity
  8
ENGRAVE_COMPASS
100
AcDbLine
 10
56.886652415065235
 20
5.979028098909779
 30
0.0
 11
55.89213051969696
 21
5.874499635642126
 31
0.0
  0
LINE
  5
CA
330
17
100
AcDbEntity
  8
ENGRAVE_COMPASS
100
AcDbLine
 10
57.06066367486195
 20
3.9900702981639675
 30
0.0
 11
56.063099624602124
 21
3.9203138244198423
 31
0.0
  0
LINE
  5
CB
330
17
100
AcDbEntity
  8
ENGRAVE_COMPASS
100
AcDbLine
 10
57.16515530549228
 20
1.9962512113830555
 30
0.0
 11
56.165764478473186
 21
1.9613517146805546
 31
0.0
  0
LINE
  5
CC
330
17
100
AcDbEntity
  8
ENGRAVE_COMPASS
100
AcDbLine
 10
57.2
 20
0.0
 30
0.0
 11
55.400000000000006
 21
0.0
 31
0.0
  0
TEXT
  5
CD
330
17
100
AcDbEntity
  8
ENGRAVE_TEXT
100
AcDbText
 10
53.300000000000004
 20
0.0
 30
0.0
 40
3.4
  1
90°
 50
-90.0
 72
1
 11
53.300000000000004
 21
0.0
 31
0.0
100
AcDbText
 73
2
  0
LINE
  5
CE
330
17
100
AcDbEntity
  8
ENGRAVE_COMPASS
100
AcDbLine
 10
57.16515530549228
 20
-1.9962512113830555
 30
0.0
 11
56.165764478473186
 21
-1.9613517146805546
 31
0.0
  0
LINE
  5
CF
330
17
100
AcDbEntity
  8
ENGRAVE_COMPASS
100
AcDbLine
 10
57.06066367486195
 20
-3.9900702981639675
 30
0.0
 11
56.063099624602124
 21
-3.9203138244198423
 31
0.0
  0
LINE
  5
D0
330
17
100
AcDbEntity
  8
ENGRAVE_COMPASS
100
AcDbLine
 10
56.886652415065235
 20
-5.979028098909779
 30
0.0
 11
55.89213051969696
 21
-5.874499635642126
 31
0.0
  0
LINE
  5
D1
330
17
100
AcDbEntity
  8
ENGRAVE_COMPASS
100
AcDbLine
 10
56.64333353201783
 20
-7.960701374915743
 30
0.0
 11
55.653065463276256
 21
-7.821528273955678
 31
0.0
  0
LINE
  5
D2
330
17
100
AcDbEntity
  8
ENGRAVE_COMPASS
100
AcDbLine
 10
56.3310034722983
 20
-9.932675762548415
 30
0.0
 11
54.558349516876326
 21
-9.620109042747941
 31
0.0
  0
LINE
  5
D3
330
17
100
AcDbEntity
  8
ENGRAVE_COMPASS
100
AcDbLine
 10
55.95004276197369
 20
-11.892548714775835
 30
0.0
 11
54.971895161239885
 21
-11.684637023958075
 31
0.0
  0
LINE
  5
D4
330
17
100
AcDbEntity
  8
ENGRAVE_COMPASS
100
AcDbLine
 10
55.500915542987
 20
-13.837932428300995
 30
0.0
 11
54.530619816711
 21
-13.596010532701326
 31
0.0
  0
LINE
  5
D5
330
17
100
AcDbEntity
  8
ENGRAVE_COMPASS
100
AcDbLine
 10
54.984169007671845
 20
-15.766456752732353
 30
0.0
 11
54.022907311733526
 21
-15.490819396915354
 31
0.0
  0
LINE
  5
D6
330
17
100
AcDbEntity
  8
ENGRAVE_COMPASS
100
AcDbLine
 10
54.400432732082784
 20
-17.675772078246993
 30
0.0
 11
53.44937621578763
 21
-17.366755083872043
 31
0.0
  0
LINE
  5
D7
330
17
100
AcDbEntity
  8
ENGRAVE_COMPASS
100
AcDbLine
 10
53.75041790895396
 20
-19.56355219822825
 30
0.0
 11
52.058971191539335
 21
-18.947915940242048
 31
0.0
  0
LINE
  5
D8
330
17
100
AcDbEntity
  8
ENGRAVE_COMPASS
100
AcDbLine
 10
53.03491648122024
 20
-21.42749714339017
 30
0.0
 11
52.10773262665346
 21
-21.052890549974258
 31
0.0
  0
LINE
  5
D9
330
17
100
AcDbEntity
  8
ENGRAVE_COMPASS
100
AcDbLine
 10
52.254800177156774
 20
-23.265335983935774
 30
0.0
 11
51.34125471951417
 21
-22.85859934085997
 31
0.0
  0
LINE
  5
DA
330
17
100
AcDbEntity
  8
ENGRAVE_COMPASS
100
AcDbLine
 10
51.41101944831236
 20
-25.074829596335228
 30
0.0
 11
50.51222540201319
 21
-24.63645844954615
 31
0.0
  0
LINE
  5
DB
330
17
100
AcDbEntity
  8
ENGRAVE_COMPASS
100
AcDbLine
 10
50.504602311530626
 20
-26.853773391352956
 30
0.0
 11
49.6216547186717
 21
-26.384301828567065
 31
0.0
  0
LINE
  5
DC
330
17
100
AcDbEntity
  8
ENGRAVE_COMPASS
100
AcDbLine
 10
49.5366530964699
 20
-28.599999999999998
 30
0.0
 11
47.97780736965791
 21
-27.7
 31
0.0
  0
TEXT
  5
DD
330
17
100
AcDbEntity
  8
ENGRAVE_TEXT
100
AcDbText
 10
46.159154021710584
 20
-26.65
 30
0.0
 40
3.4
  1
120°
 50
60.0
 72
1
 11
46.159154021710584
 21
-26.65
 31
0.0
100
AcDbText
 73
2
  0
LINE
  5
DE
330
17
100
AcDbEntity
  8
ENGRAVE_COMPASS
100
AcDbLine
 10
48.508351100147564
 20
-30.31138191413932
 30
0.0
 11
47.66030300399114
 21
-29.781462649906118
 31
0.0
  0
LINE
  5
DF
330
17
100
AcDbEntity
  8
ENGRAVE_COMPASS
100
AcDbLine
 10
47.42094915014838
 20
-31.985834078526725
 30
0.0
 11
46.59191157759334
 21
-31.426641175055977
 31
0.0
  0
LINE
  5
E0
330
17
100
AcDbEntity
  8
ENGRAVE_COMPASS
100
AcDbLine
 10
46.275772078246995
 20
-33.621316431129465
 30
0.0
 11
45.46675508387205
 21
-33.033531178836995
 31
0.0
  0
LINE
  5
E1
330
17
100
AcDbEntity
  8
ENGRAVE_COMPASS
100
AcDbLine
 10
45.07421510630449
 20
-35.21583638862766
 30
0.0
 11
44.28620435269777
 21
-34.600174913302
 31
0.0
  0
LINE
  5
E2
330
17
100
AcDbEntity
  8
ENGRAVE_COMPASS
100
AcDbLine
 10
43.81774214640554
 20
-36.76745127407005
 30
0.0
 11
42.43886214879139
 21
-35.61043357663428
 31
0.0
  0
LINE
  5
E3
330
17
100
AcDbEntity
  8
ENGRAVE_COMPASS
100
AcDbLine
 10
42.50788401730695
 20
-38.27427068372669
 30
0.0
 11
41.764739191829555
 21
-37.605140077367835
 31
0.0
  0
LINE
  5
E4
330
17
100
AcDbEntity
  8
ENGRAVE_COMPASS
100
AcDbLine
 10
41.14623657937085
 20
-39.73445879025464
 30
0.0
 11
40.4268967790322
 21
-39.03980041979565
 31
0.0
  0
LINE
  5
E5
330
17
100
AcDbEntity
  8
ENGRAVE_COMPASS
100
AcDbLine
 10
39.73445879025464
 20
-41.14623657937084
 30
0.0
 11
39.03980041979565
 21
-40.42689677903219
 31
0.0
  0
LINE
  5
E6
330
17
100
AcDbEntity
  8
ENGRAVE_COMPASS
100
AcDbLine
 10
38.27427068372669
 20
-42.50788401730695
 30
0.0
 11
37.605140077367835
 21
-41.764739191829555
 31
0.0
  0
LINE
  5
E7
330
17
100
AcDbEntity
  8
ENGRAVE_COMPASS
100
AcDbLine
 10
36.767451274070055
 20
-43.81774214640554
 30
0.0
 11
35.610433576634286
 21
-42.43886214879139
 31
0.0
  0
LINE
  5
E8
330
17
100
AcDbEntity
  8
ENGRAVE_COMPASS
100
AcDbLine
 10
35.21583638862766
 20
-45.0742151063045
 30
0.0
 11
34.600174913302
 21
-44.28620435269778
 31
0.0
  0
LINE
  5
E9
330
17
100
AcDbEntity
  8
ENGRAVE_COMPASS
100
AcDbLine
 10
33.621316431129465
 20
-46.275772078246995
 30
0.0
 11
33.033531178836995
 21
-45.46675508387205
 31
0.0
  0
LINE
  5
EA
330
17
100
AcDbEntity
  8
ENGRAVE_COMPASS
100
AcDbLine
 10
31.985834078526718
 20
-47.42094915014839
 30
0.0
 11
31.42664117505597
 21
-46.59191157759335
 31
0.0
  0
LINE
  5
EB
330
17
100
AcDbEntity
  8
ENGRAVE_COMPASS
100
AcDbLine
 10
30.31138191413932
 20
-48.508351100147564
 30
0.0
 11
29.781462649906118
 21
-47.66030300399114
 31
0.0
  0
LINE
  5
EC
330
17
100
AcDbEntity
  8
ENGRAVE_COMPASS
100
AcDbLine
 10
28.60000000000001
 20
-49.53665309646989
 30
0.0
 11
27.70000000000001
 21
-47.9778073696579
 31
0.0
  0
TEXT
  5
ED
330
17
100
AcDbEntity
  8
ENGRAVE_TEXT
100
AcDbText
 10
26.65000000000001
 20
-46.15915402171058
 30
0.0
 40
3.4
  1
150°
 50
30.0
 72
1
 11
26.65000000000001
 21
-46.15915402171058
 31
0.0
100
AcDbText
 73
2
  0
LINE
  5
EE
330
17
100
AcDbEntity
  8
ENGRAVE_COMPASS
100
AcDbLine
 10
26.85377339135296
 20
-50.50460231153062
 30
0.0
 11
26.384301828567068
 21
-49.62165471867169
 31
0.0
  0
LINE
  5
EF
330
17
100
AcDbEntity
  8
ENGRAVE_COMPASS
100
AcDbLine
 10
25.07482959633523
 20
-51.41101944831236
 30
0.0
 11
24.636458449546154
 21
-50.51222540201319
 31
0.0
  0
LINE
  5
F0
330
17
100
AcDbEntity
  8
ENGRAVE_COMPASS
100
AcDbLine
 10
23.265335983935774
 20
-52.254800177156774
 30
0.0
 11
22.85859934085997
 21
-51.34125471951417
 31
0.0
  0
LINE
  5
F1
330
17
100
AcDbEntity
  8
ENGRAVE_COMPASS
100
AcDbLine
 10
21.427497143390166
 20
-53.03491648122024
 30
0.0
 11
21.052890549974254
 21
-52.10773262665346
 31
0.0
  0
LINE
  5
F2
330
17
100
AcDbEntity
  8
ENGRAVE_COMPASS
100
AcDbLine
 10
19.56355219822826
 20
-53.750417908953956
 30
0.0
 11
18.947915940242055
 21
-52.05897119153933
 31
0.0
  0
LINE
  5
F3
330
17
100
AcDbEntity
  8
ENGRAVE_COMPASS
100
AcDbLine
 10
17.675772078246997
 20
-54.400432732082784
 30
0.0
 11
17.366755083872047
 21
-53.44937621578763
 31
0.0
  0
LINE
  5
F4
330
17
100
AcDbEntity
  8
ENGRAVE_COMPASS
100
AcDbLine
 10
15.766456752732353
 20
-54.984169007671845
 30
0.0
 11
15.490819396915354
 21
-54.022907311733526
 31
0.0
  0
LINE
  5
F5
330
17
100
AcDbEntity
  8
ENGRAVE_COMPASS
100
AcDbLine
 10
13.837932428300991
 20
-55.500915542987
 30
0.0
 11
13.596010532701325
 21
-54.530619816711
 31
0.0
  0
LINE
  5
F6
330
17
100
AcDbEntity
  8
ENGRAVE_COMPASS
100
AcDbLine
 10
11.892548714775842
 20
-55.950042761973684
 30
0.0
 11
11.684637023958082
 21
-54.97189516123988
 31
0.0
  0
LINE
  5
F7
330
17
100
AcDbEntity
  8
ENGRAVE_COMPASS
100
AcDbLine
 10
9.93267576254842
 20
-56.3310034722983
 30
0.0
 11
9.620109042747947
 21
-54.558349516876326
 31
0.0
  0
LINE
  5
F8
330
17
100
AcDbEntity
  8
ENGRAVE_COMPASS
100
AcDbLine
 10
7.960701374915745
 20
-56.64333353201783
 30
0.0
 11
7.821528273955679
 21
-55.653065463276256
 31
0.0
  0
LINE
  5
F9
330
17
100
AcDbEntity
  8
ENGRAVE_COMPASS
100
AcDbLine
 10
5.979028098909778
 20
-56.886652415065235
 30
0.0
 11
5.874499635642125
 21
-55.89213051969696
 31
0.0
  0
LINE
  5
FA
330
17
100
AcDbEntity
  8
ENGRAVE_COMPASS
100
AcDbLine
 10
3.9900702981639635
 20
-57.06066367486195
 30
0.0
 11
3.9203138244198383
 21
-56.063099624602124
 31
0.0
  0
LINE
  5
FB
330
17
100
AcDbEntity
  8
ENGRAVE_COMPASS
100
AcDbLine
 10
1.996251211383062
 20
-57.16515530549228
 30
0.0
 11
1.9613517146805608
 21
-56.165764478473186
 31
0.0
  0
LINE
  5
FC
330
17
100
AcDbEntity
  8
ENGRAVE_COMPASS
100
AcDbLine
 10
3.5024898455614302e-15
 20
-57.2
 30
0.0
 11
3.392271633638169e-15
 21
-55.400000000000006
 31
0.0
  0
TEXT
  5
FD
330
17
100
AcDbEntity
  8
ENGRAVE_TEXT
100
AcDbText
 10
3.2636837197276966e-15
 20
-53.300000000000004
 30
0.0
 40
3.4
  1
180°
 72
1
 11
3.2636837197276966e-15
 21
-53.300000000000004
 31
0.0
100
AcDbText
 73
2
  0
LINE
  5
FE
330
17
100
AcDbEntity
  8
ENGRAVE_COMPASS
100
AcDbLine
 10
-1.9962512113830548
 20
-57.16515530549228
 30
0.0
 11
-1.9613517146805537
 21
-56.165764478473186
 31
0.0
  0
LINE
  5
FF
330
17
100
AcDbEntity
  8
ENGRAVE_COMPASS
100
AcDbLine
 10
-3.9900702981639693
 20
-57.06066367486195
 30
0.0
 11
-3.9203138244198437
 21
-56.063099624602124
 31
0.0
  0
LINE
  5
100
330
17
100
AcDbEntity
  8
ENGRAVE_COMPASS
100
AcDbLine
 10
-5.979028098909784
 20
-56.886652415065235
 30
0.0
 11
-5.87449963564213
 21
-55.89213051969696
 31
0.0
  0
LINE
  5
101
330
17
100
AcDbEntity
  8
ENGRAVE_COMPASS
100
AcDbLine
 10
-7.960701374915739
 20
-56.64333353201783
 30
0.0
 11
-7.821528273955673
 21
-55.653065463276256
 31
0.0
  0
LINE
  5
102
330
17
100
AcDbEntity
  8
ENGRAVE_COMPASS
100
AcDbLine
 10
-9.932675762548413
 20
-56.3310034722983
 30
0.0
 11
-9.62010904274794
 21
-54.558349516876326
 31
0.0
  0
LINE
  5
103
330
17
100
AcDbEntity
  8
ENGRAVE_COMPASS
100
AcDbLine
 10
-11.892548714775835
 20
-55.95004276197369
 30
0.0
 11
-11.684637023958075
 21
-54.971895161239885
 31
0.0
  0
LINE
  5
104
330
17
100
AcDbEntity
  8
ENGRAVE_COMPASS
100
AcDbLine
 10
-13.837932428300999
 20
-55.500915542987
 30
0.0
 11
-13.59601053270133
 21
-54.530619816711
 31
0.0
  0
LINE
  5
105
330
17
100
AcDbEntity
  8
ENGRAVE_COMPASS
100
AcDbLine
 10
-15.766456752732347
 20
-54.984169007671845
 30
0.0
 11
-15.490819396915347
 21
-54.022907311733526
 31
0.0
  0
LINE
  5
106
330
17
100
AcDbEntity
  8
ENGRAVE_COMPASS
100
AcDbLine
 10
-17.67577207824699
 20
-54.40043273208279
 30
0.0
 11
-17.366755083872043
 21
-53.44937621578764
 31
0.0
  0
LINE
  5
107
330
17
100
AcDbEntity
  8
ENGRAVE_COMPASS
100
AcDbLine
 10
-19.56355219822825
 20
-53.75041790895396
 30
0.0
 11
-18.947915940242048
 21
-52.058971191539335
 31
0.0
  0
LINE
  5
108
330
17
100
AcDbEntity
  8
ENGRAVE_COMPASS
100
AcDbLine
 10
-21.42749714339017
 20
-53.03491648122024
 30
0.0
 11
-21.052890549974258
 21
-52.10773262665346
 31
0.0
  0
LINE
  5
109
330
17
100
AcDbEntity
  8
ENGRAVE_COMPASS
100
AcDbLine
 10
-23.265335983935778
 20
-52.254800177156774
 30
0.0
 11
-22.858599340859975
 21
-51.34125471951417
 31
0.0
  0
LINE
  5
10A
330
17
100
AcDbEntity
  8
ENGRAVE_COMPASS
100
AcDbLine
 10
-25.074829596335235
 20
-51.41101944831235
 30
0.0
 11
-24.636458449546158
 21
-50.512225402013186
 31
0.0
  0
LINE
  5
10B
330
17
100
AcDbEntity
  8
ENGRAVE_COMPASS
100
AcDbLine
 10
-26.853773391352963
 20
-50.50460231153062
 30
0.0
 11
-26.38430182856707
 21
-49.62165471867169
 31
0.0
  0
LINE
  5
10C
330
17
100
AcDbEntity
  8
ENGRAVE_COMPASS
100
AcDbLine
 10
-28.599999999999987
 20
-49.5366530964699
 30
0.0
 11
-27.699999999999992
 21
-47.97780736965791
 31
0.0
  0
TEXT
  5
10D
330
17
100
AcDbEntity
  8
ENGRAVE_TEXT
100
AcDbText
 10
-26.64999999999999
 20
-46.159154021710584
 30
0.0
 40
3.4
  1
210°
 50
-30.0
 72
1
 11
-26.64999999999999
 21
-46.159154021710584
 31
0.0
100
AcDbText
 73
2
  0
LINE
  5
10E
330
17
100
AcDbEntity
  8
ENGRAVE_COMPASS
100
AcDbLine
 10
-30.311381914139314
 20
-48.50835110014757
 30
0.0
 11
-29.78146264990611
 21
-47.660303003991146
 31
0.0
  0
LINE
  5
10F
330
17
100
AcDbEntity
  8
ENGRAVE_COMPASS
100
AcDbLine
 10
-31.98583407852671
 20
-47.42094915014839
 30
0.0
 11
-31.426641175055966
 21
-46.59191157759335
 31
0.0
  0
LINE
  5
110
330
17
100
AcDbEntity
  8
ENGRAVE_COMPASS
100
AcDbLine
 10
-33.62131643112946
 20
-46.275772078246995
 30
0.0
 11
-33.03353117883699
 21
-45.46675508387205
 31
0.0
  0
LINE
  5
111
330
17
100
AcDbEntity
  8
ENGRAVE_COMPASS
100
AcDbLine
 10
-35.21583638862766
 20
-45.0742151063045
 30
0.0
 11
-34.600174913302
 21
-44.28620435269778
 31
0.0
  0
LINE
  5
112
330
17
100
AcDbEntity
  8
ENGRAVE_COMPASS
100
AcDbLine
 10
-36.767451274070055
 20
-43.81774214640554
 30
0.0
 11
-35.610433576634286
 21
-42.43886214879139
 31
0.0
  0
LINE
  5
113
330
17
100
AcDbEntity
  8
ENGRAVE_COMPASS
100
AcDbLine
 10
-38.27427068372669
 20
-42.50788401730695
 30
0.0
 11
-37.605140077367835
 21
-41.764739191829555
 31
0.0
  0
LINE
  5
114
330
17
100
AcDbEntity
  8
ENGRAVE_COMPASS
100
AcDbLine
 10
-39.73445879025465
 20
-41.14623657937084
 30
0.0
 11
-39.039800419795654
 21
-40.42689677903219
 31
0.0
  0
LINE
  5
115
330
17
100
AcDbEntity
  8
ENGRAVE_COMPASS
100
AcDbLine
 10
-41.14623657937085
 20
-39.734458790254635
 30
0.0
 11
-40.4268967790322
 21
-39.03980041979564
 31
0.0
  0
LINE
  5
116
330
17
100
AcDbEntity
  8
ENGRAVE_COMPASS
100
AcDbLine
 10
-42.50788401730694
 20
-38.2742706837267
 30
0.0
 11
-41.76473919182955
 21
-37.60514007736784
 31
0.0
  0
LINE
  5
117
330
17
100
AcDbEntity
  8
ENGRAVE_COMPASS
100
AcDbLine
 10
-43.817742146405536
 20
-36.76745127407006
 30
0.0
 11
-42.43886214879138
 21
-35.61043357663429
 31
0.0
  0
LINE
  5
118
330
17
100
AcDbEntity
  8
ENGRAVE_COMPASS
100
AcDbLine
 10
-45.07421510630449
 20
-35.215836388627665
 30
0.0
 11
-44.28620435269777
 21
-34.600174913302006
 31
0.0
  0
LINE
  5
119
330
17
100
AcDbEntity
  8
ENGRAVE_COMPASS
100
AcDbLine
 10
-46.27577207824699
 20
-33.62131643112947
 30
0.0
 11
-45.466755083872044
 21
-33.033531178836995
 31
0.0
  0
LINE
  5
11A
330
17
100
AcDbEntity
  8
ENGRAVE_COMPASS
100
AcDbLine
 10
-47.42094915014838
 20
-31.985834078526725
 30
0.0
 11
-46.59191157759334
 21
-31.426641175055977
 31
0.0
  0
LINE
  5
11B
330
17
100
AcDbEntity
  8
ENGRAVE_COMPASS
100
AcDbLine
 10
-48.508351100147564
 20
-30.31138191413932
 30
0.0
 11
-47.66030300399114
 21
-29.781462649906118
 31
0.0
  0
LINE
  5
11C
330
17
100
AcDbEntity
  8
ENGRAVE_COMPASS
100
AcDbLine
 10
-49.5366530964699
 20
-28.599999999999998
 30
0.0
 11
-47.97780736965791
 21
-27.7
 31
0.0
  0
TEXT
  5
11D
330
17
100
AcDbEntity
  8
ENGRAVE_TEXT
100
AcDbText
 10
-46.159154021710584
 20
-26.65
 30
0.0
 40
3.4
  1
240°
 50
-60.0
 72
1
 11
-46.159154021710584
 21
-26.65
 31
0.0
100
AcDbText
 73
2
  0
LINE
  5
11E
330
17
100
AcDbEntity
  8
ENGRAVE_COMPASS
100
AcDbLine
 10
-50.504602311530626
 20
-26.85377339135295
 30
0.0
 11
-49.6216547186717
 21
-26.384301828567057
 31
0.0
  0
LINE
  5
11F
330
17
100
AcDbEntity
  8
ENGRAVE_COMPASS
100
AcDbLine
 10
-51.41101944831236
 20
-25.074829596335224
 30
0.0
 11
-50.51222540201319
 21
-24.636458449546144
 31
0.0
  0
LINE
  5
120
330
17
100
AcDbEntity
  8
ENGRAVE_COMPASS
100
AcDbLine
 10
-52.25480017715677
 20
-23.265335983935785
 30
0.0
 11
-51.34125471951417
 21
-22.858599340859985
 31
0.0
  0
LINE
  5
121
330
17
100
AcDbEntity
  8
ENGRAVE_COMPASS
100
AcDbLine
 10
-53.034916481220236
 20
-21.42749714339018
 30
0.0
 11
-52.10773262665345
 21
-21.05289054997427
 31
0.0
  0
LINE
  5
122
330
17
100
AcDbEntity
  8
ENGRAVE_COMPASS
100
AcDbLine
 10
-53.750417908953956
 20
-19.563552198228262
 30
0.0
 11
-52.05897119153933
 21
-18.94791594024206
 31
0.0
  0
LINE
  5
123
330
17
100
AcDbEntity
  8
ENGRAVE_COMPASS
100
AcDbLine
 10
-54.400432732082784
 20
-17.675772078246997
 30
0.0
 11
-53.44937621578763
 21
-17.36675508387205
 31
0.0
  0
LINE
  5
124
330
17
100
AcDbEntity
  8
ENGRAVE_COMPASS
100
AcDbLine
 10
-54.984169007671845
 20
-15.766456752732356
 30
0.0
 11
-54.022907311733526
 21
-15.490819396915358
 31
0.0
  0
LINE
  5
125
330
17
100
AcDbEntity
  8
ENGRAVE_COMPASS
100
AcDbLine
 10
-55.500915542987
 20
-13.837932428300995
 30
0.0
 11
-54.530619816711
 21
-13.596010532701326
 31
0.0
  0
LINE
  5
126
330
17
100
AcDbEntity
  8
ENGRAVE_COMPASS
100
AcDbLine
 10
-55.95004276197369
 20
-11.892548714775833
 30
0.0
 11
-54.971895161239885
 21
-11.684637023958073
 31
0.0
  0
LINE
  5
127
330
17
100
AcDbEntity
  8
ENGRAVE_COMPASS
100
AcDbLine
 10
-56.3310034722983
 20
-9.932675762548412
 30
0.0
 11
-54.558349516876326
 21
-9.620109042747938
 31
0.0
  0
LINE
  5
128
330
17
100
AcDbEntity
  8
ENGRAVE_COMPASS
100
AcDbLine
 10
-56.64333353201783
 20
-7.960701374915737
 30
0.0
 11
-55.653065463276256
 21
-7.821528273955672
 31
0.0
  0
LINE
  5
129
330
17
100
AcDbEntity
  8
ENGRAVE_COMPASS
100
AcDbLine
 10
-56.886652415065235
 20
-5.979028098909794
 30
0.0
 11
-55.89213051969696
 21
-5.87449963564214
 31
0.0
  0
LINE
  5
12A
330
17
100
AcDbEntity
  8
ENGRAVE_COMPASS
100
AcDbLine
 10
-57.06066367486195
 20
-3.9900702981639804
 30
0.0
 11
-56.063099624602124
 21
-3.9203138244198548
 31
0.0
  0
LINE
  5
12B
330
17
100
AcDbEntity
  8
ENGRAVE_COMPASS
100
AcDbLine
 10
-57.16515530549228
 20
-1.9962512113830655
 30
0.0
 11
-56.165764478473186
 21
-1.9613517146805644
 31
0.0
  0
LINE
  5
12C
330
17
100
AcDbEntity
  8
ENGRAVE_COMPASS
100
AcDbLine
 10
-57.2
 20
-7.0049796911228604e-15
 30
0.0
 11
-55.400000000000006
 21
-6.784543267276338e-15
 31
0.0
  0
TEXT
  5
12D
330
17
100
AcDbEntity
  8
ENGRAVE_TEXT
100
AcDbText
 10
-53.300000000000004
 20
-6.527367439455393e-15
 30
0.0
 40
3.4
  1
270°
 50
-270.0
 72
1
 11
-53.300000000000004
 21
-6.527367439455393e-15
 31
0.0
100
AcDbText
 73
2
  0
LINE
  5
12E
330
17
100
AcDbEntity
  8
ENGRAVE_COMPASS
100
AcDbLine
 10
-57.16515530549228
 20
1.9962512113830515
 30
0.0
 11
-56.165764478473186
 21
1.9613517146805506
 31
0.0
  0
LINE
  5
12F
330
17
100
AcDbEntity
  8
ENGRAVE_COMPASS
100
AcDbLine
 10
-57.06066367486195
 20
3.9900702981639657
 30
0.0
 11
-56.063099624602124
 21
3.9203138244198406
 31
0.0
  0
LINE
  5
130
330
17
100
AcDbEntity
  8
ENGRAVE_COMPASS
100
AcDbLine
 10
-56.886652415065235
 20
5.97902809890978
 30
0.0
 11
-55.89213051969696
 21
5.874499635642127
 31
0.0
  0
LINE
  5
131
330
17
100
AcDbEntity
  8
ENGRAVE_COMPASS
100
AcDbLine
 10
-56.64333353201782
 20
7.9607013749157485
 30
0.0
 11
-55.65306546327625
 21
7.821528273955683
 31
0.0
  0
LINE
  5
132
330
17
100
AcDbEntity
  8
ENGRAVE_COMPASS
100
AcDbLine
 10
-56.3310034722983
 20
9.932675762548424
 30
0.0
 11
-54.558349516876326
 21
9.620109042747949
 31
0.0
  0
LINE
  5
133
330
17
100
AcDbEntity
  8
ENGRAVE_COMPASS
100
AcDbLine
 10
-55.950042761973684
 20
11.892548714775845
 30
0.0
 11
-54.97189516123988
 21
11.684637023958086
 31
0.0
  0
LINE
  5
134
330
17
100
AcDbEntity
  8
ENGRAVE_COMPASS
100
AcDbLine
 10
-55.500915542987
 20
13.837932428300983
 30
0.0
 11
-54.530619816711
 21
13.596010532701314
 31
0.0
  0
LINE
  5
135
330
17
100
AcDbEntity
  8
ENGRAVE_COMPASS
100
AcDbLine
 10
-54.984169007671845
 20
15.766456752732344
 30
0.0
 11
-54.022907311733526
 21
15.490819396915345
 31
0.0
  0
LINE
  5
136
330
17
100
AcDbEntity
  8
ENGRAVE_COMPASS
100
AcDbLine
 10
-54.40043273208279
 20
17.675772078246986
 30
0.0
 11
-53.44937621578764
 21
17.36675508387204
 31
0.0
  0
LINE
  5
137
330
17
100
AcDbEntity
  8
ENGRAVE_COMPASS
100
AcDbLine
 10
-53.75041790895396
 20
19.563552198228248
 30
0.0
 11
-52.058971191539335
 21
18.947915940242044
 31
0.0
  0
LINE
  5
138
330
17
100
AcDbEntity
  8
ENGRAVE_COMPASS
100
AcDbLine
 10
-53.03491648122024
 20
21.42749714339017
 30
0.0
 11
-52.10773262665346
 21
21.052890549974258
 31
0.0
  0
LINE
  5
139
330
17
100
AcDbEntity
  8
ENGRAVE_COMPASS
100
AcDbLine
 10
-52.254800177156774
 20
23.265335983935774
 30
0.0
 11
-51.34125471951417
 21
22.85859934085997
 31
0.0
  0
LINE
  5
13A
330
17
100
AcDbEntity
  8
ENGRAVE_COMPASS
100
AcDbLine
 10
-51.41101944831235
 20
25.07482959633523
 30
0.0
 11
-50.512225402013186
 21
24.636458449546154
 31
0.0
  0
LINE
  5
13B
330
17
100
AcDbEntity
  8
ENGRAVE_COMPASS
100
AcDbLine
 10
-50.50460231153062
 20
26.85377339135296
 30
0.0
 11
-49.62165471867169
 21
26.384301828567068
 31
0.0
  0
LINE
  5
13C
330
17
100
AcDbEntity
  8
ENGRAVE_COMPASS
100
AcDbLine
 10
-49.53665309646989
 20
28.60000000000001
 30
0.0
 11
-47.9778073696579
 21
27.70000000000001
 31
0.0
  0
TEXT
  5
13D
330
17
100
AcDbEntity
  8
ENGRAVE_TEXT
100
AcDbText
 10
-46.15915402171058
 20
26.65000000000001
 30
0.0
 40
3.4
  1
300°
 50
-300.0
 72
1
 11
-46.15915402171058
 21
26.65000000000001
 31
0.0
100
AcDbText
 73
2
  0
LINE
  5
13E
330
17
100
AcDbEntity
  8
ENGRAVE_COMPASS
100
AcDbLine
 10
-48.50835110014757
 20
30.311381914139314
 30
0.0
 11
-47.660303003991146
 21
29.78146264990611
 31
0.0
  0
LINE
  5
13F
330
17
100
AcDbEntity
  8
ENGRAVE_COMPASS
100
AcDbLine
 10
-47.420949150148395
 20
31.98583407852671
 30
0.0
 11
-46.59191157759336
 21
31.426641175055966
 31
0.0
  0
LINE
  5
140
330
17
100
AcDbEntity
  8
ENGRAVE_COMPASS
100
AcDbLine
 10
-46.275772078247
 20
33.62131643112946
 30
0.0
 11
-45.46675508387206
 21
33.03353117883699
 31
0.0
  0
LINE
  5
141
330
17
100
AcDbEntity
  8
ENGRAVE_COMPASS
100
AcDbLine
 10
-45.0742151063045
 20
35.21583638862765
 30
0.0
 11
-44.28620435269778
 21
34.60017491330199
 31
0.0
  0
LINE
  5
142
330
17
100
AcDbEntity
  8
ENGRAVE_COMPASS
100
AcDbLine
 10
-43.81774214640554
 20
36.76745127407005
 30
0.0
 11
-42.43886214879139
 21
35.61043357663428
 31
0.0
  0
LINE
  5
143
330
17
100
AcDbEntity
  8
ENGRAVE_COMPASS
100
AcDbLine
 10
-42.50788401730695
 20
38.27427068372669
 30
0.0
 11
-41.764739191829555
 21
37.605140077367835
 31
0.0
  0
LINE
  5
144
330
17
100
AcDbEntity
  8
ENGRAVE_COMPASS
100
AcDbLine
 10
-41.14623657937084
 20
39.73445879025465
 30
0.0
 11
-40.42689677903219
 21
39.039800419795654
 31
0.0
  0
LINE
  5
145
330
17
100
AcDbEntity
  8
ENGRAVE_COMPASS
100
AcDbLine
 10
-39.73445879025464
 20
41.14623657937085
 30
0.0
 11
-39.03980041979565
 21
40.4268967790322
 31
0.0
  0
LINE
  5
146
330
17
100
AcDbEntity
  8
ENGRAVE_COMPASS
100
AcDbLine
 10
-38.274270683726684
 20
42.50788401730696
 30
0.0
 11
-37.60514007736783
 21
41.76473919182956
 31
0.0
  0
LINE
  5
147
330
17
100
AcDbEntity
  8
ENGRAVE_COMPASS
100
AcDbLine
 10
-36.76745127407006
 20
43.817742146405536
 30
0.0
 11
-35.61043357663429
 21
42.43886214879138
 31
0.0
  0
LINE
  5
148
330
17
100
AcDbEntity
  8
ENGRAVE_COMPASS
100
AcDbLine
 10
-35.21583638862764
 20
45.07421510630451
 30
0.0
 11
-34.600174913301984
 21
44.28620435269779
 31
0.0
  0
LINE
  5
149
330
17
100
AcDbEntity
  8
ENGRAVE_COMPASS
100
AcDbLine
 10
-33.62131643112947
 20
46.27577207824699
 30
0.0
 11
-33.033531178836995
 21
45.466755083872044
 31
0.0
  0
LINE
  5
14A
330
17
100
AcDbEntity
  8
ENGRAVE_COMPASS
100
AcDbLine
 10
-31.985834078526704
 20
47.420949150148395
 30
0.0
 11
-31.42664117505596
 21
46.59191157759336
 31
0.0
  0
LINE
  5
14B
330
17
100
AcDbEntity
  8
ENGRAVE_COMPASS
100
AcDbLine
 10
-30.31138191413933
 20
48.508351100147564
 30
0.0
 11
-29.781462649906125
 21
47.66030300399114
 31
0.0
  0
LINE
  5
14C
330
17
100
AcDbEntity
  8
ENGRAVE_COMPASS
100
AcDbLine
 10
-28.600000000000026
 20
49.53665309646988
 30
0.0
 11
-27.700000000000028
 21
47.97780736965789
 31
0.0
  0
TEXT
  5
14D
330
17
100
AcDbEntity
  8
ENGRAVE_TEXT
100
AcDbText
 10
-26.650000000000027
 20
46.15915402171057
 30
0.0
 40
3.4
  1
330°
 50
-330.0
 72
1
 11
-26.650000000000027
 21
46.15915402171057
 31
0.0
100
AcDbText
 73
2
  0
LINE
  5
14E
330
17
100
AcDbEntity
  8
ENGRAVE_COMPASS
100
AcDbLine
 10
-26.853773391352952
 20
50.504602311530626
 30
0.0
 11
-26.38430182856706
 21
49.6216547186717
 31
0.0
  0
LINE
  5
14F
330
17
100
AcDbEntity
  8
ENGRAVE_COMPASS
100
AcDbLine
 10
-25.07482959633525
 20
51.411019448312345
 30
0.0
 11
-24.63645844954617
 21
50.51222540201318
 31
0.0
  0
LINE
  5
150
330
17
100
AcDbEntity
  8
ENGRAVE_COMPASS
100
AcDbLine
 10
-23.265335983935767
 20
52.25480017715678
 30
0.0
 11
-22.858599340859968
 21
51.341254719514176
 31
0.0
  0
LINE
  5
151
330
17
100
AcDbEntity
  8
ENGRAVE_COMPASS
100
AcDbLine
 10
-21.427497143390184
 20
53.034916481220236
 30
0.0
 11
-21.052890549974272
 21
52.10773262665345
 31
0.0
  0
LINE
  5
152
330
17
100
AcDbEntity
  8
ENGRAVE_COMPASS
100
AcDbLine
 10
-19.56355219822824
 20
53.75041790895396
 30
0.0
 11
-18.94791594024204
 21
52.058971191539335
 31
0.0
  0
LINE
  5
153
330
17
100
AcDbEntity
  8
ENGRAVE_COMPASS
100
AcDbLine
 10
-17.675772078247
 20
54.400432732082784
 30
0.0
 11
-17.366755083872054
 21
53.44937621578763
 31
0.0
  0
LINE
  5
154
330
17
100
AcDbEntity
  8
ENGRAVE_COMPASS
100
AcDbLine
 10
-15.766456752732337
 20
54.98416900767185
 30
0.0
 11
-15.490819396915338
 21
54.02290731173353
 31
0.0
  0
LINE
  5
155
330
17
100
AcDbEntity
  8
ENGRAVE_COMPASS
100
AcDbLine
 10
-13.837932428300999
 20
55.500915542987
 30
0.0
 11
-13.59601053270133
 21
54.530619816711
 31
0.0
  0
LINE
  5
156
330
17
100
AcDbEntity
  8
ENGRAVE_COMPASS
100
AcDbLine
 10
-11.89254871477586
 20
55.950042761973684
 30
0.0
 11
-11.6846370239581
 21
54.97189516123988
 31
0.0
  0
LINE
  5
157
330
17
100
AcDbEntity
  8
ENGRAVE_COMPASS
100
AcDbLine
 10
-9.932675762548415
 20
56.3310034722983
 30
0.0
 11
-9.620109042747941
 21
54.558349516876326
 31
0.0
  0
LINE
  5
158
330
17
100
AcDbEntity
  8
ENGRAVE_COMPASS
100
AcDbLine
 10
-7.960701374915765
 20
56.64333353201782
 30
0.0
 11
-7.8215282739557
 21
55.65306546327625
 31
0.0
  0
LINE
  5
159
330
17
100
AcDbEntity
  8
ENGRAVE_COMPASS
100
AcDbLine
 10
-5.979028098909772
 20
56.88665241506524
 30
0.0
 11
-5.8744996356421195
 21
55.89213051969697
 31
0.0
  0
LINE
  5
15A
330
17
100
AcDbEntity
  8
ENGRAVE_COMPASS
100
AcDbLine
 10
-3.9900702981639835
 20
57.06066367486195
 30
0.0
 11
-3.920313824419858
 21
56.063099624602124
 31
0.0
  0
LINE
  5
15B
330
17
100
AcDbEntity
  8
ENGRAVE_COMPASS
100
AcDbLine
 10
-1.9962512113830437
 20
57.16515530549228
 30
0.0
 11
-1.9613517146805428
 21
56.165764478473186
 31
0.0
  0
CIRCLE
  5
15C
330
17
100
AcDbEntity
  8
ENGRAVE_AWA
100
AcDbCircle
 10
0.0
 20
0.0
 30
0.0
 40
47.9
  0
LINE
  5
15D
330
17
100
AcDbEntity
  8
ENGRAVE_AWA
100
AcDbLine
 10
0.0
 20
47.9
 30
0.0
 11
0.0
 21
49.699999999999996
 31
0.0
  0
TEXT
  5
15E
330
17
100
AcDbEntity
  8
ENGRAVE_TEXT
100
AcDbText
 10
0.0
 20
51.6
 30
0.0
 40
3.2
  1
0°
 72
1
 11
0.0
 21
51.6
 31
0.0
100
AcDbText
 73
2
  0
LINE
  5
15F
330
17
100
AcDbEntity
  8
ENGRAVE_AWA
100
AcDbLine
 10
3.029810304086397
 20
47.80408193367227
 30
0.0
 11
3.064709800788898
 21
48.80347276069137
 31
0.0
  0
LINE
  5
160
330
17
100
AcDbEntity
  8
ENGRAVE_AWA
100
AcDbLine
 10
-3.029810304086397
 20
47.80408193367227
 30
0.0
 11
-3.064709800788898
 21
48.80347276069137
 31
0.0
  0
LINE
  5
161
330
17
100
AcDbEntity
  8
ENGRAVE_AWA
100
AcDbLine
 10
6.046929183492428
 20
47.51678279776343
 30
0.0
 11
6.1166856572365536
 21
48.51434684802326
 31
0.0
  0
LINE
  5
162
330
17
100
AcDbEntity
  8
ENGRAVE_AWA
100
AcDbLine
 10
-6.046929183492428
 20
47.51678279776343
 30
0.0
 11
-6.1166856572365536
 21
48.51434684802326
 31
0.0
  0
LINE
  5
163
330
17
100
AcDbEntity
  8
ENGRAVE_AWA
100
AcDbLine
 10
9.038732873661646
 20
47.039465431046175
 30
0.0
 11
9.1432613369293
 21
48.03398732641445
 31
0.0
  0
LINE
  5
164
330
17
100
AcDbEntity
  8
ENGRAVE_AWA
100
AcDbLine
 10
-9.038732873661646
 20
47.039465431046175
 30
0.0
 11
-9.1432613369293
 21
48.03398732641445
 31
0.0
  0
LINE
  5
165
330
17
100
AcDbEntity
  8
ENGRAVE_AWA
100
AcDbLine
 10
11.992732643333156
 20
46.374393405688146
 30
0.0
 11
12.13190574429322
 21
47.36466147442972
 31
0.0
  0
LINE
  5
166
330
17
100
AcDbEntity
  8
ENGRAVE_AWA
100
AcDbLine
 10
-11.992732643333156
 20
46.374393405688146
 30
0.0
 11
-12.13190574429322
 21
47.36466147442972
 31
0.0
  0
LINE
  5
167
330
17
100
AcDbEntity
  8
ENGRAVE_AWA
100
AcDbLine
 10
14.896641595421292
 20
45.5247193201404
 30
0.0
 11
15.209208315221765
 21
47.29737327556237
 31
0.0
  0
LINE
  5
168
330
17
100
AcDbEntity
  8
ENGRAVE_AWA
100
AcDbLine
 10
-14.896641595421292
 20
45.5247193201404
 30
0.0
 11
-15.209208315221765
 21
47.29737327556237
 31
0.0
  0
LINE
  5
169
330
17
100
AcDbEntity
  8
ENGRAVE_AWA
100
AcDbLine
 10
17.738440613463858
 20
44.49446847196419
 30
0.0
 11
17.946352304281618
 21
45.472616072697996
 31
0.0
  0
LINE
  5
16A
330
17
100
AcDbEntity
  8
ENGRAVE_AWA
100
AcDbLine
 10
-17.738440613463858
 20
44.49446847196419
 30
0.0
 11
-17.946352304281618
 21
45.472616072697996
 31
0.0
  0
LINE
  5
16B
330
17
100
AcDbEntity
  8
ENGRAVE_AWA
100
AcDbLine
 10
20.506443176235997
 20
43.28851797255023
 30
0.0
 11
20.748365071835664
 21
44.25881369882623
 31
0.0
  0
LINE
  5
16C
330
17
100
AcDbEntity
  8
ENGRAVE_AWA
100
AcDbLine
 10
-20.506443176235997
 20
43.28851797255023
 30
0.0
 11
-20.748365071835664
 21
44.25881369882623
 31
0.0
  0
LINE
  5
16D
330
17
100
AcDbEntity
  8
ENGRAVE_AWA
100
AcDbLine
 10
23.189358769318755
 20
41.91257138219773
 30
0.0
 11
23.464996125135755
 21
42.87383307813605
 31
0.0
  0
LINE
  5
16E
330
17
100
AcDbEntity
  8
ENGRAVE_AWA
100
AcDbLine
 10
-23.189358769318755
 20
41.91257138219773
 30
0.0
 11
-23.464996125135755
 21
42.87383307813605
 31
0.0
  0
LINE
  5
16F
330
17
100
AcDbEntity
  8
ENGRAVE_AWA
100
AcDbLine
 10
25.776354629943764
 20
40.373128959635714
 30
0.0
 11
26.08537162431871
 21
41.32418547593087
 31
0.0
  0
LINE
  5
170
330
17
100
AcDbEntity
  8
ENGRAVE_AWA
100
AcDbLine
 10
-25.776354629943764
 20
40.373128959635714
 30
0.0
 11
-26.08537162431871
 21
41.32418547593087
 31
0.0
  0
LINE
  5
171
330
17
100
AcDbEntity
  8
ENGRAVE_AWA
100
AcDbLine
 10
28.257115570152266
 20
38.67745363457964
 30
0.0
 11
28.87275182813847
 21
40.36890035199428
 31
0.0
  0
LINE
  5
172
330
17
100
AcDbEntity
  8
ENGRAVE_AWA
100
AcDbLine
 10
-28.257115570152266
 20
38.67745363457964
 30
0.0
 11
-28.87275182813847
 21
40.36890035199428
 31
0.0
  0
TEXT
  5
173
330
17
100
AcDbEntity
  8
ENGRAVE_TEXT
100
AcDbText
 10
29.52259010045724
 20
42.1543163314875
 30
0.0
 40
3.2
  1
20°
 50
-20.0
 72
1
 11
29.52259010045724
 21
42.1543163314875
 31
0.0
100
AcDbText
 73
2
  0
TEXT
  5
174
330
17
100
AcDbEntity
  8
ENGRAVE_TEXT
100
AcDbText
 10
-29.52259010045724
 20
42.1543163314875
 30
0.0
 40
3.2
  1
20°
 50
20.0
 72
1
 11
-29.52259010045724
 21
42.1543163314875
 31
0.0
100
AcDbText
 73
2
  0
LINE
  5
175
330
17
100
AcDbEntity
  8
ENGRAVE_AWA
100
AcDbLine
 10
30.621901633001112
 20
36.83353282511472
 30
0.0
 11
30.996508226417024
 21
37.76071667968151
 31
0.0
  0
LINE
  5
176
330
17
100
AcDbEntity
  8
ENGRAVE_AWA
100
AcDbLine
 10
-30.621901633001112
 20
36.83353282511472
 30
0.0
 11
-30.996508226417024
 21
37.76071667968151
 31
0.0
  0
LINE
  5
177
330
17
100
AcDbEntity
  8
ENGRAVE_AWA
100
AcDbLine
 10
32.86160334695227
 20
34.85003623337534
 30
0.0
 11
33.268339990028075
 21
35.76358169101794
 31
0.0
  0
LINE
  5
178
330
17
100
AcDbEntity
  8
ENGRAVE_AWA
100
AcDbLine
 10
-32.86160334695227
 20
34.85003623337534
 30
0.0
 11
-33.268339990028075
 21
35.76358169101794
 31
0.0
  0
LINE
  5
179
330
17
100
AcDbEntity
  8
ENGRAVE_AWA
100
AcDbLine
 10
34.96779435434785
 20
32.7362697629409
 30
0.0
 11
35.40616550113693
 21
33.635063809240066
 31
0.0
  0
LINE
  5
17A
330
17
100
AcDbEntity
  8
ENGRAVE_AWA
100
AcDbLine
 10
-34.96779435434785
 20
32.7362697629409
 30
0.0
 11
-35.40616550113693
 21
33.635063809240066
 31
0.0
  0
LINE
  5
17B
330
17
100
AcDbEntity
  8
ENGRAVE_AWA
100
AcDbLine
 10
36.93278120055574
 20
30.502125709397326
 30
0.0
 11
37.40225276334163
 21
31.385073302256252
 31
0.0
  0
LINE
  5
17C
330
17
100
AcDbEntity
  8
ENGRAVE_AWA
100
AcDbLine
 10
-36.93278120055574
 20
30.502125709397326
 30
0.0
 11
-37.40225276334163
 21
31.385073302256252
 31
0.0
  0
LINE
  5
17D
330
17
100
AcDbEntity
  8
ENGRAVE_AWA
100
AcDbLine
 10
38.7496500804046
 20
28.15802938144288
 30
0.0
 11
39.6496500804046
 21
29.716875108254868
 31
0.0
  0
LINE
  5
17E
330
17
100
AcDbEntity
  8
ENGRAVE_AWA
100
AcDbLine
 10
-38.7496500804046
 20
28.15802938144288
 30
0.0
 11
-39.6496500804046
 21
29.716875108254868
 31
0.0
  0
LINE
  5
17F
330
17
100
AcDbEntity
  8
ENGRAVE_AWA
100
AcDbLine
 10
40.41231034719133
 20
25.71488231359988
 30
0.0
 11
40.94222961142454
 21
26.562930409756305
 31
0.0
  0
LINE
  5
180
330
17
100
AcDbEntity
  8
ENGRAVE_AWA
100
AcDbLine
 10
-40.41231034719133
 20
25.71488231359988
 30
0.0
 11
-40.94222961142454
 21
26.562930409756305
 31
0.0
  0
LINE
  5
181
330
17
100
AcDbEntity
  8
ENGRAVE_AWA
100
AcDbLine
 10
41.915534595933444
 20
23.18400223294301
 30
0.0
 11
42.47472749940419
 21
24.01303980549805
 31
0.0
  0
LINE
  5
182
330
17
100
AcDbEntity
  8
ENGRAVE_AWA
100
AcDbLine
 10
-41.915534595933444
 20
23.18400223294301
 30
0.0
 11
-42.47472749940419
 21
24.01303980549805
 31
0.0
  0
LINE
  5
183
330
17
100
AcDbEntity
  8
ENGRAVE_AWA
100
AcDbLine
 10
43.25499513551811
 20
20.577059941262355
 30
0.0
 11
43.84278038781058
 21
21.386076935637302
 31
0.0
  0
LINE
  5
184
330
17
100
AcDbEntity
  8
ENGRAVE_AWA
100
AcDbLine
 10
-43.25499513551811
 20
20.577059941262355
 30
0.0
 11
-43.84278038781058
 21
21.386076935637302
 31
0.0
  0
LINE
  5
185
330
17
100
AcDbEntity
  8
ENGRAVE_AWA
100
AcDbLine
 10
44.42729666256237
 20
17.906013270872855
 30
0.0
 11
45.04295813788803
 21
18.694024024479578
 31
0.0
  0
LINE
  5
186
330
17
100
AcDbEntity
  8
ENGRAVE_AWA
100
AcDbLine
 10
-44.42729666256237
 20
17.906013270872855
 30
0.0
 11
-45.04295813788803
 21
18.694024024479578
 31
0.0
  0
LINE
  5
187
330
17
100
AcDbEntity
  8
ENGRAVE_AWA
100
AcDbLine
 10
45.43000494142002
 20
15.183038267176691
 30
0.0
 11
46.58702263885579
 21
16.56191826479085
 31
0.0
  0
LINE
  5
188
330
17
100
AcDbEntity
  8
ENGRAVE_AWA
100
AcDbLine
 10
-45.43000494142002
 20
15.183038267176691
 30
0.0
 11
-46.58702263885579
 21
16.56191826479085
 31
0.0
  0
TEXT
  5
189
330
17
100
AcDbEntity
  8
ENGRAVE_TEXT
100
AcDbText
 10
47.80831909726022
 20
18.01740270671691
 30
0.0
 40
3.2
  1
40°
 50
-40.0
 72
1
 11
47.80831909726022
 21
18.01740270671691
 31
0.0
100
AcDbText
 73
2
  0
TEXT
  5
18A
330
17
100
AcDbEntity
  8
ENGRAVE_TEXT
100
AcDbText
 10
-47.80831909726022
 20
18.01740270671691
 30
0.0
 40
3.2
  1
40°
 50
40.0
 72
1
 11
-47.80831909726022
 21
18.01740270671691
 31
0.0
100
AcDbText
 73
2
  0
LINE
  5
18B
330
17
100
AcDbEntity
  8
ENGRAVE_AWA
100
AcDbLine
 10
46.26167127777301
 20
12.420457744675588
 30
0.0
 11
46.93080188413187
 21
13.163602570152982
 31
0.0
  0
LINE
  5
18C
330
17
100
AcDbEntity
  8
ENGRAVE_AWA
100
AcDbLine
 10
-46.26167127777301
 20
12.420457744675588
 30
0.0
 11
-46.93080188413187
 21
13.163602570152982
 31
0.0
  0
LINE
  5
18D
330
17
100
AcDbEntity
  8
ENGRAVE_AWA
100
AcDbLine
 10
46.921852545167084
 20
9.63066735639837
 30
0.0
 11
47.61651091562608
 21
10.350007156737021
 31
0.0
  0
LINE
  5
18E
330
17
100
AcDbEntity
  8
ENGRAVE_AWA
100
AcDbLine
 10
-46.921852545167084
 20
9.63066735639837
 30
0.0
 11
-47.61651091562608
 21
10.350007156737021
 31
0.0
  0
LINE
  5
18F
330
17
100
AcDbEntity
  8
ENGRAVE_AWA
100
AcDbLine
 10
47.41112648187515
 20
6.826059311171903
 30
0.0
 11
48.1304662822138
 21
7.5207176816309005
 31
0.0
  0
LINE
  5
190
330
17
100
AcDbEntity
  8
ENGRAVE_AWA
100
AcDbLine
 10
-47.41112648187515
 20
6.826059311171903
 30
0.0
 11
-48.1304662822138
 21
7.5207176816309005
 31
0.0
  0
LINE
  5
191
330
17
100
AcDbEntity
  8
ENGRAVE_AWA
100
AcDbLine
 10
47.731101916478906
 20
4.018943871056649
 30
0.0
 11
48.4742467419563
 21
4.688074477415507
 31
0.0
  0
LINE
  5
192
330
17
100
AcDbEntity
  8
ENGRAVE_AWA
100
AcDbLine
 10
-47.731101916478906
 20
4.018943871056649
 30
0.0
 11
-48.4742467419563
 21
4.688074477415507
 31
0.0
  0
LINE
  5
193
330
17
100
AcDbEntity
  8
ENGRAVE_AWA
100
AcDbLine
 10
47.884423501325145
 20
1.2214687657652803
 30
0.0
 11
49.26330349893931
 21
2.3784864632010514
 31
0.0
  0
LINE
  5
194
330
17
100
AcDbEntity
  8
ENGRAVE_AWA
100
AcDbLine
 10
-47.884423501325145
 20
1.2214687657652803
 30
0.0
 11
-49.26330349893931
 21
2.3784864632010514
 31
0.0
  0
LINE
  5
195
330
17
100
AcDbEntity
  8
ENGRAVE_AWA
100
AcDbLine
 10
47.87477043052436
 20
-1.5544633236558454
 30
0.0
 11
48.66278118413108
 21
-0.9388018483301871
 31
0.0
  0
LINE
  5
196
330
17
100
AcDbEntity
  8
ENGRAVE_AWA
100
AcDbLine
 10
-47.87477043052436
 20
-1.5544633236558454
 30
0.0
 11
-48.66278118413108
 21
-0.9388018483301871
 31
0.0
  0
LINE
  5
197
330
17
100
AcDbEntity
  8
ENGRAVE_AWA
100
AcDbLine
 10
47.70684849118464
 20
-4.297279027379311
 30
0.0
 11
48.51586548555959
 21
-3.7094937750868375
 31
0.0
  0
LINE
  5
198
330
17
100
AcDbEntity
  8
ENGRAVE_AWA
100
AcDbLine
 10
-47.70684849118464
 20
-4.297279027379311
 30
0.0
 11
-48.51586548555959
 21
-3.7094937750868375
 31
0.0
  0
LINE
  5
199
330
17
100
AcDbEntity
  8
ENGRAVE_AWA
100
AcDbLine
 10
47.38637464253697
 20
-6.99582005465615
 30
0.0
 11
48.215412215092016
 21
-6.436627151185403
 31
0.0
  0
LINE
  5
19A
330
17
100
AcDbEntity
  8
ENGRAVE_AWA
100
AcDbLine
 10
-47.38637464253697
 20
-6.99582005465615
 30
0.0
 11
-48.215412215092016
 21
-6.436627151185403
 31
0.0
  0
LINE
  5
19B
330
17
100
AcDbEntity
  8
ENGRAVE_AWA
100
AcDbLine
 10
46.92005313986652
 20
-9.639430136273742
 30
0.0
 11
47.76810123602294
 21
-9.109510872040536
 31
0.0
  0
LINE
  5
19C
330
17
100
AcDbEntity
  8
ENGRAVE_AWA
100
AcDbLine
 10
-46.92005313986652
 20
-9.639430136273742
 30
0.0
 11
-47.76810123602294
 21
-9.109510872040536
 31
0.0
  0
LINE
  5
19D
330
17
100
AcDbEntity
  8
ENGRAVE_AWA
100
AcDbLine
 10
46.31554202576874
 20
-12.218042677092317
 30
0.0
 11
47.87438775258073
 21
-11.318042677092317
 31
0.0
  0
LINE
  5
19E
330
17
100
AcDbEntity
  8
ENGRAVE_AWA
100
AcDbLine
 10
-46.31554202576874
 20
-12.218042677092317
 30
0.0
 11
-47.87438775258073
 21
-11.318042677092317
 31
0.0
  0
TEXT
  5
19F
330
17
100
AcDbEntity
  8
ENGRAVE_TEXT
100
AcDbText
 10
49.51983601977116
 20
-10.368042677092316
 30
0.0
 40
3.2
  1
60°
 50
-60.0
 72
1
 11
49.51983601977116
 21
-10.368042677092316
 31
0.0
100
AcDbText
 73
2
  0
TEXT
  5
1A0
330
17
100
AcDbEntity
  8
ENGRAVE_TEXT
100
AcDbText
 10
-49.51983601977116
 20
-10.368042677092316
 30
0.0
 40
3.2
  1
60°
 50
60.0
 72
1
 11
-49.51983601977116
 21
-10.368042677092316
 31
0.0
100
AcDbText
 73
2
  0
LINE
  5
1A1
330
17
100
AcDbEntity
  8
ENGRAVE_AWA
100
AcDbLine
 10
45.581408614163415
 20
-14.72226846476687
 30
0.0
 11
46.46435620702234
 21
-14.252796901980979
 31
0.0
  0
LINE
  5
1A2
330
17
100
AcDbEntity
  8
ENGRAVE_AWA
100
AcDbLine
 10
-45.581408614163415
 20
-14.72226846476687
 30
0.0
 11
-46.46435620702234
 21
-14.252796901980979
 31
0.0
  0
LINE
  5
1A3
330
17
100
AcDbEntity
  8
ENGRAVE_AWA
100
AcDbLine
 10
44.72707241616735
 20
-17.143482524823295
 30
0.0
 11
45.62586646246652
 21
-16.705111378034218
 31
0.0
  0
LINE
  5
1A4
330
17
100
AcDbEntity
  8
ENGRAVE_AWA
100
AcDbLine
 10
-44.72707241616735
 20
-17.143482524823295
 30
0.0
 11
-45.62586646246652
 21
-16.705111378034218
 31
0.0
  0
LINE
  5
1A5
330
17
100
AcDbEntity
  8
ENGRAVE_AWA
100
AcDbLine
 10
43.762733836770266
 20
-19.47390888168072
 30
0.0
 11
44.676279294412865
 21
-19.067172238604922
 31
0.0
  0
LINE
  5
1A6
330
17
100
AcDbEntity
  8
ENGRAVE_AWA
100
AcDbLine
 10
-43.762733836770266
 20
-19.47390888168072
 30
0.0
 11
-44.676279294412865
 21
-19.067172238604922
 31
0.0
  0
LINE
  5
1A7
330
17
100
AcDbEntity
  8
ENGRAVE_AWA
100
AcDbLine
 10
42.699286956363615
 20
-21.706701578501406
 30
0.0
 11
43.6264708109304
 21
-21.332094985085494
 31
0.0
  0
LINE
  5
1A8
330
17
100
AcDbEntity
  8
ENGRAVE_AWA
100
AcDbLine
 10
-42.699286956363615
 20
-21.706701578501406
 30
0.0
 11
-43.6264708109304
 21
-21.332094985085494
 31
0.0
  0
LINE
  5
1A9
330
17
100
AcDbEntity
  8
ENGRAVE_AWA
100
AcDbLine
 10
41.548214863931996
 20
-23.83601983596549
 30
0.0
 11
43.23966158134663
 21
-23.220383577979288
 31
0.0
  0
LINE
  5
1AA
330
17
100
AcDbEntity
  8
ENGRAVE_AWA
100
AcDbLine
 10
-41.548214863931996
 20
-23.83601983596549
 30
0.0
 11
-43.23966158134663
 21
-23.220383577979288
 31
0.0
  0
LINE
  5
1AB
330
17
100
AcDbEntity
  8
ENGRAVE_AWA
100
AcDbLine
 10
40.321466400741976
 20
-25.857094718738914
 30
0.0
 11
41.27252291703713
 21
-25.548077724363967
 31
0.0
  0
LINE
  5
1AC
330
17
100
AcDbEntity
  8
ENGRAVE_AWA
100
AcDbLine
 10
-40.321466400741976
 20
-25.857094718738914
 30
0.0
 11
-41.27252291703713
 21
-25.548077724363967
 31
0.0
  0
LINE
  5
1AD
330
17
100
AcDbEntity
  8
ENGRAVE_AWA
100
AcDbLine
 10
39.0313138758112
 20
-27.76628417934074
 30
0.0
 11
39.99257557174952
 21
-27.49064682352374
 31
0.0
  0
LINE
  5
1AE
330
17
100
AcDbEntity
  8
ENGRAVE_AWA
100
AcDbLine
 10
-39.0313138758112
 20
-27.76628417934074
 30
0.0
 11
-39.99257557174952
 21
-27.49064682352374
 31
0.0
  0
LINE
  5
1AF
330
17
100
AcDbEntity
  8
ENGRAVE_AWA
100
AcDbLine
 10
37.69019238132572
 20
-29.56111294012213
 30
0.0
 11
38.66048810760172
 21
-29.319191044522462
 31
0.0
  0
LINE
  5
1B0
330
17
100
AcDbEntity
  8
ENGRAVE_AWA
100
AcDbLine
 10
-37.69019238132572
 20
-29.56111294012213
 30
0.0
 11
-38.66048810760172
 21
-29.319191044522462
 31
0.0
  0
LINE
  5
1B1
330
17
100
AcDbEntity
  8
ENGRAVE_AWA
100
AcDbLine
 10
36.3105227808879
 20
-31.24029345858679
 30
0.0
 11
37.288670381621706
 21
-31.03238176776903
 31
0.0
  0
LINE
  5
1B2
330
17
100
AcDbEntity
  8
ENGRAVE_AWA
100
AcDbLine
 10
-36.3105227808879
 20
-31.24029345858679
 30
0.0
 11
-37.288670381621706
 21
-31.03238176776903
 31
0.0
  0
LINE
  5
1B3
330
17
100
AcDbEntity
  8
ENGRAVE_AWA
100
AcDbLine
 10
34.904522211656406
 20
-32.80372431868041
 30
0.0
 11
36.67717616707838
 21
-32.49115759887994
 31
0.0
  0
LINE
  5
1B4
330
17
100
AcDbEntity
  8
ENGRAVE_AWA
100
AcDbLine
 10
-34.904522211656406
 20
-32.80372431868041
 30
0.0
 11
-36.67717616707838
 21
-32.49115759887994
 31
0.0
  0
TEXT
  5
1B5
330
17
100
AcDbEntity
  8
ENGRAVE_TEXT
100
AcDbText
 10
38.54831089780158
 20
-32.16122606131277
 30
0.0
 40
3.2
  1
80°
 50
-80.0
 72
1
 11
38.54831089780158
 21
-32.16122606131277
 31
0.0
100
AcDbText
 73
2
  0
TEXT
  5
1B6
330
17
100
AcDbEntity
  8
ENGRAVE_TEXT
100
AcDbText
 10
-38.54831089780158
 20
-32.16122606131277
 30
0.0
 40
3.2
  1
80°
 50
80.0
 72
1
 11
-38.54831089780158
 21
-32.16122606131277
 31
0.0
100
AcDbText
 73
2
  0
LINE
  5
1B7
330
17
100
AcDbEntity
  8
ENGRAVE_AWA
100
AcDbLine
 10
33.484007887541225
 20
-34.25246291563683
 30
0.0
 11
34.474275956282796
 21
-34.11328981467677
 31
0.0
  0
LINE
  5
1B8
330
17
100
AcDbEntity
  8
ENGRAVE_AWA
100
AcDbLine
 10
-33.484007887541225
 20
-34.25246291563683
 30
0.0
 11
-34.474275956282796
 21
-34.11328981467677
 31
0.0
  0
LINE
  5
1B9
330
17
100
AcDbEntity
  8
ENGRAVE_AWA
100
AcDbLine
 10
32.060201869308756
 20
-35.58867033339643
 30
0.0
 11
33.05472376467703
 21
-35.484141870128774
 31
0.0
  0
LINE
  5
1BA
330
17
100
AcDbEntity
  8
ENGRAVE_AWA
100
AcDbLine
 10
-32.060201869308756
 20
-35.58867033339643
 30
0.0
 11
-33.05472376467703
 21
-35.484141870128774
 31
0.0
  0
LINE
  5
1BB
330
17
100
AcDbEntity
  8
ENGRAVE_AWA
100
AcDbLine
 10
30.643545952088
 20
-36.81552785825936
 30
0.0
 11
31.641110002347826
 21
-36.74577138451523
 31
0.0
  0
LINE
  5
1BC
330
17
100
AcDbEntity
  8
ENGRAVE_AWA
100
AcDbLine
 10
-30.643545952088
 20
-36.81552785825936
 30
0.0
 11
-31.641110002347826
 21
-36.74577138451523
 31
0.0
  0
LINE
  5
1BD
330
17
100
AcDbEntity
  8
ENGRAVE_AWA
100
AcDbLine
 10
29.243536556550026
 20
-37.93712653411855
 30
0.0
 11
30.24292738356912
 21
-37.90222703741605
 31
0.0
  0
LINE
  5
1BE
330
17
100
AcDbEntity
  8
ENGRAVE_AWA
100
AcDbLine
 10
-29.243536556550026
 20
-37.93712653411855
 30
0.0
 11
-30.24292738356912
 21
-37.90222703741605
 31
0.0
  0
LINE
  5
1BF
330
17
100
AcDbEntity
  8
ENGRAVE_AWA
100
AcDbLine
 10
27.868589198036
 20
-38.958333333333336
 30
0.0
 11
29.668589198036
 21
-38.958333333333336
 31
0.0
  0
LINE
  5
1C0
330
17
100
AcDbEntity
  8
ENGRAVE_AWA
100
AcDbLine
 10
-27.868589198036
 20
-38.958333333333336
 30
0.0
 11
-29.668589198036
 21
-38.958333333333336
 31
0.0
  0
LINE
  5
1C1
330
17
100
AcDbEntity
  8
ENGRAVE_AWA
100
AcDbLine
 10
26.525940600268473
 20
-39.884639590587106
 30
0.0
 11
27.52533142728757
 21
-39.91953908728961
 31
0.0
  0
LINE
  5
1C2
330
17
100
AcDbEntity
  8
ENGRAVE_AWA
100
AcDbLine
 10
-26.525940600268473
 20
-39.884639590587106
 30
0.0
 11
-27.52533142728757
 21
-39.91953908728961
 31
0.0
  0
LINE
  5
1C3
330
17
100
AcDbEntity
  8
ENGRAVE_AWA
100
AcDbLine
 10
25.22159389385212
 20
-40.72199898646432
 30
0.0
 11
26.219157944111945
 21
-40.79175546020845
 31
0.0
  0
LINE
  5
1C4
330
17
100
AcDbEntity
  8
ENGRAVE_AWA
100
AcDbLine
 10
-25.22159389385212
 20
-40.72199898646432
 30
0.0
 11
-26.219157944111945
 21
-40.79175546020845
 31
0.0
  0
LINE
  5
1C5
330
17
100
AcDbEntity
  8
ENGRAVE_AWA
100
AcDbLine
 10
23.960308914533545
 20
-41.476663278524754
 30
0.0
 11
24.954830809901818
 21
-41.58119174179241
 31
0.0
  0
LINE
  5
1C6
330
17
100
AcDbEntity
  8
ENGRAVE_AWA
100
AcDbLine
 10
-23.960308914533545
 20
-41.476663278524754
 30
0.0
 11
-24.954830809901818
 21
-41.58119174179241
 31
0.0
  0
LINE
  5
1C7
330
17
100
AcDbEntity
  8
ENGRAVE_AWA
100
AcDbLine
 10
22.745635900503967
 20
-42.155023988626844
 30
0.0
 11
23.735903969245538
 21
-42.29419708958691
 31
0.0
  0
LINE
  5
1C8
330
17
100
AcDbEntity
  8
ENGRAVE_AWA
100
AcDbLine
 10
-22.745635900503967
 20
-42.155023988626844
 30
0.0
 11
-23.735903969245538
 21
-42.29419708958691
 31
0.0
  0
LINE
  5
1C9
330
17
100
AcDbEntity
  8
ENGRAVE_AWA
100
AcDbLine
 10
21.57998746126056
 20
-42.76346736610394
 30
0.0
 11
23.352641416682538
 21
-43.07603408590441
 31
0.0
  0
LINE
  5
1CA
330
17
100
AcDbEntity
  8
ENGRAVE_AWA
100
AcDbLine
 10
-21.57998746126056
 20
-42.76346736610394
 30
0.0
 11
-23.352641416682538
 21
-43.07603408590441
 31
0.0
  0
TEXT
  5
1CB
330
17
100
AcDbEntity
  8
ENGRAVE_TEXT
100
AcDbText
 10
25.22377614740573
 20
-43.40596562347158
 30
0.0
 40
3.2
  1
100°
 50
80.0
 72
1
 11
25.22377614740573
 21
-43.40596562347158
 31
0.0
100
AcDbText
 73
2
  0
TEXT
  5
1CC
330
17
100
AcDbEntity
  8
ENGRAVE_TEXT
100
AcDbText
 10
-25.22377614740573
 20
-43.40596562347158
 30
0.0
 40
3.2
  1
100°
 50
280.0
 72
1
 11
-25.22377614740573
 21
-43.40596562347158
 31
0.0
100
AcDbText
 73
2
  0
LINE
  5
1CD
330
17
100
AcDbEntity
  8
ENGRAVE_AWA
100
AcDbLine
 10
20.464741061059843
 20
-43.30824832873954
 30
0.0
 11
21.44288866179365
 21
-43.5161600195573
 31
0.0
  0
LINE
  5
1CE
330
17
100
AcDbEntity
  8
ENGRAVE_AWA
100
AcDbLine
 10
-20.464741061059843
 20
-43.30824832873954
 30
0.0
 11
-21.44288866179365
 21
-43.5161600195573
 31
0.0
  0
LINE
  5
1CF
330
17
100
AcDbEntity
  8
ENGRAVE_AWA
100
AcDbLine
 10
19.400362747792066
 20
-43.79538703167357
 30
0.0
 11
20.370658474068062
 21
-44.03730892727324
 31
0.0
  0
LINE
  5
1D0
330
17
100
AcDbEntity
  8
ENGRAVE_AWA
100
AcDbLine
 10
-19.400362747792066
 20
-43.79538703167357
 30
0.0
 11
-20.370658474068062
 21
-44.03730892727324
 31
0.0
  0
LINE
  5
1D1
330
17
100
AcDbEntity
  8
ENGRAVE_AWA
100
AcDbLine
 10
18.386542540059263
 20
-44.23058956675336
 30
0.0
 11
19.347804235997582
 21
-44.506226922570356
 31
0.0
  0
LINE
  5
1D2
330
17
100
AcDbEntity
  8
ENGRAVE_AWA
100
AcDbLine
 10
-18.386542540059263
 20
-44.23058956675336
 30
0.0
 11
-19.347804235997582
 21
-44.506226922570356
 31
0.0
  0
LINE
  5
1D3
330
17
100
AcDbEntity
  8
ENGRAVE_AWA
100
AcDbLine
 10
17.422332613514374
 20
-44.61919235378508
 30
0.0
 11
18.373389129809528
 21
-44.92820934816003
 31
0.0
  0
LINE
  5
1D4
330
17
100
AcDbEntity
  8
ENGRAVE_AWA
100
AcDbLine
 10
-17.422332613514374
 20
-44.61919235378508
 30
0.0
 11
-18.373389129809528
 21
-44.92820934816003
 31
0.0
  0
LINE
  5
1D5
330
17
100
AcDbEntity
  8
ENGRAVE_AWA
100
AcDbLine
 10
16.506280903227225
 20
-44.96612826054469
 30
0.0
 11
18.19772762064186
 21
-45.581764518530896
 31
0.0
  0
LINE
  5
1D6
330
17
100
AcDbEntity
  8
ENGRAVE_AWA
100
AcDbLine
 10
-16.506280903227225
 20
-44.96612826054469
 30
0.0
 11
-18.19772762064186
 21
-45.581764518530896
 31
0.0
  0
LINE
  5
1D7
330
17
100
AcDbEntity
  8
ENGRAVE_AWA
100
AcDbLine
 10
15.636554607231849
 20
-45.27591147635855
 30
0.0
 11
16.563738461798636
 21
-45.65051806977446
 31
0.0
  0
LINE
  5
1D8
330
17
100
AcDbEntity
  8
ENGRAVE_AWA
100
AcDbLine
 10
-15.636554607231849
 20
-45.27591147635855
 30
0.0
 11
-16.563738461798636
 21
-45.65051806977446
 31
0.0
  0
LINE
  5
1D9
330
17
100
AcDbEntity
  8
ENGRAVE_AWA
100
AcDbLine
 10
14.811050010880107
 20
-45.55263765771647
 30
0.0
 11
15.724595468522708
 21
-45.95937430079227
 31
0.0
  0
LINE
  5
1DA
330
17
100
AcDbEntity
  8
ENGRAVE_AWA
100
AcDbLine
 10
-14.811050010880107
 20
-45.55263765771647
 30
0.0
 11
-15.724595468522708
 21
-45.95937430079227
 31
0.0
  0
LINE
  5
1DB
330
17
100
AcDbEntity
  8
ENGRAVE_AWA
100
AcDbLine
 10
14.027486806905468
 20
-45.79999578473881
 30
0.0
 11
14.926280853204636
 21
-46.23836693152789
 31
0.0
  0
LINE
  5
1DC
330
17
100
AcDbEntity
  8
ENGRAVE_AWA
100
AcDbLine
 10
-14.027486806905468
 20
-45.79999578473881
 30
0.0
 11
-14.926280853204636
 21
-46.23836693152789
 31
0.0
  0
LINE
  5
1DD
330
17
100
AcDbEntity
  8
ENGRAVE_AWA
100
AcDbLine
 10
13.283486516706576
 20
-46.021288399614306
 30
0.0
 11
14.166434109565502
 21
-46.4907599624002
 31
0.0
  0
LINE
  5
1DE
330
17
100
AcDbEntity
  8
ENGRAVE_AWA
100
AcDbLine
 10
-13.283486516706576
 20
-46.021288399614306
 30
0.0
 11
-14.166434109565502
 21
-46.4907599624002
 31
0.0
  0
LINE
  5
1DF
330
17
100
AcDbEntity
  8
ENGRAVE_AWA
100
AcDbLine
 10
12.576635669999987
 20
-46.21945732290767
 30
0.0
 11
14.135481396811977
 21
-47.11945732290767
 31
0.0
  0
LINE
  5
1E0
330
17
100
AcDbEntity
  8
ENGRAVE_AWA
100
AcDbLine
 10
-12.576635669999987
 20
-46.21945732290767
 30
0.0
 11
-14.135481396811977
 21
-47.11945732290767
 31
0.0
  0
TEXT
  5
1E1
330
17
100
AcDbEntity
  8
ENGRAVE_TEXT
100
AcDbText
 10
15.78092966400241
 20
-48.069457322907674
 30
0.0
 40
3.2
  1
120°
 50
60.0
 72
1
 11
15.78092966400241
 21
-48.069457322907674
 31
0.0
100
AcDbText
 73
2
  0
TEXT
  5
1E2
330
17
100
AcDbEntity
  8
ENGRAVE_TEXT
100
AcDbText
 10
-15.78092966400241
 20
-48.069457322907674
 30
0.0
 40
3.2
  1
120°
 50
300.0
 72
1
 11
-15.78092966400241
 21
-48.069457322907674
 31
0.0
100
AcDbText
 73
2
  0
LINE
  5
1E3
330
17
100
AcDbEntity
  8
ENGRAVE_AWA
100
AcDbLine
 10
11.904535086128137
 20
-46.39711245738407
 30
0.0
 11
12.752583182284562
 21
-46.927031721617276
 31
0.0
  0
LINE
  5
1E4
330
17
100
AcDbEntity
  8
ENGRAVE_AWA
100
AcDbLine
 10
-11.904535086128137
 20
-46.39711245738407
 30
0.0
 11
-12.752583182284562
 21
-46.927031721617276
 31
0.0
  0
LINE
  5
1E5
330
17
100
AcDbEntity
  8
ENGRAVE_AWA
100
AcDbLine
 10
11.264836975039216
 20
-46.55656181383876
 30
0.0
 11
12.093874547594258
 21
-47.11575471730951
 31
0.0
  0
LINE
  5
1E6
330
17
100
AcDbEntity
  8
ENGRAVE_AWA
100
AcDbLine
 10
-11.264836975039216
 20
-46.55656181383876
 30
0.0
 11
-12.093874547594258
 21
-47.11575471730951
 31
0.0
  0
LINE
  5
1E7
330
17
100
AcDbEntity
  8
ENGRAVE_AWA
100
AcDbLine
 10
10.655271710519276
 20
-46.69984137847801
 30
0.0
 11
11.464288704894223
 21
-47.28762663077048
 31
0.0
  0
LINE
  5
1E8
330
17
100
AcDbEntity
  8
ENGRAVE_AWA
100
AcDbLine
 10
-10.655271710519276
 20
-46.69984137847801
 30
0.0
 11
-11.464288704894223
 21
-47.28762663077048
 31
0.0
  0
LINE
  5
1E9
330
17
100
AcDbEntity
  8
ENGRAVE_AWA
100
AcDbLine
 10
10.07366609435532
 20
-46.82874385908121
 30
0.0
 11
10.861676847962041
 21
-47.444405334406866
 31
0.0
  0
LINE
  5
1EA
330
17
100
AcDbEntity
  8
ENGRAVE_AWA
100
AcDbLine
 10
-10.07366609435532
 20
-46.82874385908121
 30
0.0
 11
-10.861676847962041
 21
-47.444405334406866
 31
0.0
  0
LINE
  5
1EB
330
17
100
AcDbEntity
  8
ENGRAVE_AWA
100
AcDbLine
 10
9.517954790224536
 20
-46.94484568737277
 30
0.0
 11
10.896834787838696
 21
-48.10186338480854
 31
0.0
  0
LINE
  5
1EC
330
17
100
AcDbEntity
  8
ENGRAVE_AWA
100
AcDbLine
 10
-9.517954790224536
 20
-46.94484568737277
 30
0.0
 11
-10.896834787838696
 21
-48.10186338480854
 31
0.0
  0
LINE
  5
1ED
330
17
100
AcDbEntity
  8
ENGRAVE_AWA
100
AcDbLine
 10
8.986186409423253
 20
-47.04953191919232
 30
0.0
 11
9.729331234900647
 21
-47.718662525551174
 31
0.0
  0
LINE
  5
1EE
330
17
100
AcDbEntity
  8
ENGRAVE_AWA
100
AcDbLine
 10
-8.986186409423253
 20
-47.04953191919232
 30
0.0
 11
-9.729331234900647
 21
-47.718662525551174
 31
0.0
  0
LINE
  5
1EF
330
17
100
AcDbEntity
  8
ENGRAVE_AWA
100
AcDbLine
 10
8.476525512589541
 20
-47.144018870206835
 30
0.0
 11
9.195865312928191
 21
-47.83867724066583
 31
0.0
  0
LINE
  5
1F0
330
17
100
AcDbEntity
  8
ENGRAVE_AWA
100
AcDbLine
 10
-8.476525512589541
 20
-47.144018870206835
 30
0.0
 11
-9.195865312928191
 21
-47.83867724066583
 31
0.0
  0
LINE
  5
1F1
330
17
100
AcDbEntity
  8
ENGRAVE_AWA
100
AcDbLine
 10
7.9872515758814755
 20
-47.2293744640301
 30
0.0
 11
8.681909946340472
 21
-47.94871426436875
 31
0.0
  0
LINE
  5
1F2
330
17
100
AcDbEntity
  8
ENGRAVE_AWA
100
AcDbLine
 10
-7.9872515758814755
 20
-47.2293744640301
 30
0.0
 11
-8.681909946340472
 21
-47.94871426436875
 31
0.0
  0
LINE
  5
1F3
330
17
100
AcDbEntity
  8
ENGRAVE_AWA
100
AcDbLine
 10
7.516755770717361
 20
-47.30653636320659
 30
0.0
 11
8.18588637707622
 21
-48.049681188683984
 31
0.0
  0
LINE
  5
1F4
330
17
100
AcDbEntity
  8
ENGRAVE_AWA
100
AcDbLine
 10
-7.516755770717361
 20
-47.30653636320659
 30
0.0
 11
-8.18588637707622
 21
-48.049681188683984
 31
0.0
  0
LINE
  5
1F5
330
17
100
AcDbEntity
  8
ENGRAVE_AWA
100
AcDbLine
 10
7.0635362303194205
 20
-47.37632801223587
 30
0.0
 11
8.22055392775519
 21
-48.75520800985003
 31
0.0
  0
LINE
  5
1F6
330
17
100
AcDbEntity
  8
ENGRAVE_AWA
100
AcDbLine
 10
-7.0635362303194205
 20
-47.37632801223587
 30
0.0
 11
-8.22055392775519
 21
-48.75520800985003
 31
0.0
  0
TEXT
  5
1F7
330
17
100
AcDbEntity
  8
ENGRAVE_TEXT
100
AcDbText
 10
9.441850386159617
 20
-50.21069245177608
 30
0.0
 40
3.2
  1
140°
 50
40.0
 72
1
 11
9.441850386159617
 21
-50.21069245177608
 31
0.0
100
AcDbText
 73
2
  0
TEXT
  5
1F8
330
17
100
AcDbEntity
  8
ENGRAVE_TEXT
100
AcDbText
 10
-9.441850386159617
 20
-50.21069245177608
 30
0.0
 40
3.2
  1
140°
 50
320.0
 72
1
 11
-9.441850386159617
 21
-50.21069245177608
 31
0.0
100
AcDbText
 73
2
  0
LINE
  5
1F9
330
17
100
AcDbEntity
  8
ENGRAVE_AWA
100
AcDbLine
 10
6.626192326393331
 20
-47.439472754802466
 30
0.0
 11
7.241853801718989
 21
-48.227483508409186
 31
0.0
  0
LINE
  5
1FA
330
17
100
AcDbEntity
  8
ENGRAVE_AWA
100
AcDbLine
 10
-6.626192326393331
 20
-47.439472754802466
 30
0.0
 11
-7.241853801718989
 21
-48.227483508409186
 31
0.0
  0
LINE
  5
1FB
330
17
100
AcDbEntity
  8
ENGRAVE_AWA
100
AcDbLine
 10
6.203418354852755
 20
-47.496606202071696
 30
0.0
 11
6.791203607145229
 21
-48.305623196446646
 31
0.0
  0
LINE
  5
1FC
330
17
100
AcDbEntity
  8
ENGRAVE_AWA
100
AcDbLine
 10
-6.203418354852755
 20
-47.496606202071696
 30
0.0
 11
-6.791203607145229
 21
-48.305623196446646
 31
0.0
  0
LINE
  5
1FD
330
17
100
AcDbEntity
  8
ENGRAVE_AWA
100
AcDbLine
 10
5.793996928435679
 20
-47.548287031114775
 30
0.0
 11
6.353189831906426
 21
-48.37732460366982
 31
0.0
  0
LINE
  5
1FE
330
17
100
AcDbEntity
  8
ENGRAVE_AWA
100
AcDbLine
 10
-5.793996928435679
 20
-47.548287031114775
 30
0.0
 11
-6.353189831906426
 21
-48.37732460366982
 31
0.0
  0
LINE
  5
1FF
330
17
100
AcDbEntity
  8
ENGRAVE_AWA
100
AcDbLine
 10
5.3967922934529575
 20
-47.595006386608745
 30
0.0
 11
5.926711557686162
 21
-48.44305448276517
 31
0.0
  0
LINE
  5
200
330
17
100
AcDbEntity
  8
ENGRAVE_AWA
100
AcDbLine
 10
-5.3967922934529575
 20
-47.595006386608745
 30
0.0
 11
-5.926711557686162
 21
-48.44305448276517
 31
0.0
  0
LINE
  5
201
330
17
100
AcDbEntity
  8
ENGRAVE_AWA
100
AcDbLine
 10
5.01074372463584
 20
-47.63719604810953
 30
0.0
 11
5.910743724635839
 21
-49.19604177492152
 31
0.0
  0
LINE
  5
202
330
17
100
AcDbEntity
  8
ENGRAVE_AWA
100
AcDbLine
 10
-5.01074372463584
 20
-47.63719604810953
 30
0.0
 11
-5.910743724635839
 21
-49.19604177492152
 31
0.0
  0
LINE
  5
203
330
17
100
AcDbEntity
  8
ENGRAVE_AWA
100
AcDbLine
 10
4.634859103098902
 20
-47.67523551168281
 30
0.0
 11
5.104330665884793
 21
-48.55818310454173
 31
0.0
  0
LINE
  5
204
330
17
100
AcDbEntity
  8
ENGRAVE_AWA
100
AcDbLine
 10
-4.634859103098902
 20
-47.67523551168281
 30
0.0
 11
-5.104330665884793
 21
-48.55818310454173
 31
0.0
  0
LINE
  5
205
330
17
100
AcDbEntity
  8
ENGRAVE_AWA
100
AcDbLine
 10
4.268208745085973
 20
-47.709458120045454
 30
0.0
 11
4.70657989187505
 21
-48.60825216634462
 31
0.0
  0
LINE
  5
206
330
17
100
AcDbEntity
  8
ENGRAVE_AWA
100
AcDbLine
 10
-4.268208745085973
 20
-47.709458120045454
 30
0.0
 11
-4.70657989187505
 21
-48.60825216634462
 31
0.0
  0
LINE
  5
207
330
17
100
AcDbEntity
  8
ENGRAVE_AWA
100
AcDbLine
 10
3.909919521062128
 20
-47.74015636064483
 30
0.0
 11
4.316656164137928
 21
-48.65370181828743
 31
0.0
  0
LINE
  5
208
330
17
100
AcDbEntity
  8
ENGRAVE_AWA
100
AcDbLine
 10
-3.909919521062128
 20
-47.74015636064483
 30
0.0
 11
-4.316656164137928
 21
-48.65370181828743
 31
0.0
  0
LINE
  5
209
330
17
100
AcDbEntity
  8
ENGRAVE_AWA
100
AcDbLine
 10
3.5591692838693465
 20
-47.76758643692144
 30
0.0
 11
3.933775877285259
 21
-48.694770291488226
 31
0.0
  0
LINE
  5
20A
330
17
100
AcDbEntity
  8
ENGRAVE_AWA
100
AcDbLine
 10
-3.5591692838693465
 20
-47.76758643692144
 30
0.0
 11
-3.933775877285259
 21
-48.694770291488226
 31
0.0
  0
LINE
  5
20B
330
17
100
AcDbEntity
  8
ENGRAVE_AWA
100
AcDbLine
 10
3.2151816094475083
 20
-47.791972204736126
 30
0.0
 11
3.830817867433712
 21
-49.48341892215076
 31
0.0
  0
LINE
  5
20C
330
17
100
AcDbEntity
  8
ENGRAVE_AWA
100
AcDbLine
 10
-3.2151816094475083
 20
-47.791972204736126
 30
0.0
 11
-3.830817867433712
 21
-49.48341892215076
 31
0.0
  0
TEXT
  5
20D
330
17
100
AcDbEntity
  8
ENGRAVE_TEXT
100
AcDbText
 10
4.480656139752483
 20
-51.268834901643984
 30
0.0
 40
3.2
  1
160°
 50
20.0
 72
1
 11
4.480656139752483
 21
-51.268834901643984
 31
0.0
100
AcDbText
 73
2
  0
TEXT
  5
20E
330
17
100
AcDbEntity
  8
ENGRAVE_TEXT
100
AcDbText
 10
-4.480656139752483
 20
-51.268834901643984
 30
0.0
 40
3.2
  1
160°
 50
340.0
 72
1
 11
-4.480656139752483
 21
-51.268834901643984
 31
0.0
100
AcDbText
 73
2
  0
LINE
  5
20F
330
17
100
AcDbEntity
  8
ENGRAVE_AWA
100
AcDbLine
 10
2.8772208427161674
 20
-47.81350855377839
 30
0.0
 11
3.186237837091115
 21
-48.764565070073544
 31
0.0
  0
LINE
  5
210
330
17
100
AcDbEntity
  8
ENGRAVE_AWA
100
AcDbLine
 10
-2.8772208427161674
 20
-47.81350855377839
 30
0.0
 11
-3.186237837091115
 21
-48.764565070073544
 31
0.0
  0
LINE
  5
211
330
17
100
AcDbEntity
  8
ENGRAVE_AWA
100
AcDbLine
 10
2.5445874335668086
 20
-47.832364302770294
 30
0.0
 11
2.8202247893838077
 21
-48.79362599870861
 31
0.0
  0
LINE
  5
212
330
17
100
AcDbEntity
  8
ENGRAVE_AWA
100
AcDbLine
 10
-2.5445874335668086
 20
-47.832364302770294
 30
0.0
 11
-2.8202247893838077
 21
-48.79362599870861
 31
0.0
  0
LINE
  5
213
330
17
100
AcDbEntity
  8
ENGRAVE_AWA
100
AcDbLine
 10
2.2166135427023335
 20
-47.848684667421196
 30
0.0
 11
2.4585354383020013
 21
-48.818980393697196
 31
0.0
  0
LINE
  5
214
330
17
100
AcDbEntity
  8
ENGRAVE_AWA
100
AcDbLine
 10
-2.2166135427023335
 20
-47.848684667421196
 30
0.0
 11
-2.4585354383020013
 21
-48.818980393697196
 31
0.0
  0
LINE
  5
215
330
17
100
AcDbEntity
  8
ENGRAVE_AWA
100
AcDbLine
 10
1.8926588936358082
 20
-47.86259335130454
 30
0.0
 11
2.1005705844535676
 21
-48.840740952038345
 31
0.0
  0
LINE
  5
216
330
17
100
AcDbEntity
  8
ENGRAVE_AWA
100
AcDbLine
 10
-1.8926588936358082
 20
-47.86259335130454
 30
0.0
 11
-2.1005705844535676
 21
-48.840740952038345
 31
0.0
  0
LINE
  5
217
330
17
100
AcDbEntity
  8
ENGRAVE_AWA
100
AcDbLine
 10
1.5721068450254472
 20
-47.874194302022715
 30
0.0
 11
1.8846735648259216
 21
-49.64684825744469
 31
0.0
  0
LINE
  5
218
330
17
100
AcDbEntity
  8
ENGRAVE_AWA
100
AcDbLine
 10
-1.5721068450254472
 20
-47.874194302022715
 30
0.0
 11
-1.8846735648259216
 21
-49.64684825744469
 31
0.0
  0
LINE
  5
219
330
17
100
AcDbEntity
  8
ENGRAVE_AWA
100
AcDbLine
 10
1.2543606562958924
 20
-47.88357316809112
 30
0.0
 11
1.3935337572559579
 21
-48.87384123683269
 31
0.0
  0
LINE
  5
21A
330
17
100
AcDbEntity
  8
ENGRAVE_AWA
100
AcDbLine
 10
-1.2543606562958924
 20
-47.88357316809112
 30
0.0
 11
-1.3935337572559579
 21
-48.87384123683269
 31
0.0
  0
LINE
  5
21B
330
17
100
AcDbEntity
  8
ENGRAVE_AWA
100
AcDbLine
 10
0.9388399188864391
 20
-47.89079848579166
 30
0.0
 11
1.0433683821540929
 21
-48.885320381159936
 31
0.0
  0
LINE
  5
21C
330
17
100
AcDbEntity
  8
ENGRAVE_AWA
100
AcDbLine
 10
-0.9388399188864391
 20
-47.89079848579166
 30
0.0
 11
-1.0433683821540929
 21
-48.885320381159936
 31
0.0
  0
LINE
  5
21D
330
17
100
AcDbEntity
  8
ENGRAVE_AWA
100
AcDbLine
 10
0.6249771252565467
 20
-47.895922619706425
 30
0.0
 11
0.6947335990006722
 21
-48.89348666996625
 31
0.0
  0
LINE
  5
21E
330
17
100
AcDbEntity
  8
ENGRAVE_AWA
100
AcDbLine
 10
-0.6249771252565467
 20
-47.895922619706425
 30
0.0
 11
-0.6947335990006722
 21
-48.89348666996625
 31
0.0
  0
LINE
  5
21F
330
17
100
AcDbEntity
  8
ENGRAVE_AWA
100
AcDbLine
 10
0.3122143478048499
 20
-47.89898247563328
 30
0.0
 11
0.34711384450735105
 21
-48.89837330265238
 31
0.0
  0
LINE
  5
220
330
17
100
AcDbEntity
  8
ENGRAVE_AWA
100
AcDbLine
 10
-0.3122143478048499
 20
-47.89898247563328
 30
0.0
 11
-0.34711384450735105
 21
-48.89837330265238
 31
0.0
  0
LINE
  5
221
330
17
100
AcDbEntity
  8
ENGRAVE_AWA
100
AcDbLine
 10
1.0950383462375913e-15
 20
-47.9
 30
0.0
 11
1.3154747700841148e-15
 21
-49.699999999999996
 31
0.0
  0
TEXT
  5
222
330
17
100
AcDbEntity
  8
ENGRAVE_TEXT
100
AcDbText
 10
1.548157661922112e-15
 20
-51.6
 30
0.0
 40
3.2
  1
180°
 72
1
 11
1.548157661922112e-15
 21
-51.6
 31
0.0
100
AcDbText
 73
2
  0
ENDSEC
  0
SECTION
  2
OBJECTS
  0
DICTIONARY
  5
A
330
0
100
AcDbDictionary
281
1
  3
ACAD_COLOR
350
B
  3
ACAD_GROUP
350
C
  3
ACAD_LAYOUT
350
D
  3
ACAD_MATERIAL
350
E
  3
ACAD_MLEADERSTYLE
350
F
  3
ACAD_MLINESTYLE
350
10
  3
ACAD_PLOTSETTINGS
350
11
  3
ACAD_PLOTSTYLENAME
350
12
  3
ACAD_SCALELIST
350
14
  3
ACAD_TABLESTYLE
350
15
  3
ACAD_VISUALSTYLE
350
16
  3
EZDXF_META
350
2D
  0
DICTIONARY
  5
B
330
A
100
AcDbDictionary
281
1
  0
DICTIONARY
  5
C
330
A
100
AcDbDictionary
281
1
  0
DICTIONARY
  5
D
330
A
100
AcDbDictionary
281
1
  3
Model
350
1A
  3
Layout1
350
1E
  0
DICTIONARY
  5
E
330
A
100
AcDbDictionary
281
1
  3
ByBlock
350
1F
  3
ByLayer
350
20
  3
Global
350
21
  0
DICTIONARY
  5
F
330
A
100
AcDbDictionary
281
1
  3
Standard
350
2C
  0
DICTIONARY
  5
10
330
A
100
AcDbDictionary
281
1
  3
Standard
350
22
  0
DICTIONARY
  5
11
330
A
100
AcDbDictionary
281
1
  0
ACDBDICTIONARYWDFLT
  5
12
330
A
100
AcDbDictionary
281
1
  3
Normal
350
13
100
AcDbDictionaryWithDefault
340
13
  0
ACDBPLACEHOLDER
  5
13
330
12
  0
DICTIONARY
  5
14
330
A
100
AcDbDictionary
281
1
  0
DICTIONARY
  5
15
330
A
100
AcDbDictionary
281
1
  0
DICTIONARY
  5
16
330
A
100
AcDbDictionary
281
1
  0
LAYOUT
  5
1A
330
D
100
AcDbPlotSettings
  1

  4
A3
  6

 40
7.5
 41
20.0
 42
7.5
 43
20.0
 44
420.0
 45
297.0
 46
0.0
 47
0.0
 48
0.0
 49
0.0
140
0.0
141
0.0
142
1.0
143
1.0
 70
1024
 72
1
 73
0
 74
5
  7

 75
16
 76
0
 77
2
 78
300
147
1.0
148
0.0
149
0.0
100
AcDbLayout
  1
Model
 70
1
 71
0
 10
0.0
 20
0.0
 11
420.0
 21
297.0
 12
0.0
 22
0.0
 32
0.0
 14
1e+20
 24
1e+20
 34
1e+20
 15
-1e+20
 25
-1e+20
 35
-1e+20
146
0.0
 13
0.0
 23
0.0
 33
0.0
 16
1.0
 26
0.0
 36
0.0
 17
0.0
 27
1.0
 37
0.0
 76
1
330
17
  0
LAYOUT
  5
1E
330
D
100
AcDbPlotSettings
  1

  4
A3
  6

 40
7.5
 41
20.0
 42
7.5
 43
20.0
 44
420.0
 45
297.0
 46
0.0
 47
0.0
 48
0.0
 49
0.0
140
0.0
141
0.0
142
1.0
143
1.0
 70
0
 72
1
 73
0
 74
5
  7

 75
16
 76
0
 77
2
 78
300
147
1.0
148
0.0
149
0.0
100
AcDbLayout
  1
Layout1
 70
1
 71
1
 10
0.0
 20
0.0
 11
420.0
 21
297.0
 12
0.0
 22
0.0
 32
0.0
 14
1e+20
 24
1e+20
 34
1e+20
 15
-1e+20
 25
-1e+20
 35
-1e+20
146
0.0
 13
0.0
 23
0.0
 33
0.0
 16
1.0
 26
0.0
 36
0.0
 17
0.0
 27
1.0
 37
0.0
 76
1
330
1B
  0
MATERIAL
  5
1F
102
{ACAD_REACTORS
330
E
102
}
330
E
100
AcDbMaterial
  1
ByBlock
  2

 70
0
 40
1.0
 71
1
 41
1.0
 91
-1023410177
 42
1.0
 72
1
  3

 73
1
 74
1
 75
1
 44
0.5
 73
0
 45
1.0
 46
1.0
 77
1
  4

 78
1
 79
1
170
1
 48
1.0
171
1
  6

172
1
173
1
174
1
140
1.0
141
1.0
175
1
  7

176
1
177
1
178
1
143
1.0
179
1
  8

270
1
271
1
272
1
145
1.0
146
1.0
273
1
  9

274
1
275
1
276
1
 42
1.0
 72
1
  3

 73
1
 74
1
 75
1
 94
63
  0
MATERIAL
  5
20
102
{ACAD_REACTORS
330
E
102
}
330
E
100
AcDbMaterial
  1
ByLayer
  2

 70
0
 40
1.0
 71
1
 41
1.0
 91
-1023410177
 42
1.0
 72
1
  3

 73
1
 74
1
 75
1
 44
0.5
 73
0
 45
1.0
 46
1.0
 77
1
  4

 78
1
 79
1
170
1
 48
1.0
171
1
  6

172
1
173
1
174
1
140
1.0
141
1.0
175
1
  7

176
1
177
1
178
1
143
1.0
179
1
  8

270
1
271
1
272
1
145
1.0
146
1.0
273
1
  9

274
1
275
1
276
1
 42
1.0
 72
1
  3

 73
1
 74
1
 75
1
 94
63
  0
MATERIAL
  5
21
102
{ACAD_REACTORS
330
E
102
}
330
E
100
AcDbMaterial
  1
Global
  2

 70
0
 40
1.0
 71
1
 41
1.0
 91
-1023410177
 42
1.0
 72
1
  3

 73
1
 74
1
 75
1
 44
0.5
 73
0
 45
1.0
 46
1.0
 77
1
  4

 78
1
 79
1
170
1
 48
1.0
171
1
  6

172
1
173
1
174
1
140
1.0
141
1.0
175
1
  7

176
1
177
1
178
1
143
1.0
179
1
  8

270
1
271
1
272
1
145
1.0
146
1.0
273
1
  9

274
1
275
1
276
1
 42
1.0
 72
1
  3

 73
1
 74
1
 75
1
 94
63
  0
MLINESTYLE
  5
22
102
{ACAD_REACTORS
330
10
102
}
330
10
100
AcDbMlineStyle
  2
Standard
 70
0
  3

 62
256
 51
90.0
 52
90.0
 71
2
 49
0.5
 62
256
  6
BYLAYER
 49
-0.5
 62
256
  6
BYLAYER
  0
MLEADERSTYLE
  5
2C
102
{ACAD_REACTORS
330
F
102
}
330
F
100
AcDbMLeaderStyle
179
2
170
2
171
1
172
0
 90
2
 40
0.0
 41
0.0
173
1
 91
-1056964608
 92
-2
290
1
 42
2.0
291
1
 43
8.0
  3
Standard
 44
4.0
300

342
29
174
1
175
1
176
0
178
1
 93
-1056964608
 45
4.0
292
0
297
0
 46
4.0
 94
-1056964608
 47
1.0
 49
1.0
140
1.0
294
1
141
0.0
177
0
142
1.0
295
0
296
0
143
3.75
271
0
272
9
273
9
  0
DICTIONARY
  5
2D
330
A
100
AcDbDictionary
280
1
281
1
  3
CREATED_BY_EZDXF
350
2E
  3
WRITTEN_BY_EZDXF
350
225
  0
DICTIONARYVAR
  5
2E
330
2D
100
DictionaryVariables
280
0
  1
1.4.4 @ 2026-08-30T09:22:13.629237+00:00
  0
DICTIONARYVAR
  5
225
330
2D
100
DictionaryVariables
280
0
  1
1.4.4 @ 2026-08-30T09:22:13.635739+00:00
  0
ENDSEC
  0
EOF
