  0
SECTION
  2
HEADER
  9
$ACADVER
  1
AC1024
  9
$ACADMAINTVER
 70
6
  9
$DWGCODEPAGE
  3
ANSI_1252
  9
$LASTSAVEDBY
  1
ezdxf
  9
$INSBASE
 10
0.0
 20
0.0
 30
0.0
  9
$EXTMIN
 10
1e+20
 20
1e+20
 30
1e+20
  9
$EXTMAX
 10
-1e+20
 20
-1e+20
 30
-1e+20
  9
$LIMMIN
 10
0.0
 20
0.0
  9
$LIMMAX
 10
420.0
 20
297.0
  9
$ORTHOMODE
 70
0
  9
$REGENMODE
 70
1
  9
$FILLMODE
 70
1
  9
$QTEXTMODE
 70
0
  9
$MIRRTEXT
 70
1
  9
$LTSCALE
 40
1.0
  9
$ATTMODE
 70
1
  9
$TEXTSIZE
 40
2.5
  9
$TRACEWID
 40
1.0
  9
$TEXTSTYLE
  7
Standard
  9
$CLAYER
  8
0
  9
$CELTYPE
  6
ByLayer
  9
$CECOLOR
 62
256
  9
$CELTSCALE
 40
1.0
  9
$DISPSILH
 70
0
  9
$DIMSCALE
 40
1.0
  9
$DIMASZ
 40
2.5
  9
$DIMEXO
 40
0.625
  9
$DIMDLI
 40
3.75
  9
$DIMRND
 40
0.0
  9
$DIMDLE
 40
0.0
  9
$DIMEXE
 40
1.25
  9
$DIMTP
 40
0.0
  9
$DIMTM
 40
0.0
  9
$DIMTXT
 40
2.5
  9
$DIMCEN
 40
2.5
  9
$DIMTSZ
 40
0.0
  9
$DIMTOL
 70
0
  9
$DIMLIM
 70
0
  9
$DIMTIH
 70
0
  9
$DIMTOH
 70
0
  9
$DIMSE1
 70
0
  9
$DIMSE2
 70
0
  9
$DIMTAD
 70
1
  9
$DIMZIN
 70
8
  9
$DIMBLK
  1

  9
$DIMASO
 70
1
  9
$DIMSHO
 70
1
  9
$DIMPOST
  1

  9
$DIMAPOST
  1

  9
$DIMALT
 70
0
  9
$DIMALTD
 70
3
  9
$DIMALTF
 40
0.03937007874
  9
$DIMLFAC
 40
1.0
  9
$DIMTOFL
 70
1
  9
$DIMTVP
 40
0.0
  9
$DIMTIX
 70
0
  9
$DIMSOXD
 70
0
  9
$DIMSAH
 70
0
  9
$DIMBLK1
  1

  9
$DIMBLK2
  1

  9
$DIMSTYLE
  2
ISO-25
  9
$DIMCLRD
 70
0
  9
$DIMCLRE
 70
0
  9
$DIMCLRT
 70
0
  9
$DIMTFAC
 40
1.0
  9
$DIMGAP
 40
0.625
  9
$DIMJUST
 70
0
  9
$DIMSD1
 70
0
  9
$DIMSD2
 70
0
  9
$DIMTOLJ
 70
0
  9
$DIMTZIN
 70
8
  9
$DIMALTZ
 70
0
  9
$DIMALTTZ
 70
0
  9
$DIMUPT
 70
0
  9
$DIMDEC
 70
2
  9
$DIMTDEC
 70
2
  9
$DIMALTU
 70
2
  9
$DIMALTTD
 70
3
  9
$DIMTXSTY
  7
Standard
  9
$DIMAUNIT
 70
0
  9
$DIMADEC
 70
0
  9
$DIMALTRND
 40
0.0
  9
$DIMAZIN
 70
0
  9
$DIMDSEP
 70
44
  9
$DIMATFIT
 70
3
  9
$DIMFRAC
 70
0
  9
$DIMLDRBLK
  1

  9
$DIMLUNIT
 70
2
  9
$DIMLWD
 70
-2
  9
$DIMLWE
 70
-2
  9
$DIMTMOVE
 70
0
  9
$DIMFXL
 40
1.0
  9
$DIMFXLON
 70
0
  9
$DIMJOGANG
 40
0.785398163397
  9
$DIMTFILL
 70
0
  9
$DIMTFILLCLR
 70
0
  9
$DIMARCSYM
 70
0
  9
$DIMLTYPE
  6

  9
$DIMLTEX1
  6

  9
$DIMLTEX2
  6

  9
$DIMTXTDIRECTION
 70
0
  9
$LUNITS
 70
2
  9
$LUPREC
 70
4
  9
$SKETCHINC
 40
1.0
  9
$FILLETRAD
 40
10.0
  9
$AUNITS
 70
0
  9
$AUPREC
 70
2
  9
$MENU
  1
.
  9
$ELEVATION
 40
0.0
  9
$PELEVATION
 40
0.0
  9
$THICKNESS
 40
0.0
  9
$LIMCHECK
 70
0
  9
$CHAMFERA
 40
0.0
  9
$CHAMFERB
 40
0.0
  9
$CHAMFERC
 40
0.0
  9
$CHAMFERD
 40
0.0
  9
$SKPOLY
 70
0
  9
$TDCREATE
 40
2461283.4639930557
  9
$TDUCREATE
 40
2458532.153996898
  9
$TDUPDATE
 40
2461283.4639930557
  9
$TDUUPDATE
 40
2458532.1544311
  9
$TDINDWG
 40
0.0
  9
$TDUSRTIMER
 40
0.0
  9
$USRTIMER
 70
1
  9
$ANGBASE
 50
0.0
  9
$ANGDIR
 70
0
  9
$PDMODE
 70
0
  9
$PDSIZE
 40
0.0
  9
$PLINEWID
 40
0.0
  9
$SPLFRAME
 70
0
  9
$SPLINETYPE
 70
6
  9
$SPLINESEGS
 70
8
  9
$HANDSEED
  5
2EC
  9
$SURFTAB1
 70
6
  9
$SURFTAB2
 70
6
  9
$SURFTYPE
 70
6
  9
$SURFU
 70
6
  9
$SURFV
 70
6
  9
$UCSBASE
  2

  9
$UCSNAME
  2

  9
$UCSORG
 10
0.0
 20
0.0
 30
0.0
  9
$UCSXDIR
 10
1.0
 20
0.0
 30
0.0
  9
$UCSYDIR
 10
0.0
 20
1.0
 30
0.0
  9
$UCSORTHOREF
  2

  9
$UCSORTHOVIEW
 70
0
  9
$UCSORGTOP
 10
0.0
 20
0.0
 30
0.0
  9
$UCSORGBOTTOM
 10
0.0
 20
0.0
 30
0.0
  9
$UCSORGLEFT
 10
0.0
 20
0.0
 30
0.0
  9
$UCSORGRIGHT
 10
0.0
 20
0.0
 30
0.0
  9
$UCSORGFRONT
 10
0.0
 20
0.0
 30
0.0
  9
$UCSORGBACK
 10
0.0
 20
0.0
 30
0.0
  9
$PUCSBASE
  2

  9
$PUCSNAME
  2

  9
$PUCSORG
 10
0.0
 20
0.0
 30
0.0
  9
$PUCSXDIR
 10
1.0
 20
0.0
 30
0.0
  9
$PUCSYDIR
 10
0.0
 20
1.0
 30
0.0
  9
$PUCSORTHOREF
  2

  9
$PUCSORTHOVIEW
 70
0
  9
$PUCSORGTOP
 10
0.0
 20
0.0
 30
0.0
  9
$PUCSORGBOTTOM
 10
0.0
 20
0.0
 30
0.0
  9
$PUCSORGLEFT
 10
0.0
 20
0.0
 30
0.0
  9
$PUCSORGRIGHT
 10
0.0
 20
0.0
 30
0.0
  9
$PUCSORGFRONT
 10
0.0
 20
0.0
 30
0.0
  9
$PUCSORGBACK
 10
0.0
 20
0.0
 30
0.0
  9
$USERI1
 70
0
  9
$USERI2
 70
0
  9
$USERI3
 70
0
  9
$USERI4
 70
0
  9
$USERI5
 70
0
  9
$USERR1
 40
0.0
  9
$USERR2
 40
0.0
  9
$USERR3
 40
0.0
  9
$USERR4
 40
0.0
  9
$USERR5
 40
0.0
  9
$WORLDVIEW
 70
1
  9
$SHADEDGE
 70
3
  9
$SHADEDIF
 70
70
  9
$TILEMODE
 70
1
  9
$MAXACTVP
 70
64
  9
$PINSBASE
 10
0.0
 20
0.0
 30
0.0
  9
$PLIMCHECK
 70
0
  9
$PEXTMIN
 10
1e+20
 20
1e+20
 30
1e+20
  9
$PEXTMAX
 10
-1e+20
 20
-1e+20
 30
-1e+20
  9
$PLIMMIN
 10
0.0
 20
0.0
  9
$PLIMMAX
 10
420.0
 20
297.0
  9
$UNITMODE
 70
0
  9
$VISRETAIN
 70
1
  9
$PLINEGEN
 70
0
  9
$PSLTSCALE
 70
1
  9
$TREEDEPTH
 70
3020
  9
$CMLSTYLE
  2
Standard
  9
$CMLJUST
 70
0
  9
$CMLSCALE
 40
20.0
  9
$PROXYGRAPHICS
 70
1
  9
$MEASUREMENT
 70
1
  9
$CELWEIGHT
370
-1
  9
$ENDCAPS
280
0
  9
$JOINSTYLE
280
0
  9
$LWDISPLAY
290
0
  9
$INSUNITS
 70
6
  9
$HYPERLINKBASE
  1

  9
$STYLESHEET
  1

  9
$XEDIT
290
1
  9
$CEPSNTYPE
380
0
  9
$PSTYLEMODE
290
1
  9
$FINGERPRINTGUID
  2
{351C04C4-59AE-4702-9362-B6FE4DC0F9A6}
  9
$VERSIONGUID
  2
{4E807921-0BCA-4F1F-A4B6-21FC5F81DF2D}
  9
$EXTNAMES
290
1
  9
$PSVPSCALE
 40
0.0
  9
$OLESTARTUP
290
0
  9
$SORTENTS
280
127
  9
$INDEXCTL
280
0
  9
$HIDETEXT
280
1
  9
$XCLIPFRAME
280
1
  9
$HALOGAP
280
0
  9
$OBSCOLOR
 70
257
  9
$OBSLTYPE
280
0
  9
$INTERSECTIONDISPLAY
280
0
  9
$INTERSECTIONCOLOR
 70
257
  9
$DIMASSOC
280
2
  9
$PROJECTNAME
  1

  9
$CAMERADISPLAY
290
0
  9
$LENSLENGTH
 40
50.0
  9
$CAMERAHEIGHT
 40
0.0
  9
$STEPSPERSEC
 40
24.0
  9
$STEPSIZE
 40
100.0
  9
$3DDWFPREC
 40
2.0
  9
$PSOLWIDTH
 40
0.005
  9
$PSOLHEIGHT
 40
0.08
  9
$LOFTANG1
 40
1.570796326795
  9
$LOFTANG2
 40
1.570796326795
  9
$LOFTMAG1
 40
0.0
  9
$LOFTMAG2
 40
0.0
  9
$LOFTPARAM
 70
7
  9
$LOFTNORMALS
280
1
  9
$LATITUDE
 40
37.795
  9
$LONGITUDE
 40
-122.394
  9
$NORTHDIRECTION
 40
0.0
  9
$TIMEZONE
 70
-8000
  9
$LIGHTGLYPHDISPLAY
280
1
  9
$TILEMODELIGHTSYNCH
280
1
  9
$CMATERIAL
347
20
  9
$SOLIDHIST
280
0
  9
$SHOWHIST
280
1
  9
$DWFFRAME
280
2
  9
$DGNFRAME
280
2
  9
$REALWORLDSCALE
290
1
  9
$INTERFERECOLOR
 62
256
  9
$CSHADOW
280
0
  9
$SHADOWPLANELOCATION
 40
0.0
  0
ENDSEC
  0
SECTION
  2
CLASSES
  0
CLASS
  1
ACDBDICTIONARYWDFLT
  2
AcDbDictionaryWithDefault
  3
ObjectDBX Classes
 90
0
 91
0
280
0
281
0
  0
CLASS
  1
SUN
  2
AcDbSun
  3
SCENEOE
 90
1153
 91
0
280
0
281
0
  0
CLASS
  1
VISUALSTYLE
  2
AcDbVisualStyle
  3
ObjectDBX Classes
 90
4095
 91
0
280
0
281
0
  0
CLASS
  1
MATERIAL
  2
AcDbMaterial
  3
ObjectDBX Classes
 90
1153
 91
0
280
0
281
0
  0
CLASS
  1
SCALE
  2
AcDbScale
  3
ObjectDBX Classes
 90
1153
 91
0
280
0
281
0
  0
CLASS
  1
TABLESTYLE
  2
AcDbTableStyle
  3
ObjectDBX Classes
 90
4095
 91
0
280
0
281
0
  0
CLASS
  1
MLEADERSTYLE
  2
AcDbMLeaderStyle
  3
ACDB_MLEADERSTYLE_CLASS
 90
4095
 91
0
280
0
281
0
  0
CLASS
  1
DICTIONARYVAR
  2
AcDbDictionaryVar
  3
ObjectDBX Classes
 90
0
 91
0
280
0
281
0
  0
CLASS
  1
CELLSTYLEMAP
  2
AcDbCellStyleMap
  3
ObjectDBX Classes
 90
1152
 91
0
280
0
281
0
  0
CLASS
  1
MENTALRAYRENDERSETTINGS
  2
AcDbMentalRayRenderSettings
  3
SCENEOE
 90
1024
 91
0
280
0
281
0
  0
CLASS
  1
ACDBDETAILVIEWSTYLE
  2
AcDbDetailViewStyle
  3
ObjectDBX Classes
 90
1025
 91
0
280
0
281
0
  0
CLASS
  1
ACDBSECTIONVIEWSTYLE
  2
AcDbSectionViewStyle
  3
ObjectDBX Classes
 90
1025
 91
0
280
0
281
0
  0
CLASS
  1
RASTERVARIABLES
  2
AcDbRasterVariables
  3
ISM
 90
0
 91
0
280
0
281
0
  0
CLASS
  1
LAYOUT
  2
AcDbLayout
  3
ObjectDBX Classes
 90
0
 91
0
280
0
281
0
  0
CLASS
  1
ACDBPLACEHOLDER
  2
AcDbPlaceHolder
  3
ObjectDBX Classes
 90
0
 91
0
280
0
281
0
  0
ENDSEC
  0
SECTION
  2
TABLES
  0
TABLE
  2
VPORT
  5
8
330
0
100
AcDbSymbolTable
 70
1
  0
VPORT
  5
23
330
8
100
AcDbSymbolTableRecord
100
AcDbViewportTableRecord
  2
*Active
 70
0
 10
0.0
 20
0.0
 11
1.0
 21
1.0
 12
0.0
 22
0.0
 13
0.0
 23
0.0
 14
0.5
 24
0.5
 15
0.5
 25
0.5
 16
0.0
 26
0.0
 36
1.0
 17
0.0
 27
0.0
 37
0.0
 40
1000.0
 41
1.34
 42
50.0
 43
0.0
 44
0.0
 50
0.0
 51
0.0
 71
0
 72
1000
 73
1
 74
3
 75
0
 76
0
 77
0
 78
0
281
0
 65
0
146
0.0
  0
ENDTAB
  0
TABLE
  2
LTYPE
  5
2
330
0
100
AcDbSymbolTable
 70
3
  0
LTYPE
  5
24
330
2
100
AcDbSymbolTableRecord
100
AcDbLinetypeTableRecord
  2
ByBlock
 70
0
  3

 72
65
 73
0
 40
0.0
  0
LTYPE
  5
25
330
2
100
AcDbSymbolTableRecord
100
AcDbLinetypeTableRecord
  2
ByLayer
 70
0
  3

 72
65
 73
0
 40
0.0
  0
LTYPE
  5
26
330
2
100
AcDbSymbolTableRecord
100
AcDbLinetypeTableRecord
  2
Continuous
 70
0
  3

 72
65
 73
0
 40
0.0
  0
ENDTAB
  0
TABLE
  2
LAYER
  5
1
330
0
100
AcDbSymbolTable
 70
5
  0
LAYER
  5
27
330
1
100
AcDbSymbolTableRecord
100
AcDbLayerTableRecord
  2
0
 70
0
 62
7
  6
Continuous
370
-3
390
13
347
21
  0
LAYER
  5
28
330
1
100
AcDbSymbolTableRecord
100
AcDbLayerTableRecord
  2
Defpoints
 70
0
 62
7
  6
Continuous
290
0
370
-3
390
13
347
21
  0
LAYER
  5
2F
330
1
100
AcDbSymbolTableRecord
100
AcDbLayerTableRecord
  2
CUT_REFERENCE
 70
0
 62
1
  6
Continuous
370
-3
390
13
347
21
  0
LAYER
  5
30
330
1
100
AcDbSymbolTableRecord
100
AcDbLayerTableRecord
  2
ENGRAVE_LOG
 70
0
 62
7
  6
Continuous
370
-3
390
13
347
21
  0
LAYER
  5
31
330
1
100
AcDbSymbolTableRecord
100
AcDbLayerTableRecord
  2
ENGRAVE_TEXT
 70
0
 62
7
  6
Continuous
370
-3
390
13
347
21
  0
ENDTAB
  0
TABLE
  2
STYLE
  5
5
330
0
100
AcDbSymbolTable
 70
1
  0
STYLE
  5
29
330
5
100
AcDbSymbolTableRecord
100
AcDbTextStyleTableRecord
  2
Standard
 70
0
 40
0.0
 41
1.0
 50
0.0
 71
0
 42
2.5
  3
txt
  4

  0
ENDTAB
  0
TABLE
  2
VIEW
  5
7
330
0
100
AcDbSymbolTable
 70
0
  0
ENDTAB
  0
TABLE
  2
UCS
  5
6
330
0
100
AcDbSymbolTable
 70
0
  0
ENDTAB
  0
TABLE
  2
APPID
  5
3
330
0
100
AcDbSymbolTable
 70
3
  0
APPID
  5
2A
330
3
100
AcDbSymbolTableRecord
100
AcDbRegAppTableRecord
  2
ACAD
 70
0
  0
APPID
  5
2E9
330
3
100
AcDbSymbolTableRecord
100
AcDbRegAppTableRecord
  2
HATCHBACKGROUNDCOLOR
 70
0
  0
APPID
  5
2EA
330
3
100
AcDbSymbolTableRecord
100
AcDbRegAppTableRecord
  2
EZDXF
 70
0
  0
ENDTAB
  0
TABLE
  2
DIMSTYLE
  5
4
330
0
100
AcDbSymbolTable
 70
1
100
AcDbDimStyleTable
  0
DIMSTYLE
105
2B
330
4
100
AcDbSymbolTableRecord
100
AcDbDimStyleTableRecord
  2
Standard
 70
0
 40
1.0
 41
2.5
 42
0.625
 43
3.75
 44
1.25
 45
0.0
 46
0.0
 47
0.0
 48
0.0
 49
2.5
140
2.5
141
2.5
142
0.0
143
0.03937007874
144
1.0
145
0.0
146
1.0
147
0.625
148
0.0
 69
0
 70
0
 71
0
 72
0
 73
0
 74
0
 75
0
 76
0
 77
1
 78
8
 79
3
170
0
171
3
172
1
173
0
174
0
175
0
176
0
177
0
178
0
179
2
271
2
272
2
273
2
274
3
275
0
276
0
277
2
278
44
279
0
280
0
281
0
282
0
283
0
284
8
285
0
286
0
288
0
289
3
290
0
371
-2
372
-2
  0
ENDTAB
  0
TABLE
  2
BLOCK_RECORD
  5
9
330
0
100
AcDbSymbolTable
 70
2
  0
BLOCK_RECORD
  5
17
330
9
100
AcDbSymbolTableRecord
100
AcDbBlockTableRecord
  2
*Model_Space
340
1A
 70
0
280
1
281
0
  0
BLOCK_RECORD
  5
1B
330
9
100
AcDbSymbolTableRecord
100
AcDbBlockTableRecord
  2
*Paper_Space
340
1E
 70
0
280
1
281
0
  0
ENDTAB
  0
ENDSEC
  0
SECTION
  2
BLOCKS
  0
BLOCK
  5
18
330
17
100
AcDbEntity
  8
0
100
AcDbBlockBegin
  2
*Model_Space
 70
0
 10
0.0
 20
0.0
 30
0.0
  3
*Model_Space
  1

  0
ENDBLK
  5
19
330
17
100
AcDbEntity
  8
0
100
AcDbBlockEnd
  0
BLOCK
  5
1C
330
1B
100
AcDbEntity
  8
0
100
AcDbBlockBegin
  2
*Paper_Space
 70
0
 10
0.0
 20
0.0
 30
0.0
  3
*Paper_Space
  1

  0
ENDBLK
  5
1D
330
1B
100
AcDbEntity
  8
0
100
AcDbBlockEnd
  0
ENDSEC
  0
SECTION
  2
ENTITIES
  0
CIRCLE
  5
32
330
17
100
AcDbEntity
  8
CUT_REFERENCE
100
AcDbCircle
 10
0.0
 20
0.0
 30
0.0
 40
57.5
  0
CIRCLE
  5
33
330
17
100
AcDbEntity
  8
CUT_REFERENCE
100
AcDbCircle
 10
0.0
 20
0.0
 30
0.0
 40
47.0
  0
CIRCLE
  5
34
330
17
100
AcDbEntity
  8
CUT_REFERENCE
100
AcDbCircle
 10
0.0
 20
0.0
 30
0.0
 40
1.6
  0
LINE
  5
35
330
17
100
AcDbEntity
  8
ENGRAVE_LOG
100
AcDbLine
 10
2.87791997799628e-15
 20
47.0
 30
0.0
 11
2.7309623620985977e-15
 21
44.6
 31
0.0
  0
LINE
  5
36
330
17
100
AcDbEntity
  8
ENGRAVE_LOG
100
AcDbLine
 10
2.87791997799628e-15
 20
47.0
 30
0.0
 11
3.024877593893962e-15
 21
49.4
 31
0.0
  0
TEXT
  5
37
330
17
100
AcDbEntity
  8
ENGRAVE_TEXT
100
AcDbText
 10
2.620744150175336e-15
 20
42.8
 30
0.0
 40
3.0
  1
1
 50
90.0
 72
1
 11
2.620744150175336e-15
 21
42.8
 31
0.0
100
AcDbText
 73
2
  0
TEXT
  5
38
330
17
100
AcDbEntity
  8
ENGRAVE_TEXT
100
AcDbText
 10
3.1350958058172244e-15
 20
51.2
 30
0.0
 40
3.0
  1
1
 50
90.0
 72
1
 11
3.1350958058172244e-15
 21
51.2
 31
0.0
100
AcDbText
 73
2
  0
LINE
  5
39
330
17
100
AcDbEntity
  8
ENGRAVE_LOG
100
AcDbLine
 10
2.5384784355319487
 20
46.93139809586263
 30
0.0
 11
2.506072327844307
 21
46.33227386485162
 31
0.0
  0
LINE
  5
3A
330
17
100
AcDbEntity
  8
ENGRAVE_LOG
100
AcDbLine
 10
2.5384784355319487
 20
46.93139809586263
 30
0.0
 11
2.570884543219591
 21
47.53052232687365
 31
0.0
  0
LINE
  5
3B
330
17
100
AcDbEntity
  8
ENGRAVE_LOG
100
AcDbLine
 10
5.020513448460052
 20
46.73108649190421
 30
0.0
 11
4.956421787415882
 21
46.13451943030543
 31
0.0
  0
LINE
  5
3C
330
17
100
AcDbEntity
  8
ENGRAVE_LOG
100
AcDbLine
 10
5.020513448460052
 20
46.73108649190421
 30
0.0
 11
5.084605109504224
 21
47.327653553502984
 31
0.0
  0
LINE
  5
3D
330
17
100
AcDbEntity
  8
ENGRAVE_LOG
100
AcDbLine
 10
7.441619156508631
 20
46.40713635131437
 30
0.0
 11
7.346619763021287
 21
45.81470482342525
 31
0.0
  0
LINE
  5
3E
330
17
100
AcDbEntity
  8
ENGRAVE_LOG
100
AcDbLine
 10
7.441619156508631
 20
46.40713635131437
 30
0.0
 11
7.536618549995976
 21
46.9995678792035
 31
0.0
  0
LINE
  5
3F
330
17
100
AcDbEntity
  8
ENGRAVE_LOG
100
AcDbLine
 10
9.797966915288216
 20
45.967378044945285
 30
0.0
 11
9.672886486582408
 21
45.38056045288215
 31
0.0
  0
LINE
  5
40
330
17
100
AcDbEntity
  8
ENGRAVE_LOG
100
AcDbLine
 10
9.797966915288216
 20
45.967378044945285
 30
0.0
 11
9.923047343994023
 21
46.55419563700842
 31
0.0
  0
LINE
  5
41
330
17
100
AcDbEntity
  8
ENGRAVE_LOG
100
AcDbLine
 10
12.086324655083876
 20
45.41938744998562
 30
0.0
 11
11.777737642613648
 21
44.25974351509237
 31
0.0
  0
LINE
  5
42
330
17
100
AcDbEntity
  8
ENGRAVE_LOG
100
AcDbLine
 10
12.086324655083876
 20
45.41938744998562
 30
0.0
 11
12.394911667554103
 21
46.579031384878874
 31
0.0
  0
LINE
  5
43
330
17
100
AcDbEntity
  8
ENGRAVE_LOG
100
AcDbLine
 10
14.304001113300517
 20
44.77047634491616
 30
0.0
 11
14.12139684376902
 21
44.198938349023614
 31
0.0
  0
LINE
  5
44
330
17
100
AcDbEntity
  8
ENGRAVE_LOG
100
AcDbLine
 10
14.304001113300517
 20
44.77047634491616
 30
0.0
 11
14.486605382832012
 21
45.34201434080871
 31
0.0
  0
LINE
  5
45
330
17
100
AcDbEntity
  8
ENGRAVE_LOG
100
AcDbLine
 10
16.448794624054184
 20
44.027686237363035
 30
0.0
 11
16.238810011832214
 21
43.46563066837542
 31
0.0
  0
LINE
  5
46
330
17
100
AcDbEntity
  8
ENGRAVE_LOG
100
AcDbLine
 10
16.448794624054184
 20
44.027686237363035
 30
0.0
 11
16.658779236276153
 21
44.589741806350645
 31
0.0
  0
LINE
  5
47
330
17
100
AcDbEntity
  8
ENGRAVE_LOG
100
AcDbLine
 10
18.518946138472625
 20
43.19778505803683
 30
0.0
 11
18.282534060109146
 21
42.64632397218955
 31
0.0
  0
LINE
  5
48
330
17
100
AcDbEntity
  8
ENGRAVE_LOG
100
AcDbLine
 10
18.518946138472625
 20
43.19778505803683
 30
0.0
 11
18.755358216836107
 21
43.74924614388411
 31
0.0
  0
LINE
  5
49
330
17
100
AcDbEntity
  8
ENGRAVE_LOG
100
AcDbLine
 10
20.513096163866145
 20
42.28726623668146
 30
0.0
 11
20.251226851135936
 21
41.747428795362126
 31
0.0
  0
LINE
  5
4A
330
17
100
AcDbEntity
  8
ENGRAVE_LOG
100
AcDbLine
 10
20.513096163866145
 20
42.28726623668146
 30
0.0
 11
20.77496547659635
 21
42.8271036780008
 31
0.0
  0
LINE
  5
4B
330
17
100
AcDbEntity
  8
ENGRAVE_LOG
100
AcDbLine
 10
22.430245326082943
 20
41.30234974685743
 30
0.0
 11
21.857558211374442
 21
40.24782166821426
 31
0.0
  0
LINE
  5
4C
330
17
100
AcDbEntity
  8
ENGRAVE_LOG
100
AcDbLine
 10
22.430245326082943
 20
41.30234974685743
 30
0.0
 11
23.002932440791447
 21
42.356877825500604
 31
0.0
  0
LINE
  5
4D
330
17
100
AcDbEntity
  8
ENGRAVE_LOG
100
AcDbLine
 10
24.26971827634347
 20
40.248984767158035
 30
0.0
 11
23.959892085581636
 21
39.73516794034325
 31
0.0
  0
LINE
  5
4E
330
17
100
AcDbEntity
  8
ENGRAVE_LOG
100
AcDbLine
 10
24.26971827634347
 20
40.248984767158035
 30
0.0
 11
24.5795444671053
 21
40.762801593972824
 31
0.0
  0
LINE
  5
4F
330
17
100
AcDbEntity
  8
ENGRAVE_LOG
100
AcDbLine
 10
26.031130681120665
 20
39.13285365856186
 30
0.0
 11
25.698818374553166
 21
38.63328531398447
 31
0.0
  0
LINE
  5
50
330
17
100
AcDbEntity
  8
ENGRAVE_LOG
100
AcDbLine
 10
26.031130681120665
 20
39.13285365856186
 30
0.0
 11
26.363442987688163
 21
39.63242200313925
 31
0.0
  0
LINE
  5
51
330
17
100
AcDbEntity
  8
ENGRAVE_LOG
100
AcDbLine
 10
27.71435905080309
 20
37.95937700230562
 30
0.0
 11
27.360558722494964
 21
37.474789210786824
 31
0.0
  0
LINE
  5
52
330
17
100
AcDbEntity
  8
ENGRAVE_LOG
100
AcDbLine
 10
27.71435905080309
 20
37.95937700230562
 30
0.0
 11
28.068159379111215
 21
38.443964793824414
 31
0.0
  0
LINE
  5
53
330
17
100
AcDbEntity
  8
ENGRAVE_LOG
100
AcDbLine
 10
29.319513179665197
 20
36.733719480981485
 30
0.0
 11
28.94522152205245
 21
36.26477838122427
 31
0.0
  0
LINE
  5
54
330
17
100
AcDbEntity
  8
ENGRAVE_LOG
100
AcDbLine
 10
29.319513179665197
 20
36.733719480981485
 30
0.0
 11
29.693804837277945
 21
37.202660580738694
 31
0.0
  0
LINE
  5
55
330
17
100
AcDbEntity
  8
ENGRAVE_LOG
100
AcDbLine
 10
30.846910985877344
 20
35.460796418430306
 30
0.0
 11
30.05933027985494
 21
34.55541438221506
 31
0.0
  0
LINE
  5
56
330
17
100
AcDbEntity
  8
ENGRAVE_LOG
100
AcDbLine
 10
30.846910985877344
 20
35.460796418430306
 30
0.0
 11
31.634491691899747
 21
36.36617845464555
 31
0.0
  0
LINE
  5
57
330
17
100
AcDbEntity
  8
ENGRAVE_LOG
100
AcDbLine
 10
32.297055555785754
 20
34.14528082219399
 30
0.0
 11
31.88475271890338
 21
33.709383620208534
 31
0.0
  0
LINE
  5
58
330
17
100
AcDbEntity
  8
ENGRAVE_LOG
100
AcDbLine
 10
32.297055555785754
 20
34.14528082219399
 30
0.0
 11
32.70935839266812
 21
34.581178024179444
 31
0.0
  0
LINE
  5
59
330
17
100
AcDbEntity
  8
ENGRAVE_LOG
100
AcDbLine
 10
33.67061421139942
 20
32.79161079646909
 30
0.0
 11
33.24077658316879
 21
32.37299448842905
 31
0.0
  0
LINE
  5
5A
330
17
100
AcDbEntity
  8
ENGRAVE_LOG
100
AcDbLine
 10
33.67061421139942
 20
32.79161079646909
 30
0.0
 11
34.10045183963005
 21
33.210227104509116
 31
0.0
  0
LINE
  5
5B
330
17
100
AcDbEntity
  8
ENGRAVE_LOG
100
AcDbLine
 10
34.96839943388962
 20
31.403997214239276
 30
0.0
 11
34.521994334733584
 21
31.0030951221426
 31
0.0
  0
LINE
  5
5C
330
17
100
AcDbEntity
  8
ENGRAVE_LOG
100
AcDbLine
 10
34.96839943388962
 20
31.403997214239276
 30
0.0
 11
35.41480453304566
 21
31.804899306335948
 31
0.0
  0
LINE
  5
5D
330
17
100
AcDbEntity
  8
ENGRAVE_LOG
100
AcDbLine
 10
36.19135148892322
 20
29.98643155504195
 30
0.0
 11
35.72933423587313
 21
29.603626045828648
 31
0.0
  0
LINE
  5
5E
330
17
100
AcDbEntity
  8
ENGRAVE_LOG
100
AcDbLine
 10
36.19135148892322
 20
29.98643155504195
 30
0.0
 11
36.6533687419733
 21
30.369237064255252
 31
0.0
  0
LINE
  5
5F
330
17
100
AcDbEntity
  8
ENGRAVE_LOG
100
AcDbLine
 10
37.340522611814535
 20
28.542693830060394
 30
0.0
 11
36.3871475664065
 21
27.813944200356723
 31
0.0
  0
LINE
  5
60
330
17
100
AcDbEntity
  8
ENGRAVE_LOG
100
AcDbLine
 10
37.340522611814535
 20
28.542693830060394
 30
0.0
 11
38.293897657222566
 21
29.271443459764065
 31
0.0
  0
LINE
  5
61
330
17
100
AcDbEntity
  8
ENGRAVE_LOG
100
AcDbLine
 10
38.41706262181067
 20
27.076360529286017
 30
0.0
 11
37.926632035149254
 21
26.730704862954706
 31
0.0
  0
LINE
  5
62
330
17
100
AcDbEntity
  8
ENGRAVE_LOG
100
AcDbLine
 10
38.41706262181067
 20
27.076360529286017
 30
0.0
 11
38.90749320847208
 21
27.422016195617328
 31
0.0
  0
LINE
  5
63
330
17
100
AcDbEntity
  8
ENGRAVE_LOG
100
AcDbLine
 10
39.422205845348586
 20
25.590812536669556
 30
0.0
 11
38.91894364306754
 21
25.264121312797176
 31
0.0
  0
LINE
  5
64
330
17
100
AcDbEntity
  8
ENGRAVE_LOG
100
AcDbLine
 10
39.422205845348586
 20
25.590812536669556
 30
0.0
 11
39.925468047629636
 21
25.917503760541933
 31
0.0
  0
LINE
  5
65
330
17
100
AcDbEntity
  8
ENGRAVE_LOG
100
AcDbLine
 10
40.357259237874196
 20
24.08924296874059
 30
0.0
 11
39.842060183773675
 21
23.781720718075814
 31
0.0
  0
LINE
  5
66
330
17
100
AcDbEntity
  8
ENGRAVE_LOG
100
AcDbLine
 10
40.357259237874196
 20
24.08924296874059
 30
0.0
 11
40.87245829197472
 21
24.39676521940536
 31
0.0
  0
LINE
  5
67
330
17
100
AcDbEntity
  8
ENGRAVE_LOG
100
AcDbLine
 10
41.22359160283231
 20
22.574664900345564
 30
0.0
 11
40.69733298662593
 21
22.28647768885179
 31
0.0
  0
LINE
  5
68
330
17
100
AcDbEntity
  8
ENGRAVE_LOG
100
AcDbLine
 10
41.22359160283231
 20
22.574664900345564
 30
0.0
 11
41.74985021903868
 21
22.862852111839338
 31
0.0
  0
LINE
  5
69
330
17
100
AcDbEntity
  8
ENGRAVE_LOG
100
AcDbLine
 10
42.022623814763755
 20
21.049918948130195
 30
0.0
 11
40.413246732496205
 21
20.2437518394784
 31
0.0
  0
LINE
  5
6A
330
17
100
AcDbEntity
  8
ENGRAVE_LOG
100
AcDbLine
 10
42.022623814763755
 20
21.049918948130195
 30
0.0
 11
43.6320008970313
 21
21.856086056781987
 31
0.0
  0
TEXT
  5
6B
330
17
100
AcDbEntity
  8
ENGRAVE_TEXT
100
AcDbText
 10
38.62504997442115
 20
19.348010607643072
 30
0.0
 40
1.9500000000000002
  1
1.5
 50
26.607146739954757
 72
1
 11
38.62504997442115
 21
19.348010607643072
 31
0.0
100
AcDbText
 73
2
  0
TEXT
  5
6C
330
17
100
AcDbEntity
  8
ENGRAVE_TEXT
100
AcDbText
 10
45.42019765510635
 20
22.751827288617314
 30
0.0
 40
1.9500000000000002
  1
1.5
 50
26.607146739954757
 72
1
 11
45.42019765510635
 21
22.751827288617314
 31
0.0
100
AcDbText
 73
2
  0
LINE
  5
6D
330
17
100
AcDbEntity
  8
ENGRAVE_LOG
100
AcDbLine
 10
42.75581996112352
 20
19.517680688339784
 30
0.0
 11
42.21000098289641
 21
19.26851880721204
 31
0.0
  0
LINE
  5
6E
330
17
100
AcDbEntity
  8
ENGRAVE_LOG
100
AcDbLine
 10
42.75581996112352
 20
19.517680688339784
 30
0.0
 11
43.30163893935063
 21
19.766842569467524
 31
0.0
  0
LINE
  5
6F
330
17
100
AcDbEntity
  8
ENGRAVE_LOG
100
AcDbLine
 10
43.42467932450474
 20
17.98046789057312
 30
0.0
 11
42.8703217161068
 21
17.750930002608357
 31
0.0
  0
LINE
  5
70
330
17
100
AcDbEntity
  8
ENGRAVE_LOG
100
AcDbLine
 10
43.42467932450474
 20
17.98046789057312
 30
0.0
 11
43.979036932902666
 21
18.210005778537884
 31
0.0
  0
LINE
  5
71
330
17
100
AcDbEntity
  8
ENGRAVE_LOG
100
AcDbLine
 10
44.03072913345873
 20
16.440647553426516
 30
0.0
 11
43.46863471898904
 21
16.230766946361495
 31
0.0
  0
LINE
  5
72
330
17
100
AcDbEntity
  8
ENGRAVE_LOG
100
AcDbLine
 10
44.03072913345873
 20
16.440647553426516
 30
0.0
 11
44.59282354792841
 21
16.650528160491536
 31
0.0
  0
LINE
  5
73
330
17
100
AcDbEntity
  8
ENGRAVE_LOG
100
AcDbLine
 10
44.575518016081524
 20
14.900442731610067
 30
0.0
 11
44.00646884991878
 21
14.710224313759726
 31
0.0
  0
LINE
  5
74
330
17
100
AcDbEntity
  8
ENGRAVE_LOG
100
AcDbLine
 10
44.575518016081524
 20
14.900442731610067
 30
0.0
 11
45.14456718224427
 21
15.09066114946041
 31
0.0
  0
LINE
  5
75
330
17
100
AcDbEntity
  8
ENGRAVE_LOG
100
AcDbLine
 10
45.06061009603095
 20
13.361939147199905
 30
0.0
 11
43.910126434004624
 21
13.020783254079907
 31
0.0
  0
LINE
  5
76
330
17
100
AcDbEntity
  8
ENGRAVE_LOG
100
AcDbLine
 10
45.06061009603095
 20
13.361939147199905
 30
0.0
 11
46.211093758057274
 21
13.703095040319903
 31
0.0
  0
LINE
  5
77
330
17
100
AcDbEntity
  8
ENGRAVE_LOG
100
AcDbLine
 10
45.487579675681786
 20
11.827091580287233
 30
0.0
 11
44.90688716918372
 21
11.676107432453778
 31
0.0
  0
LINE
  5
78
330
17
100
AcDbEntity
  8
ENGRAVE_LOG
100
AcDbLine
 10
45.487579675681786
 20
11.827091580287233
 30
0.0
 11
46.068272182179854
 21
11.978075728120686
 31
0.0
  0
LINE
  5
79
330
17
100
AcDbEntity
  8
ENGRAVE_LOG
100
AcDbLine
 10
45.85800645575523
 20
10.297730036464914
 30
0.0
 11
45.27258509674559
 21
10.166269653020683
 31
0.0
  0
LINE
  5
7A
330
17
100
AcDbEntity
  8
ENGRAVE_LOG
100
AcDbLine
 10
45.85800645575523
 20
10.297730036464914
 30
0.0
 11
46.443427814764874
 21
10.429190419909148
 31
0.0
  0
LINE
  5
7B
330
17
100
AcDbEntity
  8
ENGRAVE_LOG
100
AcDbLine
 10
46.17347124500407
 20
8.775565690414615
 30
0.0
 11
45.58402267591891
 21
8.663537192239108
 31
0.0
  0
LINE
  5
7C
330
17
100
AcDbEntity
  8
ENGRAVE_LOG
100
AcDbLine
 10
46.17347124500407
 20
8.775565690414615
 30
0.0
 11
46.76291981408923
 21
8.887594188590121
 31
0.0
  0
LINE
  5
7D
330
17
100
AcDbEntity
  8
ENGRAVE_LOG
100
AcDbLine
 10
46.435552117428315
 20
7.262196606371841
 30
0.0
 11
45.84275783507816
 21
7.16948771352454
 31
0.0
  0
LINE
  5
7E
330
17
100
AcDbEntity
  8
ENGRAVE_LOG
100
AcDbLine
 10
46.435552117428315
 20
7.262196606371841
 30
0.0
 11
47.028346399778464
 21
7.354905499219141
 31
0.0
  0
LINE
  5
7F
330
17
100
AcDbEntity
  8
ENGRAVE_LOG
100
AcDbLine
 10
46.64582097806501
 20
5.759113237496735
 30
0.0
 11
45.454863846710154
 21
5.612072048454265
 31
0.0
  0
LINE
  5
80
330
17
100
AcDbEntity
  8
ENGRAVE_LOG
100
AcDbLine
 10
46.64582097806501
 20
5.759113237496735
 30
0.0
 11
47.83677810941986
 21
5.906154426539205
 31
0.0
  0
LINE
  5
81
330
17
100
AcDbEntity
  8
ENGRAVE_LOG
100
AcDbLine
 10
46.80584050166735
 20
4.267703707203238
 30
0.0
 11
46.208319133560956
 21
4.213222383281495
 31
0.0
  0
LINE
  5
82
330
17
100
AcDbEntity
  8
ENGRAVE_LOG
100
AcDbLine
 10
46.80584050166735
 20
4.267703707203238
 30
0.0
 11
47.40336186977375
 21
4.322185031124982
 31
0.0
  0
LINE
  5
83
330
17
100
AcDbEntity
  8
ENGRAVE_LOG
100
AcDbLine
 10
46.91716141158599
 20
2.789258876330156
 30
0.0
 11
46.318218925480636
 21
2.753651316206792
 31
0.0
  0
LINE
  5
84
330
17
100
AcDbEntity
  8
ENGRAVE_LOG
100
AcDbLine
 10
46.91716141158599
 20
2.789258876330156
 30
0.0
 11
47.516103897691345
 21
2.8248664364535196
 31
0.0
  0
LINE
  5
85
330
17
100
AcDbEntity
  8
ENGRAVE_LOG
100
AcDbLine
 10
46.98132006891269
 20
1.3249772007026384
 30
0.0
 11
46.38155853611806
 21
1.308062598140477
 31
0.0
  0
LINE
  5
86
330
17
100
AcDbEntity
  8
ENGRAVE_LOG
100
AcDbLine
 10
46.98132006891269
 20
1.3249772007026384
 30
0.0
 11
47.58108160170732
 21
1.3418918032647997
 31
0.0
  0
LINE
  5
87
330
17
100
AcDbEntity
  8
ENGRAVE_LOG
100
AcDbLine
 10
46.999836344463304
 20
-0.1240306158427825
 30
0.0
 11
46.39983843368292
 21
-0.12244724627883208
 31
0.0
  0
LINE
  5
88
330
17
100
AcDbEntity
  8
ENGRAVE_LOG
100
AcDbLine
 10
46.999836344463304
 20
-0.1240306158427825
 30
0.0
 11
47.59983425524369
 21
-0.1256139854067329
 31
0.0
  0
LINE
  5
89
330
17
100
AcDbEntity
  8
ENGRAVE_LOG
100
AcDbLine
 10
46.97421174848329
 20
-1.5567371674930168
 30
0.0
 11
45.77487017192627
 21
-1.5169906866208547
 31
0.0
  0
LINE
  5
8A
330
17
100
AcDbEntity
  8
ENGRAVE_LOG
100
AcDbLine
 10
46.97421174848329
 20
-1.5567371674930168
 30
0.0
 11
48.17355332504032
 21
-1.596483648365179
 31
0.0
  0
LINE
  5
8B
330
17
100
AcDbEntity
  8
ENGRAVE_LOG
100
AcDbLine
 10
46.90592779507175
 20
-2.9721940857749938
 30
0.0
 11
46.307128716836786
 21
-2.9342511825523343
 31
0.0
  0
LINE
  5
8C
330
17
100
AcDbEntity
  8
ENGRAVE_LOG
100
AcDbLine
 10
46.90592779507175
 20
-2.9721940857749938
 30
0.0
 11
47.5047268733067
 21
-3.0101369889976537
 31
0.0
  0
LINE
  5
8D
330
17
100
AcDbEntity
  8
ENGRAVE_LOG
100
AcDbLine
 10
46.79644458025564
 20
-4.369527966160958
 30
0.0
 11
46.19904316008216
 21
-4.313746758082307
 31
0.0
  0
LINE
  5
8E
330
17
100
AcDbEntity
  8
ENGRAVE_LOG
100
AcDbLine
 10
46.79644458025564
 20
-4.369527966160958
 30
0.0
 11
47.393846000429114
 21
-4.425309174239609
 31
0.0
  0
LINE
  5
8F
330
17
100
AcDbEntity
  8
ENGRAVE_LOG
100
AcDbLine
 10
46.6471995544196
 20
-5.74793647582813
 30
0.0
 11
46.051703389895096
 21
-5.674558563370749
 31
0.0
  0
LINE
  5
90
330
17
100
AcDbEntity
  8
ENGRAVE_LOG
100
AcDbLine
 10
46.6471995544196
 20
-5.74793647582813
 30
0.0
 11
47.242695718944105
 21
-5.8213143882855105
 31
0.0
  0
LINE
  5
91
330
17
100
AcDbEntity
  8
ENGRAVE_LOG
100
AcDbLine
 10
46.45960647142146
 20
-7.106684636358443
 30
0.0
 11
45.866505112211826
 21
-7.015961002702803
 31
0.0
  0
LINE
  5
92
330
17
100
AcDbEntity
  8
ENGRAVE_LOG
100
AcDbLine
 10
46.45960647142146
 20
-7.106684636358443
 30
0.0
 11
47.0527078306311
 21
-7.1974082700140825
 31
0.0
  0
LINE
  5
93
330
17
100
AcDbEntity
  8
ENGRAVE_LOG
100
AcDbLine
 10
46.23505449821269
 20
-8.44510127513594
 30
0.0
 11
45.054585021662575
 21
-8.229481668111191
 31
0.0
  0
LINE
  5
94
330
17
100
AcDbEntity
  8
ENGRAVE_LOG
100
AcDbLine
 10
46.23505449821269
 20
-8.44510127513594
 30
0.0
 11
47.4155239747628
 21
-8.660720882160687
 31
0.0
  0
LINE
  5
95
330
17
100
AcDbEntity
  8
ENGRAVE_LOG
100
AcDbLine
 10
45.97490747014747
 20
-9.762575639214182
 30
0.0
 11
45.38799375776261
 21
-9.637947014032726
 31
0.0
  0
LINE
  5
96
330
17
100
AcDbEntity
  8
ENGRAVE_LOG
100
AcDbLine
 10
45.97490747014747
 20
-9.762575639214182
 30
0.0
 11
46.561821182532334
 21
-9.88720426439564
 31
0.0
  0
LINE
  5
97
330
17
100
AcDbEntity
  8
ENGRAVE_LOG
100
AcDbLine
 10
45.68050327841416
 20
-11.058554165477219
 30
0.0
 11
45.097347917413124
 21
-10.917381133577509
 31
0.0
  0
LINE
  5
98
330
17
100
AcDbEntity
  8
ENGRAVE_LOG
100
AcDbLine
 10
45.68050327841416
 20
-11.058554165477219
 30
0.0
 11
46.26365863941519
 21
-11.199727197376928
 31
0.0
  0
LINE
  5
99
330
17
100
AcDbEntity
  8
ENGRAVE_LOG
100
AcDbLine
 10
45.3531533771689
 20
-12.33253740099713
 30
0.0
 11
44.77417695107738
 21
-12.175100753324825
 31
0.0
  0
LINE
  5
9A
330
17
100
AcDbEntity
  8
ENGRAVE_LOG
100
AcDbLine
 10
45.3531533771689
 20
-12.33253740099713
 30
0.0
 11
45.93212980326042
 21
-12.489974048669433
 31
0.0
  0
LINE
  5
9B
330
17
100
AcDbEntity
  8
ENGRAVE_LOG
100
AcDbLine
 10
44.99414239900156
 20
-13.584077067595365
 30
0.0
 11
44.41974909178026
 21
-13.410663317796274
 31
0.0
  0
LINE
  5
9C
330
17
100
AcDbEntity
  8
ENGRAVE_LOG
100
AcDbLine
 10
44.99414239900156
 20
-13.584077067595365
 30
0.0
 11
45.56853570622286
 21
-13.757490817394455
 31
0.0
  0
LINE
  5
9D
330
17
100
AcDbEntity
  8
ENGRAVE_LOG
100
AcDbLine
 10
44.60472786832642
 20
-14.812773264738233
 30
0.0
 11
42.32703963675231
 21
-14.05637633207075
 31
0.0
  0
LINE
  5
9E
330
17
100
AcDbEntity
  8
ENGRAVE_LOG
100
AcDbLine
 10
44.60472786832642
 20
-14.812773264738233
 30
0.0
 11
46.88241609990054
 21
-15.569170197405716
 31
0.0
  0
TEXT
  5
9F
330
17
100
AcDbEntity
  8
ENGRAVE_TEXT
100
AcDbText
 10
40.61877346307172
 20
-13.489078632570134
 30
0.0
 40
3.0
  1
2
 50
-18.370798439033237
 72
1
 11
40.61877346307172
 21
-13.489078632570134
 31
0.0
100
AcDbText
 73
2
  0
TEXT
  5
A0
330
17
100
AcDbEntity
  8
ENGRAVE_TEXT
100
AcDbText
 10
48.59068227358113
 20
-16.136467896906332
 30
0.0
 40
3.0
  1
2
 50
-18.370798439033237
 72
1
 11
48.59068227358113
 21
-16.136467896906332
 31
0.0
100
AcDbText
 73
2
  0
LINE
  5
A1
330
17
100
AcDbEntity
  8
ENGRAVE_LOG
100
AcDbLine
 10
44.18614000317307
 20
-16.018271805035283
 30
0.0
 11
43.62206162015384
 21
-15.813783228800789
 31
0.0
  0
LINE
  5
A2
330
17
100
AcDbEntity
  8
ENGRAVE_LOG
100
AcDbLine
 10
44.18614000317307
 20
-16.018271805035283
 30
0.0
 11
44.75021838619231
 21
-16.222760381269776
 31
0.0
  0
LINE
  5
A3
330
17
100
AcDbEntity
  8
ENGRAVE_LOG
100
AcDbLine
 10
43.73958159666136
 20
-17.20026167675954
 30
0.0
 11
43.18120395925717
 21
-16.980683868120057
 31
0.0
  0
LINE
  5
A4
330
17
100
AcDbEntity
  8
ENGRAVE_LOG
100
AcDbLine
 10
43.73958159666136
 20
-17.20026167675954
 30
0.0
 11
44.297959234065544
 21
-17.419839485399024
 31
0.0
  0
LINE
  5
A5
330
17
100
AcDbEntity
  8
ENGRAVE_LOG
100
AcDbLine
 10
43.26622797018667
 20
-18.358472627967622
 30
0.0
 11
42.71389314503535
 21
-18.12410914761059
 31
0.0
  0
LINE
  5
A6
330
17
100
AcDbEntity
  8
ENGRAVE_LOG
100
AcDbLine
 10
43.26622797018667
 20
-18.358472627967622
 30
0.0
 11
43.81856279533799
 21
-18.592836108324654
 31
0.0
  0
LINE
  5
A7
330
17
100
AcDbEntity
  8
ENGRAVE_LOG
100
AcDbLine
 10
42.767226991021374
 20
-19.492672866963446
 30
0.0
 11
42.221262391135994
 21
-19.24383023461923
 31
0.0
  0
LINE
  5
A8
330
17
100
AcDbEntity
  8
ENGRAVE_LOG
100
AcDbLine
 10
42.767226991021374
 20
-19.492672866963446
 30
0.0
 11
43.313191590906754
 21
-19.74151549930766
 31
0.0
  0
LINE
  5
A9
330
17
100
AcDbEntity
  8
ENGRAVE_LOG
100
AcDbLine
 10
42.24369914766223
 20
-20.602666874019047
 30
0.0
 11
41.165136616232544
 21
-20.07664133681005
 31
0.0
  0
LINE
  5
AA
330
17
100
AcDbEntity
  8
ENGRAVE_LOG
100
AcDbLine
 10
42.24369914766223
 20
-20.602666874019047
 30
0.0
 11
43.3222616790919
 21
-21.128692411228045
 31
0.0
  0
LINE
  5
AB
330
17
100
AcDbEntity
  8
ENGRAVE_LOG
100
AcDbLine
 10
41.69673767682557
 20
-21.688293319438365
 30
0.0
 11
41.16443889797248
 21
-21.411421489828513
 31
0.0
  0
LINE
  5
AC
330
17
100
AcDbEntity
  8
ENGRAVE_LOG
100
AcDbLine
 10
41.69673767682557
 20
-21.688293319438365
 30
0.0
 11
42.22903645567867
 21
-21.965165149048218
 31
0.0
  0
LINE
  5
AD
330
17
100
AcDbEntity
  8
ENGRAVE_LOG
100
AcDbLine
 10
41.12740873651639
 20
-22.7494230832238
 30
0.0
 11
40.602377986688516
 21
-22.45900491620392
 31
0.0
  0
LINE
  5
AE
330
17
100
AcDbEntity
  8
ENGRAVE_LOG
100
AcDbLine
 10
41.12740873651639
 20
-22.7494230832238
 30
0.0
 11
41.65243948634426
 21
-23.03984125024368
 31
0.0
  0
LINE
  5
AF
330
17
100
AcDbEntity
  8
ENGRAVE_LOG
100
AcDbLine
 10
40.536751620078654
 20
-23.78595737177822
 30
0.0
 11
40.019261173864884
 21
-23.4823068521385
 31
0.0
  0
LINE
  5
B0
330
17
100
AcDbEntity
  8
ENGRAVE_LOG
100
AcDbLine
 10
40.536751620078654
 20
-23.78595737177822
 30
0.0
 11
41.054242066292424
 21
-24.089607891417945
 31
0.0
  0
LINE
  5
B1
330
17
100
AcDbEntity
  8
ENGRAVE_LOG
100
AcDbLine
 10
39.92577900657564
 20
-24.79782592724782
 30
0.0
 11
39.41608821074701
 21
-24.48125793668721
 31
0.0
  0
LINE
  5
B2
330
17
100
AcDbEntity
  8
ENGRAVE_LOG
100
AcDbLine
 10
39.92577900657564
 20
-24.79782592724782
 30
0.0
 11
40.43546980240426
 21
-25.11439391780843
 31
0.0
  0
LINE
  5
B3
330
17
100
AcDbEntity
  8
ENGRAVE_LOG
100
AcDbLine
 10
39.29547724325354
 20
-25.784985325280743
 30
0.0
 11
38.29218846257473
 21
-25.126645274422508
 31
0.0
  0
LINE
  5
B4
330
17
100
AcDbEntity
  8
ENGRAVE_LOG
100
AcDbLine
 10
39.29547724325354
 20
-25.784985325280743
 30
0.0
 11
40.29876602393236
 21
-26.443325376138976
 31
0.0
  0
LINE
  5
B5
330
17
100
AcDbEntity
  8
ENGRAVE_LOG
100
AcDbLine
 10
38.64680665621304
 20
-26.74741735714474
 30
0.0
 11
38.153443166984786
 21
-26.4059609653514
 31
0.0
  0
LINE
  5
B6
330
17
100
AcDbEntity
  8
ENGRAVE_LOG
100
AcDbLine
 10
38.64680665621304
 20
-26.74741735714474
 30
0.0
 11
39.14017014544129
 21
-27.088873748938077
 31
0.0
  0
LINE
  5
B7
330
17
100
AcDbEntity
  8
ENGRAVE_LOG
100
AcDbLine
 10
37.9807018857542
 20
-27.685127492310155
 30
0.0
 11
37.49584186168074
 21
-27.331700332833854
 31
0.0
  0
LINE
  5
B8
330
17
100
AcDbEntity
  8
ENGRAVE_LOG
100
AcDbLine
 10
37.9807018857542
 20
-27.685127492310155
 30
0.0
 11
38.465561909827656
 21
-28.038554651786455
 31
0.0
  0
LINE
  5
B9
330
17
100
AcDbEntity
  8
ENGRAVE_LOG
100
AcDbLine
 10
37.298072243172456
 20
-28.59814341776557
 30
0.0
 11
36.82192664006813
 21
-28.23306073583665
 31
0.0
  0
LINE
  5
BA
330
17
100
AcDbEntity
  8
ENGRAVE_LOG
100
AcDbLine
 10
37.298072243172456
 20
-28.59814341776557
 30
0.0
 11
37.774217846276784
 21
-28.96322609969449
 31
0.0
  0
LINE
  5
BB
330
17
100
AcDbEntity
  8
ENGRAVE_LOG
100
AcDbLine
 10
36.59980208606977
 20
-29.48651365048982
 30
0.0
 11
36.13257057007739
 21
-29.110090071972927
 31
0.0
  0
LINE
  5
BC
330
17
100
AcDbEntity
  8
ENGRAVE_LOG
100
AcDbLine
 10
36.59980208606977
 20
-29.48651365048982
 30
0.0
 11
37.06703360206215
 21
-29.86293722900671
 31
0.0
  0
LINE
  5
BD
330
17
100
AcDbEntity
  8
ENGRAVE_LOG
100
AcDbLine
 10
35.88675120950857
 20
-30.350306219655106
 30
0.0
 11
34.97049373181898
 21
-29.575404784259653
 31
0.0
  0
LINE
  5
BE
330
17
100
AcDbEntity
  8
ENGRAVE_LOG
100
AcDbLine
 10
35.88675120950857
 20
-30.350306219655106
 30
0.0
 11
36.80300868719815
 21
-31.125207655050556
 31
0.0
  0
LINE
  5
BF
330
17
100
AcDbEntity
  8
ENGRAVE_LOG
100
AcDbLine
 10
35.15975525057652
 20
-31.189607415284296
 30
0.0
 11
34.71090731120746
 21
-30.791442214238113
 31
0.0
  0
LINE
  5
C0
330
17
100
AcDbEntity
  8
ENGRAVE_LOG
100
AcDbLine
 10
35.15975525057652
 20
-31.189607415284296
 30
0.0
 11
35.608603189945576
 21
-31.58777261633048
 31
0.0
  0
LINE
  5
C1
330
17
100
AcDbEntity
  8
ENGRAVE_LOG
100
AcDbLine
 10
34.4196261041519
 20
-32.00452060022748
 30
0.0
 11
33.980226621971234
 21
-31.59595225213947
 31
0.0
  0
LINE
  5
C2
330
17
100
AcDbEntity
  8
ENGRAVE_LOG
100
AcDbLine
 10
34.4196261041519
 20
-32.00452060022748
 30
0.0
 11
34.859025586332564
 21
-32.41308894831549
 31
0.0
  0
LINE
  5
C3
330
17
100
AcDbEntity
  8
ENGRAVE_LOG
100
AcDbLine
 10
33.66715234786222
 20
-32.795165082460485
 30
0.0
 11
33.237358913634196
 21
-32.37650340055673
 31
0.0
  0
LINE
  5
C4
330
17
100
AcDbEntity
  8
ENGRAVE_LOG
100
AcDbLine
 10
33.66715234786222
 20
-32.795165082460485
 30
0.0
 11
34.09694578209025
 21
-33.213826764364235
 31
0.0
  0
LINE
  5
C5
330
17
100
AcDbEntity
  8
ENGRAVE_LOG
100
AcDbLine
 10
32.90309967441415
 20
-33.56167504484196
 30
0.0
 11
32.48306010410248
 21
-33.133228129375894
 31
0.0
  0
LINE
  5
C6
330
17
100
AcDbEntity
  8
ENGRAVE_LOG
100
AcDbLine
 10
32.90309967441415
 20
-33.56167504484196
 30
0.0
 11
33.32313924472582
 21
-33.99012196030803
 31
0.0
  0
LINE
  5
C7
330
17
100
AcDbEntity
  8
ENGRAVE_LOG
100
AcDbLine
 10
32.12821132964458
 20
-34.30419852959252
 30
0.0
 11
31.30791657229195
 21
-33.42834665224122
 31
0.0
  0
LINE
  5
C8
330
17
100
AcDbEntity
  8
ENGRAVE_LOG
100
AcDbLine
 10
32.12821132964458
 20
-34.30419852959252
 30
0.0
 11
32.94850608699721
 21
-35.18005040694382
 31
0.0
  0
LINE
  5
C9
330
17
100
AcDbEntity
  8
ENGRAVE_LOG
100
AcDbLine
 10
31.343208554798093
 20
-35.02289647488385
 30
0.0
 11
30.943082488141094
 21
-34.575795668821506
 31
0.0
  0
LINE
  5
CA
330
17
100
AcDbEntity
  8
ENGRAVE_LOG
100
AcDbLine
 10
31.343208554798093
 20
-35.02289647488385
 30
0.0
 11
31.74333462145509
 21
-35.4699972809462
 31
0.0
  0
LINE
  5
CB
330
17
100
AcDbEntity
  8
ENGRAVE_LOG
100
AcDbLine
 10
30.548791031679805
 20
-35.71794180104391
 30
0.0
 11
30.158806465317934
 21
-35.261968075924194
 31
0.0
  0
LINE
  5
CC
330
17
100
AcDbEntity
  8
ENGRAVE_LOG
100
AcDbLine
 10
30.548791031679805
 20
-35.71794180104391
 30
0.0
 11
30.938775598041676
 21
-36.17391552616362
 31
0.0
  0
LINE
  5
CD
330
17
100
AcDbEntity
  8
ENGRAVE_LOG
100
AcDbLine
 10
29.74563732946461
 20
-36.38951854399782
 30
0.0
 11
29.365905789088465
 21
-35.92497149875529
 31
0.0
  0
LINE
  5
CE
330
17
100
AcDbEntity
  8
ENGRAVE_LOG
100
AcDbLine
 10
29.74563732946461
 20
-36.38951854399782
 30
0.0
 11
30.125368869840756
 21
-36.85406558924035
 31
0.0
  0
LINE
  5
CF
330
17
100
AcDbEntity
  8
ENGRAVE_LOG
100
AcDbLine
 10
28.934405352063465
 20
-37.03782103367423
 30
0.0
 11
28.565029964590313
 21
-36.56499778643583
 31
0.0
  0
LINE
  5
D0
330
17
100
AcDbEntity
  8
ENGRAVE_LOG
100
AcDbLine
 10
28.934405352063465
 20
-37.03782103367423
 30
0.0
 11
29.303780739536617
 21
-37.51064428091262
 31
0.0
  0
LINE
  5
D1
330
17
100
AcDbEntity
  8
ENGRAVE_LOG
100
AcDbLine
 10
28.115732785058306
 20
-37.6630531152109
 30
0.0
 11
27.038960040098626
 21
-36.22063831505389
 31
0.0
  0
LINE
  5
D2
330
17
100
AcDbEntity
  8
ENGRAVE_LOG
100
AcDbLine
 10
28.115732785058306
 20
-37.6630531152109
 30
0.0
 11
29.192505530017982
 21
-39.10546791536791
 31
0.0
  0
TEXT
  5
D3
330
17
100
AcDbEntity
  8
ENGRAVE_TEXT
100
AcDbText
 10
25.842545879032315
 20
-34.61795520376832
 30
0.0
 40
1.9500000000000002
  1
2.5
 50
-53.258403121933526
 72
1
 11
25.842545879032315
 21
-34.61795520376832
 31
0.0
100
AcDbText
 73
2
  0
TEXT
  5
D4
330
17
100
AcDbEntity
  8
ENGRAVE_TEXT
100
AcDbText
 10
30.388919691084293
 20
-40.70815102665348
 30
0.0
 40
1.9500000000000002
  1
2.5
 50
-53.258403121933526
 72
1
 11
30.388919691084293
 21
-40.70815102665348
 31
0.0
100
AcDbText
 73
2
  0
LINE
  5
D5
330
17
100
AcDbEntity
  8
ENGRAVE_LOG
100
AcDbLine
 10
27.29023754131828
 20
-38.26542741089432
 30
0.0
 11
26.941851530152515
 21
-37.7769325928829
 31
0.0
  0
LINE
  5
D6
330
17
100
AcDbEntity
  8
ENGRAVE_LOG
100
AcDbLine
 10
27.29023754131828
 20
-38.26542741089432
 30
0.0
 11
27.638623552484045
 21
-38.753922228905736
 31
0.0
  0
LINE
  5
D7
330
17
100
AcDbEntity
  8
ENGRAVE_LOG
100
AcDbLine
 10
26.45851820450248
 20
-38.84516462086383
 30
0.0
 11
26.12074988699819
 21
-38.349268902299606
 31
0.0
  0
LINE
  5
D8
330
17
100
AcDbEntity
  8
ENGRAVE_LOG
100
AcDbLine
 10
26.45851820450248
 20
-38.84516462086383
 30
0.0
 11
26.796286522006767
 21
-39.34106033942805
 31
0.0
  0
LINE
  5
D9
330
17
100
AcDbEntity
  8
ENGRAVE_LOG
100
AcDbLine
 10
25.621154469739054
 20
-39.40249286070325
 30
0.0
 11
25.29407590204026
 21
-38.899482313545334
 31
0.0
  0
LINE
  5
DA
330
17
100
AcDbEntity
  8
ENGRAVE_LOG
100
AcDbLine
 10
25.621154469739054
 20
-39.40249286070325
 30
0.0
 11
25.948233037437852
 21
-39.90550340786116
 31
0.0
  0
LINE
  5
DB
330
17
100
AcDbEntity
  8
ENGRAVE_LOG
100
AcDbLine
 10
24.778707580848536
 20
-39.93764703413058
 30
0.0
 11
24.462383654284512
 21
-39.42780473156721
 31
0.0
  0
LINE
  5
DC
330
17
100
AcDbEntity
  8
ENGRAVE_LOG
100
AcDbLine
 10
24.778707580848536
 20
-39.93764703413058
 30
0.0
 11
25.09503150741256
 21
-40.44748933669395
 31
0.0
  0
LINE
  5
DD
330
17
100
AcDbEntity
  8
ENGRAVE_LOG
100
AcDbLine
 10
23.93172076354989
 20
-40.45086823908079
 30
0.0
 11
23.320698105757128
 21
-39.418080113827656
 31
0.0
  0
LINE
  5
DE
330
17
100
AcDbEntity
  8
ENGRAVE_LOG
100
AcDbLine
 10
23.93172076354989
 20
-40.45086823908079
 30
0.0
 11
24.542743421342657
 21
-41.48365636433392
 31
0.0
  0
LINE
  5
DF
330
17
100
AcDbEntity
  8
ENGRAVE_LOG
100
AcDbLine
 10
23.080719654152706
 20
-40.942403205557056
 30
0.0
 11
22.786072169206076
 21
-40.41973422846484
 31
0.0
  0
LINE
  5
E0
330
17
100
AcDbEntity
  8
ENGRAVE_LOG
100
AcDbLine
 10
23.080719654152706
 20
-40.942403205557056
 30
0.0
 11
23.375367139099335
 21
-41.46507218264928
 31
0.0
  0
LINE
  5
E1
330
17
100
AcDbEntity
  8
ENGRAVE_LOG
100
AcDbLine
 10
22.22621272329872
 20
-41.4125037637025
 30
0.0
 11
21.94247383746937
 21
-40.88383350288928
 31
0.0
  0
LINE
  5
E2
330
17
100
AcDbEntity
  8
ENGRAVE_LOG
100
AcDbLine
 10
22.22621272329872
 20
-41.4125037637025
 30
0.0
 11
22.509951609128066
 21
-41.94117402451573
 31
0.0
  0
LINE
  5
E3
330
17
100
AcDbEntity
  8
ENGRAVE_LOG
100
AcDbLine
 10
21.36869169436941
 20
-41.86142634061801
 30
0.0
 11
21.09589988550512
 21
-41.327025153290975
 31
0.0
  0
LINE
  5
E4
330
17
100
AcDbEntity
  8
ENGRAVE_LOG
100
AcDbLine
 10
21.36869169436941
 20
-41.86142634061801
 30
0.0
 11
21.6414835032337
 21
-42.39582752794505
 31
0.0
  0
LINE
  5
E5
330
17
100
AcDbEntity
  8
ENGRAVE_LOG
100
AcDbLine
 10
20.508631956226505
 20
-42.28943148452158
 30
0.0
 11
20.24681963338106
 21
-41.74956640174045
 31
0.0
  0
LINE
  5
E6
330
17
100
AcDbEntity
  8
ENGRAVE_LOG
100
AcDbLine
 10
20.508631956226505
 20
-42.28943148452158
 30
0.0
 11
20.770444279071953
 21
-42.829296567302706
 31
0.0
  0
LINE
  5
E7
330
17
100
AcDbEntity
  8
ENGRAVE_LOG
100
AcDbLine
 10
19.64649296999698
 20
-42.69678341491147
 30
0.0
 11
19.14488038352897
 21
-41.60665277453075
 31
0.0
  0
LINE
  5
E8
330
17
100
AcDbEntity
  8
ENGRAVE_LOG
100
AcDbLine
 10
19.64649296999698
 20
-42.69678341491147
 30
0.0
 11
20.14810555646499
 21
-43.78691405529219
 31
0.0
  0
LINE
  5
E9
330
17
100
AcDbEntity
  8
ENGRAVE_LOG
100
AcDbLine
 10
18.782718669655658
 20
-43.08374959745924
 30
0.0
 11
18.542939282383458
 21
-42.53374428344912
 31
0.0
  0
LINE
  5
EA
330
17
100
AcDbEntity
  8
ENGRAVE_LOG
100
AcDbLine
 10
18.782718669655658
 20
-43.08374959745924
 30
0.0
 11
19.02249805692786
 21
-43.63375491146935
 31
0.0
  0
LINE
  5
EB
330
17
100
AcDbEntity
  8
ENGRAVE_LOG
100
AcDbLine
 10
17.917737856195817
 20
-43.450600342419285
 30
0.0
 11
17.68900077718055
 21
-42.89591182740968
 31
0.0
  0
LINE
  5
EC
330
17
100
AcDbEntity
  8
ENGRAVE_LOG
100
AcDbLine
 10
17.917737856195817
 20
-43.450600342419285
 30
0.0
 11
18.14647493521108
 21
-44.0052888574289
 31
0.0
  0
LINE
  5
ED
330
17
100
AcDbEntity
  8
ENGRAVE_LOG
100
AcDbLine
 10
17.051964585212264
 20
-43.79760842539997
 30
0.0
 11
16.834279930932958
 21
-43.23849001996933
 31
0.0
  0
LINE
  5
EE
330
17
100
AcDbEntity
  8
ENGRAVE_LOG
100
AcDbLine
 10
17.051964585212264
 20
-43.79760842539997
 30
0.0
 11
17.26964923949157
 21
-44.35672683083061
 31
0.0
  0
LINE
  5
EF
330
17
100
AcDbEntity
  8
ENGRAVE_LOG
100
AcDbLine
 10
16.18579854775295
 20
-44.12504872939585
 30
0.0
 11
15.979171332249718
 21
-43.56175023497803
 31
0.0
  0
LINE
  5
F0
330
17
100
AcDbEntity
  8
ENGRAVE_LOG
100
AcDbLine
 10
16.18579854775295
 20
-44.12504872939585
 30
0.0
 11
16.392425763256178
 21
-44.68834722381367
 31
0.0
  0
LINE
  5
F1
330
17
100
AcDbEntity
  8
ENGRAVE_LOG
100
AcDbLine
 10
15.31962544432264
 20
-44.43319790703413
 30
0.0
 11
14.928486071276103
 21
-43.29873327962049
 31
0.0
  0
LINE
  5
F2
330
17
100
AcDbEntity
  8
ENGRAVE_LOG
100
AcDbLine
 10
15.31962544432264
 20
-44.43319790703413
 30
0.0
 11
15.710764817369176
 21
-45.56766253444777
 31
0.0
  0
LINE
  5
F3
330
17
100
AcDbEntity
  8
ENGRAVE_LOG
100
AcDbLine
 10
14.453817351948825
 20
-44.72233406203776
 30
0.0
 11
14.269300534689904
 21
-44.15141064847983
 31
0.0
  0
LINE
  5
F4
330
17
100
AcDbEntity
  8
ENGRAVE_LOG
100
AcDbLine
 10
14.453817351948825
 20
-44.72233406203776
 30
0.0
 11
14.638334169207747
 21
-45.29325747559569
 31
0.0
  0
LINE
  5
F5
330
17
100
AcDbEntity
  8
ENGRAVE_LOG
100
AcDbLine
 10
13.588733084241841
 20
-44.992736448956194
 30
0.0
 11
13.41525989593237
 21
-44.41836109003335
 31
0.0
  0
LINE
  5
F6
330
17
100
AcDbEntity
  8
ENGRAVE_LOG
100
AcDbLine
 10
13.588733084241841
 20
-44.992736448956194
 30
0.0
 11
13.762206272551312
 21
-45.567111807879044
 31
0.0
  0
LINE
  5
F7
330
17
100
AcDbEntity
  8
ENGRAVE_LOG
100
AcDbLine
 10
12.724718544403991
 20
-45.24468519025965
 30
0.0
 11
12.562275328943514
 21
-44.66709346442655
 31
0.0
  0
LINE
  5
F8
330
17
100
AcDbEntity
  8
ENGRAVE_LOG
100
AcDbLine
 10
12.724718544403991
 20
-45.24468519025965
 30
0.0
 11
12.887161759864467
 21
-45.822276916092754
 31
0.0
  0
LINE
  5
F9
330
17
100
AcDbEntity
  8
ENGRAVE_LOG
100
AcDbLine
 10
11.862107071159894
 20
-45.478461009936765
 30
0.0
 11
11.71067591705998
 21
-44.897884911937574
 31
0.0
  0
LINE
  5
FA
330
17
100
AcDbEntity
  8
ENGRAVE_LOG
100
AcDbLine
 10
11.862107071159894
 20
-45.478461009936765
 30
0.0
 11
12.013538225259808
 21
-46.05903710793596
 31
0.0
  0
LINE
  5
FB
330
17
100
AcDbEntity
  8
ENGRAVE_LOG
100
AcDbLine
 10
11.001219777598369
 20
-45.69434498277636
 30
0.0
 11
10.720337570510749
 21
-44.52768085555653
 31
0.0
  0
LINE
  5
FC
330
17
100
AcDbEntity
  8
ENGRAVE_LOG
100
AcDbLine
 10
11.001219777598369
 20
-45.69434498277636
 30
0.0
 11
11.282101984685987
 21
-46.86100910999618
 31
0.0
  0
LINE
  5
FD
330
17
100
AcDbEntity
  8
ENGRAVE_LOG
100
AcDbLine
 10
10.142365882931413
 20
-45.89261829855373
 30
0.0
 11
10.012888871659948
 21
-45.30675508623177
 31
0.0
  0
LINE
  5
FE
330
17
100
AcDbEntity
  8
ENGRAVE_LOG
100
AcDbLine
 10
10.142365882931413
 20
-45.89261829855373
 30
0.0
 11
10.271842894202878
 21
-46.478481510875696
 31
0.0
  0
LINE
  5
FF
330
17
100
AcDbEntity
  8
ENGRAVE_LOG
100
AcDbLine
 10
9.285843037189712
 20
-46.073562040379244
 30
0.0
 11
9.167300360119206
 21
-45.48538890794887
 31
0.0
  0
LINE
  5
100
330
17
100
AcDbEntity
  8
ENGRAVE_LOG
100
AcDbLine
 10
9.285843037189712
 20
-46.073562040379244
 30
0.0
 11
9.40438571426022
 21
-46.66173517280962
 31
0.0
  0
LINE
  5
101
330
17
100
AcDbEntity
  8
ENGRAVE_LOG
100
AcDbLine
 10
8.43193763888622
 20
-46.237456976502656
 30
0.0
 11
8.324295881794056
 21
-45.64719156829198
 31
0.0
  0
LINE
  5
102
330
17
100
AcDbEntity
  8
ENGRAVE_LOG
100
AcDbLine
 10
8.43193763888622
 20
-46.237456976502656
 30
0.0
 11
8.539579395978386
 21
-46.827722384713326
 31
0.0
  0
LINE
  5
103
330
17
100
AcDbEntity
  8
ENGRAVE_LOG
100
AcDbLine
 10
7.580925145691697
 20
-46.384583364900664
 30
0.0
 11
7.484147377874355
 21
-45.7924397474764
 31
0.0
  0
LINE
  5
104
330
17
100
AcDbEntity
  8
ENGRAVE_LOG
100
AcDbLine
 10
7.580925145691697
 20
-46.384583364900664
 30
0.0
 11
7.677702913509037
 21
-46.97672698232493
 31
0.0
  0
LINE
  5
105
330
17
100
AcDbEntity
  8
ENGRAVE_LOG
100
AcDbLine
 10
6.733070378174275
 20
-46.51522077000766
 30
0.0
 11
6.389254018437716
 21
-44.13997545409238
 31
0.0
  0
LINE
  5
106
330
17
100
AcDbEntity
  8
ENGRAVE_LOG
100
AcDbLine
 10
6.733070378174275
 20
-46.51522077000766
 30
0.0
 11
7.076886737910833
 21
-48.890466085922945
 31
0.0
  0
TEXT
  5
107
330
17
100
AcDbEntity
  8
ENGRAVE_TEXT
100
AcDbText
 10
6.131391748635296
 20
-42.35854146715591
 30
0.0
 40
3.0
  1
3
 50
-81.76365169907848
 72
1
 11
6.131391748635296
 21
-42.35854146715591
 31
0.0
100
AcDbText
 73
2
  0
TEXT
  5
108
330
17
100
AcDbEntity
  8
ENGRAVE_TEXT
100
AcDbText
 10
7.334749007713253
 20
-50.671900072859415
 30
0.0
 40
3.0
  1
3
 50
-81.76365169907848
 72
1
 11
7.334749007713253
 21
-50.671900072859415
 31
0.0
100
AcDbText
 73
2
  0
LINE
  5
109
330
17
100
AcDbEntity
  8
ENGRAVE_LOG
100
AcDbLine
 10
5.888627816665628
 20
-46.62964789098017
 30
0.0
 11
5.813453844537982
 21
-46.034375790244255
 31
0.0
  0
LINE
  5
10A
330
17
100
AcDbEntity
  8
ENGRAVE_LOG
100
AcDbLine
 10
5.888627816665628
 20
-46.62964789098017
 30
0.0
 11
5.963801788793274
 21
-47.22491999171609
 31
0.0
  0
LINE
  5
10B
330
17
100
AcDbEntity
  8
ENGRAVE_LOG
100
AcDbLine
 10
5.047841891323271
 20
-46.728142400915125
 30
0.0
 11
4.983401356540421
 21
-46.13161292345663
 31
0.0
  0
LINE
  5
10C
330
17
100
AcDbEntity
  8
ENGRAVE_LOG
100
AcDbLine
 10
5.047841891323271
 20
-46.728142400915125
 30
0.0
 11
5.1122824261061215
 21
-47.324671878373614
 31
0.0
  0
LINE
  5
10D
330
17
100
AcDbEntity
  8
ENGRAVE_LOG
100
AcDbLine
 10
4.210947265465652
 20
-46.810980796469835
 30
0.0
 11
4.157190491863963
 21
-46.213393807578726
 31
0.0
  0
LINE
  5
10E
330
17
100
AcDbEntity
  8
ENGRAVE_LOG
100
AcDbLine
 10
4.210947265465652
 20
-46.810980796469835
 30
0.0
 11
4.264704039067341
 21
-47.40856778536094
 31
0.0
  0
LINE
  5
10F
330
17
100
AcDbEntity
  8
ENGRAVE_LOG
100
AcDbLine
 10
3.378169112262571
 20
-46.878438257358304
 30
0.0
 11
3.3350435491273043
 21
-46.27999010939203
 31
0.0
  0
LINE
  5
110
330
17
100
AcDbEntity
  8
ENGRAVE_LOG
100
AcDbLine
 10
3.378169112262571
 20
-46.878438257358304
 30
0.0
 11
3.421294675397838
 21
-47.476886405324585
 31
0.0
  0
LINE
  5
111
330
17
100
AcDbEntity
  8
ENGRAVE_LOG
100
AcDbLine
 10
2.5497233848696017
 20
-46.93078851522366
 30
0.0
 11
2.484624064404846
 21
-45.73255561696263
 31
0.0
  0
LINE
  5
112
330
17
100
AcDbEntity
  8
ENGRAVE_LOG
100
AcDbLine
 10
2.5497233848696017
 20
-46.93078851522366
 30
0.0
 11
2.614822705334358
 21
-48.12902141348469
 31
0.0
  0
LINE
  5
113
330
17
100
AcDbEntity
  8
ENGRAVE_LOG
100
AcDbLine
 10
1.7258170800984678
 20
-46.96830373141062
 30
0.0
 11
1.7037853726929553
 21
-46.36870836462665
 31
0.0
  0
LINE
  5
114
330
17
100
AcDbEntity
  8
ENGRAVE_LOG
100
AcDbLine
 10
1.7258170800984678
 20
-46.96830373141062
 30
0.0
 11
1.74784878750398
 21
-47.56789909819459
 31
0.0
  0
LINE
  5
115
330
17
100
AcDbEntity
  8
ENGRAVE_LOG
100
AcDbLine
 10
0.9066484957202562
 20
-46.99125438318505
 30
0.0
 11
0.8950742596046785
 21
-46.39136602935715
 31
0.0
  0
LINE
  5
116
330
17
100
AcDbEntity
  8
ENGRAVE_LOG
100
AcDbLine
 10
0.9066484957202562
 20
-46.99125438318505
 30
0.0
 11
0.9182227318358339
 21
-47.591142737012945
 31
0.0
  0
LINE
  5
117
330
17
100
AcDbEntity
  8
ENGRAVE_LOG
100
AcDbLine
 10
0.09240748150169308
 20
-46.999909157969256
 30
0.0
 11
0.09122781152507571
 21
-46.39991031765476
 31
0.0
  0
LINE
  5
118
330
17
100
AcDbEntity
  8
ENGRAVE_LOG
100
AcDbLine
 10
0.09240748150169308
 20
-46.999909157969256
 30
0.0
 11
0.09358715147831044
 21
-47.59990799828376
 31
0.0
  0
LINE
  5
119
330
17
100
AcDbEntity
  8
ENGRAVE_LOG
100
AcDbLine
 10
-0.7167243159231316
 20
-46.994534855182515
 30
0.0
 11
-0.7075746438049639
 21
-46.394604622988695
 31
0.0
  0
LINE
  5
11A
330
17
100
AcDbEntity
  8
ENGRAVE_LOG
100
AcDbLine
 10
-0.7167243159231316
 20
-46.994534855182515
 30
0.0
 11
-0.7258739880412992
 21
-47.59446508737634
 31
0.0
  0
LINE
  5
11B
330
17
100
AcDbEntity
  8
ENGRAVE_LOG
100
AcDbLine
 10
-1.5205732142402437
 20
-46.97539629529627
 30
0.0
 11
-1.481750068344748
 21
-45.776024474990834
 31
0.0
  0
LINE
  5
11C
330
17
100
AcDbEntity
  8
ENGRAVE_LOG
100
AcDbLine
 10
-1.5205732142402437
 20
-46.97539629529627
 30
0.0
 11
-1.5593963601357395
 21
-48.174768115601715
 31
0.0
  0
LINE
  5
11D
330
17
100
AcDbEntity
  8
ENGRAVE_LOG
100
AcDbLine
 10
-2.318973262595212
 20
-46.94275623573213
 30
0.0
 11
-2.2893693486046347
 21
-46.34348700719087
 31
0.0
  0
LINE
  5
11E
330
17
100
AcDbEntity
  8
ENGRAVE_LOG
100
AcDbLine
 10
-2.318973262595212
 20
-46.94275623573213
 30
0.0
 11
-2.3485771765857892
 21
-47.5420254642734
 31
0.0
  0
LINE
  5
11F
330
17
100
AcDbEntity
  8
ENGRAVE_LOG
100
AcDbLine
 10
-3.1117660145766397
 20
-46.896875293248755
 30
0.0
 11
-3.0720413420501296
 21
-46.29819177886686
 31
0.0
  0
LINE
  5
120
330
17
100
AcDbEntity
  8
ENGRAVE_LOG
100
AcDbLine
 10
-3.1117660145766397
 20
-46.896875293248755
 30
0.0
 11
-3.1514906871031503
 21
-47.49555880763066
 31
0.0
  0
LINE
  5
121
330
17
100
AcDbEntity
  8
ENGRAVE_LOG
100
AcDbLine
 10
-3.8988003069332358
 20
-46.838011872480855
 30
0.0
 11
-3.849028388121322
 21
-46.24007980602365
 31
0.0
  0
LINE
  5
122
330
17
100
AcDbEntity
  8
ENGRAVE_LOG
100
AcDbLine
 10
-3.8988003069332358
 20
-46.838011872480855
 30
0.0
 11
-3.9485722257451497
 21
-47.43594393893806
 31
0.0
  0
LINE
  5
123
330
17
100
AcDbEntity
  8
ENGRAVE_LOG
100
AcDbLine
 10
-4.679932043914791
 20
-46.76642210030975
 30
0.0
 11
-4.6201882305882185
 21
-46.1694039458377
 31
0.0
  0
LINE
  5
124
330
17
100
AcDbEntity
  8
ENGRAVE_LOG
100
AcDbLine
 10
-4.679932043914791
 20
-46.76642210030975
 30
0.0
 11
-4.739675857241362
 21
-47.363440254781786
 31
0.0
  0
LINE
  5
125
330
17
100
AcDbEntity
  8
ENGRAVE_LOG
100
AcDbLine
 10
-5.455023987125384
 20
-46.68235976576042
 30
0.0
 11
-5.315746778943459
 21
-45.49046972918781
 31
0.0
  0
LINE
  5
126
330
17
100
AcDbEntity
  8
ENGRAVE_LOG
100
AcDbLine
 10
-5.455023987125384
 20
-46.68235976576042
 30
0.0
 11
-5.594301195307309
 21
-47.874249802333026
 31
0.0
  0
LINE
  5
127
330
17
100
AcDbEntity
  8
ENGRAVE_LOG
100
AcDbLine
 10
-6.22394555077851
 20
-46.58607626513468
 30
0.0
 11
-6.144490926726018
 21
-45.99136039792019
 31
0.0
  0
LINE
  5
128
330
17
100
AcDbEntity
  8
ENGRAVE_LOG
100
AcDbLine
 10
-6.22394555077851
 20
-46.58607626513468
 30
0.0
 11
-6.303400174831002
 21
-47.18079213234916
 31
0.0
  0
LINE
  5
129
330
17
100
AcDbEntity
  8
ENGRAVE_LOG
100
AcDbLine
 10
-6.986572602242185
 20
-46.4778205521042
 30
0.0
 11
-6.897382313702923
 21
-45.88448667271563
 31
0.0
  0
LINE
  5
12A
330
17
100
AcDbEntity
  8
ENGRAVE_LOG
100
AcDbLine
 10
-6.986572602242185
 20
-46.4778205521042
 30
0.0
 11
-7.075762890781447
 21
-47.07115443149276
 31
0.0
  0
LINE
  5
12B
330
17
100
AcDbEntity
  8
ENGRAVE_LOG
100
AcDbLine
 10
-7.742787267763856
 20
-46.35783909250035
 30
0.0
 11
-7.643943174983892
 21
-45.766036891319494
 31
0.0
  0
LINE
  5
12C
330
17
100
AcDbEntity
  8
ENGRAVE_LOG
100
AcDbLine
 10
-7.742787267763856
 20
-46.35783909250035
 30
0.0
 11
-7.841631360543821
 21
-46.94964129368121
 31
0.0
  0
LINE
  5
12D
330
17
100
AcDbEntity
  8
ENGRAVE_LOG
100
AcDbLine
 10
-8.492477743264105
 20
-46.22637582355082
 30
0.0
 11
-8.384063133775628
 21
-45.63625187686719
 31
0.0
  0
LINE
  5
12E
330
17
100
AcDbEntity
  8
ENGRAVE_LOG
100
AcDbLine
 10
-8.492477743264105
 20
-46.22637582355082
 30
0.0
 11
-8.600892352752584
 21
-46.816499770234444
 31
0.0
  0
LINE
  5
12F
330
17
100
AcDbEntity
  8
ENGRAVE_LOG
100
AcDbLine
 10
-9.235538110089992
 20
-46.08367211732454
 30
0.0
 11
-8.999737137066417
 21
-44.907067722839656
 31
0.0
  0
LINE
  5
130
330
17
100
AcDbEntity
  8
ENGRAVE_LOG
100
AcDbLine
 10
-9.235538110089992
 20
-46.08367211732454
 30
0.0
 11
-9.471339083113566
 21
-47.26027651180942
 31
0.0
  0
LINE
  5
131
330
17
100
AcDbEntity
  8
ENGRAVE_LOG
100
AcDbLine
 10
-9.971868155618195
 20
-45.92996674815875
 30
0.0
 11
-9.844567711078387
 21
-45.34362674711842
 31
0.0
  0
LINE
  5
132
330
17
100
AcDbEntity
  8
ENGRAVE_LOG
100
AcDbLine
 10
-9.971868155618195
 20
-45.92996674815875
 30
0.0
 11
-10.099168600158
 21
-46.51630674919907
 31
0.0
  0
LINE
  5
133
330
17
100
AcDbEntity
  8
ENGRAVE_LOG
100
AcDbLine
 10
-10.701373198601114
 20
-45.765495863852074
 30
0.0
 11
-10.564759923725354
 21
-45.18125549112205
 31
0.0
  0
LINE
  5
134
330
17
100
AcDbEntity
  8
ENGRAVE_LOG
100
AcDbLine
 10
-10.701373198601114
 20
-45.765495863852074
 30
0.0
 11
-10.837986473476873
 21
-46.3497362365821
 31
0.0
  0
LINE
  5
135
330
17
100
AcDbEntity
  8
ENGRAVE_LOG
100
AcDbLine
 10
-11.42396391914737
 20
-45.59049296041905
 30
0.0
 11
-11.278126081881659
 21
-45.00848666730732
 31
0.0
  0
LINE
  5
136
330
17
100
AcDbEntity
  8
ENGRAVE_LOG
100
AcDbLine
 10
-11.42396391914737
 20
-45.59049296041905
 30
0.0
 11
-11.569801756413082
 21
-46.17249925353079
 31
0.0
  0
LINE
  5
137
330
17
100
AcDbEntity
  8
ENGRAVE_LOG
100
AcDbLine
 10
-12.139556193232528
 20
-45.405188860210124
 30
0.0
 11
-11.98458313544658
 21
-44.82554815135638
 31
0.0
  0
LINE
  5
138
330
17
100
AcDbEntity
  8
ENGRAVE_LOG
100
AcDbLine
 10
-12.139556193232528
 20
-45.405188860210124
 30
0.0
 11
-12.294529251018476
 21
-45.98482956906387
 31
0.0
  0
LINE
  5
139
330
17
100
AcDbEntity
  8
ENGRAVE_LOG
100
AcDbLine
 10
-12.848070931633938
 20
-45.20981169321216
 30
0.0
 11
-12.35601715127349
 21
-43.47837209645085
 31
0.0
  0
LINE
  5
13A
330
17
100
AcDbEntity
  8
ENGRAVE_LOG
100
AcDbLine
 10
-12.848070931633938
 20
-45.20981169321216
 30
0.0
 11
-13.340124711994386
 21
-46.94125128997348
 31
0.0
  0
TEXT
  5
13B
330
17
100
AcDbEntity
  8
ENGRAVE_TEXT
100
AcDbText
 10
-11.809290728650769
 20
-41.55455032227161
 30
0.0
 40
1.9500000000000002
  1
3.5
 50
-105.86449596609924
 72
1
 11
-11.809290728650769
 21
-41.55455032227161
 31
0.0
100
AcDbText
 73
2
  0
TEXT
  5
13C
330
17
100
AcDbEntity
  8
ENGRAVE_TEXT
100
AcDbText
 10
-13.886851134617107
 20
-48.86507306415272
 30
0.0
 40
1.9500000000000002
  1
3.5
 50
-105.86449596609924
 72
1
 11
-13.886851134617107
 21
-48.86507306415272
 31
0.0
100
AcDbText
 73
2
  0
LINE
  5
13D
330
17
100
AcDbEntity
  8
ENGRAVE_LOG
100
AcDbLine
 10
-13.549433923187685
 20
-45.00458688135211
 30
0.0
 11
-13.376462426295927
 21
-44.43006024031357
 31
0.0
  0
LINE
  5
13E
330
17
100
AcDbEntity
  8
ENGRAVE_LOG
100
AcDbLine
 10
-13.549433923187685
 20
-45.00458688135211
 30
0.0
 11
-13.722405420079443
 21
-45.57911352239066
 31
0.0
  0
LINE
  5
13F
330
17
100
AcDbEntity
  8
ENGRAVE_LOG
100
AcDbLine
 10
-14.243575682265174
 20
-44.789737125636094
 30
0.0
 11
-14.06174280121498
 21
-44.21795324743648
 31
0.0
  0
LINE
  5
140
330
17
100
AcDbEntity
  8
ENGRAVE_LOG
100
AcDbLine
 10
-14.243575682265174
 20
-44.789737125636094
 30
0.0
 11
-14.425408563315369
 21
-45.361521003835705
 31
0.0
  0
LINE
  5
141
330
17
100
AcDbEntity
  8
ENGRAVE_LOG
100
AcDbLine
 10
-14.930431300369069
 20
-44.565482395963805
 30
0.0
 11
-14.739830049726057
 21
-43.996561344100435
 31
0.0
  0
LINE
  5
142
330
17
100
AcDbEntity
  8
ENGRAVE_LOG
100
AcDbLine
 10
-14.930431300369069
 20
-44.565482395963805
 30
0.0
 11
-15.121032551012078
 21
-45.134403447827175
 31
0.0
  0
LINE
  5
143
330
17
100
AcDbEntity
  8
ENGRAVE_LOG
100
AcDbLine
 10
-15.609940301750498
 20
-44.33203992346603
 30
0.0
 11
-15.41066446811113
 21
-43.766098988272844
 31
0.0
  0
LINE
  5
144
330
17
100
AcDbEntity
  8
ENGRAVE_LOG
100
AcDbLine
 10
-15.609940301750498
 20
-44.33203992346603
 30
0.0
 11
-15.809216135389867
 21
-44.89798085865921
 31
0.0
  0
LINE
  5
145
330
17
100
AcDbEntity
  8
ENGRAVE_LOG
100
AcDbLine
 10
-16.28204650294938
 20
-44.089624195220736
 30
0.0
 11
-15.866334677342161
 21
-42.963931662576805
 31
0.0
  0
LINE
  5
146
330
17
100
AcDbEntity
  8
ENGRAVE_LOG
100
AcDbLine
 10
-16.28204650294938
 20
-44.089624195220736
 30
0.0
 11
-16.6977583285566
 21
-45.215316727864675
 31
0.0
  0
LINE
  5
147
330
17
100
AcDbEntity
  8
ENGRAVE_LOG
100
AcDbLine
 10
-16.946697876163075
 20
-43.83844695120996
 30
0.0
 11
-16.730357052212057
 21
-43.27880720289664
 31
0.0
  0
LINE
  5
148
330
17
100
AcDbEntity
  8
ENGRAVE_LOG
100
AcDbLine
 10
-16.946697876163075
 20
-43.83844695120996
 30
0.0
 11
-17.163038700114093
 21
-44.398086699523276
 31
0.0
  0
LINE
  5
149
330
17
100
AcDbEntity
  8
ENGRAVE_LOG
100
AcDbLine
 10
-17.603846416349406
 20
-43.57871718338646
 30
0.0
 11
-17.379116462098136
 21
-43.02239313423684
 31
0.0
  0
LINE
  5
14A
330
17
100
AcDbEntity
  8
ENGRAVE_LOG
100
AcDbLine
 10
-17.603846416349406
 20
-43.57871718338646
 30
0.0
 11
-17.828576370600675
 21
-44.135041232536075
 31
0.0
  0
LINE
  5
14B
330
17
100
AcDbEntity
  8
ENGRAVE_LOG
100
AcDbLine
 10
-18.253448011971642
 20
-43.31064113672584
 30
0.0
 11
-18.020425271393282
 21
-42.7577393349804
 31
0.0
  0
LINE
  5
14C
330
17
100
AcDbEntity
  8
ENGRAVE_LOG
100
AcDbLine
 10
-18.253448011971642
 20
-43.31064113672584
 30
0.0
 11
-18.486470752550005
 21
-43.86354293847128
 31
0.0
  0
LINE
  5
14D
330
17
100
AcDbEntity
  8
ENGRAVE_LOG
100
AcDbLine
 10
-18.895462319295
 20
-43.03442231214569
 30
0.0
 11
-18.654243651389105
 21
-42.48504670816085
 31
0.0
  0
LINE
  5
14E
330
17
100
AcDbEntity
  8
ENGRAVE_LOG
100
AcDbLine
 10
-18.895462319295
 20
-43.03442231214569
 30
0.0
 11
-19.136680987200894
 21
-43.583797916130536
 31
0.0
  0
LINE
  5
14F
330
17
100
AcDbEntity
  8
ENGRAVE_LOG
100
AcDbLine
 10
-19.529852640146483
 20
-42.75026147117891
 30
0.0
 11
-19.03121810465338
 21
-41.65876543361689
 31
0.0
  0
LINE
  5
150
330
17
100
AcDbEntity
  8
ENGRAVE_LOG
100
AcDbLine
 10
-19.529852640146483
 20
-42.75026147117891
 30
0.0
 11
-20.028487175639583
 21
-43.841757508740926
 31
0.0
  0
LINE
  5
151
330
17
100
AcDbEntity
  8
ENGRAVE_LOG
100
AcDbLine
 10
-20.15658580305013
 20
-42.458356642294554
 30
0.0
 11
-19.899267686415445
 21
-41.9163350681376
 31
0.0
  0
LINE
  5
152
330
17
100
AcDbEntity
  8
ENGRAVE_LOG
100
AcDbLine
 10
-20.15658580305013
 20
-42.458356642294554
 30
0.0
 11
-20.413903919684813
 21
-43.0003782164515
 31
0.0
  0
LINE
  5
153
330
17
100
AcDbEntity
  8
ENGRAVE_LOG
100
AcDbLine
 10
-20.775632047653332
 20
-42.15890312876415
 30
0.0
 11
-20.51041121300244
 21
-41.62070436541823
 31
0.0
  0
LINE
  5
154
330
17
100
AcDbEntity
  8
ENGRAVE_LOG
100
AcDbLine
 10
-20.775632047653332
 20
-42.15890312876415
 30
0.0
 11
-21.040852882304225
 21
-42.69710189211008
 31
0.0
  0
LINE
  5
155
330
17
100
AcDbEntity
  8
ENGRAVE_LOG
100
AcDbLine
 10
-21.386964912359925
 20
-41.85209351797692
 30
0.0
 11
-21.11393982837235
 21
-41.31781147306657
 31
0.0
  0
LINE
  5
156
330
17
100
AcDbEntity
  8
ENGRAVE_LOG
100
AcDbLine
 10
-21.386964912359925
 20
-41.85209351797692
 30
0.0
 11
-21.659989996347498
 21
-42.38637556288726
 31
0.0
  0
LINE
  5
157
330
17
100
AcDbEntity
  8
ENGRAVE_LOG
100
AcDbLine
 10
-21.99056112508919
 20
-41.53811769211161
 30
0.0
 11
-21.70983055753486
 21
-41.007843849233595
 31
0.0
  0
LINE
  5
158
330
17
100
AcDbEntity
  8
ENGRAVE_LOG
100
AcDbLine
 10
-21.99056112508919
 20
-41.53811769211161
 30
0.0
 11
-22.271291692643523
 21
-42.06839153498964
 31
0.0
  0
LINE
  5
159
330
17
100
AcDbEntity
  8
ENGRAVE_LOG
100
AcDbLine
 10
-22.586400497079467
 20
-41.21716284007826
 30
0.0
 11
-22.009726441834882
 21
-40.16480974628902
 31
0.0
  0
LINE
  5
15A
330
17
100
AcDbEntity
  8
ENGRAVE_LOG
100
AcDbLine
 10
-22.586400497079467
 20
-41.21716284007826
 30
0.0
 11
-23.163074552324048
 21
-42.269515933867496
 31
0.0
  0
LINE
  5
15B
330
17
100
AcDbEntity
  8
ENGRAVE_LOG
100
AcDbLine
 10
-23.174465819659353
 20
-40.88941347064593
 30
0.0
 11
-22.878621575153062
 21
-40.3674209582547
 31
0.0
  0
LINE
  5
15C
330
17
100
AcDbEntity
  8
ENGRAVE_LOG
100
AcDbLine
 10
-23.174465819659353
 20
-40.88941347064593
 30
0.0
 11
-23.47031006416564
 21
-41.411405983037156
 31
0.0
  0
LINE
  5
15D
330
17
100
AcDbEntity
  8
ENGRAVE_LOG
100
AcDbLine
 10
-23.754742763908855
 20
-40.55505142667828
 30
0.0
 11
-23.45149072862491
 21
-40.037327365912176
 31
0.0
  0
LINE
  5
15E
330
17
100
AcDbEntity
  8
ENGRAVE_LOG
100
AcDbLine
 10
-23.754742763908855
 20
-40.55505142667828
 30
0.0
 11
-24.057994799192798
 21
-41.07277548744439
 31
0.0
  0
LINE
  5
15F
330
17
100
AcDbEntity
  8
ENGRAVE_LOG
100
AcDbLine
 10
-24.32721978313614
 20
-40.21425590040165
 30
0.0
 11
-24.016659530585468
 21
-39.70088242082206
 31
0.0
  0
LINE
  5
160
330
17
100
AcDbEntity
  8
ENGRAVE_LOG
100
AcDbLine
 10
-24.32721978313614
 20
-40.21425590040165
 30
0.0
 11
-24.637780035686816
 21
-40.72762937998125
 31
0.0
  0
LINE
  5
161
330
17
100
AcDbEntity
  8
ENGRAVE_LOG
100
AcDbLine
 10
-24.891888018096587
 20
-39.86720344963438
 30
0.0
 11
-24.574119234886844
 21
-39.35826042687309
 31
0.0
  0
LINE
  5
162
330
17
100
AcDbEntity
  8
ENGRAVE_LOG
100
AcDbLine
 10
-24.891888018096587
 20
-39.86720344963438
 30
0.0
 11
-25.209656801306334
 21
-40.376146472395675
 31
0.0
  0
LINE
  5
163
330
17
100
AcDbEntity
  8
ENGRAVE_LOG
100
AcDbLine
 10
-25.448741204882076
 20
-39.51406801491005
 30
0.0
 11
-24.79898611028934
 21
-38.50519819325277
 31
0.0
  0
LINE
  5
164
330
17
100
AcDbEntity
  8
ENGRAVE_LOG
100
AcDbLine
 10
-25.448741204882076
 20
-39.51406801491005
 30
0.0
 11
-26.09849629947481
 21
-40.52293783656733
 31
0.0
  0
LINE
  5
165
330
17
100
AcDbEntity
  8
ENGRAVE_LOG
100
AcDbLine
 10
-25.99777558541134
 20
-39.15502093743011
 30
0.0
 11
-25.6658890885763
 21
-38.655169606313976
 31
0.0
  0
LINE
  5
166
330
17
100
AcDbEntity
  8
ENGRAVE_LOG
100
AcDbLine
 10
-25.99777558541134
 20
-39.15502093743011
 30
0.0
 11
-26.32966208224638
 21
-39.654872268546235
 31
0.0
  0
LINE
  5
167
330
17
100
AcDbEntity
  8
ENGRAVE_LOG
100
AcDbLine
 10
-26.538989820452535
 20
-38.79023097778507
 30
0.0
 11
-26.200194205723353
 21
-38.29503653977079
 31
0.0
  0
LINE
  5
168
330
17
100
AcDbEntity
  8
ENGRAVE_LOG
100
AcDbLine
 10
-26.538989820452535
 20
-38.79023097778507
 30
0.0
 11
-26.877785435181718
 21
-39.28542541579935
 31
0.0
  0
LINE
  5
169
330
17
100
AcDbEntity
  8
ENGRAVE_LOG
100
AcDbLine
 10
-27.072384905111054
 20
-38.41986433538665
 30
0.0
 11
-26.726779991428785
 21
-37.92939798216895
 31
0.0
  0
LINE
  5
16A
330
17
100
AcDbEntity
  8
ENGRAVE_LOG
100
AcDbLine
 10
-27.072384905111054
 20
-38.41986433538665
 30
0.0
 11
-27.417989818793323
 21
-38.910330688604354
 31
0.0
  0
LINE
  5
16B
330
17
100
AcDbEntity
  8
ENGRAVE_LOG
100
AcDbLine
 10
-27.597964086718584
 20
-38.04408466855512
 30
0.0
 11
-27.245649651568986
 21
-37.55841550257357
 31
0.0
  0
LINE
  5
16C
330
17
100
AcDbEntity
  8
ENGRAVE_LOG
100
AcDbLine
 10
-27.597964086718584
 20
-38.04408466855512
 30
0.0
 11
-27.950278521868185
 21
-38.52975383453668
 31
0.0
  0
LINE
  5
16D
330
17
100
AcDbEntity
  8
ENGRAVE_LOG
100
AcDbLine
 10
-28.115732785058306
 20
-37.66305311521091
 30
0.0
 11
-26.68003579177873
 21
-35.73983338166822
 31
0.0
  0
LINE
  5
16E
330
17
100
AcDbEntity
  8
ENGRAVE_LOG
100
AcDbLine
 10
-28.115732785058306
 20
-37.66305311521091
 30
0.0
 11
-29.551429778337877
 21
-39.58627284875359
 31
0.0
  0
TEXT
  5
16F
330
17
100
AcDbEntity
  8
ENGRAVE_TEXT
100
AcDbText
 10
-25.60326304681905
 20
-34.2974185815112
 30
0.0
 40
3.0
  1
4
 50
-126.74159687806647
 72
1
 11
-25.60326304681905
 21
-34.2974185815112
 31
0.0
100
AcDbText
 73
2
  0
TEXT
  5
170
330
17
100
AcDbEntity
  8
ENGRAVE_TEXT
100
AcDbText
 10
-30.62820252329756
 20
-41.028687648910605
 30
0.0
 40
3.0
  1
4
 50
-126.74159687806647
 72
1
 11
-30.62820252329756
 21
-41.028687648910605
 31
0.0
100
AcDbText
 73
2
  0
LINE
  5
171
330
17
100
AcDbEntity
  8
ENGRAVE_LOG
100
AcDbLine
 10
-28.6256985148654
 20
-37.276928314119885
 30
0.0
 11
-28.26026406573946
 21
-36.8010526335141
 31
0.0
  0
LINE
  5
172
330
17
100
AcDbEntity
  8
ENGRAVE_LOG
100
AcDbLine
 10
-28.6256985148654
 20
-37.276928314119885
 30
0.0
 11
-28.991132963991344
 21
-37.752803994725674
 31
0.0
  0
LINE
  5
173
330
17
100
AcDbEntity
  8
ENGRAVE_LOG
100
AcDbLine
 10
-29.127870810541843
 20
-36.88586642664619
 30
0.0
 11
-28.75602565125833
 21
-36.41498302545496
 31
0.0
  0
LINE
  5
174
330
17
100
AcDbEntity
  8
ENGRAVE_LOG
100
AcDbLine
 10
-29.127870810541843
 20
-36.88586642664619
 30
0.0
 11
-29.499715969825356
 21
-37.35674982783742
 31
0.0
  0
LINE
  5
175
330
17
100
AcDbEntity
  8
ENGRAVE_LOG
100
AcDbLine
 10
-29.622261153025924
 20
-36.490021158967984
 30
0.0
 11
-29.244104627668147
 21
-36.02419110161946
 31
0.0
  0
LINE
  5
176
330
17
100
AcDbEntity
  8
ENGRAVE_LOG
100
AcDbLine
 10
-29.622261153025924
 20
-36.490021158967984
 30
0.0
 11
-30.000417678383705
 21
-36.95585121631651
 31
0.0
  0
LINE
  5
177
330
17
100
AcDbEntity
  8
ENGRAVE_LOG
100
AcDbLine
 10
-30.108882898760086
 20
-36.0895437847135
 30
0.0
 11
-29.724514180903572
 21
-35.62882620448311
 31
0.0
  0
LINE
  5
178
330
17
100
AcDbEntity
  8
ENGRAVE_LOG
100
AcDbLine
 10
-30.108882898760086
 20
-36.0895437847135
 30
0.0
 11
-30.493251616616597
 21
-36.550261364943886
 31
0.0
  0
LINE
  5
179
330
17
100
AcDbEntity
  8
ENGRAVE_LOG
100
AcDbLine
 10
-30.58775121069954
 20
-35.68458316797814
 30
0.0
 11
-29.80678735000083
 21
-34.77348742751912
 31
0.0
  0
LINE
  5
17A
330
17
100
AcDbEntity
  8
ENGRAVE_LOG
100
AcDbLine
 10
-30.58775121069954
 20
-35.68458316797814
 30
0.0
 11
-31.368715071398256
 21
-36.59567890843716
 31
0.0
  0
LINE
  5
17B
330
17
100
AcDbEntity
  8
ENGRAVE_LOG
100
AcDbLine
 10
-31.058882991307783
 20
-35.27528578668431
 30
0.0
 11
-30.662386612695343
 21
-34.82496298940748
 31
0.0
  0
LINE
  5
17C
330
17
100
AcDbEntity
  8
ENGRAVE_LOG
100
AcDbLine
 10
-31.058882991307783
 20
-35.27528578668431
 30
0.0
 11
-31.455379369920227
 21
-35.725608583961126
 31
0.0
  0
LINE
  5
17D
330
17
100
AcDbEntity
  8
ENGRAVE_LOG
100
AcDbLine
 10
-31.52229681748523
 20
-34.861795756248135
 30
0.0
 11
-31.119884517687545
 21
-34.41675155510454
 31
0.0
  0
LINE
  5
17E
330
17
100
AcDbEntity
  8
ENGRAVE_LOG
100
AcDbLine
 10
-31.52229681748523
 20
-34.861795756248135
 30
0.0
 11
-31.924709117282916
 21
-35.30683995739173
 31
0.0
  0
LINE
  5
17F
330
17
100
AcDbEntity
  8
ENGRAVE_LOG
100
AcDbLine
 10
-31.97801287737888
 20
-34.44425485351933
 30
0.0
 11
-31.569782925752765
 21
-34.00454096177228
 31
0.0
  0
LINE
  5
180
330
17
100
AcDbEntity
  8
ENGRAVE_LOG
100
AcDbLine
 10
-31.97801287737888
 20
-34.44425485351933
 30
0.0
 11
-32.38624282900499
 21
-34.883968745266394
 31
0.0
  0
LINE
  5
181
330
17
100
AcDbEntity
  8
ENGRAVE_LOG
100
AcDbLine
 10
-32.426052909022225
 20
-34.02280254096201
 30
0.0
 11
-32.01210329741769
 21
-33.58846889150292
 31
0.0
  0
LINE
  5
182
330
17
100
AcDbEntity
  8
ENGRAVE_LOG
100
AcDbLine
 10
-32.426052909022225
 20
-34.02280254096201
 30
0.0
 11
-32.84000252062677
 21
-34.4571361904211
 31
0.0
  0
LINE
  5
183
330
17
100
AcDbEntity
  8
ENGRAVE_LOG
100
AcDbLine
 10
-32.866440140756154
 20
-33.59757599104573
 30
0.0
 11
-32.027296988226205
 21
-32.73976554021052
 31
0.0
  0
LINE
  5
184
330
17
100
AcDbEntity
  8
ENGRAVE_LOG
100
AcDbLine
 10
-32.866440140756154
 20
-33.59757599104573
 30
0.0
 11
-33.7055832932861
 21
-34.45538644188094
 31
0.0
  0
LINE
  5
185
330
17
100
AcDbEntity
  8
ENGRAVE_LOG
100
AcDbLine
 10
-33.29919923338218
 20
-33.168710110818594
 30
0.0
 11
-32.874103072956025
 21
-32.74527976897836
 31
0.0
  0
LINE
  5
186
330
17
100
AcDbEntity
  8
ENGRAVE_LOG
100
AcDbLine
 10
-33.29919923338218
 20
-33.168710110818594
 30
0.0
 11
-33.72429539380834
 21
-33.59214045265883
 31
0.0
  0
LINE
  5
187
330
17
100
AcDbEntity
  8
ENGRAVE_LOG
100
AcDbLine
 10
-33.72435622400161
 20
-32.736337566634475
 30
0.0
 11
-33.293832527525
 21
-32.31842687429446
 31
0.0
  0
LINE
  5
188
330
17
100
AcDbEntity
  8
ENGRAVE_LOG
100
AcDbLine
 10
-33.72435622400161
 20
-32.736337566634475
 30
0.0
 11
-34.15487992047823
 21
-33.15424825897449
 31
0.0
  0
LINE
  5
189
330
17
100
AcDbEntity
  8
ENGRAVE_LOG
100
AcDbLine
 10
-34.14193847149426
 20
-32.300588809009355
 30
0.0
 11
-33.706083937815606
 21
-31.888240866766683
 31
0.0
  0
LINE
  5
18A
330
17
100
AcDbEntity
  8
ENGRAVE_LOG
100
AcDbLine
 10
-34.14193847149426
 20
-32.300588809009355
 30
0.0
 11
-34.57779300517291
 21
-32.71293675125203
 31
0.0
  0
LINE
  5
18B
330
17
100
AcDbEntity
  8
ENGRAVE_LOG
100
AcDbLine
 10
-34.5519746035926
 20
-31.861592097581877
 30
0.0
 11
-34.110885566099924
 21
-31.454848368676576
 31
0.0
  0
LINE
  5
18C
330
17
100
AcDbEntity
  8
ENGRAVE_LOG
100
AcDbLine
 10
-34.5519746035926
 20
-31.861592097581877
 30
0.0
 11
-34.99306364108527
 21
-32.26833582648718
 31
0.0
  0
LINE
  5
18D
330
17
100
AcDbEntity
  8
ENGRAVE_LOG
100
AcDbLine
 10
-34.954494465507615
 20
-31.41947352615568
 30
0.0
 11
-34.06203928766487
 21
-30.61727420208362
 31
0.0
  0
LINE
  5
18E
330
17
100
AcDbEntity
  8
ENGRAVE_LOG
100
AcDbLine
 10
-34.954494465507615
 20
-31.41947352615568
 30
0.0
 11
-35.846949643350364
 21
-32.22167285022774
 31
0.0
  0
LINE
  5
18F
330
17
100
AcDbEntity
  8
ENGRAVE_LOG
100
AcDbLine
 10
-35.34952907006419
 20
-30.974357047801437
 30
0.0
 11
-34.89825848619103
 21
-30.57893972378695
 31
0.0
  0
LINE
  5
190
330
17
100
AcDbEntity
  8
ENGRAVE_LOG
100
AcDbLine
 10
-35.34952907006419
 20
-30.974357047801437
 30
0.0
 11
-35.800799653937354
 21
-31.369774371815925
 31
0.0
  0
LINE
  5
191
330
17
100
AcDbEntity
  8
ENGRAVE_LOG
100
AcDbLine
 10
-35.737110549304596
 20
-30.52636449999872
 30
0.0
 11
-35.280892116760285
 21
-30.13666622978597
 31
0.0
  0
LINE
  5
192
330
17
100
AcDbEntity
  8
ENGRAVE_LOG
100
AcDbLine
 10
-35.737110549304596
 20
-30.52636449999872
 30
0.0
 11
-36.193328981848914
 21
-30.91606277021147
 31
0.0
  0
LINE
  5
193
330
17
100
AcDbEntity
  8
ENGRAVE_LOG
100
AcDbLine
 10
-36.11727210752062
 20
-30.075615629797383
 30
0.0
 11
-35.65620054870121
 21
-29.69167160048082
 31
0.0
  0
LINE
  5
194
330
17
100
AcDbEntity
  8
ENGRAVE_LOG
100
AcDbLine
 10
-36.11727210752062
 20
-30.075615629797383
 30
0.0
 11
-36.57834366634003
 21
-30.459559659113946
 31
0.0
  0
LINE
  5
195
330
17
100
AcDbEntity
  8
ENGRAVE_LOG
100
AcDbLine
 10
-36.490047975674024
 20
-29.622228118982008
 30
0.0
 11
-36.024217575984565
 21
-29.244072015335426
 31
0.0
  0
LINE
  5
196
330
17
100
AcDbEntity
  8
ENGRAVE_LOG
100
AcDbLine
 10
-36.490047975674024
 20
-29.622228118982008
 30
0.0
 11
-36.955878375363476
 21
-30.000384222628586
 31
0.0
  0
LINE
  5
197
330
17
100
AcDbEntity
  8
ENGRAVE_LOG
100
AcDbLine
 10
-36.85547336716878
 20
-29.16631760922028
 30
0.0
 11
-35.91448255779426
 21
-28.421645670261462
 31
0.0
  0
LINE
  5
198
330
17
100
AcDbEntity
  8
ENGRAVE_LOG
100
AcDbLine
 10
-36.85547336716878
 20
-29.16631760922028
 30
0.0
 11
-37.7964641765433
 21
-29.910989548179096
 31
0.0
  0
LINE
  5
199
330
17
100
AcDbEntity
  8
ENGRAVE_LOG
100
AcDbLine
 10
-37.21358443493666
 20
-28.707997727181187
 30
0.0
 11
-36.738517399597036
 21
-28.341512649812916
 31
0.0
  0
LINE
  5
19A
330
17
100
AcDbEntity
  8
ENGRAVE_LOG
100
AcDbLine
 10
-37.21358443493666
 20
-28.707997727181187
 30
0.0
 11
-37.68865147027627
 21
-29.07448280454946
 31
0.0
  0
LINE
  5
19B
330
17
100
AcDbEntity
  8
ENGRAVE_LOG
100
AcDbLine
 10
-37.5644182298011
 20
-28.247380109606393
 30
0.0
 11
-37.08487246516534
 21
-27.886775257143334
 31
0.0
  0
LINE
  5
19C
330
17
100
AcDbEntity
  8
ENGRAVE_LOG
100
AcDbLine
 10
-37.5644182298011
 20
-28.247380109606393
 30
0.0
 11
-38.04396399443686
 21
-28.607984962069455
 31
0.0
  0
LINE
  5
19D
330
17
100
AcDbEntity
  8
ENGRAVE_LOG
100
AcDbLine
 10
-37.908012660083706
 20
-27.78457442832144
 30
0.0
 11
-37.42408058357199
 21
-27.429877733491807
 31
0.0
  0
LINE
  5
19E
330
17
100
AcDbEntity
  8
ENGRAVE_LOG
100
AcDbLine
 10
-37.908012660083706
 20
-27.78457442832144
 30
0.0
 11
-38.39194473659541
 21
-28.13927112315108
 31
0.0
  0
LINE
  5
19F
330
17
100
AcDbEntity
  8
ENGRAVE_LOG
100
AcDbLine
 10
-38.244406452419334
 20
-27.31968841517315
 30
0.0
 11
-37.7561799870693
 21
-26.970926435404984
 31
0.0
  0
LINE
  5
1A0
330
17
100
AcDbEntity
  8
ENGRAVE_LOG
100
AcDbLine
 10
-38.244406452419334
 20
-27.31968841517315
 30
0.0
 11
-38.73263291776937
 21
-27.66845039494132
 31
0.0
  0
LINE
  5
1A1
330
17
100
AcDbEntity
  8
ENGRAVE_LOG
100
AcDbLine
 10
-38.57363911374666
 20
-26.85282788688063
 30
0.0
 11
-37.096350807262745
 21
-25.824421712489457
 31
0.0
  0
LINE
  5
1A2
330
17
100
AcDbEntity
  8
ENGRAVE_LOG
100
AcDbLine
 10
-38.57363911374666
 20
-26.85282788688063
 30
0.0
 11
-40.05092742023057
 21
-27.8812340612718
 31
0.0
  0
TEXT
  5
1A3
330
17
100
AcDbEntity
  8
ENGRAVE_TEXT
100
AcDbText
 10
-35.45491935561395
 20
-24.68174818538815
 30
0.0
 40
1.9500000000000002
  1
4.5
 50
-145.15650495912374
 72
1
 11
-35.45491935561395
 21
-24.68174818538815
 31
0.0
100
AcDbText
 73
2
  0
TEXT
  5
1A4
330
17
100
AcDbEntity
  8
ENGRAVE_TEXT
100
AcDbText
 10
-41.692358871879364
 20
-29.023907588373103
 30
0.0
 40
1.9500000000000002
  1
4.5
 50
-145.15650495912374
 72
1
 11
-41.692358871879364
 21
-29.023907588373103
 31
0.0
100
AcDbText
 73
2
  0
LINE
  5
1A5
330
17
100
AcDbEntity
  8
ENGRAVE_LOG
100
AcDbLine
 10
-38.89575089444136
 20
-26.384096769788496
 30
0.0
 11
-38.39920939366126
 21
-26.0472785131529
 31
0.0
  0
LINE
  5
1A6
330
17
100
AcDbEntity
  8
ENGRAVE_LOG
100
AcDbLine
 10
-38.89575089444136
 20
-26.384096769788496
 30
0.0
 11
-39.39229239522147
 21
-26.720915026424095
 31
0.0
  0
LINE
  5
1A7
330
17
100
AcDbEntity
  8
ENGRAVE_LOG
100
AcDbLine
 10
-39.210782752561116
 20
-25.913597124510826
 30
0.0
 11
-38.71021956848587
 21
-25.58278524632558
 31
0.0
  0
LINE
  5
1A8
330
17
100
AcDbEntity
  8
ENGRAVE_LOG
100
AcDbLine
 10
-39.210782752561116
 20
-25.913597124510826
 30
0.0
 11
-39.71134593663636
 21
-26.244409002696074
 31
0.0
  0
LINE
  5
1A9
330
17
100
AcDbEntity
  8
ENGRAVE_LOG
100
AcDbLine
 10
-39.51877631917097
 20
-25.44142917045605
 30
0.0
 11
-39.01428130233049
 21
-25.116644968280013
 31
0.0
  0
LINE
  5
1AA
330
17
100
AcDbEntity
  8
ENGRAVE_LOG
100
AcDbLine
 10
-39.51877631917097
 20
-25.44142917045605
 30
0.0
 11
-40.02327133601145
 21
-25.766213372632084
 31
0.0
  0
LINE
  5
1AB
330
17
100
AcDbEntity
  8
ENGRAVE_LOG
100
AcDbLine
 10
-39.81977386471983
 20
-24.96769131022281
 30
0.0
 11
-39.31143632602127
 21
-24.648954825411455
 31
0.0
  0
LINE
  5
1AC
330
17
100
AcDbEntity
  8
ENGRAVE_LOG
100
AcDbLine
 10
-39.81977386471983
 20
-24.96769131022281
 30
0.0
 11
-40.328111403418376
 21
-25.286427795034168
 31
0.0
  0
LINE
  5
1AD
330
17
100
AcDbEntity
  8
ENGRAVE_LOG
100
AcDbLine
 10
-40.11381826643856
 20
-24.492480153858253
 30
0.0
 11
-39.089635672401826
 21
-23.867140235036338
 31
0.0
  0
LINE
  5
1AE
330
17
100
AcDbEntity
  8
ENGRAVE_LOG
100
AcDbLine
 10
-40.11381826643856
 20
-24.492480153858253
 30
0.0
 11
-41.138000860475294
 21
-25.117820072680168
 31
0.0
  0
LINE
  5
1AF
330
17
100
AcDbEntity
  8
ENGRAVE_LOG
100
AcDbLine
 10
-40.40095297673178
 20
-24.015890542969824
 30
0.0
 11
-39.88519613022031
 21
-23.70930470625106
 31
0.0
  0
LINE
  5
1B0
330
17
100
AcDbEntity
  8
ENGRAVE_LOG
100
AcDbLine
 10
-40.40095297673178
 20
-24.015890542969824
 30
0.0
 11
-40.91670982324325
 21
-24.322476379688588
 31
0.0
  0
LINE
  5
1B1
330
17
100
AcDbEntity
  8
ENGRAVE_LOG
100
AcDbLine
 10
-40.681221992535576
 20
-23.53801557468344
 30
0.0
 11
-40.16188724369469
 21
-23.237530269474714
 31
0.0
  0
LINE
  5
1B2
330
17
100
AcDbEntity
  8
ENGRAVE_LOG
100
AcDbLine
 10
-40.681221992535576
 20
-23.53801557468344
 30
0.0
 11
-41.20055674137646
 21
-23.838500879892162
 31
0.0
  0
LINE
  5
1B3
330
17
100
AcDbEntity
  8
ENGRAVE_LOG
100
AcDbLine
 10
-40.95466982561445
 20
-23.05894662544031
 30
0.0
 11
-40.43184425337257
 21
-22.76457709405171
 31
0.0
  0
LINE
  5
1B4
330
17
100
AcDbEntity
  8
ENGRAVE_LOG
100
AcDbLine
 10
-40.95466982561445
 20
-23.05894662544031
 30
0.0
 11
-41.47749539785634
 21
-23.35331615682891
 31
0.0
  0
LINE
  5
1B5
330
17
100
AcDbEntity
  8
ENGRAVE_LOG
100
AcDbLine
 10
-41.22134147377152
 20
-22.578773374626095
 30
0.0
 11
-40.69511158261699
 21
-22.290533714524486
 31
0.0
  0
LINE
  5
1B6
330
17
100
AcDbEntity
  8
ENGRAVE_LOG
100
AcDbLine
 10
-41.22134147377152
 20
-22.578773374626095
 30
0.0
 11
-41.74757136492605
 21
-22.867013034727705
 31
0.0
  0
LINE
  5
1B7
330
17
100
AcDbEntity
  8
ENGRAVE_LOG
100
AcDbLine
 10
-41.48128239294631
 20
-22.097583828026142
 30
0.0
 11
-40.42218582121151
 21
-21.53339019837441
 31
0.0
  0
LINE
  5
1B8
330
17
100
AcDbEntity
  8
ENGRAVE_LOG
100
AcDbLine
 10
-41.48128239294631
 20
-22.097583828026142
 30
0.0
 11
-42.54037896468111
 21
-22.661777457677875
 31
0.0
  0
LINE
  5
1B9
330
17
100
AcDbEntity
  8
ENGRAVE_LOG
100
AcDbLine
 10
-41.734538470176034
 20
-21.615464341100708
 30
0.0
 11
-41.20175712800358
 21
-21.33952224312921
 31
0.0
  0
LINE
  5
1BA
330
17
100
AcDbEntity
  8
ENGRAVE_LOG
100
AcDbLine
 10
-41.734538470176034
 20
-21.615464341100708
 30
0.0
 11
-42.2673198123485
 21
-21.89140643907221
 31
0.0
  0
LINE
  5
1BB
330
17
100
AcDbEntity
  8
ENGRAVE_LOG
100
AcDbLine
 10
-41.98115599739575
 20
-21.132499642075533
 30
0.0
 11
-41.44522634636517
 21
-20.8627230509001
 31
0.0
  0
LINE
  5
1BC
330
17
100
AcDbEntity
  8
ENGRAVE_LOG
100
AcDbLine
 10
-41.98115599739575
 20
-21.132499642075533
 30
0.0
 11
-42.51708564842634
 21
-21.402276233250966
 31
0.0
  0
LINE
  5
1BD
330
17
100
AcDbEntity
  8
ENGRAVE_LOG
100
AcDbLine
 10
-42.2211816460544
 20
-20.648772854842477
 30
0.0
 11
-41.68218783780689
 21
-20.38517149924874
 31
0.0
  0
LINE
  5
1BE
330
17
100
AcDbEntity
  8
ENGRAVE_LOG
100
AcDbLine
 10
-42.2211816460544
 20
-20.648772854842477
 30
0.0
 11
-42.7601754543019
 21
-20.912374210436212
 31
0.0
  0
LINE
  5
1BF
330
17
100
AcDbEntity
  8
ENGRAVE_LOG
100
AcDbLine
 10
-42.45466244252397
 20
-20.164365521665797
 30
0.0
 11
-41.91268802836409
 21
-19.90694808947432
 31
0.0
  0
LINE
  5
1C0
330
17
100
AcDbEntity
  8
ENGRAVE_LOG
100
AcDbLine
 10
-42.45466244252397
 20
-20.164365521665797
 30
0.0
 11
-42.99663685668385
 21
-20.421782953857278
 31
0.0
  0
LINE
  5
1C1
330
17
100
AcDbEntity
  8
ENGRAVE_LOG
100
AcDbLine
 10
-42.6816457442795
 20
-19.67935762569063
 30
0.0
 11
-41.59190159761704
 21
-19.176905941630444
 31
0.0
  0
LINE
  5
1C2
330
17
100
AcDbEntity
  8
ENGRAVE_LOG
100
AcDbLine
 10
-42.6816457442795
 20
-19.67935762569063
 30
0.0
 11
-43.771389890941954
 21
-20.181809309750818
 31
0.0
  0
LINE
  5
1C3
330
17
100
AcDbEntity
  8
ENGRAVE_LOG
100
AcDbLine
 10
-42.90217921682872
 20
-19.19382761324874
 30
0.0
 11
-42.354491822571326
 21
-18.948800026696627
 31
0.0
  0
LINE
  5
1C4
330
17
100
AcDbEntity
  8
ENGRAVE_LOG
100
AcDbLine
 10
-42.90217921682872
 20
-19.19382761324874
 30
0.0
 11
-43.44986661108611
 21
-19.43885519980085
 31
0.0
  0
LINE
  5
1C5
330
17
100
AcDbEntity
  8
ENGRAVE_LOG
100
AcDbLine
 10
-43.11631081137002
 20
-18.707852415959906
 30
0.0
 11
-42.565889822288696
 21
-18.46902876809659
 31
0.0
  0
LINE
  5
1C6
330
17
100
AcDbEntity
  8
ENGRAVE_LOG
100
AcDbLine
 10
-43.11631081137002
 20
-18.707852415959906
 30
0.0
 11
-43.66673180045134
 21
-18.946676063823226
 31
0.0
  0
LINE
  5
1C7
330
17
100
AcDbEntity
  8
ENGRAVE_LOG
100
AcDbLine
 10
-43.32408874315884
 20
-18.221507472624143
 30
0.0
 11
-42.77101526984192
 21
-17.98889248361192
 31
0.0
  0
LINE
  5
1C8
330
17
100
AcDbEntity
  8
ENGRAVE_LOG
100
AcDbLine
 10
-43.32408874315884
 20
-18.221507472624143
 30
0.0
 11
-43.87716221647577
 21
-18.454122461636366
 31
0.0
  0
LINE
  5
1C9
330
17
100
AcDbEntity
  8
ENGRAVE_LOG
100
AcDbLine
 10
-43.52556147056225
 20
-17.734866750903617
 30
0.0
 11
-42.969916004980604
 21
-17.508464196636762
 31
0.0
  0
LINE
  5
1CA
330
17
100
AcDbEntity
  8
ENGRAVE_LOG
100
AcDbLine
 10
-43.52556147056225
 20
-17.734866750903617
 30
0.0
 11
-44.0812069361439
 21
-17.961269305170475
 31
0.0
  0
LINE
  5
1CB
330
17
100
AcDbEntity
  8
ENGRAVE_LOG
100
AcDbLine
 10
-43.720777674782816
 20
-17.24800276879072
 30
0.0
 11
-42.60450250010751
 21
-16.807628230013083
 31
0.0
  0
LINE
  5
1CC
330
17
100
AcDbEntity
  8
ENGRAVE_LOG
100
AcDbLine
 10
-43.720777674782816
 20
-17.24800276879072
 30
0.0
 11
-44.837052849458125
 21
-17.688377307568356
 31
0.0
  0
LINE
  5
1CD
330
17
100
AcDbEntity
  8
ENGRAVE_LOG
100
AcDbLine
 10
-43.90978624023264
 20
-16.76098661586114
 30
0.0
 11
-43.349235777591375
 21
-16.547016573956526
 31
0.0
  0
LINE
  5
1CE
330
17
100
AcDbEntity
  8
ENGRAVE_LOG
100
AcDbLine
 10
-43.90978624023264
 20
-16.76098661586114
 30
0.0
 11
-44.470336702873915
 21
-16.97495665776575
 31
0.0
  0
LINE
  5
1CF
330
17
100
AcDbEntity
  8
ENGRAVE_LOG
100
AcDbLine
 10
-44.09263623553987
 20
-16.273887974308906
 30
0.0
 11
-43.52975151763936
 21
-16.066136212934747
 31
0.0
  0
LINE
  5
1D0
330
17
100
AcDbEntity
  8
ENGRAVE_LOG
100
AcDbLine
 10
-44.09263623553987
 20
-16.273887974308906
 30
0.0
 11
-44.65552095344039
 21
-16.48163973568306
 31
0.0
  0
LINE
  5
1D1
330
17
100
AcDbEntity
  8
ENGRAVE_LOG
100
AcDbLine
 10
-44.26937689516936
 20
-15.786775139763193
 30
0.0
 11
-43.7042359135289
 21
-15.585241840106642
 31
0.0
  0
LINE
  5
1D2
330
17
100
AcDbEntity
  8
ENGRAVE_LOG
100
AcDbLine
 10
-44.26937689516936
 20
-15.786775139763193
 30
0.0
 11
-44.83451787680982
 21
-15.988308439419745
 31
0.0
  0
LINE
  5
1D3
330
17
100
AcDbEntity
  8
ENGRAVE_LOG
100
AcDbLine
 10
-44.44005760164069
 20
-15.299715041884204
 30
0.0
 11
-43.87273771736442
 21
-15.104399530711214
 31
0.0
  0
LINE
  5
1D4
330
17
100
AcDbEntity
  8
ENGRAVE_LOG
100
AcDbLine
 10
-44.44005760164069
 20
-15.299715041884204
 30
0.0
 11
-45.007377485916955
 21
-15.495030553057195
 31
0.0
  0
LINE
  5
1D5
330
17
100
AcDbEntity
  8
ENGRAVE_LOG
100
AcDbLine
 10
-44.60472786832643
 20
-14.81277326473822
 30
0.0
 11
-42.32703963675232
 21
-14.056376332070737
 31
0.0
  0
LINE
  5
1D6
330
17
100
AcDbEntity
  8
ENGRAVE_LOG
100
AcDbLine
 10
-44.60472786832643
 20
-14.81277326473822
 30
0.0
 11
-46.882416099900546
 21
-15.569170197405704
 31
0.0
  0
TEXT
  5
1D7
330
17
100
AcDbEntity
  8
ENGRAVE_TEXT
100
AcDbText
 10
-40.618773463071726
 20
-13.489078632570124
 30
0.0
 40
3.0
  1
5
 50
-161.62920156096678
 72
1
 11
-40.618773463071726
 21
-13.489078632570124
 31
0.0
100
AcDbText
 73
2
  0
TEXT
  5
1D8
330
17
100
AcDbEntity
  8
ENGRAVE_TEXT
100
AcDbText
 10
-48.59068227358114
 20
-16.136467896906318
 30
0.0
 40
3.0
  1
5
 50
-161.62920156096678
 72
1
 11
-48.59068227358114
 21
-16.136467896906318
 31
0.0
100
AcDbText
 73
2
  0
LINE
  5
1D9
330
17
100
AcDbEntity
  8
ENGRAVE_LOG
100
AcDbLine
 10
-44.76343732281474
 20
-14.32601406694957
 30
0.0
 11
-44.1919891867788
 21
-14.143128780988512
 31
0.0
  0
LINE
  5
1DA
330
17
100
AcDbEntity
  8
ENGRAVE_LOG
100
AcDbLine
 10
-44.76343732281474
 20
-14.32601406694957
 30
0.0
 11
-45.33488545885067
 21
-14.508899352910628
 31
0.0
  0
LINE
  5
1DB
330
17
100
AcDbEntity
  8
ENGRAVE_LOG
100
AcDbLine
 10
-44.916235690819896
 20
-13.839500401630001
 30
0.0
 11
-44.342836937320065
 21
-13.662825928417703
 31
0.0
  0
LINE
  5
1DC
330
17
100
AcDbEntity
  8
ENGRAVE_LOG
100
AcDbLine
 10
-44.916235690819896
 20
-13.839500401630001
 30
0.0
 11
-45.48963444431973
 21
-14.016174874842301
 31
0.0
  0
LINE
  5
1DD
330
17
100
AcDbEntity
  8
ENGRAVE_LOG
100
AcDbLine
 10
-45.063172780625806
 20
-13.35329393608429
 30
0.0
 11
-44.48789823449015
 21
-13.182826353921511
 31
0.0
  0
LINE
  5
1DE
330
17
100
AcDbEntity
  8
ENGRAVE_LOG
100
AcDbLine
 10
-45.063172780625806
 20
-13.35329393608429
 30
0.0
 11
-45.63844732676146
 21
-13.523761518247069
 31
0.0
  0
LINE
  5
1DF
330
17
100
AcDbEntity
  8
ENGRAVE_LOG
100
AcDbLine
 10
-45.20429846804717
 20
-12.867455071291618
 30
0.0
 11
-44.627222317391244
 21
-12.703189687402787
 31
0.0
  0
LINE
  5
1E0
330
17
100
AcDbEntity
  8
ENGRAVE_LOG
100
AcDbLine
 10
-45.20429846804717
 20
-12.867455071291618
 30
0.0
 11
-45.78137461870309
 21
-13.031720455180446
 31
0.0
  0
LINE
  5
1E1
330
17
100
AcDbEntity
  8
ENGRAVE_LOG
100
AcDbLine
 10
-45.33966268189379
 20
-12.382042961163048
 30
0.0
 11
-44.18205427299437
 21
-12.065905694069523
 31
0.0
  0
LINE
  5
1E2
330
17
100
AcDbEntity
  8
ENGRAVE_LOG
100
AcDbLine
 10
-45.33966268189379
 20
-12.382042961163048
 30
0.0
 11
-46.49727109079321
 21
-12.698180228256573
 31
0.0
  0
LINE
  5
1E3
330
17
100
AcDbEntity
  8
ENGRAVE_LOG
100
AcDbLine
 10
-45.46931538992388
 20
-11.897115531574524
 30
0.0
 11
-44.888856044520594
 21
-11.745237460958679
 31
0.0
  0
LINE
  5
1E4
330
17
100
AcDbEntity
  8
ENGRAVE_LOG
100
AcDbLine
 10
-45.46931538992388
 20
-11.897115531574524
 30
0.0
 11
-46.04977473532716
 21
-12.04899360219037
 31
0.0
  0
LINE
  5
1E5
330
17
100
AcDbEntity
  8
ENGRAVE_LOG
100
AcDbLine
 10
-45.59330658527237
 20
-11.412729499175859
 30
0.0
 11
-45.01126437354549
 21
-11.267035080037443
 31
0.0
  0
LINE
  5
1E6
330
17
100
AcDbEntity
  8
ENGRAVE_LOG
100
AcDbLine
 10
-45.59330658527237
 20
-11.412729499175859
 30
0.0
 11
-46.17534879699925
 21
-11.558423918314274
 31
0.0
  0
LINE
  5
1E7
330
17
100
AcDbEntity
  8
ENGRAVE_LOG
100
AcDbLine
 10
-45.71168627334102
 20
-10.928940389975859
 30
0.0
 11
-45.12813283155369
 21
-10.78942200201872
 31
0.0
  0
LINE
  5
1E8
330
17
100
AcDbEntity
  8
ENGRAVE_LOG
100
AcDbLine
 10
-45.71168627334102
 20
-10.928940389975859
 30
0.0
 11
-46.29523971512836
 21
-11.068458777932998
 31
0.0
  0
LINE
  5
1E9
330
17
100
AcDbEntity
  8
ENGRAVE_LOG
100
AcDbLine
 10
-45.82450445913697
 20
-10.445802557704054
 30
0.0
 11
-45.23951078519053
 21
-10.312451886754639
 31
0.0
  0
LINE
  5
1EA
330
17
100
AcDbEntity
  8
ENGRAVE_LOG
100
AcDbLine
 10
-45.82450445913697
 20
-10.445802557704054
 30
0.0
 11
-46.409498133083396
 21
-10.579153228653468
 31
0.0
  0
LINE
  5
1EB
330
17
100
AcDbEntity
  8
ENGRAVE_LOG
100
AcDbLine
 10
-45.931811135047234
 20
-9.963369201949254
 30
0.0
 11
-44.75908404223751
 21
-9.7089853074314
 31
0.0
  0
LINE
  5
1EC
330
17
100
AcDbEntity
  8
ENGRAVE_LOG
100
AcDbLine
 10
-45.931811135047234
 20
-9.963369201949254
 30
0.0
 11
-47.10453822785695
 21
-10.217753096467106
 31
0.0
  0
LINE
  5
1ED
330
17
100
AcDbEntity
  8
ENGRAVE_LOG
100
AcDbLine
 10
-46.03365626903677
 20
-9.481692386076027
 30
0.0
 11
-45.44599257198524
 21
-9.360649504551652
 31
0.0
  0
LINE
  5
1EE
330
17
100
AcDbEntity
  8
ENGRAVE_LOG
100
AcDbLine
 10
-46.03365626903677
 20
-9.481692386076027
 30
0.0
 11
-46.6213199660883
 21
-9.602735267600403
 31
0.0
  0
LINE
  5
1EF
330
17
100
AcDbEntity
  8
ENGRAVE_LOG
100
AcDbLine
 10
-46.130089793257866
 20
-9.000823054919293
 30
0.0
 11
-45.54119502993968
 21
-8.88591893081394
 31
0.0
  0
LINE
  5
1F0
330
17
100
AcDbEntity
  8
ENGRAVE_LOG
100
AcDbLine
 10
-46.130089793257866
 20
-9.000823054919293
 30
0.0
 11
-46.71898455657605
 21
-9.115727179024645
 31
0.0
  0
LINE
  5
1F1
330
17
100
AcDbEntity
  8
ENGRAVE_LOG
100
AcDbLine
 10
-46.22116159305934
 20
-8.520811052258804
 30
0.0
 11
-45.631104211020286
 21
-8.412034740953372
 31
0.0
  0
LINE
  5
1F2
330
17
100
AcDbEntity
  8
ENGRAVE_LOG
100
AcDbLine
 10
-46.22116159305934
 20
-8.520811052258804
 30
0.0
 11
-46.8112189750984
 21
-8.629587363564236
 31
0.0
  0
LINE
  5
1F3
330
17
100
AcDbEntity
  8
ENGRAVE_LOG
100
AcDbLine
 10
-46.30692149638421
 20
-8.041705138072988
 30
0.0
 11
-45.71576930706867
 21
-7.9390450724805675
 31
0.0
  0
LINE
  5
1F4
330
17
100
AcDbEntity
  8
ENGRAVE_LOG
100
AcDbLine
 10
-46.30692149638421
 20
-8.041705138072988
 30
0.0
 11
-46.89807368569976
 21
-8.14436520366541
 31
0.0
  0
LINE
  5
1F5
330
17
100
AcDbEntity
  8
ENGRAVE_LOG
100
AcDbLine
 10
-46.3874192635445
 20
-7.563553005574882
 30
0.0
 11
-45.20305962277315
 21
-7.370441013943182
 31
0.0
  0
LINE
  5
1F6
330
17
100
AcDbEntity
  8
ENGRAVE_LOG
100
AcDbLine
 10
-46.3874192635445
 20
-7.563553005574882
 30
0.0
 11
-47.57177890431585
 21
-7.756664997206581
 31
0.0
  0
LINE
  5
1F7
330
17
100
AcDbEntity
  8
ENGRAVE_LOG
100
AcDbLine
 10
-46.46270457736271
 20
-7.086401298029786
 30
0.0
 11
-45.86956366786446
 21
-6.995936600608129
 31
0.0
  0
LINE
  5
1F8
330
17
100
AcDbEntity
  8
ENGRAVE_LOG
100
AcDbLine
 10
-46.46270457736271
 20
-7.086401298029786
 30
0.0
 11
-47.05584548686096
 21
-7.176865995451443
 31
0.0
  0
LINE
  5
1F9
330
17
100
AcDbEntity
  8
ENGRAVE_LOG
100
AcDbLine
 10
-46.53282703366932
 20
-6.610295625356968
 30
0.0
 11
-45.9387909438778
 21
-6.5259088726928365
 31
0.0
  0
LINE
  5
1FA
330
17
100
AcDbEntity
  8
ENGRAVE_LOG
100
AcDbLine
 10
-46.53282703366932
 20
-6.610295625356968
 30
0.0
 11
-47.12686312346084
 21
-6.6946823780211
 31
0.0
  0
LINE
  5
1FB
330
17
100
AcDbEntity
  8
ENGRAVE_LOG
100
AcDbLine
 10
-46.59783613214614
 20
-6.135280580515913
 30
0.0
 11
-46.00297013896981
 21
-6.056957849700817
 31
0.0
  0
LINE
  5
1FC
330
17
100
AcDbEntity
  8
ENGRAVE_LOG
100
AcDbLine
 10
-46.59783613214614
 20
-6.135280580515913
 30
0.0
 11
-47.19270212532248
 21
-6.213603311331011
 31
0.0
  0
LINE
  5
1FD
330
17
100
AcDbEntity
  8
ENGRAVE_LOG
100
AcDbLine
 10
-46.657781267505634
 20
-5.661399755678825
 30
0.0
 11
-46.06215001728216
 21
-5.5891265673084565
 31
0.0
  0
LINE
  5
1FE
330
17
100
AcDbEntity
  8
ENGRAVE_LOG
100
AcDbLine
 10
-46.657781267505634
 20
-5.661399755678825
 30
0.0
 11
-47.25341251772911
 21
-5.733672944049193
 31
0.0
  0
LINE
  5
1FF
330
17
100
AcDbEntity
  8
ENGRAVE_LOG
100
AcDbLine
 10
-46.71271172099656
 20
-5.188695758191184
 30
0.0
 11
-45.520046740886
 21
-5.056218419684174
 31
0.0
  0
LINE
  5
200
330
17
100
AcDbEntity
  8
ENGRAVE_LOG
100
AcDbLine
 10
-46.71271172099656
 20
-5.188695758191184
 30
0.0
 11
-47.90537670110711
 21
-5.3211730966981925
 31
0.0
  0
LINE
  5
201
330
17
100
AcDbEntity
  8
ENGRAVE_LOG
100
AcDbLine
 10
-46.7626766522266
 20
-4.717210226320321
 30
0.0
 11
-46.16570631198541
 21
-4.656990521303466
 31
0.0
  0
LINE
  5
202
330
17
100
AcDbEntity
  8
ENGRAVE_LOG
100
AcDbLine
 10
-46.7626766522266
 20
-4.717210226320321
 30
0.0
 11
-47.359646992467795
 21
-4.777429931337176
 31
0.0
  0
LINE
  5
203
330
17
100
AcDbEntity
  8
ENGRAVE_LOG
100
AcDbLine
 10
-46.807725091292816
 20
-4.24698384479584
 30
0.0
 11
-46.21017966459546
 21
-4.192767029755893
 31
0.0
  0
LINE
  5
204
330
17
100
AcDbEntity
  8
ENGRAVE_LOG
100
AcDbLine
 10
-46.807725091292816
 20
-4.24698384479584
 30
0.0
 11
-47.405270517990175
 21
-4.301200659835787
 31
0.0
  0
LINE
  5
205
330
17
100
AcDbEntity
  8
ENGRAVE_LOG
100
AcDbLine
 10
-46.84790593121101
 20
-3.7780563601413366
 30
0.0
 11
-46.24984755762108
 21
-3.729825853416128
 31
0.0
  0
LINE
  5
206
330
17
100
AcDbEntity
  8
ENGRAVE_LOG
100
AcDbLine
 10
-46.84790593121101
 20
-3.7780563601413366
 30
0.0
 11
-47.44596430480094
 21
-3.8262868668665453
 31
0.0
  0
LINE
  5
207
330
17
100
AcDbEntity
  8
ENGRAVE_LOG
100
AcDbLine
 10
-46.88326792063551
 20
-3.3104665958002255
 30
0.0
 11
-46.28475811739336
 21
-3.2682053201091588
 31
0.0
  0
LINE
  5
208
330
17
100
AcDbEntity
  8
ENGRAVE_LOG
100
AcDbLine
 10
-46.88326792063551
 20
-3.3104665958002255
 30
0.0
 11
-47.48177772387767
 21
-3.3527278714912923
 31
0.0
  0
LINE
  5
209
330
17
100
AcDbEntity
  8
ENGRAVE_LOG
100
AcDbLine
 10
-46.9138596568609
 20
-2.844252467056887
 30
0.0
 11
-45.117158648725805
 21
-2.735323649169602
 31
0.0
  0
LINE
  5
20A
330
17
100
AcDbEntity
  8
ENGRAVE_LOG
100
AcDbLine
 10
-46.9138596568609
 20
-2.844252467056887
 30
0.0
 11
-48.710560664995995
 21
-2.9531812849441716
 31
0.0
  0
TEXT
  5
20B
330
17
100
AcDbEntity
  8
ENGRAVE_TEXT
100
AcDbText
 10
-43.12082419524236
 20
-2.614291629294841
 30
0.0
 40
1.9500000000000002
  1
5.5
 50
-176.5305682179278
 72
1
 11
-43.12082419524236
 21
-2.614291629294841
 31
0.0
100
AcDbText
 73
2
  0
TEXT
  5
20C
330
17
100
AcDbEntity
  8
ENGRAVE_TEXT
100
AcDbText
 10
-50.70689511847944
 20
-3.074213304818933
 30
0.0
 40
1.9500000000000002
  1
5.5
 50
-176.5305682179278
 72
1
 11
-50.70689511847944
 21
-3.074213304818933
 31
0.0
100
AcDbText
 73
2
  0
LINE
  5
20D
330
17
100
AcDbEntity
  8
ENGRAVE_LOG
100
AcDbLine
 10
-46.93972957909749
 20
-2.3794509957552243
 30
0.0
 11
-46.340498988726026
 21
-2.349075025596647
 31
0.0
  0
LINE
  5
20E
330
17
100
AcDbEntity
  8
ENGRAVE_LOG
100
AcDbLine
 10
-46.93972957909749
 20
-2.3794509957552243
 30
0.0
 11
-47.53896016946894
 21
-2.409826965913802
 31
0.0
  0
LINE
  5
20F
330
17
100
AcDbEntity
  8
ENGRAVE_LOG
100
AcDbLine
 10
-46.9609259620127
 20
-1.9160983248156216
 30
0.0
 11
-46.36142477951893
 21
-1.8916374951371242
 31
0.0
  0
LINE
  5
210
330
17
100
AcDbEntity
  8
ENGRAVE_LOG
100
AcDbLine
 10
-46.9609259620127
 20
-1.9160983248156216
 30
0.0
 11
-47.560427144506484
 21
-1.940559154494119
 31
0.0
  0
LINE
  5
211
330
17
100
AcDbEntity
  8
ENGRAVE_LOG
100
AcDbLine
 10
-46.97749690953061
 20
-1.4542297325533249
 30
0.0
 11
-46.377784183025966
 21
-1.4356650976696654
 31
0.0
  0
LINE
  5
212
330
17
100
AcDbEntity
  8
ENGRAVE_LOG
100
AcDbLine
 10
-46.97749690953061
 20
-1.4542297325533249
 30
0.0
 11
-47.577209636035256
 21
-1.4727943674369843
 31
0.0
  0
LINE
  5
213
330
17
100
AcDbEntity
  8
ENGRAVE_LOG
100
AcDbLine
 10
-46.98949034888206
 20
-0.9938796467983507
 30
0.0
 11
-46.38962451464101
 21
-0.9811918215200739
 31
0.0
  0
LINE
  5
214
330
17
100
AcDbEntity
  8
ENGRAVE_LOG
100
AcDbLine
 10
-46.98949034888206
 20
-0.9938796467983507
 30
0.0
 11
-47.58935618312311
 21
-1.0065674720766276
 31
0.0
  0
LINE
  5
215
330
17
100
AcDbEntity
  8
ENGRAVE_LOG
100
AcDbLine
 10
-46.99695402489819
 20
-0.5350816588204421
 30
0.0
 11
-45.79703179447525
 21
-0.5214199994463031
 31
0.0
  0
LINE
  5
216
330
17
100
AcDbEntity
  8
ENGRAVE_LOG
100
AcDbLine
 10
-46.99695402489819
 20
-0.5350816588204421
 30
0.0
 11
-48.19687625532112
 21
-0.5487433181945811
 31
0.0
  0
LINE
  5
217
330
17
100
AcDbEntity
  8
ENGRAVE_LOG
100
AcDbLine
 10
-46.99993549454016
 20
-0.07786853706001721
 30
0.0
 11
-46.39993631801412
 21
-0.0768744706294638
 31
0.0
  0
LINE
  5
218
330
17
100
AcDbEntity
  8
ENGRAVE_LOG
100
AcDbLine
 10
-46.99993549454016
 20
-0.07786853706001721
 30
0.0
 11
-47.59993467106621
 21
-0.07886260349057063
 31
0.0
  0
LINE
  5
219
330
17
100
AcDbEntity
  8
ENGRAVE_LOG
100
AcDbLine
 10
-46.998482121658235
 20
0.3777277593334793
 30
0.0
 11
-46.39850149882856
 21
0.3729057028313497
 31
0.0
  0
LINE
  5
21A
330
17
100
AcDbEntity
  8
ENGRAVE_LOG
100
AcDbLine
 10
-46.998482121658235
 20
0.3777277593334793
 30
0.0
 11
-47.59846274448792
 21
0.3825498158356088
 31
0.0
  0
LINE
  5
21B
330
17
100
AcDbEntity
  8
ENGRAVE_LOG
100
AcDbLine
 10
-46.99264107197345
 20
0.8316760671522271
 30
0.0
 11
-46.39273501573549
 21
0.8210589258694326
 31
0.0
  0
LINE
  5
21C
330
17
100
AcDbEntity
  8
ENGRAVE_LOG
100
AcDbLine
 10
-46.99264107197345
 20
0.8316760671522271
 30
0.0
 11
-47.59254712821141
 21
0.8422932084350214
 31
0.0
  0
LINE
  5
21D
330
17
100
AcDbEntity
  8
ENGRAVE_LOG
100
AcDbLine
 10
-46.9824593082754
 20
1.283946005969813
 30
0.0
 11
-46.38268323199955
 21
1.2675552058936024
 31
0.0
  0
LINE
  5
21E
330
17
100
AcDbEntity
  8
ENGRAVE_LOG
100
AcDbLine
 10
-46.9824593082754
 20
1.283946005969813
 30
0.0
 11
-47.58223538455126
 21
1.3003368060460232
 31
0.0
  0
LINE
  5
21F
330
17
100
AcDbEntity
  8
ENGRAVE_LOG
100
AcDbLine
 10
-46.96798358582976
 20
1.7345079651666588
 30
0.0
 11
-45.76880102619155
 21
1.6902226554177227
 31
0.0
  0
LINE
  5
220
330
17
100
AcDbEntity
  8
ENGRAVE_LOG
100
AcDbLine
 10
-46.96798358582976
 20
1.7345079651666588
 30
0.0
 11
-48.16716614546797
 21
1.7787932749155948
 31
0.0
  0
LINE
  5
221
330
17
100
AcDbEntity
  8
ENGRAVE_LOG
100
AcDbLine
 10
-46.949260447989296
 20
2.1833330911401863
 30
0.0
 11
-46.34990818695113
 21
2.155460753806482
 31
0.0
  0
LINE
  5
222
330
17
100
AcDbEntity
  8
ENGRAVE_LOG
100
AcDbLine
 10
-46.949260447989296
 20
2.1833330911401863
 30
0.0
 11
-47.54861270902746
 21
2.211205428473891
 31
0.0
  0
LINE
  5
223
330
17
100
AcDbEntity
  8
ENGRAVE_LOG
100
AcDbLine
 10
-46.926336222002554
 20
2.630393274696947
 30
0.0
 11
-46.32727661065784
 21
2.5968137860837945
 31
0.0
  0
LINE
  5
224
330
17
100
AcDbEntity
  8
ENGRAVE_LOG
100
AcDbLine
 10
-46.926336222002554
 20
2.630393274696947
 30
0.0
 11
-47.52539583334727
 21
2.6639727633101
 31
0.0
  0
LINE
  5
225
330
17
100
AcDbEntity
  8
ENGRAVE_LOG
100
AcDbLine
 10
-46.8992570150141
 20
3.0756611386254082
 30
0.0
 11
-46.3005430956735
 21
3.0363973794089136
 31
0.0
  0
LINE
  5
226
330
17
100
AcDbEntity
  8
ENGRAVE_LOG
100
AcDbLine
 10
-46.8992570150141
 20
3.0756611386254082
 30
0.0
 11
-47.497970934354704
 21
3.114924897841903
 31
0.0
  0
LINE
  5
227
330
17
100
AcDbEntity
  8
ENGRAVE_LOG
100
AcDbLine
 10
-46.86806871025089
 20
3.519110025447048
 30
0.0
 11
-46.26975293948173
 21
3.474185216611554
 31
0.0
  0
LINE
  5
228
330
17
100
AcDbEntity
  8
ENGRAVE_LOG
100
AcDbLine
 10
-46.86806871025089
 20
3.519110025447048
 30
0.0
 11
-47.46638448102005
 21
3.5640348342825425
 31
0.0
  0
LINE
  5
229
330
17
100
AcDbEntity
  8
ENGRAVE_LOG
100
AcDbLine
 10
-46.83281696338904
 20
3.960713985344039
 30
0.0
 11
-45.637085466451445
 21
3.859589372952276
 31
0.0
  0
LINE
  5
22A
330
17
100
AcDbEntity
  8
ENGRAVE_LOG
100
AcDbLine
 10
-46.83281696338904
 20
3.960713985344039
 30
0.0
 11
-48.02854846032664
 21
4.061838597735802
 31
0.0
  0
LINE
  5
22B
330
17
100
AcDbEntity
  8
ENGRAVE_LOG
100
AcDbLine
 10
-46.79354719909582
 20
4.400447764261247
 30
0.0
 11
-46.19618276676694
 21
4.3442718353557845
 31
0.0
  0
LINE
  5
22C
330
17
100
AcDbEntity
  8
ENGRAVE_LOG
100
AcDbLine
 10
-46.79354719909582
 20
4.400447764261247
 30
0.0
 11
-47.39091163142471
 21
4.45662369316671
 31
0.0
  0
LINE
  5
22D
330
17
100
AcDbEntity
  8
ENGRAVE_LOG
100
AcDbLine
 10
-46.75030460774142
 20
4.838286792180805
 30
0.0
 11
-46.15349220849366
 21
4.776521428876369
 31
0.0
  0
LINE
  5
22E
330
17
100
AcDbEntity
  8
ENGRAVE_LOG
100
AcDbLine
 10
-46.75030460774142
 20
4.838286792180805
 30
0.0
 11
-47.34711700698919
 21
4.90005215548524
 31
0.0
  0
LINE
  5
22F
330
17
100
AcDbEntity
  8
ENGRAVE_LOG
100
AcDbLine
 10
-46.70313414227557
 20
5.274207171567475
 30
0.0
 11
-46.10692391918269
 21
5.206876867249592
 31
0.0
  0
LINE
  5
230
330
17
100
AcDbEntity
  8
ENGRAVE_LOG
100
AcDbLine
 10
-46.70313414227557
 20
5.274207171567475
 30
0.0
 11
-47.299344365368455
 21
5.341537475885358
 31
0.0
  0
LINE
  5
231
330
17
100
AcDbEntity
  8
ENGRAVE_LOG
100
AcDbLine
 10
-46.652080515264046
 20
5.708185665981862
 30
0.0
 11
-46.0565220406011
 21
5.635315210671455
 31
0.0
  0
LINE
  5
232
330
17
100
AcDbEntity
  8
ENGRAVE_LOG
100
AcDbLine
 10
-46.652080515264046
 20
5.708185665981862
 30
0.0
 11
-47.247638989927
 21
5.781056121292268
 31
0.0
  0
LINE
  5
233
330
17
100
AcDbEntity
  8
ENGRAVE_LOG
100
AcDbLine
 10
-46.59718819608012
 20
6.140199688861237
 30
0.0
 11
-45.407472752775945
 21
5.983428632975419
 31
0.0
  0
LINE
  5
234
330
17
100
AcDbEntity
  8
ENGRAVE_LOG
100
AcDbLine
 10
-46.59718819608012
 20
6.140199688861237
 30
0.0
 11
-47.7869036393843
 21
6.296970744747057
 31
0.0
  0
LINE
  5
235
330
17
100
AcDbEntity
  8
ENGRAVE_LOG
100
AcDbLine
 10
-46.53850140824651
 20
6.570227292463925
 30
0.0
 11
-45.94439287963059
 21
6.486352050432471
 31
0.0
  0
LINE
  5
236
330
17
100
AcDbEntity
  8
ENGRAVE_LOG
100
AcDbLine
 10
-46.53850140824651
 20
6.570227292463925
 30
0.0
 11
-47.13260993686242
 21
6.65410253449538
 31
0.0
  0
LINE
  5
237
330
17
100
AcDbEntity
  8
ENGRAVE_LOG
100
AcDbLine
 10
-46.476064126923035
 20
6.998247156977113
 30
0.0
 11
-45.88275266998359
 21
6.908907831568895
 31
0.0
  0
LINE
  5
238
330
17
100
AcDbEntity
  8
ENGRAVE_LOG
100
AcDbLine
 10
-46.476064126923035
 20
6.998247156977113
 30
0.0
 11
-47.069375583862474
 21
7.087586482385332
 31
0.0
  0
LINE
  5
239
330
17
100
AcDbEntity
  8
ENGRAVE_LOG
100
AcDbLine
 10
-46.40992007653572
 20
7.424238579784921
 30
0.0
 11
-45.81745301172888
 21
7.329461066000433
 31
0.0
  0
LINE
  5
23A
330
17
100
AcDbEntity
  8
ENGRAVE_LOG
100
AcDbLine
 10
-46.40992007653572
 20
7.424238579784921
 30
0.0
 11
-47.00238714134256
 21
7.51901609356941
 31
0.0
  0
LINE
  5
23B
330
17
100
AcDbEntity
  8
ENGRAVE_LOG
100
AcDbLine
 10
-46.34011272854301
 20
7.848181464895284
 30
0.0
 11
-45.748536821370124
 21
7.747991914279599
 31
0.0
  0
LINE
  5
23C
330
17
100
AcDbEntity
  8
ENGRAVE_LOG
100
AcDbLine
 10
-46.34011272854301
 20
7.848181464895284
 30
0.0
 11
-46.9316886357159
 21
7.948371015510969
 31
0.0
  0
LINE
  5
23D
330
17
100
AcDbEntity
  8
ENGRAVE_LOG
100
AcDbLine
 10
-46.266685299334846
 20
8.270056312523696
 30
0.0
 11
-43.904131156390086
 21
7.8477555646501465
 31
0.0
  0
LINE
  5
23E
330
17
100
AcDbEntity
  8
ENGRAVE_LOG
100
AcDbLine
 10
-46.266685299334846
 20
8.270056312523696
 30
0.0
 11
-48.6292394422796
 21
8.692357060397248
 31
0.0
  0
TEXT
  5
23F
330
17
100
AcDbEntity
  8
ENGRAVE_TEXT
100
AcDbText
 10
-42.13221554918152
 20
7.531030003744983
 30
0.0
 40
3.0
  1
6
 50
-190.13445013811173
 72
1
 11
-42.13221554918152
 21
7.531030003744983
 31
0.0
100
AcDbText
 73
2
  0
TEXT
  5
240
330
17
100
AcDbEntity
  8
ENGRAVE_TEXT
100
AcDbText
 10
-50.401155049488175
 20
9.00908262130241
 30
0.0
 40
3.0
  1
6
 50
-190.13445013811173
 72
1
 11
-50.401155049488175
 21
9.00908262130241
 31
0.0
100
AcDbText
 73
2
  0
LINE
  5
241
330
17
100
AcDbEntity
  8
ENGRAVE_LOG
100
AcDbLine
 10
-46.067560154193366
 20
9.315573060192042
 30
0.0
 11
-45.47946364158664
 21
9.196650850912995
 31
0.0
  0
LINE
  5
242
330
17
100
AcDbEntity
  8
ENGRAVE_LOG
100
AcDbLine
 10
-46.067560154193366
 20
9.315573060192042
 30
0.0
 11
-46.65565666680009
 21
9.434495269471089
 31
0.0
  0
LINE
  5
243
330
17
100
AcDbEntity
  8
ENGRAVE_LOG
100
AcDbLine
 10
-45.84674141578828
 20
10.34776795032839
 30
0.0
 11
-44.6761863158107
 21
10.083569619681706
 31
0.0
  0
LINE
  5
244
330
17
100
AcDbEntity
  8
ENGRAVE_LOG
100
AcDbLine
 10
-45.84674141578828
 20
10.34776795032839
 30
0.0
 11
-47.01729651576586
 21
10.611966280975071
 31
0.0
  0
LINE
  5
245
330
17
100
AcDbEntity
  8
ENGRAVE_LOG
100
AcDbLine
 10
-45.60488294139132
 20
11.36638253368217
 30
0.0
 11
-45.022692946394834
 21
11.221279777933036
 31
0.0
  0
LINE
  5
246
330
17
100
AcDbEntity
  8
ENGRAVE_LOG
100
AcDbLine
 10
-45.60488294139132
 20
11.36638253368217
 30
0.0
 11
-46.1870729363878
 21
11.511485289431304
 31
0.0
  0
LINE
  5
247
330
17
100
AcDbEntity
  8
ENGRAVE_LOG
100
AcDbLine
 10
-45.34262818628522
 20
12.371178972122786
 30
0.0
 11
-44.18494406238006
 21
12.055319083472842
 31
0.0
  0
LINE
  5
248
330
17
100
AcDbEntity
  8
ENGRAVE_LOG
100
AcDbLine
 10
-45.34262818628522
 20
12.371178972122786
 30
0.0
 11
-46.50031231019038
 21
12.68703886077273
 31
0.0
  0
LINE
  5
249
330
17
100
AcDbEntity
  8
ENGRAVE_LOG
100
AcDbLine
 10
-45.060610096030956
 20
13.36193914719989
 30
0.0
 11
-44.4853682650178
 21
13.191361200639891
 31
0.0
  0
LINE
  5
24A
330
17
100
AcDbEntity
  8
ENGRAVE_LOG
100
AcDbLine
 10
-45.060610096030956
 20
13.36193914719989
 30
0.0
 11
-45.63585192704412
 21
13.532517093759889
 31
0.0
  0
LINE
  5
24B
330
17
100
AcDbEntity
  8
ENGRAVE_LOG
100
AcDbLine
 10
-44.7594510220456
 20
14.33846380213379
 30
0.0
 11
-43.61665652786571
 21
13.9723753646325
 31
0.0
  0
LINE
  5
24C
330
17
100
AcDbEntity
  8
ENGRAVE_LOG
100
AcDbLine
 10
-44.7594510220456
 20
14.33846380213379
 30
0.0
 11
-45.90224551622549
 21
14.704552239635078
 31
0.0
  0
LINE
  5
24D
330
17
100
AcDbEntity
  8
ENGRAVE_LOG
100
AcDbLine
 10
-44.439762658675726
 20
15.300571716134355
 30
0.0
 11
-43.872446539628804
 21
15.105245268694341
 31
0.0
  0
LINE
  5
24E
330
17
100
AcDbEntity
  8
ENGRAVE_LOG
100
AcDbLine
 10
-44.439762658675726
 20
15.300571716134355
 30
0.0
 11
-45.007078777722654
 21
15.495898163574369
 31
0.0
  0
LINE
  5
24F
330
17
100
AcDbEntity
  8
ENGRAVE_LOG
100
AcDbLine
 10
-44.102146000074576
 20
16.24809890996809
 30
0.0
 11
-42.9761337617748
 21
15.83325383141571
 31
0.0
  0
LINE
  5
250
330
17
100
AcDbEntity
  8
ENGRAVE_LOG
100
AcDbLine
 10
-44.102146000074576
 20
16.24809890996809
 30
0.0
 11
-45.228158238374355
 21
16.662943988520464
 31
0.0
  0
LINE
  5
251
330
17
100
AcDbEntity
  8
ENGRAVE_LOG
100
AcDbLine
 10
-43.74719131530572
 20
17.18089788171851
 30
0.0
 11
-43.18871653255714
 21
16.96156727046253
 31
0.0
  0
LINE
  5
252
330
17
100
AcDbEntity
  8
ENGRAVE_LOG
100
AcDbLine
 10
-43.74719131530572
 20
17.18089788171851
 30
0.0
 11
-44.30566609805431
 21
17.40022849297449
 31
0.0
  0
LINE
  5
253
330
17
100
AcDbEntity
  8
ENGRAVE_LOG
100
AcDbLine
 10
-43.37547814020366
 20
18.098836871708475
 30
0.0
 11
-41.714289615685225
 21
17.405689927685597
 31
0.0
  0
LINE
  5
254
330
17
100
AcDbEntity
  8
ENGRAVE_LOG
100
AcDbLine
 10
-43.37547814020366
 20
18.098836871708475
 30
0.0
 11
-45.0366666647221
 21
18.791983815731353
 31
0.0
  0
LINE
  5
255
330
17
100
AcDbEntity
  8
ENGRAVE_LOG
100
AcDbLine
 10
-42.98757528462133
 20
19.00179915558034
 30
0.0
 11
-42.43879772779637
 21
18.7592229961474
 31
0.0
  0
LINE
  5
256
330
17
100
AcDbEntity
  8
ENGRAVE_LOG
100
AcDbLine
 10
-42.98757528462133
 20
19.00179915558034
 30
0.0
 11
-43.53635284144628
 21
19.244375315013283
 31
0.0
  0
LINE
  5
257
330
17
100
AcDbEntity
  8
ENGRAVE_LOG
100
AcDbLine
 10
-42.584040853788444
 20
19.889682364554663
 30
0.0
 11
-41.496788746883205
 21
19.381860687161776
 31
0.0
  0
LINE
  5
258
330
17
100
AcDbEntity
  8
ENGRAVE_LOG
100
AcDbLine
 10
-42.584040853788444
 20
19.889682364554663
 30
0.0
 11
-43.671292960693684
 21
20.39750404194755
 31
0.0
  0
LINE
  5
259
330
17
100
AcDbEntity
  8
ENGRAVE_LOG
100
AcDbLine
 10
-42.16542228259188
 20
20.762397831914893
 30
0.0
 11
-41.6271402960056
 21
20.497345944698957
 31
0.0
  0
LINE
  5
25A
330
17
100
AcDbEntity
  8
ENGRAVE_LOG
100
AcDbLine
 10
-42.16542228259188
 20
20.762397831914893
 30
0.0
 11
-42.70370426917816
 21
21.02744971913083
 31
0.0
  0
LINE
  5
25B
330
17
100
AcDbEntity
  8
ENGRAVE_LOG
100
AcDbLine
 10
-41.73225638167044
 20
21.619869964792276
 30
0.0
 11
-40.66675196341502
 21
21.067873284840132
 31
0.0
  0
LINE
  5
25C
330
17
100
AcDbEntity
  8
ENGRAVE_LOG
100
AcDbLine
 10
-41.73225638167044
 20
21.619869964792276
 30
0.0
 11
-42.797760799925854
 21
22.171866644744423
 31
0.0
  0
LINE
  5
25D
330
17
100
AcDbEntity
  8
ENGRAVE_LOG
100
AcDbLine
 10
-41.28506939429305
 20
22.462035640351196
 30
0.0
 11
-40.758025955216965
 21
22.175286249197775
 31
0.0
  0
LINE
  5
25E
330
17
100
AcDbEntity
  8
ENGRAVE_LOG
100
AcDbLine
 10
-41.28506939429305
 20
22.462035640351196
 30
0.0
 11
-41.812112833369135
 21
22.748785031504614
 31
0.0
  0
LINE
  5
25F
330
17
100
AcDbEntity
  8
ENGRAVE_LOG
100
AcDbLine
 10
-40.824377063060254
 20
23.288843625501887
 30
0.0
 11
-39.782052542301265
 21
22.694234852084815
 31
0.0
  0
LINE
  5
260
330
17
100
AcDbEntity
  8
ENGRAVE_LOG
100
AcDbLine
 10
-40.824377063060254
 20
23.288843625501887
 30
0.0
 11
-41.86670158381924
 21
23.88345239891896
 31
0.0
  0
LINE
  5
261
330
17
100
AcDbEntity
  8
ENGRAVE_LOG
100
AcDbLine
 10
-40.350684705535144
 20
24.100254019293907
 30
0.0
 11
-39.8355695816347
 21
23.792591202026323
 31
0.0
  0
LINE
  5
262
330
17
100
AcDbEntity
  8
ENGRAVE_LOG
100
AcDbLine
 10
-40.350684705535144
 20
24.100254019293907
 30
0.0
 11
-40.865799829435595
 21
24.407916836561487
 31
0.0
  0
LINE
  5
263
330
17
100
AcDbEntity
  8
ENGRAVE_LOG
100
AcDbLine
 10
-39.86448729797251
 20
24.896237717169004
 30
0.0
 11
-38.84667060100299
 21
24.260589094602985
 31
0.0
  0
LINE
  5
264
330
17
100
AcDbEntity
  8
ENGRAVE_LOG
100
AcDbLine
 10
-39.86448729797251
 20
24.896237717169004
 30
0.0
 11
-40.88230399494202
 21
25.531886339735024
 31
0.0
  0
LINE
  5
265
330
17
100
AcDbEntity
  8
ENGRAVE_LOG
100
AcDbLine
 10
-39.366269566372154
 20
25.676775896278752
 30
0.0
 11
-38.863721444248256
 21
25.348987267815616
 31
0.0
  0
LINE
  5
266
330
17
100
AcDbEntity
  8
ENGRAVE_LOG
100
AcDbLine
 10
-39.366269566372154
 20
25.676775896278752
 30
0.0
 11
-39.86881768849606
 21
26.004564524741884
 31
0.0
  0
LINE
  5
267
330
17
100
AcDbEntity
  8
ENGRAVE_LOG
100
AcDbLine
 10
-38.856506084137095
 20
26.44185952109678
 30
0.0
 11
-36.8723440713301
 21
25.09163690725354
 31
0.0
  0
LINE
  5
268
330
17
100
AcDbEntity
  8
ENGRAVE_LOG
100
AcDbLine
 10
-38.856506084137095
 20
26.44185952109678
 30
0.0
 11
-40.8406680969441
 21
27.79208213494002
 31
0.0
  0
TEXT
  5
269
330
17
100
AcDbEntity
  8
ENGRAVE_TEXT
100
AcDbText
 10
-35.38422256172485
 20
24.07896994687111
 30
0.0
 40
3.0
  1
7
 50
-214.23529440513244
 72
1
 11
-35.38422256172485
 21
24.07896994687111
 31
0.0
100
AcDbText
 73
2
  0
TEXT
  5
26A
330
17
100
AcDbEntity
  8
ENGRAVE_TEXT
100
AcDbText
 10
-42.32878960654935
 20
28.80474909532245
 30
0.0
 40
3.0
  1
7
 50
-214.23529440513244
 72
1
 11
-42.32878960654935
 21
28.80474909532245
 31
0.0
100
AcDbText
 73
2
  0
LINE
  5
26B
330
17
100
AcDbEntity
  8
ENGRAVE_LOG
100
AcDbLine
 10
-38.33566137566744
 20
27.191488868580908
 30
0.0
 11
-37.84626995385041
 21
26.84436347876924
 31
0.0
  0
LINE
  5
26C
330
17
100
AcDbEntity
  8
ENGRAVE_LOG
100
AcDbLine
 10
-38.33566137566744
 20
27.191488868580908
 30
0.0
 11
-38.825052797484474
 21
27.53861425839258
 31
0.0
  0
LINE
  5
26D
330
17
100
AcDbEntity
  8
ENGRAVE_LOG
100
AcDbLine
 10
-37.80419002526871
 20
27.925673072163796
 30
0.0
 11
-36.83897666292142
 21
27.212677163938334
 31
0.0
  0
LINE
  5
26E
330
17
100
AcDbEntity
  8
ENGRAVE_LOG
100
AcDbLine
 10
-37.80419002526871
 20
27.925673072163796
 30
0.0
 11
-38.769403387615995
 21
28.638668980389255
 31
0.0
  0
LINE
  5
26F
330
17
100
AcDbEntity
  8
ENGRAVE_LOG
100
AcDbLine
 10
-37.26253679079621
 20
28.64442968387674
 30
0.0
 11
-36.78684483176477
 21
28.27875611344427
 31
0.0
  0
LINE
  5
270
330
17
100
AcDbEntity
  8
ENGRAVE_LOG
100
AcDbLine
 10
-37.26253679079621
 20
28.64442968387674
 30
0.0
 11
-37.73822874982765
 21
29.01010325430921
 31
0.0
  0
LINE
  5
271
330
17
100
AcDbEntity
  8
ENGRAVE_LOG
100
AcDbLine
 10
-36.71113672149975
 20
29.347784253932236
 30
0.0
 11
-35.77383110307847
 21
28.5984791240446
 31
0.0
  0
LINE
  5
272
330
17
100
AcDbEntity
  8
ENGRAVE_LOG
100
AcDbLine
 10
-36.71113672149975
 20
29.347784253932236
 30
0.0
 11
-37.64844233992102
 21
30.09708938381987
 31
0.0
  0
LINE
  5
273
330
17
100
AcDbEntity
  8
ENGRAVE_LOG
100
AcDbLine
 10
-36.15041527957032
 20
30.03576992711539
 30
0.0
 11
-35.68892061642686
 21
29.652334566343704
 31
0.0
  0
LINE
  5
274
330
17
100
AcDbEntity
  8
ENGRAVE_LOG
100
AcDbLine
 10
-36.15041527957032
 20
30.03576992711539
 30
0.0
 11
-36.611909942713766
 21
30.419205287887078
 31
0.0
  0
LINE
  5
275
330
17
100
AcDbEntity
  8
ENGRAVE_LOG
100
AcDbLine
 10
-35.58078846492685
 20
30.708427055356132
 30
0.0
 11
-34.67234280199254
 21
29.92438210926193
 31
0.0
  0
LINE
  5
276
330
17
100
AcDbEntity
  8
ENGRAVE_LOG
100
AcDbLine
 10
-35.58078846492685
 20
30.708427055356132
 30
0.0
 11
-36.48923412786115
 21
31.492472001450334
 31
0.0
  0
LINE
  5
277
330
17
100
AcDbEntity
  8
ENGRAVE_LOG
100
AcDbLine
 10
-35.002662942814794
 20
31.36580282587551
 30
0.0
 11
-34.555820437161834
 21
30.965388321715395
 31
0.0
  0
LINE
  5
278
330
17
100
AcDbEntity
  8
ENGRAVE_LOG
100
AcDbLine
 10
-35.002662942814794
 20
31.36580282587551
 30
0.0
 11
-35.44950544846775
 21
31.766217330035623
 31
0.0
  0
LINE
  5
279
330
17
100
AcDbEntity
  8
ENGRAVE_LOG
100
AcDbLine
 10
-34.41643617381905
 20
32.007950904321255
 30
0.0
 11
-33.5377186544875
 21
31.190726625913047
 31
0.0
  0
LINE
  5
27A
330
17
100
AcDbEntity
  8
ENGRAVE_LOG
100
AcDbLine
 10
-34.41643617381905
 20
32.007950904321255
 30
0.0
 11
-35.2951536931506
 21
32.82517518272945
 31
0.0
  0
LINE
  5
27B
330
17
100
AcDbEntity
  8
ENGRAVE_LOG
100
AcDbLine
 10
-33.82249654592409
 20
32.634931092327335
 30
0.0
 11
-33.390719994273994
 21
32.218314950723155
 31
0.0
  0
LINE
  5
27C
330
17
100
AcDbEntity
  8
ENGRAVE_LOG
100
AcDbLine
 10
-33.82249654592409
 20
32.634931092327335
 30
0.0
 11
-34.254273097574185
 21
33.05154723393151
 31
0.0
  0
LINE
  5
27D
330
17
100
AcDbEntity
  8
ENGRAVE_LOG
100
AcDbLine
 10
-33.22122350827999
 20
33.24680899895364
 30
0.0
 11
-31.948921331367142
 21
31.973526952185207
 31
0.0
  0
LINE
  5
27E
330
17
100
AcDbEntity
  8
ENGRAVE_LOG
100
AcDbLine
 10
-33.22122350827999
 20
33.24680899895364
 30
0.0
 11
-34.49352568519284
 21
34.520091045722076
 31
0.0
  0
LINE
  5
27F
330
17
100
AcDbEntity
  8
ENGRAVE_LOG
100
AcDbLine
 10
-32.61298770636046
 20
33.8436557254795
 30
0.0
 11
-32.19665169308777
 21
33.41160905664359
 31
0.0
  0
LINE
  5
280
330
17
100
AcDbEntity
  8
ENGRAVE_LOG
100
AcDbLine
 10
-32.61298770636046
 20
33.8436557254795
 30
0.0
 11
-33.02932371963315
 21
34.27570239431541
 31
0.0
  0
LINE
  5
281
330
17
100
AcDbEntity
  8
ENGRAVE_LOG
100
AcDbLine
 10
-31.998151118220814
 20
34.42554756304544
 30
0.0
 11
-31.181177047117302
 21
33.5465974124996
 31
0.0
  0
LINE
  5
282
330
17
100
AcDbEntity
  8
ENGRAVE_LOG
100
AcDbLine
 10
-31.998151118220814
 20
34.42554756304544
 30
0.0
 11
-32.81512518932433
 21
35.30449771359129
 31
0.0
  0
LINE
  5
283
330
17
100
AcDbEntity
  8
ENGRAVE_LOG
100
AcDbLine
 10
-31.377067191587784
 20
34.9925657026544
 30
0.0
 11
-30.976508887014322
 21
34.545852097939665
 31
0.0
  0
LINE
  5
284
330
17
100
AcDbEntity
  8
ENGRAVE_LOG
100
AcDbLine
 10
-31.377067191587784
 20
34.9925657026544
 30
0.0
 11
-31.777625496161246
 21
35.43927930736914
 31
0.0
  0
LINE
  5
285
330
17
100
AcDbEntity
  8
ENGRAVE_LOG
100
AcDbLine
 10
-30.750080981532978
 20
35.5447959570619
 30
0.0
 11
-29.964972530940646
 21
34.63726925177521
 31
0.0
  0
LINE
  5
286
330
17
100
AcDbEntity
  8
ENGRAVE_LOG
100
AcDbLine
 10
-30.750080981532978
 20
35.5447959570619
 30
0.0
 11
-31.53518943212531
 21
36.452322662348585
 31
0.0
  0
LINE
  5
287
330
17
100
AcDbEntity
  8
ENGRAVE_LOG
100
AcDbLine
 10
-30.11752928850106
 20
36.08232849410194
 30
0.0
 11
-29.733050191201045
 21
35.621703023964464
 31
0.0
  0
LINE
  5
288
330
17
100
AcDbEntity
  8
ENGRAVE_LOG
100
AcDbLine
 10
-30.11752928850106
 20
36.08232849410194
 30
0.0
 11
-30.502008385801073
 21
36.54295396423941
 31
0.0
  0
LINE
  5
289
330
17
100
AcDbEntity
  8
ENGRAVE_LOG
100
AcDbLine
 10
-29.47974079648264
 20
36.605257581011465
 30
0.0
 11
-28.727066563380955
 21
35.67065525979415
 31
0.0
  0
LINE
  5
28A
330
17
100
AcDbEntity
  8
ENGRAVE_LOG
100
AcDbLine
 10
-29.47974079648264
 20
36.605257581011465
 30
0.0
 11
-30.232415029584327
 21
37.539859902228784
 31
0.0
  0
LINE
  5
28B
330
17
100
AcDbEntity
  8
ENGRAVE_LOG
100
AcDbLine
 10
-28.837036211137644
 20
37.11368133933275
 30
0.0
 11
-28.468903833974185
 21
36.639889662660416
 31
0.0
  0
LINE
  5
28C
330
17
100
AcDbEntity
  8
ENGRAVE_LOG
100
AcDbLine
 10
-28.837036211137644
 20
37.11368133933275
 30
0.0
 11
-29.205168588301106
 21
37.587473016005085
 31
0.0
  0
LINE
  5
28D
330
17
100
AcDbEntity
  8
ENGRAVE_LOG
100
AcDbLine
 10
-28.1897283976919
 20
37.607701509988125
 30
0.0
 11
-27.46999065136785
 21
36.64750487569055
 31
0.0
  0
LINE
  5
28E
330
17
100
AcDbEntity
  8
ENGRAVE_LOG
100
AcDbLine
 10
-28.1897283976919
 20
37.607701509988125
 30
0.0
 11
-28.90946614401595
 21
38.5678981442857
 31
0.0
  0
LINE
  5
28F
330
17
100
AcDbEntity
  8
ENGRAVE_LOG
100
AcDbLine
 10
-27.538122518443508
 20
38.08742322813654
 30
0.0
 11
-27.186572018208057
 21
37.60120080394756
 31
0.0
  0
LINE
  5
290
330
17
100
AcDbEntity
  8
ENGRAVE_LOG
100
AcDbLine
 10
-27.538122518443508
 20
38.08742322813654
 30
0.0
 11
-27.88967301867896
 21
38.57364565232552
 31
0.0
  0
LINE
  5
291
330
17
100
AcDbEntity
  8
ENGRAVE_LOG
100
AcDbLine
 10
-26.882516169729175
 20
38.552954807436606
 30
0.0
 11
-25.509791939785558
 21
36.58429328535474
 31
0.0
  0
LINE
  5
292
330
17
100
AcDbEntity
  8
ENGRAVE_LOG
100
AcDbLine
 10
-26.882516169729175
 20
38.552954807436606
 30
0.0
 11
-28.25524039967279
 21
40.52161632951847
 31
0.0
  0
TEXT
  5
293
330
17
100
AcDbEntity
  8
ENGRAVE_TEXT
100
AcDbText
 10
-24.480248767327843
 20
35.107797143793334
 30
0.0
 40
3.0
  1
8
 50
-235.1123953170997
 72
1
 11
-24.480248767327843
 21
35.107797143793334
 31
0.0
100
AcDbText
 73
2
  0
TEXT
  5
294
330
17
100
AcDbEntity
  8
ENGRAVE_TEXT
100
AcDbText
 10
-29.284783572130507
 20
41.99811247107988
 30
0.0
 40
3.0
  1
8
 50
-235.1123953170997
 72
1
 11
-29.284783572130507
 21
41.99811247107988
 31
0.0
100
AcDbText
 73
2
  0
LINE
  5
295
330
17
100
AcDbEntity
  8
ENGRAVE_LOG
100
AcDbLine
 10
-26.223199518214823
 20
39.004407533353174
 30
0.0
 11
-25.888435269046123
 21
38.50647892654441
 31
0.0
  0
LINE
  5
296
330
17
100
AcDbEntity
  8
ENGRAVE_LOG
100
AcDbLine
 10
-26.223199518214823
 20
39.004407533353174
 30
0.0
 11
-26.557963767383523
 21
39.502336140161944
 31
0.0
  0
LINE
  5
297
330
17
100
AcDbEntity
  8
ENGRAVE_LOG
100
AcDbLine
 10
-25.560455436384608
 20
39.441895465159845
 30
0.0
 11
-24.907848063540744
 21
38.434868346900444
 31
0.0
  0
LINE
  5
298
330
17
100
AcDbEntity
  8
ENGRAVE_LOG
100
AcDbLine
 10
-25.560455436384608
 20
39.441895465159845
 30
0.0
 11
-26.21306280922847
 21
40.44892258341925
 31
0.0
  0
LINE
  5
299
330
17
100
AcDbEntity
  8
ENGRAVE_LOG
100
AcDbLine
 10
-24.89455963711553
 20
39.86553524630139
 30
0.0
 11
-24.576756748131075
 21
39.35661351975286
 31
0.0
  0
LINE
  5
29A
330
17
100
AcDbEntity
  8
ENGRAVE_LOG
100
AcDbLine
 10
-24.89455963711553
 20
39.86553524630139
 30
0.0
 11
-25.212362526099984
 21
40.37445697284992
 31
0.0
  0
LINE
  5
29B
330
17
100
AcDbEntity
  8
ENGRAVE_LOG
100
AcDbLine
 10
-24.2257808072343
 20
40.27544592279318
 30
0.0
 11
-23.607250233432573
 21
39.247136665189956
 31
0.0
  0
LINE
  5
29C
330
17
100
AcDbEntity
  8
ENGRAVE_LOG
100
AcDbLine
 10
-24.2257808072343
 20
40.27544592279318
 30
0.0
 11
-24.84431138103603
 21
41.303755180396415
 31
0.0
  0
LINE
  5
29D
330
17
100
AcDbEntity
  8
ENGRAVE_LOG
100
AcDbLine
 10
-23.554380739962177
 20
40.67174876934724
 30
0.0
 11
-23.253686517749895
 21
40.15253495527046
 31
0.0
  0
LINE
  5
29E
330
17
100
AcDbEntity
  8
ENGRAVE_LOG
100
AcDbLine
 10
-23.554380739962177
 20
40.67174876934724
 30
0.0
 11
-23.855074962174463
 21
41.19096258342401
 31
0.0
  0
LINE
  5
29F
330
17
100
AcDbEntity
  8
ENGRAVE_LOG
100
AcDbLine
 10
-22.880614466164293
 20
41.05456712292499
 30
0.0
 11
-22.296428564900523
 21
40.00636540914818
 31
0.0
  0
LINE
  5
2A0
330
17
100
AcDbEntity
  8
ENGRAVE_LOG
100
AcDbLine
 10
-22.880614466164293
 20
41.05456712292499
 30
0.0
 11
-23.464800367428065
 21
42.1027688367018
 31
0.0
  0
LINE
  5
2A1
330
17
100
AcDbEntity
  8
ENGRAVE_LOG
100
AcDbLine
 10
-22.204730384326123
 20
41.424026223429614
 30
0.0
 11
-21.921265741121957
 21
40.895208867385826
 31
0.0
  0
LINE
  5
2A2
330
17
100
AcDbEntity
  8
ENGRAVE_LOG
100
AcDbLine
 10
-22.204730384326123
 20
41.424026223429614
 30
0.0
 11
-22.488195027530285
 21
41.952843579473395
 31
0.0
  0
LINE
  5
2A3
330
17
100
AcDbEntity
  8
ENGRAVE_LOG
100
AcDbLine
 10
-21.526970389189348
 20
41.780253061260474
 30
0.0
 11
-20.977345613295153
 21
40.713523195866586
 31
0.0
  0
LINE
  5
2A4
330
17
100
AcDbEntity
  8
ENGRAVE_LOG
100
AcDbLine
 10
-21.526970389189348
 20
41.780253061260474
 30
0.0
 11
-22.076595165083546
 21
42.846982926654356
 31
0.0
  0
LINE
  5
2A5
330
17
100
AcDbEntity
  8
ENGRAVE_LOG
100
AcDbLine
 10
-20.847569998985755
 20
42.123376231463084
 30
0.0
 11
-20.58143080750934
 21
41.58563100297632
 31
0.0
  0
LINE
  5
2A6
330
17
100
AcDbEntity
  8
ENGRAVE_LOG
100
AcDbLine
 10
-20.847569998985755
 20
42.123376231463084
 30
0.0
 11
-21.113709190462167
 21
42.661121459949854
 31
0.0
  0
LINE
  5
2A7
330
17
100
AcDbEntity
  8
ENGRAVE_LOG
100
AcDbLine
 10
-20.166758481214153
 20
42.453525794218514
 30
0.0
 11
-19.39441453938042
 21
40.82764608295057
 31
0.0
  0
LINE
  5
2A8
330
17
100
AcDbEntity
  8
ENGRAVE_LOG
100
AcDbLine
 10
-20.166758481214153
 20
42.453525794218514
 30
0.0
 11
-20.939102423047885
 21
44.079405505486456
 31
0.0
  0
LINE
  5
2A9
330
17
100
AcDbEntity
  8
ENGRAVE_LOG
100
AcDbLine
 10
-19.48475897691307
 20
42.77083314142484
 30
0.0
 11
-19.236017372952478
 21
42.22482250557686
 31
0.0
  0
LINE
  5
2AA
330
17
100
AcDbEntity
  8
ENGRAVE_LOG
100
AcDbLine
 10
-19.48475897691307
 20
42.77083314142484
 30
0.0
 11
-19.733500580873663
 21
43.316843777272815
 31
0.0
  0
LINE
  5
2AB
330
17
100
AcDbEntity
  8
ENGRAVE_LOG
100
AcDbLine
 10
-18.801788623386113
 20
43.07543086913361
 30
0.0
 11
-18.32174295640604
 21
41.975632634177
 31
0.0
  0
LINE
  5
2AC
330
17
100
AcDbEntity
  8
ENGRAVE_LOG
100
AcDbLine
 10
-18.801788623386113
 20
43.07543086913361
 30
0.0
 11
-19.281834290366184
 21
44.175229104090214
 31
0.0
  0
LINE
  5
2AD
330
17
100
AcDbEntity
  8
ENGRAVE_LOG
100
AcDbLine
 10
-18.11805867534303
 20
43.36745265561291
 30
0.0
 11
-17.88676430927482
 21
42.813825600434875
 31
0.0
  0
LINE
  5
2AE
330
17
100
AcDbEntity
  8
ENGRAVE_LOG
100
AcDbLine
 10
-18.11805867534303
 20
43.36745265561291
 30
0.0
 11
-18.349353041411238
 21
43.92107971079095
 31
0.0
  0
LINE
  5
2AF
330
17
100
AcDbEntity
  8
ENGRAVE_LOG
100
AcDbLine
 10
-17.433774624424895
 20
43.64703314481706
 30
0.0
 11
-16.98865697443958
 21
42.5326408092047
 31
0.0
  0
LINE
  5
2B0
330
17
100
AcDbEntity
  8
ENGRAVE_LOG
100
AcDbLine
 10
-17.433774624424895
 20
43.64703314481706
 30
0.0
 11
-17.878892274410212
 21
44.76142548042941
 31
0.0
  0
LINE
  5
2B1
330
17
100
AcDbEntity
  8
ENGRAVE_LOG
100
AcDbLine
 10
-16.749136317085767
 20
43.91430783505165
 30
0.0
 11
-16.535317555591053
 21
43.35369964992333
 31
0.0
  0
LINE
  5
2B2
330
17
100
AcDbEntity
  8
ENGRAVE_LOG
100
AcDbLine
 10
-16.749136317085767
 20
43.91430783505165
 30
0.0
 11
-16.962955078580478
 21
44.47491602017997
 31
0.0
  0
LINE
  5
2B3
330
17
100
AcDbEntity
  8
ENGRAVE_LOG
100
AcDbLine
 10
-16.064338070808006
 20
44.1694129726306
 30
0.0
 11
-15.654184758361842
 21
43.04168327971237
 31
0.0
  0
LINE
  5
2B4
330
17
100
AcDbEntity
  8
ENGRAVE_LOG
100
AcDbLine
 10
-16.064338070808006
 20
44.1694129726306
 30
0.0
 11
-16.47449138325417
 21
45.29714266554883
 31
0.0
  0
LINE
  5
2B5
330
17
100
AcDbEntity
  8
ENGRAVE_LOG
100
AcDbLine
 10
-15.379568788632197
 20
44.41248545032951
 30
0.0
 11
-15.183233867926253
 21
43.8455175509636
 31
0.0
  0
LINE
  5
2B6
330
17
100
AcDbEntity
  8
ENGRAVE_LOG
100
AcDbLine
 10
-15.379568788632197
 20
44.41248545032951
 30
0.0
 11
-15.57590370933814
 21
44.97945334969542
 31
0.0
  0
LINE
  5
2B7
330
17
100
AcDbEntity
  8
ENGRAVE_LOG
100
AcDbLine
 10
-14.695012071985772
 20
44.64366271044741
 30
0.0
 11
-14.319820274403156
 21
43.503824513584924
 31
0.0
  0
LINE
  5
2B8
330
17
100
AcDbEntity
  8
ENGRAVE_LOG
100
AcDbLine
 10
-14.695012071985772
 20
44.64366271044741
 30
0.0
 11
-15.070203869568388
 21
45.7835009073099
 31
0.0
  0
LINE
  5
2B9
330
17
100
AcDbEntity
  8
ENGRAVE_LOG
100
AcDbLine
 10
-14.010846331800115
 20
44.86308265229534
 30
0.0
 11
-13.831984463734582
 21
44.29036244822348
 31
0.0
  0
LINE
  5
2BA
330
17
100
AcDbEntity
  8
ENGRAVE_LOG
100
AcDbLine
 10
-14.010846331800115
 20
44.86308265229534
 30
0.0
 11
-14.189708199865649
 21
45.4358028563672
 31
0.0
  0
LINE
  5
2BB
330
17
100
AcDbEntity
  8
ENGRAVE_LOG
100
AcDbLine
 10
-13.327244897905336
 20
45.070883543938386
 30
0.0
 11
-12.646704732905915
 21
42.76939161829047
 31
0.0
  0
LINE
  5
2BC
330
17
100
AcDbEntity
  8
ENGRAVE_LOG
100
AcDbLine
 10
-13.327244897905336
 20
45.070883543938386
 30
0.0
 11
-14.007785062904757
 21
47.3723754695863
 31
0.0
  0
TEXT
  5
2BD
330
17
100
AcDbEntity
  8
ENGRAVE_TEXT
100
AcDbText
 10
-12.136299609156348
 20
41.04327267405453
 30
0.0
 40
3.0
  1
9
 50
-253.52730339815696
 72
1
 11
-12.136299609156348
 21
41.04327267405453
 31
0.0
100
AcDbText
 73
2
  0
TEXT
  5
2BE
330
17
100
AcDbEntity
  8
ENGRAVE_TEXT
100
AcDbText
 10
-14.518190186654323
 20
49.098494413822245
 30
0.0
 40
3.0
  1
9
 50
-253.52730339815696
 72
1
 11
-14.518190186654323
 21
49.098494413822245
 31
0.0
100
AcDbText
 73
2
  0
LINE
  5
2BF
330
17
100
AcDbEntity
  8
ENGRAVE_LOG
100
AcDbLine
 10
-12.64437612669808
 20
45.26720393802325
 30
0.0
 11
-12.482958559123212
 21
44.68932473881444
 31
0.0
  0
LINE
  5
2C0
330
17
100
AcDbEntity
  8
ENGRAVE_LOG
100
AcDbLine
 10
-12.64437612669808
 20
45.26720393802325
 30
0.0
 11
-12.805793694272952
 21
45.84508313723206
 31
0.0
  0
LINE
  5
2C1
330
17
100
AcDbEntity
  8
ENGRAVE_LOG
100
AcDbLine
 10
-11.962403507079554
 20
45.45218259153031
 30
0.0
 11
-11.65698043881369
 21
44.291701333874215
 31
0.0
  0
LINE
  5
2C2
330
17
100
AcDbEntity
  8
ENGRAVE_LOG
100
AcDbLine
 10
-11.962403507079554
 20
45.45218259153031
 30
0.0
 11
-12.267826575345415
 21
46.612663849186404
 31
0.0
  0
LINE
  5
2C3
330
17
100
AcDbEntity
  8
ENGRAVE_LOG
100
AcDbLine
 10
-11.281485764661904
 20
45.62595838929557
 30
0.0
 11
-11.137466797453452
 21
45.043499346027964
 31
0.0
  0
LINE
  5
2C4
330
17
100
AcDbEntity
  8
ENGRAVE_LOG
100
AcDbLine
 10
-11.281485764661904
 20
45.62595838929557
 30
0.0
 11
-11.425504731870353
 21
46.208417432563174
 31
0.0
  0
LINE
  5
2C5
330
17
100
AcDbEntity
  8
ENGRAVE_LOG
100
AcDbLine
 10
-10.60177696424606
 20
45.78867027115312
 30
0.0
 11
-10.33109329707382
 21
44.61959783869815
 31
0.0
  0
LINE
  5
2C6
330
17
100
AcDbEntity
  8
ENGRAVE_LOG
100
AcDbLine
 10
-10.60177696424606
 20
45.78867027115312
 30
0.0
 11
-10.872460631418301
 21
46.9577427036081
 31
0.0
  0
LINE
  5
2C7
330
17
100
AcDbEntity
  8
ENGRAVE_LOG
100
AcDbLine
 10
-9.923426610573618
 20
45.94045716255509
 30
0.0
 11
-9.796744568736507
 21
45.35398324133099
 31
0.0
  0
LINE
  5
2C8
330
17
100
AcDbEntity
  8
ENGRAVE_LOG
100
AcDbLine
 10
-9.923426610573618
 20
45.94045716255509
 30
0.0
 11
-10.050108652410728
 21
46.5269310837792
 31
0.0
  0
LINE
  5
2C9
330
17
100
AcDbEntity
  8
ENGRAVE_LOG
100
AcDbLine
 10
-9.246579747359027
 20
46.08145790853117
 30
0.0
 11
-9.010496860192411
 21
44.90491004703675
 31
0.0
  0
LINE
  5
2CA
330
17
100
AcDbEntity
  8
ENGRAVE_LOG
100
AcDbLine
 10
-9.246579747359027
 20
46.08145790853117
 30
0.0
 11
-9.48266263452564
 21
47.258005770025584
 31
0.0
  0
LINE
  5
2CB
330
17
100
AcDbEntity
  8
ENGRAVE_LOG
100
AcDbLine
 10
-8.57137705460956
 20
46.211811210855096
 30
0.0
 11
-8.461955219869862
 21
45.62187319539737
 31
0.0
  0
LINE
  5
2CC
330
17
100
AcDbEntity
  8
ENGRAVE_LOG
100
AcDbLine
 10
-8.57137705460956
 20
46.211811210855096
 30
0.0
 11
-8.680798889349255
 21
46.80174922631282
 31
0.0
  0
LINE
  5
2CD
330
17
100
AcDbEntity
  8
ENGRAVE_LOG
100
AcDbLine
 10
-7.89795494424141
 20
46.331655568290806
 30
0.0
 11
-7.696305030771416
 21
45.14871968144083
 31
0.0
  0
LINE
  5
2CE
330
17
100
AcDbEntity
  8
ENGRAVE_LOG
100
AcDbLine
 10
-7.89795494424141
 20
46.331655568290806
 30
0.0
 11
-8.099604857711403
 21
47.51459145514079
 31
0.0
  0
LINE
  5
2CF
330
17
100
AcDbEntity
  8
ENGRAVE_LOG
100
AcDbLine
 10
-7.226445654004021
 20
46.441129219795314
 30
0.0
 11
-7.134193156293331
 21
45.84826374039367
 31
0.0
  0
LINE
  5
2D0
330
17
100
AcDbEntity
  8
ENGRAVE_LOG
100
AcDbLine
 10
-7.226445654004021
 20
46.441129219795314
 30
0.0
 11
-7.3186981517147105
 21
47.03399469919696
 31
0.0
  0
LINE
  5
2D1
330
17
100
AcDbEntity
  8
ENGRAVE_LOG
100
AcDbLine
 10
-6.556977339722229
 20
46.540370090560835
 30
0.0
 11
-6.305859058626484
 21
44.75797293815638
 31
0.0
  0
LINE
  5
2D2
330
17
100
AcDbEntity
  8
ENGRAVE_LOG
100
AcDbLine
 10
-6.556977339722229
 20
46.540370090560835
 30
0.0
 11
-6.808095620817973
 21
48.32276724296529
 31
0.0
  0
LINE
  5
2D3
330
17
100
AcDbEntity
  8
ENGRAVE_LOG
100
AcDbLine
 10
-5.889674165871764
 20
46.62951574078229
 30
0.0
 11
-5.8144868360946775
 21
46.03424532707017
 31
0.0
  0
LINE
  5
2D4
330
17
100
AcDbEntity
  8
ENGRAVE_LOG
100
AcDbLine
 10
-5.889674165871764
 20
46.62951574078229
 30
0.0
 11
-5.964861495648851
 21
47.2247861544944
 31
0.0
  0
LINE
  5
2D5
330
17
100
AcDbEntity
  8
ENGRAVE_LOG
100
AcDbLine
 10
-5.224656394500285
 20
46.70870331704154
 30
0.0
 11
-5.091260912087511
 21
45.516140679159626
 31
0.0
  0
LINE
  5
2D6
330
17
100
AcDbEntity
  8
ENGRAVE_LOG
100
AcDbLine
 10
-5.224656394500285
 20
46.70870331704154
 30
0.0
 11
-5.358051876913059
 21
47.90126595492345
 31
0.0
  0
LINE
  5
2D7
330
17
100
AcDbEntity
  8
ENGRAVE_LOG
100
AcDbLine
 10
-4.562040472510205
 20
46.77806950620321
 30
0.0
 11
-4.5038016579675215
 21
46.18090266144317
 31
0.0
  0
LINE
  5
2D8
330
17
100
AcDbEntity
  8
ENGRAVE_LOG
100
AcDbLine
 10
-4.562040472510205
 20
46.77806950620321
 30
0.0
 11
-4.620279287052889
 21
47.375236350963256
 31
0.0
  0
LINE
  5
2D9
330
17
100
AcDbEntity
  8
ENGRAVE_LOG
100
AcDbLine
 10
-3.9019391173196083
 20
46.837750491721216
 30
0.0
 11
-3.8023151398561286
 21
45.64189303235812
 31
0.0
  0
LINE
  5
2DA
330
17
100
AcDbEntity
  8
ENGRAVE_LOG
100
AcDbLine
 10
-3.9019391173196083
 20
46.837750491721216
 30
0.0
 11
-4.001563094783088
 21
48.03360795108431
 31
0.0
  0
LINE
  5
2DB
330
17
100
AcDbEntity
  8
ENGRAVE_LOG
100
AcDbLine
 10
-3.244461400917033
 20
46.887881912259154
 30
0.0
 11
-3.2030427447351135
 21
46.28931320699627
 31
0.0
  0
LINE
  5
2DC
330
17
100
AcDbEntity
  8
ENGRAVE_LOG
100
AcDbLine
 10
-3.244461400917033
 20
46.887881912259154
 30
0.0
 11
-3.285880057098953
 21
47.48645061752204
 31
0.0
  0
LINE
  5
2DD
330
17
100
AcDbEntity
  8
ENGRAVE_LOG
100
AcDbLine
 10
-2.5897128323290164
 20
46.928598822531136
 30
0.0
 11
-2.523592504695084
 21
45.73042183131757
 31
0.0
  0
LINE
  5
2DE
330
17
100
AcDbEntity
  8
ENGRAVE_LOG
100
AcDbLine
 10
-2.5897128323290164
 20
46.928598822531136
 30
0.0
 11
-2.6558331599629486
 21
48.1267758137447
 31
0.0
  0
LINE
  5
2DF
330
17
100
AcDbEntity
  8
ENGRAVE_LOG
100
AcDbLine
 10
-1.9377954385181457
 20
46.960035656273284
 30
0.0
 11
-1.9130576244094033
 21
46.36054583938469
 31
0.0
  0
LINE
  5
2E0
330
17
100
AcDbEntity
  8
ENGRAVE_LOG
100
AcDbLine
 10
-1.9377954385181457
 20
46.960035656273284
 30
0.0
 11
-1.9625332526268882
 21
47.559525473161884
 31
0.0
  0
LINE
  5
2E1
330
17
100
AcDbEntity
  8
ENGRAVE_LOG
100
AcDbLine
 10
-1.288807843729585
 20
46.982326191259844
 30
0.0
 11
-1.255902111549255
 21
45.782777437440444
 31
0.0
  0
LINE
  5
2E2
330
17
100
AcDbEntity
  8
ENGRAVE_LOG
100
AcDbLine
 10
-1.288807843729585
 20
46.982326191259844
 30
0.0
 11
-1.3217135759099148
 21
48.18187494507925
 31
0.0
  0
LINE
  5
2E3
330
17
100
AcDbEntity
  8
ENGRAVE_LOG
100
AcDbLine
 10
-0.6428453473077778
 20
46.99560351628059
 30
0.0
 11
-0.6346388109591677
 21
46.39565964160467
 31
0.0
  0
LINE
  5
2E4
330
17
100
AcDbEntity
  8
ENGRAVE_LOG
100
AcDbLine
 10
-0.6428453473077778
 20
46.99560351628059
 30
0.0
 11
-0.6510518836563877
 21
47.59554739095652
 31
0.0
  0
LINE
  5
2E5
330
17
100
AcDbEntity
  8
ENGRAVE_LOG
100
AcDbLine
 10
-8.633759933988839e-15
 20
47.0
 30
0.0
 11
-8.192887086295793e-15
 21
44.6
 31
0.0
  0
LINE
  5
2E6
330
17
100
AcDbEntity
  8
ENGRAVE_LOG
100
AcDbLine
 10
-8.633759933988839e-15
 20
47.0
 30
0.0
 11
-9.074632781681886e-15
 21
49.4
 31
0.0
  0
TEXT
  5
2E7
330
17
100
AcDbEntity
  8
ENGRAVE_TEXT
100
AcDbText
 10
-7.862232450526007e-15
 20
42.8
 30
0.0
 40
3.0
  1
1
 50
-270.0
 72
1
 11
-7.862232450526007e-15
 21
42.8
 31
0.0
100
AcDbText
 73
2
  0
TEXT
  5
2E8
330
17
100
AcDbEntity
  8
ENGRAVE_TEXT
100
AcDbText
 10
-9.405287417451672e-15
 20
51.2
 30
0.0
 40
3.0
  1
1
 50
-270.0
 72
1
 11
-9.405287417451672e-15
 21
51.2
 31
0.0
100
AcDbText
 73
2
  0
ENDSEC
  0
SECTION
  2
OBJECTS
  0
DICTIONARY
  5
A
330
0
100
AcDbDictionary
281
1
  3
ACAD_COLOR
350
B
  3
ACAD_GROUP
350
C
  3
ACAD_LAYOUT
350
D
  3
ACAD_MATERIAL
350
E
  3
ACAD_MLEADERSTYLE
350
F
  3
ACAD_MLINESTYLE
350
10
  3
ACAD_PLOTSETTINGS
350
11
  3
ACAD_PLOTSTYLENAME
350
12
  3
ACAD_SCALELIST
350
14
  3
ACAD_TABLESTYLE
350
15
  3
ACAD_VISUALSTYLE
350
16
  3
EZDXF_META
350
2D
  0
DICTIONARY
  5
B
330
A
100
AcDbDictionary
281
1
  0
DICTIONARY
  5
C
330
A
100
AcDbDictionary
281
1
  0
DICTIONARY
  5
D
330
A
100
AcDbDictionary
281
1
  3
Model
350
1A
  3
Layout1
350
1E
  0
DICTIONARY
  5
E
330
A
100
AcDbDictionary
281
1
  3
ByBlock
350
1F
  3
ByLayer
350
20
  3
Global
350
21
  0
DICTIONARY
  5
F
330
A
100
AcDbDictionary
281
1
  3
Standard
350
2C
  0
DICTIONARY
  5
10
330
A
100
AcDbDictionary
281
1
  3
Standard
350
22
  0
DICTIONARY
  5
11
330
A
100
AcDbDictionary
281
1
  0
ACDBDICTIONARYWDFLT
  5
12
330
A
100
AcDbDictionary
281
1
  3
Normal
350
13
100
AcDbDictionaryWithDefault
340
13
  0
ACDBPLACEHOLDER
  5
13
330
12
  0
DICTIONARY
  5
14
330
A
100
AcDbDictionary
281
1
  0
DICTIONARY
  5
15
330
A
100
AcDbDictionary
281
1
  0
DICTIONARY
  5
16
330
A
100
AcDbDictionary
281
1
  0
LAYOUT
  5
1A
330
D
100
AcDbPlotSettings
  1

  4
A3
  6

 40
7.5
 41
20.0
 42
7.5
 43
20.0
 44
420.0
 45
297.0
 46
0.0
 47
0.0
 48
0.0
 49
0.0
140
0.0
141
0.0
142
1.0
143
1.0
 70
1024
 72
1
 73
0
 74
5
  7

 75
16
 76
0
 77
2
 78
300
147
1.0
148
0.0
149
0.0
100
AcDbLayout
  1
Model
 70
1
 71
0
 10
0.0
 20
0.0
 11
420.0
 21
297.0
 12
0.0
 22
0.0
 32
0.0
 14
1e+20
 24
1e+20
 34
1e+20
 15
-1e+20
 25
-1e+20
 35
-1e+20
146
0.0
 13
0.0
 23
0.0
 33
0.0
 16
1.0
 26
0.0
 36
0.0
 17
0.0
 27
1.0
 37
0.0
 76
1
330
17
  0
LAYOUT
  5
1E
330
D
100
AcDbPlotSettings
  1

  4
A3
  6

 40
7.5
 41
20.0
 42
7.5
 43
20.0
 44
420.0
 45
297.0
 46
0.0
 47
0.0
 48
0.0
 49
0.0
140
0.0
141
0.0
142
1.0
143
1.0
 70
0
 72
1
 73
0
 74
5
  7

 75
16
 76
0
 77
2
 78
300
147
1.0
148
0.0
149
0.0
100
AcDbLayout
  1
Layout1
 70
1
 71
1
 10
0.0
 20
0.0
 11
420.0
 21
297.0
 12
0.0
 22
0.0
 32
0.0
 14
1e+20
 24
1e+20
 34
1e+20
 15
-1e+20
 25
-1e+20
 35
-1e+20
146
0.0
 13
0.0
 23
0.0
 33
0.0
 16
1.0
 26
0.0
 36
0.0
 17
0.0
 27
1.0
 37
0.0
 76
1
330
1B
  0
MATERIAL
  5
1F
102
{ACAD_REACTORS
330
E
102
}
330
E
100
AcDbMaterial
  1
ByBlock
  2

 70
0
 40
1.0
 71
1
 41
1.0
 91
-1023410177
 42
1.0
 72
1
  3

 73
1
 74
1
 75
1
 44
0.5
 73
0
 45
1.0
 46
1.0
 77
1
  4

 78
1
 79
1
170
1
 48
1.0
171
1
  6

172
1
173
1
174
1
140
1.0
141
1.0
175
1
  7

176
1
177
1
178
1
143
1.0
179
1
  8

270
1
271
1
272
1
145
1.0
146
1.0
273
1
  9

274
1
275
1
276
1
 42
1.0
 72
1
  3

 73
1
 74
1
 75
1
 94
63
  0
MATERIAL
  5
20
102
{ACAD_REACTORS
330
E
102
}
330
E
100
AcDbMaterial
  1
ByLayer
  2

 70
0
 40
1.0
 71
1
 41
1.0
 91
-1023410177
 42
1.0
 72
1
  3

 73
1
 74
1
 75
1
 44
0.5
 73
0
 45
1.0
 46
1.0
 77
1
  4

 78
1
 79
1
170
1
 48
1.0
171
1
  6

172
1
173
1
174
1
140
1.0
141
1.0
175
1
  7

176
1
177
1
178
1
143
1.0
179
1
  8

270
1
271
1
272
1
145
1.0
146
1.0
273
1
  9

274
1
275
1
276
1
 42
1.0
 72
1
  3

 73
1
 74
1
 75
1
 94
63
  0
MATERIAL
  5
21
102
{ACAD_REACTORS
330
E
102
}
330
E
100
AcDbMaterial
  1
Global
  2

 70
0
 40
1.0
 71
1
 41
1.0
 91
-1023410177
 42
1.0
 72
1
  3

 73
1
 74
1
 75
1
 44
0.5
 73
0
 45
1.0
 46
1.0
 77
1
  4

 78
1
 79
1
170
1
 48
1.0
171
1
  6

172
1
173
1
174
1
140
1.0
141
1.0
175
1
  7

176
1
177
1
178
1
143
1.0
179
1
  8

270
1
271
1
272
1
145
1.0
146
1.0
273
1
  9

274
1
275
1
276
1
 42
1.0
 72
1
  3

 73
1
 74
1
 75
1
 94
63
  0
MLINESTYLE
  5
22
102
{ACAD_REACTORS
330
10
102
}
330
10
100
AcDbMlineStyle
  2
Standard
 70
0
  3

 62
256
 51
90.0
 52
90.0
 71
2
 49
0.5
 62
256
  6
BYLAYER
 49
-0.5
 62
256
  6
BYLAYER
  0
MLEADERSTYLE
  5
2C
102
{ACAD_REACTORS
330
F
102
}
330
F
100
AcDbMLeaderStyle
179
2
170
2
171
1
172
0
 90
2
 40
0.0
 41
0.0
173
1
 91
-1056964608
 92
-2
290
1
 42
2.0
291
1
 43
8.0
  3
Standard
 44
4.0
300

342
29
174
1
175
1
176
0
178
1
 93
-1056964608
 45
4.0
292
0
297
0
 46
4.0
 94
-1056964608
 47
1.0
 49
1.0
140
1.0
294
1
141
0.0
177
0
142
1.0
295
0
296
0
143
3.75
271
0
272
9
273
9
  0
DICTIONARY
  5
2D
330
A
100
AcDbDictionary
280
1
281
1
  3
CREATED_BY_EZDXF
350
2E
  3
WRITTEN_BY_EZDXF
350
2EB
  0
DICTIONARYVAR
  5
2E
330
2D
100
DictionaryVariables
280
0
  1
1.4.4 @ 2026-08-30T09:08:09.325492+00:00
  0
DICTIONARYVAR
  5
2EB
330
2D
100
DictionaryVariables
280
0
  1
1.4.4 @ 2026-08-30T09:08:09.331847+00:00
  0
ENDSEC
  0
EOF
