  0
SECTION
  2
HEADER
  9
$ACADVER
  1
AC1024
  9
$ACADMAINTVER
 70
6
  9
$DWGCODEPAGE
  3
ANSI_1252
  9
$LASTSAVEDBY
  1
ezdxf
  9
$INSBASE
 10
0.0
 20
0.0
 30
0.0
  9
$EXTMIN
 10
1e+20
 20
1e+20
 30
1e+20
  9
$EXTMAX
 10
-1e+20
 20
-1e+20
 30
-1e+20
  9
$LIMMIN
 10
0.0
 20
0.0
  9
$LIMMAX
 10
420.0
 20
297.0
  9
$ORTHOMODE
 70
0
  9
$REGENMODE
 70
1
  9
$FILLMODE
 70
1
  9
$QTEXTMODE
 70
0
  9
$MIRRTEXT
 70
1
  9
$LTSCALE
 40
1.0
  9
$ATTMODE
 70
1
  9
$TEXTSIZE
 40
2.5
  9
$TRACEWID
 40
1.0
  9
$TEXTSTYLE
  7
Standard
  9
$CLAYER
  8
0
  9
$CELTYPE
  6
ByLayer
  9
$CECOLOR
 62
256
  9
$CELTSCALE
 40
1.0
  9
$DISPSILH
 70
0
  9
$DIMSCALE
 40
1.0
  9
$DIMASZ
 40
2.5
  9
$DIMEXO
 40
0.625
  9
$DIMDLI
 40
3.75
  9
$DIMRND
 40
0.0
  9
$DIMDLE
 40
0.0
  9
$DIMEXE
 40
1.25
  9
$DIMTP
 40
0.0
  9
$DIMTM
 40
0.0
  9
$DIMTXT
 40
2.5
  9
$DIMCEN
 40
2.5
  9
$DIMTSZ
 40
0.0
  9
$DIMTOL
 70
0
  9
$DIMLIM
 70
0
  9
$DIMTIH
 70
0
  9
$DIMTOH
 70
0
  9
$DIMSE1
 70
0
  9
$DIMSE2
 70
0
  9
$DIMTAD
 70
1
  9
$DIMZIN
 70
8
  9
$DIMBLK
  1

  9
$DIMASO
 70
1
  9
$DIMSHO
 70
1
  9
$DIMPOST
  1

  9
$DIMAPOST
  1

  9
$DIMALT
 70
0
  9
$DIMALTD
 70
3
  9
$DIMALTF
 40
0.03937007874
  9
$DIMLFAC
 40
1.0
  9
$DIMTOFL
 70
1
  9
$DIMTVP
 40
0.0
  9
$DIMTIX
 70
0
  9
$DIMSOXD
 70
0
  9
$DIMSAH
 70
0
  9
$DIMBLK1
  1

  9
$DIMBLK2
  1

  9
$DIMSTYLE
  2
ISO-25
  9
$DIMCLRD
 70
0
  9
$DIMCLRE
 70
0
  9
$DIMCLRT
 70
0
  9
$DIMTFAC
 40
1.0
  9
$DIMGAP
 40
0.625
  9
$DIMJUST
 70
0
  9
$DIMSD1
 70
0
  9
$DIMSD2
 70
0
  9
$DIMTOLJ
 70
0
  9
$DIMTZIN
 70
8
  9
$DIMALTZ
 70
0
  9
$DIMALTTZ
 70
0
  9
$DIMUPT
 70
0
  9
$DIMDEC
 70
2
  9
$DIMTDEC
 70
2
  9
$DIMALTU
 70
2
  9
$DIMALTTD
 70
3
  9
$DIMTXSTY
  7
Standard
  9
$DIMAUNIT
 70
0
  9
$DIMADEC
 70
0
  9
$DIMALTRND
 40
0.0
  9
$DIMAZIN
 70
0
  9
$DIMDSEP
 70
44
  9
$DIMATFIT
 70
3
  9
$DIMFRAC
 70
0
  9
$DIMLDRBLK
  1

  9
$DIMLUNIT
 70
2
  9
$DIMLWD
 70
-2
  9
$DIMLWE
 70
-2
  9
$DIMTMOVE
 70
0
  9
$DIMFXL
 40
1.0
  9
$DIMFXLON
 70
0
  9
$DIMJOGANG
 40
0.785398163397
  9
$DIMTFILL
 70
0
  9
$DIMTFILLCLR
 70
0
  9
$DIMARCSYM
 70
0
  9
$DIMLTYPE
  6

  9
$DIMLTEX1
  6

  9
$DIMLTEX2
  6

  9
$DIMTXTDIRECTION
 70
0
  9
$LUNITS
 70
2
  9
$LUPREC
 70
4
  9
$SKETCHINC
 40
1.0
  9
$FILLETRAD
 40
10.0
  9
$AUNITS
 70
0
  9
$AUPREC
 70
2
  9
$MENU
  1
.
  9
$ELEVATION
 40
0.0
  9
$PELEVATION
 40
0.0
  9
$THICKNESS
 40
0.0
  9
$LIMCHECK
 70
0
  9
$CHAMFERA
 40
0.0
  9
$CHAMFERB
 40
0.0
  9
$CHAMFERC
 40
0.0
  9
$CHAMFERD
 40
0.0
  9
$SKPOLY
 70
0
  9
$TDCREATE
 40
2461283.4639930557
  9
$TDUCREATE
 40
2458532.153996898
  9
$TDUPDATE
 40
2461283.4639930557
  9
$TDUUPDATE
 40
2458532.1544311
  9
$TDINDWG
 40
0.0
  9
$TDUSRTIMER
 40
0.0
  9
$USRTIMER
 70
1
  9
$ANGBASE
 50
0.0
  9
$ANGDIR
 70
0
  9
$PDMODE
 70
0
  9
$PDSIZE
 40
0.0
  9
$PLINEWID
 40
0.0
  9
$SPLFRAME
 70
0
  9
$SPLINETYPE
 70
6
  9
$SPLINESEGS
 70
8
  9
$HANDSEED
  5
215
  9
$SURFTAB1
 70
6
  9
$SURFTAB2
 70
6
  9
$SURFTYPE
 70
6
  9
$SURFU
 70
6
  9
$SURFV
 70
6
  9
$UCSBASE
  2

  9
$UCSNAME
  2

  9
$UCSORG
 10
0.0
 20
0.0
 30
0.0
  9
$UCSXDIR
 10
1.0
 20
0.0
 30
0.0
  9
$UCSYDIR
 10
0.0
 20
1.0
 30
0.0
  9
$UCSORTHOREF
  2

  9
$UCSORTHOVIEW
 70
0
  9
$UCSORGTOP
 10
0.0
 20
0.0
 30
0.0
  9
$UCSORGBOTTOM
 10
0.0
 20
0.0
 30
0.0
  9
$UCSORGLEFT
 10
0.0
 20
0.0
 30
0.0
  9
$UCSORGRIGHT
 10
0.0
 20
0.0
 30
0.0
  9
$UCSORGFRONT
 10
0.0
 20
0.0
 30
0.0
  9
$UCSORGBACK
 10
0.0
 20
0.0
 30
0.0
  9
$PUCSBASE
  2

  9
$PUCSNAME
  2

  9
$PUCSORG
 10
0.0
 20
0.0
 30
0.0
  9
$PUCSXDIR
 10
1.0
 20
0.0
 30
0.0
  9
$PUCSYDIR
 10
0.0
 20
1.0
 30
0.0
  9
$PUCSORTHOREF
  2

  9
$PUCSORTHOVIEW
 70
0
  9
$PUCSORGTOP
 10
0.0
 20
0.0
 30
0.0
  9
$PUCSORGBOTTOM
 10
0.0
 20
0.0
 30
0.0
  9
$PUCSORGLEFT
 10
0.0
 20
0.0
 30
0.0
  9
$PUCSORGRIGHT
 10
0.0
 20
0.0
 30
0.0
  9
$PUCSORGFRONT
 10
0.0
 20
0.0
 30
0.0
  9
$PUCSORGBACK
 10
0.0
 20
0.0
 30
0.0
  9
$USERI1
 70
0
  9
$USERI2
 70
0
  9
$USERI3
 70
0
  9
$USERI4
 70
0
  9
$USERI5
 70
0
  9
$USERR1
 40
0.0
  9
$USERR2
 40
0.0
  9
$USERR3
 40
0.0
  9
$USERR4
 40
0.0
  9
$USERR5
 40
0.0
  9
$WORLDVIEW
 70
1
  9
$SHADEDGE
 70
3
  9
$SHADEDIF
 70
70
  9
$TILEMODE
 70
1
  9
$MAXACTVP
 70
64
  9
$PINSBASE
 10
0.0
 20
0.0
 30
0.0
  9
$PLIMCHECK
 70
0
  9
$PEXTMIN
 10
1e+20
 20
1e+20
 30
1e+20
  9
$PEXTMAX
 10
-1e+20
 20
-1e+20
 30
-1e+20
  9
$PLIMMIN
 10
0.0
 20
0.0
  9
$PLIMMAX
 10
420.0
 20
297.0
  9
$UNITMODE
 70
0
  9
$VISRETAIN
 70
1
  9
$PLINEGEN
 70
0
  9
$PSLTSCALE
 70
1
  9
$TREEDEPTH
 70
3020
  9
$CMLSTYLE
  2
Standard
  9
$CMLJUST
 70
0
  9
$CMLSCALE
 40
20.0
  9
$PROXYGRAPHICS
 70
1
  9
$MEASUREMENT
 70
1
  9
$CELWEIGHT
370
-1
  9
$ENDCAPS
280
0
  9
$JOINSTYLE
280
0
  9
$LWDISPLAY
290
0
  9
$INSUNITS
 70
6
  9
$HYPERLINKBASE
  1

  9
$STYLESHEET
  1

  9
$XEDIT
290
1
  9
$CEPSNTYPE
380
0
  9
$PSTYLEMODE
290
1
  9
$FINGERPRINTGUID
  2
{3FCD0672-F3C0-44B3-A98E-AB7B02B8FBE5}
  9
$VERSIONGUID
  2
{3BE66FC9-3D08-40BE-9BBD-A25555116D5D}
  9
$EXTNAMES
290
1
  9
$PSVPSCALE
 40
0.0
  9
$OLESTARTUP
290
0
  9
$SORTENTS
280
127
  9
$INDEXCTL
280
0
  9
$HIDETEXT
280
1
  9
$XCLIPFRAME
280
1
  9
$HALOGAP
280
0
  9
$OBSCOLOR
 70
257
  9
$OBSLTYPE
280
0
  9
$INTERSECTIONDISPLAY
280
0
  9
$INTERSECTIONCOLOR
 70
257
  9
$DIMASSOC
280
2
  9
$PROJECTNAME
  1

  9
$CAMERADISPLAY
290
0
  9
$LENSLENGTH
 40
50.0
  9
$CAMERAHEIGHT
 40
0.0
  9
$STEPSPERSEC
 40
24.0
  9
$STEPSIZE
 40
100.0
  9
$3DDWFPREC
 40
2.0
  9
$PSOLWIDTH
 40
0.005
  9
$PSOLHEIGHT
 40
0.08
  9
$LOFTANG1
 40
1.570796326795
  9
$LOFTANG2
 40
1.570796326795
  9
$LOFTMAG1
 40
0.0
  9
$LOFTMAG2
 40
0.0
  9
$LOFTPARAM
 70
7
  9
$LOFTNORMALS
280
1
  9
$LATITUDE
 40
37.795
  9
$LONGITUDE
 40
-122.394
  9
$NORTHDIRECTION
 40
0.0
  9
$TIMEZONE
 70
-8000
  9
$LIGHTGLYPHDISPLAY
280
1
  9
$TILEMODELIGHTSYNCH
280
1
  9
$CMATERIAL
347
20
  9
$SOLIDHIST
280
0
  9
$SHOWHIST
280
1
  9
$DWFFRAME
280
2
  9
$DGNFRAME
280
2
  9
$REALWORLDSCALE
290
1
  9
$INTERFERECOLOR
 62
256
  9
$CSHADOW
280
0
  9
$SHADOWPLANELOCATION
 40
0.0
  0
ENDSEC
  0
SECTION
  2
CLASSES
  0
CLASS
  1
ACDBDICTIONARYWDFLT
  2
AcDbDictionaryWithDefault
  3
ObjectDBX Classes
 90
0
 91
0
280
0
281
0
  0
CLASS
  1
SUN
  2
AcDbSun
  3
SCENEOE
 90
1153
 91
0
280
0
281
0
  0
CLASS
  1
VISUALSTYLE
  2
AcDbVisualStyle
  3
ObjectDBX Classes
 90
4095
 91
0
280
0
281
0
  0
CLASS
  1
MATERIAL
  2
AcDbMaterial
  3
ObjectDBX Classes
 90
1153
 91
0
280
0
281
0
  0
CLASS
  1
SCALE
  2
AcDbScale
  3
ObjectDBX Classes
 90
1153
 91
0
280
0
281
0
  0
CLASS
  1
TABLESTYLE
  2
AcDbTableStyle
  3
ObjectDBX Classes
 90
4095
 91
0
280
0
281
0
  0
CLASS
  1
MLEADERSTYLE
  2
AcDbMLeaderStyle
  3
ACDB_MLEADERSTYLE_CLASS
 90
4095
 91
0
280
0
281
0
  0
CLASS
  1
DICTIONARYVAR
  2
AcDbDictionaryVar
  3
ObjectDBX Classes
 90
0
 91
0
280
0
281
0
  0
CLASS
  1
CELLSTYLEMAP
  2
AcDbCellStyleMap
  3
ObjectDBX Classes
 90
1152
 91
0
280
0
281
0
  0
CLASS
  1
MENTALRAYRENDERSETTINGS
  2
AcDbMentalRayRenderSettings
  3
SCENEOE
 90
1024
 91
0
280
0
281
0
  0
CLASS
  1
ACDBDETAILVIEWSTYLE
  2
AcDbDetailViewStyle
  3
ObjectDBX Classes
 90
1025
 91
0
280
0
281
0
  0
CLASS
  1
ACDBSECTIONVIEWSTYLE
  2
AcDbSectionViewStyle
  3
ObjectDBX Classes
 90
1025
 91
0
280
0
281
0
  0
CLASS
  1
RASTERVARIABLES
  2
AcDbRasterVariables
  3
ISM
 90
0
 91
0
280
0
281
0
  0
CLASS
  1
LAYOUT
  2
AcDbLayout
  3
ObjectDBX Classes
 90
0
 91
0
280
0
281
0
  0
CLASS
  1
ACDBPLACEHOLDER
  2
AcDbPlaceHolder
  3
ObjectDBX Classes
 90
0
 91
0
280
0
281
0
  0
ENDSEC
  0
SECTION
  2
TABLES
  0
TABLE
  2
VPORT
  5
8
330
0
100
AcDbSymbolTable
 70
1
  0
VPORT
  5
23
330
8
100
AcDbSymbolTableRecord
100
AcDbViewportTableRecord
  2
*Active
 70
0
 10
0.0
 20
0.0
 11
1.0
 21
1.0
 12
0.0
 22
0.0
 13
0.0
 23
0.0
 14
0.5
 24
0.5
 15
0.5
 25
0.5
 16
0.0
 26
0.0
 36
1.0
 17
0.0
 27
0.0
 37
0.0
 40
1000.0
 41
1.34
 42
50.0
 43
0.0
 44
0.0
 50
0.0
 51
0.0
 71
0
 72
1000
 73
1
 74
3
 75
0
 76
0
 77
0
 78
0
281
0
 65
0
146
0.0
  0
ENDTAB
  0
TABLE
  2
LTYPE
  5
2
330
0
100
AcDbSymbolTable
 70
3
  0
LTYPE
  5
24
330
2
100
AcDbSymbolTableRecord
100
AcDbLinetypeTableRecord
  2
ByBlock
 70
0
  3

 72
65
 73
0
 40
0.0
  0
LTYPE
  5
25
330
2
100
AcDbSymbolTableRecord
100
AcDbLinetypeTableRecord
  2
ByLayer
 70
0
  3

 72
65
 73
0
 40
0.0
  0
LTYPE
  5
26
330
2
100
AcDbSymbolTableRecord
100
AcDbLinetypeTableRecord
  2
Continuous
 70
0
  3

 72
65
 73
0
 40
0.0
  0
ENDTAB
  0
TABLE
  2
LAYER
  5
1
330
0
100
AcDbSymbolTable
 70
6
  0
LAYER
  5
27
330
1
100
AcDbSymbolTableRecord
100
AcDbLayerTableRecord
  2
0
 70
0
 62
7
  6
Continuous
370
-3
390
13
347
21
  0
LAYER
  5
28
330
1
100
AcDbSymbolTableRecord
100
AcDbLayerTableRecord
  2
Defpoints
 70
0
 62
7
  6
Continuous
290
0
370
-3
390
13
347
21
  0
LAYER
  5
2F
330
1
100
AcDbSymbolTableRecord
100
AcDbLayerTableRecord
  2
CUT_REFERENCE
 70
0
 62
1
  6
Continuous
370
-3
390
13
347
21
  0
LAYER
  5
30
330
1
100
AcDbSymbolTableRecord
100
AcDbLayerTableRecord
  2
ENGRAVE_COMPASS
 70
0
 62
7
  6
Continuous
370
-3
390
13
347
21
  0
LAYER
  5
31
330
1
100
AcDbSymbolTableRecord
100
AcDbLayerTableRecord
  2
ENGRAVE_AWA
 70
0
 62
4
  6
Continuous
370
-3
390
13
347
21
  0
LAYER
  5
32
330
1
100
AcDbSymbolTableRecord
100
AcDbLayerTableRecord
  2
ENGRAVE_TEXT
 70
0
 62
7
  6
Continuous
370
-3
390
13
347
21
  0
ENDTAB
  0
TABLE
  2
STYLE
  5
5
330
0
100
AcDbSymbolTable
 70
1
  0
STYLE
  5
29
330
5
100
AcDbSymbolTableRecord
100
AcDbTextStyleTableRecord
  2
Standard
 70
0
 40
0.0
 41
1.0
 50
0.0
 71
0
 42
2.5
  3
txt
  4

  0
ENDTAB
  0
TABLE
  2
VIEW
  5
7
330
0
100
AcDbSymbolTable
 70
0
  0
ENDTAB
  0
TABLE
  2
UCS
  5
6
330
0
100
AcDbSymbolTable
 70
0
  0
ENDTAB
  0
TABLE
  2
APPID
  5
3
330
0
100
AcDbSymbolTable
 70
3
  0
APPID
  5
2A
330
3
100
AcDbSymbolTableRecord
100
AcDbRegAppTableRecord
  2
ACAD
 70
0
  0
APPID
  5
212
330
3
100
AcDbSymbolTableRecord
100
AcDbRegAppTableRecord
  2
HATCHBACKGROUNDCOLOR
 70
0
  0
APPID
  5
213
330
3
100
AcDbSymbolTableRecord
100
AcDbRegAppTableRecord
  2
EZDXF
 70
0
  0
ENDTAB
  0
TABLE
  2
DIMSTYLE
  5
4
330
0
100
AcDbSymbolTable
 70
1
100
AcDbDimStyleTable
  0
DIMSTYLE
105
2B
330
4
100
AcDbSymbolTableRecord
100
AcDbDimStyleTableRecord
  2
Standard
 70
0
 40
1.0
 41
2.5
 42
0.625
 43
3.75
 44
1.25
 45
0.0
 46
0.0
 47
0.0
 48
0.0
 49
2.5
140
2.5
141
2.5
142
0.0
143
0.03937007874
144
1.0
145
0.0
146
1.0
147
0.625
148
0.0
 69
0
 70
0
 71
0
 72
0
 73
0
 74
0
 75
0
 76
0
 77
1
 78
8
 79
3
170
0
171
3
172
1
173
0
174
0
175
0
176
0
177
0
178
0
179
2
271
2
272
2
273
2
274
3
275
0
276
0
277
2
278
44
279
0
280
0
281
0
282
0
283
0
284
8
285
0
286
0
288
0
289
3
290
0
371
-2
372
-2
  0
ENDTAB
  0
TABLE
  2
BLOCK_RECORD
  5
9
330
0
100
AcDbSymbolTable
 70
2
  0
BLOCK_RECORD
  5
17
330
9
100
AcDbSymbolTableRecord
100
AcDbBlockTableRecord
  2
*Model_Space
340
1A
 70
0
280
1
281
0
  0
BLOCK_RECORD
  5
1B
330
9
100
AcDbSymbolTableRecord
100
AcDbBlockTableRecord
  2
*Paper_Space
340
1E
 70
0
280
1
281
0
  0
ENDTAB
  0
ENDSEC
  0
SECTION
  2
BLOCKS
  0
BLOCK
  5
18
330
17
100
AcDbEntity
  8
0
100
AcDbBlockBegin
  2
*Model_Space
 70
0
 10
0.0
 20
0.0
 30
0.0
  3
*Model_Space
  1

  0
ENDBLK
  5
19
330
17
100
AcDbEntity
  8
0
100
AcDbBlockEnd
  0
BLOCK
  5
1C
330
1B
100
AcDbEntity
  8
0
100
AcDbBlockBegin
  2
*Paper_Space
 70
0
 10
0.0
 20
0.0
 30
0.0
  3
*Paper_Space
  1

  0
ENDBLK
  5
1D
330
1B
100
AcDbEntity
  8
0
100
AcDbBlockEnd
  0
ENDSEC
  0
SECTION
  2
ENTITIES
  0
CIRCLE
  5
33
330
17
100
AcDbEntity
  8
CUT_REFERENCE
100
AcDbCircle
 10
0.0
 20
0.0
 30
0.0
 40
57.5
  0
CIRCLE
  5
34
330
17
100
AcDbEntity
  8
CUT_REFERENCE
100
AcDbCircle
 10
0.0
 20
0.0
 30
0.0
 40
47.0
  0
CIRCLE
  5
35
330
17
100
AcDbEntity
  8
CUT_REFERENCE
100
AcDbCircle
 10
0.0
 20
0.0
 30
0.0
 40
1.6
  0
CIRCLE
  5
36
330
17
100
AcDbEntity
  8
ENGRAVE_AWA
100
AcDbCircle
 10
0.0
 20
0.0
 30
0.0
 40
7.791666666666668
  0
TEXT
  5
37
330
17
100
AcDbEntity
  8
ENGRAVE_TEXT
100
AcDbText
 10
6.991666666666668
 20
0.0
 30
0.0
 40
3.8
  1
0.2
 72
1
 11
6.991666666666668
 21
0.0
 31
0.0
100
AcDbText
 73
3
  0
CIRCLE
  5
38
330
17
100
AcDbEntity
  8
ENGRAVE_AWA
100
AcDbCircle
 10
0.0
 20
0.0
 30
0.0
 40
15.583333333333336
  0
TEXT
  5
39
330
17
100
AcDbEntity
  8
ENGRAVE_TEXT
100
AcDbText
 10
14.783333333333335
 20
0.0
 30
0.0
 40
3.8
  1
0.4
 72
1
 11
14.783333333333335
 21
0.0
 31
0.0
100
AcDbText
 73
3
  0
CIRCLE
  5
3A
330
17
100
AcDbEntity
  8
ENGRAVE_AWA
100
AcDbCircle
 10
0.0
 20
0.0
 30
0.0
 40
23.375000000000004
  0
TEXT
  5
3B
330
17
100
AcDbEntity
  8
ENGRAVE_TEXT
100
AcDbText
 10
22.575000000000003
 20
0.0
 30
0.0
 40
3.8
  1
0.6
 72
1
 11
22.575000000000003
 21
0.0
 31
0.0
100
AcDbText
 73
3
  0
CIRCLE
  5
3C
330
17
100
AcDbEntity
  8
ENGRAVE_AWA
100
AcDbCircle
 10
0.0
 20
0.0
 30
0.0
 40
31.16666666666667
  0
TEXT
  5
3D
330
17
100
AcDbEntity
  8
ENGRAVE_TEXT
100
AcDbText
 10
30.36666666666667
 20
0.0
 30
0.0
 40
3.8
  1
0.8
 72
1
 11
30.36666666666667
 21
0.0
 31
0.0
100
AcDbText
 73
3
  0
CIRCLE
  5
3E
330
17
100
AcDbEntity
  8
ENGRAVE_AWA
100
AcDbCircle
 10
0.0
 20
0.0
 30
0.0
 40
38.95833333333334
  0
TEXT
  5
3F
330
17
100
AcDbEntity
  8
ENGRAVE_TEXT
100
AcDbText
 10
38.158333333333346
 20
0.0
 30
0.0
 40
3.8
  1
1.0
 72
1
 11
38.158333333333346
 21
0.0
 31
0.0
100
AcDbText
 73
3
  0
LINE
  5
40
330
17
100
AcDbEntity
  8
ENGRAVE_AWA
100
AcDbLine
 10
0.0
 20
0.0
 30
0.0
 11
0.0
 21
45.0
 31
0.0
  0
LINE
  5
41
330
17
100
AcDbEntity
  8
ENGRAVE_AWA
100
AcDbLine
 10
0.0
 20
45.0
 30
0.0
 11
-1.2
 21
42.5
 31
0.0
  0
LINE
  5
42
330
17
100
AcDbEntity
  8
ENGRAVE_AWA
100
AcDbLine
 10
0.0
 20
45.0
 30
0.0
 11
1.2
 21
42.5
 31
0.0
  0
LINE
  5
43
330
17
100
AcDbEntity
  8
ENGRAVE_AWA
100
AcDbLine
 10
0.0
 20
-38.958333333333336
 30
0.0
 11
25.386970356639424
 21
-38.958333333333336
 31
0.0
  0
LINE
  5
44
330
17
100
AcDbEntity
  8
ENGRAVE_AWA
100
AcDbLine
 10
0.0
 20
-38.958333333333336
 30
0.0
 11
32.53600057831204
 21
-33.22135858703071
 31
0.0
  0
TEXT
  5
45
330
17
100
AcDbEntity
  8
ENGRAVE_TEXT
100
AcDbText
 10
13.428264048885211
 20
-36.59056807743738
 30
0.0
 40
2.8
  1
10
 50
-10.0
 72
1
 11
13.428264048885211
 21
-36.59056807743738
 31
0.0
100
AcDbText
 73
2
  0
LINE
  5
46
330
17
100
AcDbEntity
  8
ENGRAVE_AWA
100
AcDbLine
 10
0.0
 20
-38.958333333333336
 30
0.0
 11
39.463144006225306
 21
-24.59492356450663
 31
0.0
  0
TEXT
  5
47
330
17
100
AcDbEntity
  8
ENGRAVE_TEXT
100
AcDbText
 10
12.813100423007855
 20
-34.29474617069479
 30
0.0
 40
2.8
  1
20
 50
-20.0
 72
1
 11
12.813100423007855
 21
-34.29474617069479
 31
0.0
100
AcDbText
 73
2
  0
LINE
  5
48
330
17
100
AcDbEntity
  8
ENGRAVE_AWA
100
AcDbLine
 10
0.0
 20
-38.958333333333336
 30
0.0
 11
44.58140273827257
 21
-13.219248461540552
 31
0.0
  0
TEXT
  5
49
330
17
100
AcDbEntity
  8
ENGRAVE_TEXT
100
AcDbText
 10
11.808617224519065
 20
-32.140625
 30
0.0
 40
2.8
  1
30
 50
-30.0
 72
1
 11
11.808617224519065
 21
-32.140625
 31
0.0
100
AcDbText
 73
2
  0
LINE
  5
4A
330
17
100
AcDbEntity
  8
ENGRAVE_AWA
100
AcDbLine
 10
0.0
 20
-38.958333333333336
 30
0.0
 11
46.49996158999976
 21
0.0597672865931429
 31
0.0
  0
TEXT
  5
4B
330
17
100
AcDbEntity
  8
ENGRAVE_TEXT
100
AcDbText
 10
10.445335167111898
 20
-30.19365644708667
 30
0.0
 40
2.8
  1
40
 50
-40.0
 72
1
 11
10.445335167111898
 21
-30.19365644708667
 31
0.0
100
AcDbText
 73
2
  0
LINE
  5
4C
330
17
100
AcDbEntity
  8
ENGRAVE_AWA
100
AcDbLine
 10
0.0
 20
-38.958333333333336
 30
0.0
 11
44.368302109429905
 21
13.917750102885023
 31
0.0
  0
TEXT
  5
4D
330
17
100
AcDbEntity
  8
ENGRAVE_TEXT
100
AcDbText
 10
8.764676886246667
 20
-28.512998166221436
 30
0.0
 40
2.8
  1
50
 50
-50.0
 72
1
 11
8.764676886246667
 21
-28.512998166221436
 31
0.0
100
AcDbText
 73
2
  0
LINE
  5
4E
330
17
100
AcDbEntity
  8
ENGRAVE_AWA
100
AcDbLine
 10
0.0
 20
-38.958333333333336
 30
0.0
 11
37.98113280062061
 21
26.826918406362346
 31
0.0
  0
TEXT
  5
4F
330
17
100
AcDbEntity
  8
ENGRAVE_TEXT
100
AcDbText
 10
6.817708333333335
 20
-27.149716108814275
 30
0.0
 40
2.8
  1
60
 50
-60.0
 72
1
 11
6.817708333333335
 21
-27.149716108814275
 31
0.0
100
AcDbText
 73
2
  0
LINE
  5
50
330
17
100
AcDbEntity
  8
ENGRAVE_AWA
100
AcDbLine
 10
0.0
 20
-38.958333333333336
 30
0.0
 11
27.7579807705136
 21
37.30609204330839
 31
0.0
  0
TEXT
  5
51
330
17
100
AcDbEntity
  8
ENGRAVE_TEXT
100
AcDbText
 10
4.663587162638547
 20
-26.145232910325483
 30
0.0
 40
2.8
  1
70
 50
-70.0
 72
1
 11
4.663587162638547
 21
-26.145232910325483
 31
0.0
100
AcDbText
 73
2
  0
LINE
  5
52
330
17
100
AcDbEntity
  8
ENGRAVE_AWA
100
AcDbLine
 10
0.0
 20
-38.958333333333336
 30
0.0
 11
14.650997385669685
 21
44.131601779281716
 31
0.0
  0
TEXT
  5
53
330
17
100
AcDbEntity
  8
ENGRAVE_TEXT
100
AcDbText
 10
2.367765255895957
 20
-25.530069284448125
 30
0.0
 40
2.8
  1
80
 50
-80.0
 72
1
 11
2.367765255895957
 21
-25.530069284448125
 31
0.0
100
AcDbText
 73
2
  0
LINE
  5
54
330
17
100
AcDbEntity
  8
ENGRAVE_AWA
100
AcDbLine
 10
0.0
 20
-38.958333333333336
 30
0.0
 11
5.232813718856711e-15
 21
46.49999999999999
 31
0.0
  0
LINE
  5
55
330
17
100
AcDbEntity
  8
ENGRAVE_AWA
100
AcDbLine
 10
0.0
 20
-38.958333333333336
 30
0.0
 11
-14.650997385669676
 21
44.131601779281716
 31
0.0
  0
LINE
  5
56
330
17
100
AcDbEntity
  8
ENGRAVE_AWA
100
AcDbLine
 10
0.0
 20
-38.958333333333336
 30
0.0
 11
-27.757980770513594
 21
37.30609204330839
 31
0.0
  0
LINE
  5
57
330
17
100
AcDbEntity
  8
ENGRAVE_AWA
100
AcDbLine
 10
0.0
 20
-38.958333333333336
 30
0.0
 11
-37.98113280062059
 21
26.82691840636236
 31
0.0
  0
LINE
  5
58
330
17
100
AcDbEntity
  8
ENGRAVE_AWA
100
AcDbLine
 10
0.0
 20
-38.958333333333336
 30
0.0
 11
-44.368302109429905
 21
13.917750102885023
 31
0.0
  0
LINE
  5
59
330
17
100
AcDbEntity
  8
ENGRAVE_AWA
100
AcDbLine
 10
0.0
 20
-38.958333333333336
 30
0.0
 11
-46.499961589999764
 21
0.059767286593164215
 31
0.0
  0
LINE
  5
5A
330
17
100
AcDbEntity
  8
ENGRAVE_AWA
100
AcDbLine
 10
0.0
 20
-38.958333333333336
 30
0.0
 11
-44.58140273827257
 21
-13.219248461540552
 31
0.0
  0
LINE
  5
5B
330
17
100
AcDbEntity
  8
ENGRAVE_AWA
100
AcDbLine
 10
0.0
 20
-38.958333333333336
 30
0.0
 11
-39.46314400622531
 21
-24.594923564506622
 31
0.0
  0
LINE
  5
5C
330
17
100
AcDbEntity
  8
ENGRAVE_AWA
100
AcDbLine
 10
0.0
 20
-38.958333333333336
 30
0.0
 11
-32.536000578312034
 21
-33.22135858703071
 31
0.0
  0
LINE
  5
5D
330
17
100
AcDbEntity
  8
ENGRAVE_AWA
100
AcDbLine
 10
0.0
 20
-38.958333333333336
 30
0.0
 11
-25.386970356639427
 21
-38.958333333333336
 31
0.0
  0
LINE
  5
5E
330
17
100
AcDbEntity
  8
ENGRAVE_AWA
100
AcDbLine
 10
0.0
 20
-38.958333333333336
 30
0.0
 11
-19.211465827916193
 21
-42.34583309775365
 31
0.0
  0
LINE
  5
5F
330
17
100
AcDbEntity
  8
ENGRAVE_AWA
100
AcDbLine
 10
0.0
 20
-38.958333333333336
 30
0.0
 11
-14.421210045520546
 21
-44.20722453200356
 31
0.0
  0
LINE
  5
60
330
17
100
AcDbEntity
  8
ENGRAVE_AWA
100
AcDbLine
 10
0.0
 20
-38.958333333333336
 30
0.0
 11
-10.842496382503825
 21
-45.21825153845946
 31
0.0
  0
LINE
  5
61
330
17
100
AcDbEntity
  8
ENGRAVE_AWA
100
AcDbLine
 10
0.0
 20
-38.958333333333336
 30
0.0
 11
-8.133492878899155
 21
-45.783144208200646
 31
0.0
  0
LINE
  5
62
330
17
100
AcDbEntity
  8
ENGRAVE_AWA
100
AcDbLine
 10
0.0
 20
-38.958333333333336
 30
0.0
 11
-6.001833398329315
 21
-46.11103984794421
 31
0.0
  0
LINE
  5
63
330
17
100
AcDbEntity
  8
ENGRAVE_AWA
100
AcDbLine
 10
0.0
 20
-38.958333333333336
 30
0.0
 11
-4.242226444851841
 21
-46.306085073029
 31
0.0
  0
LINE
  5
64
330
17
100
AcDbEntity
  8
ENGRAVE_AWA
100
AcDbLine
 10
0.0
 20
-38.958333333333336
 30
0.0
 11
-2.7160468098088333
 21
-46.42061061346487
 31
0.0
  0
LINE
  5
65
330
17
100
AcDbEntity
  8
ENGRAVE_AWA
100
AcDbLine
 10
0.0
 20
-38.958333333333336
 30
0.0
 11
-1.3264626352738336
 21
-46.481076761164026
 31
0.0
  0
LINE
  5
66
330
17
100
AcDbEntity
  8
ENGRAVE_AWA
100
AcDbLine
 10
0.0
 20
-38.958333333333336
 30
0.0
 11
-1.3853816915354433e-15
 21
-46.5
 31
0.0
  0
LINE
  5
67
330
17
100
AcDbEntity
  8
ENGRAVE_AWA
100
AcDbLine
 10
0.0
 20
-38.958333333333336
 30
0.0
 11
1.3264626352738311
 21
-46.481076761164026
 31
0.0
  0
TEXT
  5
68
330
17
100
AcDbEntity
  8
ENGRAVE_TEXT
100
AcDbText
 10
2.3677652558959514
 20
-52.38659738221855
 30
0.0
 40
2.8
  1
80
 50
-280.0
 72
1
 11
2.3677652558959514
 21
-52.38659738221855
 31
0.0
100
AcDbText
 73
2
  0
LINE
  5
69
330
17
100
AcDbEntity
  8
ENGRAVE_AWA
100
AcDbLine
 10
0.0
 20
-38.958333333333336
 30
0.0
 11
2.7160468098088355
 21
-46.420610613464866
 31
0.0
  0
TEXT
  5
6A
330
17
100
AcDbEntity
  8
ENGRAVE_TEXT
100
AcDbText
 10
4.6635871626385486
 20
-51.77143375634119
 30
0.0
 40
2.8
  1
70
 50
-290.0
 72
1
 11
4.6635871626385486
 21
-51.77143375634119
 31
0.0
100
AcDbText
 73
2
  0
LINE
  5
6B
330
17
100
AcDbEntity
  8
ENGRAVE_AWA
100
AcDbLine
 10
0.0
 20
-38.958333333333336
 30
0.0
 11
4.2422264448518385
 21
-46.30608507302901
 31
0.0
  0
TEXT
  5
6C
330
17
100
AcDbEntity
  8
ENGRAVE_TEXT
100
AcDbText
 10
6.817708333333335
 20
-50.7669505578524
 30
0.0
 40
2.8
  1
60
 50
-300.0
 72
1
 11
6.817708333333335
 21
-50.7669505578524
 31
0.0
100
AcDbText
 73
2
  0
LINE
  5
6D
330
17
100
AcDbEntity
  8
ENGRAVE_AWA
100
AcDbLine
 10
0.0
 20
-38.958333333333336
 30
0.0
 11
6.001833398329313
 21
-46.11103984794421
 31
0.0
  0
TEXT
  5
6E
330
17
100
AcDbEntity
  8
ENGRAVE_TEXT
100
AcDbText
 10
8.764676886246665
 20
-49.403668500445235
 30
0.0
 40
2.8
  1
50
 50
-310.0
 72
1
 11
8.764676886246665
 21
-49.403668500445235
 31
0.0
100
AcDbText
 73
2
  0
LINE
  5
6F
330
17
100
AcDbEntity
  8
ENGRAVE_AWA
100
AcDbLine
 10
0.0
 20
-38.958333333333336
 30
0.0
 11
8.133492878899151
 21
-45.78314420820065
 31
0.0
  0
TEXT
  5
70
330
17
100
AcDbEntity
  8
ENGRAVE_TEXT
100
AcDbText
 10
10.445335167111894
 20
-47.723010219580004
 30
0.0
 40
2.8
  1
40
 50
-320.0
 72
1
 11
10.445335167111894
 21
-47.723010219580004
 31
0.0
100
AcDbText
 73
2
  0
LINE
  5
71
330
17
100
AcDbEntity
  8
ENGRAVE_AWA
100
AcDbLine
 10
0.0
 20
-38.958333333333336
 30
0.0
 11
10.842496382503812
 21
-45.21825153845946
 31
0.0
  0
TEXT
  5
72
330
17
100
AcDbEntity
  8
ENGRAVE_TEXT
100
AcDbText
 10
11.808617224519061
 20
-45.77604166666667
 30
0.0
 40
2.8
  1
30
 50
-330.0
 72
1
 11
11.808617224519061
 21
-45.77604166666667
 31
0.0
100
AcDbText
 73
2
  0
LINE
  5
73
330
17
100
AcDbEntity
  8
ENGRAVE_AWA
100
AcDbLine
 10
0.0
 20
-38.958333333333336
 30
0.0
 11
14.421210045520548
 21
-44.20722453200356
 31
0.0
  0
TEXT
  5
74
330
17
100
AcDbEntity
  8
ENGRAVE_TEXT
100
AcDbText
 10
12.813100423007855
 20
-43.62192049597188
 30
0.0
 40
2.8
  1
20
 50
-340.0
 72
1
 11
12.813100423007855
 21
-43.62192049597188
 31
0.0
100
AcDbText
 73
2
  0
LINE
  5
75
330
17
100
AcDbEntity
  8
ENGRAVE_AWA
100
AcDbLine
 10
0.0
 20
-38.958333333333336
 30
0.0
 11
19.211465827916193
 21
-42.34583309775365
 31
0.0
  0
TEXT
  5
76
330
17
100
AcDbEntity
  8
ENGRAVE_TEXT
100
AcDbText
 10
13.428264048885211
 20
-41.32609858922929
 30
0.0
 40
2.8
  1
10
 50
-350.0
 72
1
 11
13.428264048885211
 21
-41.32609858922929
 31
0.0
100
AcDbText
 73
2
  0
ARC
  5
77
330
17
100
AcDbEntity
  8
ENGRAVE_AWA
100
AcDbCircle
 10
0.0
 20
-38.958333333333336
 30
0.0
 40
7.791666666666668
100
AcDbArc
 50
285.92946943394736
 51
254.0705305660526
  0
TEXT
  5
78
330
17
100
AcDbEntity
  8
ENGRAVE_TEXT
100
AcDbText
 10
8.591666666666669
 20
-38.958333333333336
 30
0.0
 40
2.6
  1
0.2
 72
1
 11
8.591666666666669
 21
-38.958333333333336
 31
0.0
100
AcDbText
 73
1
  0
ARC
  5
79
330
17
100
AcDbEntity
  8
ENGRAVE_AWA
100
AcDbCircle
 10
0.0
 20
-38.958333333333336
 30
0.0
 40
15.583333333333336
100
AcDbArc
 50
340.68265224777025
 51
199.31734775222978
  0
TEXT
  5
7A
330
17
100
AcDbEntity
  8
ENGRAVE_TEXT
100
AcDbText
 10
16.383333333333336
 20
-38.958333333333336
 30
0.0
 40
2.6
  1
0.4
 72
1
 11
16.383333333333336
 21
-38.958333333333336
 31
0.0
100
AcDbText
 73
1
  0
ARC
  5
7B
330
17
100
AcDbEntity
  8
ENGRAVE_AWA
100
AcDbCircle
 10
0.0
 20
-38.958333333333336
 30
0.0
 40
23.375000000000004
100
AcDbArc
 50
356.9121675809565
 51
183.08783241904345
  0
TEXT
  5
7C
330
17
100
AcDbEntity
  8
ENGRAVE_TEXT
100
AcDbText
 10
24.175000000000004
 20
-38.958333333333336
 30
0.0
 40
2.6
  1
0.6
 72
1
 11
24.175000000000004
 21
-38.958333333333336
 31
0.0
100
AcDbText
 73
1
  0
ARC
  5
7D
330
17
100
AcDbEntity
  8
ENGRAVE_AWA
100
AcDbCircle
 10
0.0
 20
-38.958333333333336
 30
0.0
 40
31.16666666666667
100
AcDbArc
 50
7.735486501975511
 51
172.26451349802448
  0
TEXT
  5
7E
330
17
100
AcDbEntity
  8
ENGRAVE_TEXT
100
AcDbText
 10
31.966666666666672
 20
-38.958333333333336
 30
0.0
 40
2.6
  1
0.8
 72
1
 11
31.966666666666672
 21
-38.958333333333336
 31
0.0
100
AcDbText
 73
1
  0
ARC
  5
7F
330
17
100
AcDbEntity
  8
ENGRAVE_AWA
100
AcDbCircle
 10
0.0
 20
-38.958333333333336
 30
0.0
 40
38.95833333333334
100
AcDbArc
 50
16.719108586896688
 51
163.28089141310332
  0
TEXT
  5
80
330
17
100
AcDbEntity
  8
ENGRAVE_TEXT
100
AcDbText
 10
39.75833333333334
 20
-38.958333333333336
 30
0.0
 40
2.6
  1
1.0
 72
1
 11
39.75833333333334
 21
-38.958333333333336
 31
0.0
100
AcDbText
 73
1
  0
ARC
  5
81
330
17
100
AcDbEntity
  8
ENGRAVE_AWA
100
AcDbCircle
 10
0.0
 20
-38.958333333333336
 30
0.0
 40
46.75000000000001
100
AcDbArc
 50
25.02834804398752
 51
154.97165195601247
  0
TEXT
  5
82
330
17
100
AcDbEntity
  8
ENGRAVE_TEXT
100
AcDbText
 10
47.550000000000004
 20
-38.958333333333336
 30
0.0
 40
2.6
  1
1.2
 72
1
 11
47.550000000000004
 21
-38.958333333333336
 31
0.0
100
AcDbText
 73
1
  0
ARC
  5
83
330
17
100
AcDbEntity
  8
ENGRAVE_AWA
100
AcDbCircle
 10
0.0
 20
-38.958333333333336
 30
0.0
 40
54.54166666666667
100
AcDbArc
 50
33.253397475259014
 51
146.74660252474098
  0
TEXT
  5
84
330
17
100
AcDbEntity
  8
ENGRAVE_TEXT
100
AcDbText
 10
55.34166666666667
 20
-38.958333333333336
 30
0.0
 40
2.6
  1
1.4
 72
1
 11
55.34166666666667
 21
-38.958333333333336
 31
0.0
100
AcDbText
 73
1
  0
ARC
  5
85
330
17
100
AcDbEntity
  8
ENGRAVE_AWA
100
AcDbCircle
 10
0.0
 20
-38.958333333333336
 30
0.0
 40
62.33333333333334
100
AcDbArc
 50
41.85901533392283
 51
138.14098466607717
  0
TEXT
  5
86
330
17
100
AcDbEntity
  8
ENGRAVE_TEXT
100
AcDbText
 10
63.13333333333334
 20
-38.958333333333336
 30
0.0
 40
2.6
  1
1.6
 72
1
 11
63.13333333333334
 21
-38.958333333333336
 31
0.0
100
AcDbText
 73
1
  0
ARC
  5
87
330
17
100
AcDbEntity
  8
ENGRAVE_AWA
100
AcDbCircle
 10
0.0
 20
-38.958333333333336
 30
0.0
 40
70.12500000000001
100
AcDbArc
 50
51.4481430212152
 51
128.5518569787848
  0
TEXT
  5
88
330
17
100
AcDbEntity
  8
ENGRAVE_TEXT
100
AcDbText
 10
70.92500000000001
 20
-38.958333333333336
 30
0.0
 40
2.6
  1
1.8
 72
1
 11
70.92500000000001
 21
-38.958333333333336
 31
0.0
100
AcDbText
 73
1
  0
ARC
  5
89
330
17
100
AcDbEntity
  8
ENGRAVE_AWA
100
AcDbCircle
 10
0.0
 20
-38.958333333333336
 30
0.0
 40
77.91666666666669
100
AcDbArc
 50
63.35981451017795
 51
116.64018548982204
  0
TEXT
  5
8A
330
17
100
AcDbEntity
  8
ENGRAVE_TEXT
100
AcDbText
 10
78.71666666666668
 20
-38.958333333333336
 30
0.0
 40
2.6
  1
2.0
 72
1
 11
78.71666666666668
 21
-38.958333333333336
 31
0.0
100
AcDbText
 73
1
  0
TEXT
  5
8B
330
17
100
AcDbEntity
  8
ENGRAVE_TEXT
100
AcDbText
 10
24.540412583479746
 20
19.40172224216679
 30
0.0
 40
4.5
  1
6
 72
1
 11
24.540412583479746
 21
19.40172224216679
 31
0.0
100
AcDbText
 73
2
  0
TEXT
  5
8C
330
17
100
AcDbEntity
  8
ENGRAVE_TEXT
100
AcDbText
 10
24.540412583479746
 20
-19.40172224216679
 30
0.0
 40
4.5
  1
6
 72
1
 11
24.540412583479746
 21
-19.40172224216679
 31
0.0
100
AcDbText
 73
2
  0
TEXT
  5
8D
330
17
100
AcDbEntity
  8
ENGRAVE_TEXT
100
AcDbText
 10
22.33047696695089
 20
16.538706753112187
 30
0.0
 40
4.5
  1
8
 72
1
 11
22.33047696695089
 21
16.538706753112187
 31
0.0
100
AcDbText
 73
2
  0
TEXT
  5
8E
330
17
100
AcDbEntity
  8
ENGRAVE_TEXT
100
AcDbText
 10
22.33047696695089
 20
-16.538706753112187
 30
0.0
 40
4.5
  1
8
 72
1
 11
22.33047696695089
 21
-16.538706753112187
 31
0.0
100
AcDbText
 73
2
  0
TEXT
  5
8F
330
17
100
AcDbEntity
  8
ENGRAVE_TEXT
100
AcDbText
 10
19.821664822611062
 20
13.890831081336332
 30
0.0
 40
4.5
  1
10
 72
1
 11
19.821664822611062
 21
13.890831081336332
 31
0.0
100
AcDbText
 73
2
  0
TEXT
  5
90
330
17
100
AcDbEntity
  8
ENGRAVE_TEXT
100
AcDbText
 10
19.821664822611062
 20
-13.890831081336332
 30
0.0
 40
4.5
  1
10
 72
1
 11
19.821664822611062
 21
-13.890831081336332
 31
0.0
100
AcDbText
 73
2
  0
TEXT
  5
91
330
17
100
AcDbEntity
  8
ENGRAVE_TEXT
100
AcDbText
 10
17.202317417367993
 20
11.706006909511059
 30
0.0
 40
4.5
  1
12
 72
1
 11
17.202317417367993
 21
11.706006909511059
 31
0.0
100
AcDbText
 73
2
  0
TEXT
  5
92
330
17
100
AcDbEntity
  8
ENGRAVE_TEXT
100
AcDbText
 10
17.202317417367993
 20
-11.706006909511059
 30
0.0
 40
4.5
  1
12
 72
1
 11
17.202317417367993
 21
-11.706006909511059
 31
0.0
100
AcDbText
 73
2
  0
TEXT
  5
93
330
17
100
AcDbEntity
  8
ENGRAVE_TEXT
100
AcDbText
 10
15.038515676892466
 20
10.14307227292692
 30
0.0
 40
4.5
  1
14
 72
1
 11
15.038515676892466
 21
10.14307227292692
 31
0.0
100
AcDbText
 73
2
  0
TEXT
  5
94
330
17
100
AcDbEntity
  8
ENGRAVE_TEXT
100
AcDbText
 10
15.038515676892466
 20
-10.14307227292692
 30
0.0
 40
4.5
  1
14
 72
1
 11
15.038515676892466
 21
-10.14307227292692
 31
0.0
100
AcDbText
 73
2
  0
TEXT
  5
95
330
17
100
AcDbEntity
  8
ENGRAVE_TEXT
100
AcDbText
 10
13.307217719089678
 20
9.109083789129427
 30
0.0
 40
4.5
  1
16
 72
1
 11
13.307217719089678
 21
9.109083789129427
 31
0.0
100
AcDbText
 73
2
  0
TEXT
  5
96
330
17
100
AcDbEntity
  8
ENGRAVE_TEXT
100
AcDbText
 10
13.307217719089678
 20
-9.109083789129427
 30
0.0
 40
4.5
  1
16
 72
1
 11
13.307217719089678
 21
-9.109083789129427
 31
0.0
100
AcDbText
 73
2
  0
TEXT
  5
97
330
17
100
AcDbEntity
  8
ENGRAVE_TEXT
100
AcDbText
 10
10.711756669569107
 20
7.441066937890582
 30
0.0
 40
4.5
  1
20
 72
1
 11
10.711756669569107
 21
7.441066937890582
 31
0.0
100
AcDbText
 73
2
  0
TEXT
  5
98
330
17
100
AcDbEntity
  8
ENGRAVE_TEXT
100
AcDbText
 10
10.711756669569107
 20
-7.441066937890582
 30
0.0
 40
4.5
  1
20
 72
1
 11
10.711756669569107
 21
-7.441066937890582
 31
0.0
100
AcDbText
 73
2
  0
TEXT
  5
99
330
17
100
AcDbEntity
  8
ENGRAVE_TEXT
100
AcDbText
 10
8.674753568627764
 20
6.4603819184603095
 30
0.0
 40
4.5
  1
24
 72
1
 11
8.674753568627764
 21
6.4603819184603095
 31
0.0
100
AcDbText
 73
2
  0
TEXT
  5
9A
330
17
100
AcDbEntity
  8
ENGRAVE_TEXT
100
AcDbText
 10
8.674753568627764
 20
-6.4603819184603095
 30
0.0
 40
4.5
  1
24
 72
1
 11
8.674753568627764
 21
-6.4603819184603095
 31
0.0
100
AcDbText
 73
2
  0
CIRCLE
  5
9B
330
17
100
AcDbEntity
  8
ENGRAVE_COMPASS
100
AcDbCircle
 10
0.0
 20
0.0
 30
0.0
 40
57.2
  0
LINE
  5
9C
330
17
100
AcDbEntity
  8
ENGRAVE_COMPASS
100
AcDbLine
 10
57.2
 20
0.0
 30
0.0
 11
55.6
 21
0.0
 31
0.0
  0
TEXT
  5
9D
330
17
100
AcDbEntity
  8
ENGRAVE_TEXT
100
AcDbText
 10
53.7
 20
0.0
 30
0.0
 40
3.2
  1
0°/360°
 50
90.0
 72
1
 11
53.7
 21
0.0
 31
0.0
100
AcDbText
 73
2
  0
LINE
  5
9E
330
17
100
AcDbEntity
  8
ENGRAVE_COMPASS
100
AcDbLine
 10
57.16515530549228
 20
1.9962512113830555
 30
0.0
 11
56.265703561175094
 21
1.9648416643508047
 31
0.0
  0
LINE
  5
9F
330
17
100
AcDbEntity
  8
ENGRAVE_COMPASS
100
AcDbLine
 10
57.06066367486195
 20
3.9900702981639675
 30
0.0
 11
56.16285602962811
 21
3.927289471794255
 31
0.0
  0
LINE
  5
A0
330
17
100
AcDbEntity
  8
ENGRAVE_COMPASS
100
AcDbLine
 10
56.886652415065235
 20
5.979028098909779
 30
0.0
 11
55.99158270923379
 21
5.884952481968891
 31
0.0
  0
LINE
  5
A1
330
17
100
AcDbEntity
  8
ENGRAVE_COMPASS
100
AcDbLine
 10
56.64333353201783
 20
7.960701374915743
 30
0.0
 11
55.75209227015041
 21
7.835445584051684
 31
0.0
  0
LINE
  5
A2
330
17
100
AcDbEntity
  8
ENGRAVE_COMPASS
100
AcDbLine
 10
56.3310034722983
 20
9.932675762548415
 30
0.0
 11
54.755311067478765
 21
9.654838678281326
 31
0.0
  0
LINE
  5
A3
330
17
100
AcDbEntity
  8
ENGRAVE_COMPASS
100
AcDbLine
 10
55.95004276197369
 20
11.892548714775835
 30
0.0
 11
55.06970992131326
 21
11.705428193039852
 31
0.0
  0
LINE
  5
A4
330
17
100
AcDbEntity
  8
ENGRAVE_COMPASS
100
AcDbLine
 10
55.500915542987
 20
13.837932428300995
 30
0.0
 11
54.62764938933861
 21
13.620202722261293
 31
0.0
  0
LINE
  5
A5
330
17
100
AcDbEntity
  8
ENGRAVE_COMPASS
100
AcDbLine
 10
54.984169007671845
 20
15.766456752732353
 30
0.0
 11
54.11903348132736
 21
15.518383132497053
 31
0.0
  0
LINE
  5
A6
330
17
100
AcDbEntity
  8
ENGRAVE_COMPASS
100
AcDbLine
 10
54.400432732082784
 20
17.675772078246993
 30
0.0
 11
53.54448186741715
 21
17.39765678330954
 31
0.0
  0
LINE
  5
A7
330
17
100
AcDbEntity
  8
ENGRAVE_COMPASS
100
AcDbLine
 10
53.75041790895396
 20
19.56355219822825
 30
0.0
 11
52.24690971569651
 21
19.01631996890718
 31
0.0
  0
LINE
  5
A8
330
17
100
AcDbEntity
  8
ENGRAVE_COMPASS
100
AcDbLine
 10
53.03491648122024
 20
21.42749714339017
 30
0.0
 11
52.200451012110136
 21
21.09035120931585
 31
0.0
  0
LINE
  5
A9
330
17
100
AcDbEntity
  8
ENGRAVE_COMPASS
100
AcDbLine
 10
52.254800177156774
 20
23.265335983935774
 30
0.0
 11
51.43260926527843
 21
22.899273005167554
 31
0.0
  0
LINE
  5
AA
330
17
100
AcDbEntity
  8
ENGRAVE_COMPASS
100
AcDbLine
 10
51.41101944831236
 20
25.074829596335228
 30
0.0
 11
50.602104806643105
 21
24.68029556422506
 31
0.0
  0
LINE
  5
AB
330
17
100
AcDbEntity
  8
ENGRAVE_COMPASS
100
AcDbLine
 10
50.504602311530626
 20
26.853773391352956
 30
0.0
 11
49.70994947795759
 21
26.431248984845656
 31
0.0
  0
LINE
  5
AC
330
17
100
AcDbEntity
  8
ENGRAVE_COMPASS
100
AcDbLine
 10
49.5366530964699
 20
28.599999999999998
 30
0.0
 11
48.1510124504148
 21
27.799999999999997
 31
0.0
  0
TEXT
  5
AD
330
17
100
AcDbEntity
  8
ENGRAVE_TEXT
100
AcDbText
 10
46.50556418322436
 20
26.849999999999998
 30
0.0
 40
3.2
  1
30°
 50
60.0
 72
1
 11
46.50556418322436
 21
26.849999999999998
 31
0.0
100
AcDbText
 73
2
  0
LINE
  5
AE
330
17
100
AcDbEntity
  8
ENGRAVE_COMPASS
100
AcDbLine
 10
48.508351100147564
 20
30.31138191413932
 30
0.0
 11
47.745107813606786
 21
29.83445457632944
 31
0.0
  0
LINE
  5
AF
330
17
100
AcDbEntity
  8
ENGRAVE_COMPASS
100
AcDbLine
 10
47.42094915014838
 20
31.985834078526725
 30
0.0
 11
46.674815334848844
 21
31.482560465403054
 31
0.0
  0
LINE
  5
B0
330
17
100
AcDbEntity
  8
ENGRAVE_COMPASS
100
AcDbLine
 10
46.275772078246995
 20
33.621316431129465
 30
0.0
 11
45.54765678330954
 21
33.09230970406624
 31
0.0
  0
LINE
  5
B1
330
17
100
AcDbEntity
  8
ENGRAVE_COMPASS
100
AcDbLine
 10
45.07421510630449
 20
35.21583638862766
 30
0.0
 11
44.365005428058446
 21
34.661741060834565
 31
0.0
  0
LINE
  5
B2
330
17
100
AcDbEntity
  8
ENGRAVE_COMPASS
100
AcDbLine
 10
43.81774214640554
 20
36.76745127407005
 30
0.0
 11
42.59207103741518
 21
35.73899109857158
 31
0.0
  0
LINE
  5
B3
330
17
100
AcDbEntity
  8
ENGRAVE_COMPASS
100
AcDbLine
 10
42.50788401730695
 20
38.27427068372669
 30
0.0
 11
41.8390536743773
 21
37.67205313800372
 31
0.0
  0
LINE
  5
B4
330
17
100
AcDbEntity
  8
ENGRAVE_COMPASS
100
AcDbLine
 10
41.14623657937085
 20
39.73445879025464
 30
0.0
 11
40.49883075906607
 21
39.10926625684155
 31
0.0
  0
LINE
  5
B5
330
17
100
AcDbEntity
  8
ENGRAVE_COMPASS
100
AcDbLine
 10
39.73445879025464
 20
41.14623657937084
 30
0.0
 11
39.10926625684155
 21
40.49883075906606
 31
0.0
  0
LINE
  5
B6
330
17
100
AcDbEntity
  8
ENGRAVE_COMPASS
100
AcDbLine
 10
38.27427068372669
 20
42.50788401730695
 30
0.0
 11
37.67205313800372
 21
41.8390536743773
 31
0.0
  0
LINE
  5
B7
330
17
100
AcDbEntity
  8
ENGRAVE_COMPASS
100
AcDbLine
 10
36.767451274070055
 20
43.81774214640554
 30
0.0
 11
35.73899109857159
 21
42.59207103741518
 31
0.0
  0
LINE
  5
B8
330
17
100
AcDbEntity
  8
ENGRAVE_COMPASS
100
AcDbLine
 10
35.21583638862766
 20
45.0742151063045
 30
0.0
 11
34.661741060834565
 21
44.36500542805845
 31
0.0
  0
LINE
  5
B9
330
17
100
AcDbEntity
  8
ENGRAVE_COMPASS
100
AcDbLine
 10
33.621316431129465
 20
46.275772078246995
 30
0.0
 11
33.09230970406624
 21
45.54765678330954
 31
0.0
  0
LINE
  5
BA
330
17
100
AcDbEntity
  8
ENGRAVE_COMPASS
100
AcDbLine
 10
31.985834078526718
 20
47.42094915014839
 30
0.0
 11
31.482560465403047
 21
46.67481533484885
 31
0.0
  0
LINE
  5
BB
330
17
100
AcDbEntity
  8
ENGRAVE_COMPASS
100
AcDbLine
 10
30.31138191413932
 20
48.508351100147564
 30
0.0
 11
29.83445457632944
 21
47.745107813606786
 31
0.0
  0
LINE
  5
BC
330
17
100
AcDbEntity
  8
ENGRAVE_COMPASS
100
AcDbLine
 10
28.60000000000001
 20
49.53665309646989
 30
0.0
 11
27.800000000000008
 21
48.15101245041479
 31
0.0
  0
TEXT
  5
BD
330
17
100
AcDbEntity
  8
ENGRAVE_TEXT
100
AcDbText
 10
26.85000000000001
 20
46.50556418322436
 30
0.0
 40
3.2
  1
60°
 50
30.0
 72
1
 11
26.85000000000001
 21
46.50556418322436
 31
0.0
100
AcDbText
 73
2
  0
LINE
  5
BE
330
17
100
AcDbEntity
  8
ENGRAVE_COMPASS
100
AcDbLine
 10
26.85377339135296
 20
50.50460231153062
 30
0.0
 11
26.431248984845656
 21
49.709949477957586
 31
0.0
  0
LINE
  5
BF
330
17
100
AcDbEntity
  8
ENGRAVE_COMPASS
100
AcDbLine
 10
25.07482959633523
 20
51.41101944831236
 30
0.0
 11
24.680295564225062
 21
50.602104806643105
 31
0.0
  0
LINE
  5
C0
330
17
100
AcDbEntity
  8
ENGRAVE_COMPASS
100
AcDbLine
 10
23.265335983935774
 20
52.254800177156774
 30
0.0
 11
22.899273005167554
 21
51.43260926527843
 31
0.0
  0
LINE
  5
C1
330
17
100
AcDbEntity
  8
ENGRAVE_COMPASS
100
AcDbLine
 10
21.427497143390166
 20
53.03491648122024
 30
0.0
 11
21.090351209315845
 21
52.200451012110136
 31
0.0
  0
LINE
  5
C2
330
17
100
AcDbEntity
  8
ENGRAVE_COMPASS
100
AcDbLine
 10
19.56355219822826
 20
53.750417908953956
 30
0.0
 11
19.016319968907187
 21
52.2469097156965
 31
0.0
  0
LINE
  5
C3
330
17
100
AcDbEntity
  8
ENGRAVE_COMPASS
100
AcDbLine
 10
17.675772078246997
 20
54.400432732082784
 30
0.0
 11
17.397656783309543
 21
53.54448186741715
 31
0.0
  0
LINE
  5
C4
330
17
100
AcDbEntity
  8
ENGRAVE_COMPASS
100
AcDbLine
 10
15.766456752732353
 20
54.984169007671845
 30
0.0
 11
15.518383132497053
 21
54.11903348132736
 31
0.0
  0
LINE
  5
C5
330
17
100
AcDbEntity
  8
ENGRAVE_COMPASS
100
AcDbLine
 10
13.837932428300991
 20
55.500915542987
 30
0.0
 11
13.620202722261292
 21
54.62764938933861
 31
0.0
  0
LINE
  5
C6
330
17
100
AcDbEntity
  8
ENGRAVE_COMPASS
100
AcDbLine
 10
11.892548714775842
 20
55.950042761973684
 30
0.0
 11
11.705428193039857
 21
55.06970992131326
 31
0.0
  0
LINE
  5
C7
330
17
100
AcDbEntity
  8
ENGRAVE_COMPASS
100
AcDbLine
 10
9.93267576254842
 20
56.3310034722983
 30
0.0
 11
9.654838678281331
 21
54.755311067478765
 31
0.0
  0
LINE
  5
C8
330
17
100
AcDbEntity
  8
ENGRAVE_COMPASS
100
AcDbLine
 10
7.960701374915745
 20
56.64333353201783
 30
0.0
 11
7.835445584051686
 21
55.75209227015041
 31
0.0
  0
LINE
  5
C9
330
17
100
AcDbEntity
  8
ENGRAVE_COMPASS
100
AcDbLine
 10
5.979028098909778
 20
56.886652415065235
 30
0.0
 11
5.88495248196889
 21
55.99158270923379
 31
0.0
  0
LINE
  5
CA
330
17
100
AcDbEntity
  8
ENGRAVE_COMPASS
100
AcDbLine
 10
3.9900702981639635
 20
57.06066367486195
 30
0.0
 11
3.927289471794251
 21
56.16285602962811
 31
0.0
  0
LINE
  5
CB
330
17
100
AcDbEntity
  8
ENGRAVE_COMPASS
100
AcDbLine
 10
1.996251211383062
 20
57.16515530549228
 30
0.0
 11
1.9648416643508109
 21
56.265703561175094
 31
0.0
  0
LINE
  5
CC
330
17
100
AcDbEntity
  8
ENGRAVE_COMPASS
100
AcDbLine
 10
3.5024898455614302e-15
 20
57.2
 30
0.0
 11
3.404518101629642e-15
 21
55.6
 31
0.0
  0
TEXT
  5
CD
330
17
100
AcDbEntity
  8
ENGRAVE_TEXT
100
AcDbText
 10
3.2881766557106437e-15
 20
53.7
 30
0.0
 40
3.2
  1
90°
 72
1
 11
3.2881766557106437e-15
 21
53.7
 31
0.0
100
AcDbText
 73
2
  0
LINE
  5
CE
330
17
100
AcDbEntity
  8
ENGRAVE_COMPASS
100
AcDbLine
 10
-1.9962512113830548
 20
57.16515530549228
 30
0.0
 11
-1.964841664350804
 21
56.265703561175094
 31
0.0
  0
LINE
  5
CF
330
17
100
AcDbEntity
  8
ENGRAVE_COMPASS
100
AcDbLine
 10
-3.9900702981639693
 20
57.06066367486195
 30
0.0
 11
-3.9272894717942566
 21
56.16285602962811
 31
0.0
  0
LINE
  5
D0
330
17
100
AcDbEntity
  8
ENGRAVE_COMPASS
100
AcDbLine
 10
-5.979028098909784
 20
56.886652415065235
 30
0.0
 11
-5.884952481968895
 21
55.99158270923379
 31
0.0
  0
LINE
  5
D1
330
17
100
AcDbEntity
  8
ENGRAVE_COMPASS
100
AcDbLine
 10
-7.960701374915739
 20
56.64333353201783
 30
0.0
 11
-7.83544558405168
 21
55.75209227015041
 31
0.0
  0
LINE
  5
D2
330
17
100
AcDbEntity
  8
ENGRAVE_COMPASS
100
AcDbLine
 10
-9.932675762548413
 20
56.3310034722983
 30
0.0
 11
-9.654838678281324
 21
54.755311067478765
 31
0.0
  0
LINE
  5
D3
330
17
100
AcDbEntity
  8
ENGRAVE_COMPASS
100
AcDbLine
 10
-11.892548714775835
 20
55.95004276197369
 30
0.0
 11
-11.705428193039852
 21
55.06970992131326
 31
0.0
  0
LINE
  5
D4
330
17
100
AcDbEntity
  8
ENGRAVE_COMPASS
100
AcDbLine
 10
-13.837932428300999
 20
55.500915542987
 30
0.0
 11
-13.620202722261297
 21
54.62764938933861
 31
0.0
  0
LINE
  5
D5
330
17
100
AcDbEntity
  8
ENGRAVE_COMPASS
100
AcDbLine
 10
-15.766456752732347
 20
54.984169007671845
 30
0.0
 11
-15.518383132497048
 21
54.11903348132736
 31
0.0
  0
LINE
  5
D6
330
17
100
AcDbEntity
  8
ENGRAVE_COMPASS
100
AcDbLine
 10
-17.67577207824699
 20
54.40043273208279
 30
0.0
 11
-17.397656783309536
 21
53.544481867417154
 31
0.0
  0
LINE
  5
D7
330
17
100
AcDbEntity
  8
ENGRAVE_COMPASS
100
AcDbLine
 10
-19.56355219822825
 20
53.75041790895396
 30
0.0
 11
-19.01631996890718
 21
52.24690971569651
 31
0.0
  0
LINE
  5
D8
330
17
100
AcDbEntity
  8
ENGRAVE_COMPASS
100
AcDbLine
 10
-21.42749714339017
 20
53.03491648122024
 30
0.0
 11
-21.090351209315852
 21
52.200451012110136
 31
0.0
  0
LINE
  5
D9
330
17
100
AcDbEntity
  8
ENGRAVE_COMPASS
100
AcDbLine
 10
-23.265335983935778
 20
52.254800177156774
 30
0.0
 11
-22.899273005167558
 21
51.43260926527843
 31
0.0
  0
LINE
  5
DA
330
17
100
AcDbEntity
  8
ENGRAVE_COMPASS
100
AcDbLine
 10
-25.074829596335235
 20
51.41101944831235
 30
0.0
 11
-24.680295564225066
 21
50.602104806643105
 31
0.0
  0
LINE
  5
DB
330
17
100
AcDbEntity
  8
ENGRAVE_COMPASS
100
AcDbLine
 10
-26.853773391352963
 20
50.50460231153062
 30
0.0
 11
-26.43124898484566
 21
49.709949477957586
 31
0.0
  0
LINE
  5
DC
330
17
100
AcDbEntity
  8
ENGRAVE_COMPASS
100
AcDbLine
 10
-28.599999999999987
 20
49.5366530964699
 30
0.0
 11
-27.79999999999999
 21
48.1510124504148
 31
0.0
  0
TEXT
  5
DD
330
17
100
AcDbEntity
  8
ENGRAVE_TEXT
100
AcDbText
 10
-26.84999999999999
 20
46.50556418322436
 30
0.0
 40
3.2
  1
120°
 50
-30.0
 72
1
 11
-26.84999999999999
 21
46.50556418322436
 31
0.0
100
AcDbText
 73
2
  0
LINE
  5
DE
330
17
100
AcDbEntity
  8
ENGRAVE_COMPASS
100
AcDbLine
 10
-30.311381914139314
 20
48.50835110014757
 30
0.0
 11
-29.83445457632943
 21
47.74510781360679
 31
0.0
  0
LINE
  5
DF
330
17
100
AcDbEntity
  8
ENGRAVE_COMPASS
100
AcDbLine
 10
-31.98583407852671
 20
47.42094915014839
 30
0.0
 11
-31.48256046540304
 21
46.67481533484885
 31
0.0
  0
LINE
  5
E0
330
17
100
AcDbEntity
  8
ENGRAVE_COMPASS
100
AcDbLine
 10
-33.62131643112946
 20
46.275772078246995
 30
0.0
 11
-33.09230970406623
 21
45.54765678330954
 31
0.0
  0
LINE
  5
E1
330
17
100
AcDbEntity
  8
ENGRAVE_COMPASS
100
AcDbLine
 10
-35.21583638862766
 20
45.0742151063045
 30
0.0
 11
-34.661741060834565
 21
44.36500542805845
 31
0.0
  0
LINE
  5
E2
330
17
100
AcDbEntity
  8
ENGRAVE_COMPASS
100
AcDbLine
 10
-36.767451274070055
 20
43.81774214640554
 30
0.0
 11
-35.73899109857159
 21
42.59207103741518
 31
0.0
  0
LINE
  5
E3
330
17
100
AcDbEntity
  8
ENGRAVE_COMPASS
100
AcDbLine
 10
-38.27427068372669
 20
42.50788401730695
 30
0.0
 11
-37.67205313800372
 21
41.8390536743773
 31
0.0
  0
LINE
  5
E4
330
17
100
AcDbEntity
  8
ENGRAVE_COMPASS
100
AcDbLine
 10
-39.73445879025465
 20
41.14623657937084
 30
0.0
 11
-39.10926625684156
 21
40.49883075906606
 31
0.0
  0
LINE
  5
E5
330
17
100
AcDbEntity
  8
ENGRAVE_COMPASS
100
AcDbLine
 10
-41.14623657937085
 20
39.734458790254635
 30
0.0
 11
-40.49883075906607
 21
39.10926625684154
 31
0.0
  0
LINE
  5
E6
330
17
100
AcDbEntity
  8
ENGRAVE_COMPASS
100
AcDbLine
 10
-42.50788401730694
 20
38.2742706837267
 30
0.0
 11
-41.83905367437729
 21
37.672053138003726
 31
0.0
  0
LINE
  5
E7
330
17
100
AcDbEntity
  8
ENGRAVE_COMPASS
100
AcDbLine
 10
-43.817742146405536
 20
36.76745127407006
 30
0.0
 11
-42.592071037415174
 21
35.738991098571596
 31
0.0
  0
LINE
  5
E8
330
17
100
AcDbEntity
  8
ENGRAVE_COMPASS
100
AcDbLine
 10
-45.07421510630449
 20
35.215836388627665
 30
0.0
 11
-44.365005428058446
 21
34.66174106083457
 31
0.0
  0
LINE
  5
E9
330
17
100
AcDbEntity
  8
ENGRAVE_COMPASS
100
AcDbLine
 10
-46.27577207824699
 20
33.62131643112947
 30
0.0
 11
-45.54765678330954
 21
33.092309704066246
 31
0.0
  0
LINE
  5
EA
330
17
100
AcDbEntity
  8
ENGRAVE_COMPASS
100
AcDbLine
 10
-47.42094915014838
 20
31.985834078526725
 30
0.0
 11
-46.674815334848844
 21
31.482560465403054
 31
0.0
  0
LINE
  5
EB
330
17
100
AcDbEntity
  8
ENGRAVE_COMPASS
100
AcDbLine
 10
-48.508351100147564
 20
30.31138191413932
 30
0.0
 11
-47.745107813606786
 21
29.83445457632944
 31
0.0
  0
LINE
  5
EC
330
17
100
AcDbEntity
  8
ENGRAVE_COMPASS
100
AcDbLine
 10
-49.5366530964699
 20
28.599999999999998
 30
0.0
 11
-48.1510124504148
 21
27.799999999999997
 31
0.0
  0
TEXT
  5
ED
330
17
100
AcDbEntity
  8
ENGRAVE_TEXT
100
AcDbText
 10
-46.50556418322436
 20
26.849999999999998
 30
0.0
 40
3.2
  1
150°
 50
-60.0
 72
1
 11
-46.50556418322436
 21
26.849999999999998
 31
0.0
100
AcDbText
 73
2
  0
LINE
  5
EE
330
17
100
AcDbEntity
  8
ENGRAVE_COMPASS
100
AcDbLine
 10
-50.504602311530626
 20
26.85377339135295
 30
0.0
 11
-49.70994947795759
 21
26.43124898484565
 31
0.0
  0
LINE
  5
EF
330
17
100
AcDbEntity
  8
ENGRAVE_COMPASS
100
AcDbLine
 10
-51.41101944831236
 20
25.074829596335224
 30
0.0
 11
-50.602104806643105
 21
24.680295564225055
 31
0.0
  0
LINE
  5
F0
330
17
100
AcDbEntity
  8
ENGRAVE_COMPASS
100
AcDbLine
 10
-52.25480017715677
 20
23.265335983935785
 30
0.0
 11
-51.43260926527843
 21
22.899273005167565
 31
0.0
  0
LINE
  5
F1
330
17
100
AcDbEntity
  8
ENGRAVE_COMPASS
100
AcDbLine
 10
-53.034916481220236
 20
21.42749714339018
 30
0.0
 11
-52.20045101211013
 21
21.09035120931586
 31
0.0
  0
LINE
  5
F2
330
17
100
AcDbEntity
  8
ENGRAVE_COMPASS
100
AcDbLine
 10
-53.750417908953956
 20
19.563552198228262
 30
0.0
 11
-52.2469097156965
 21
19.01631996890719
 31
0.0
  0
LINE
  5
F3
330
17
100
AcDbEntity
  8
ENGRAVE_COMPASS
100
AcDbLine
 10
-54.400432732082784
 20
17.675772078246997
 30
0.0
 11
-53.54448186741715
 21
17.397656783309547
 31
0.0
  0
LINE
  5
F4
330
17
100
AcDbEntity
  8
ENGRAVE_COMPASS
100
AcDbLine
 10
-54.984169007671845
 20
15.766456752732356
 30
0.0
 11
-54.11903348132736
 21
15.518383132497057
 31
0.0
  0
LINE
  5
F5
330
17
100
AcDbEntity
  8
ENGRAVE_COMPASS
100
AcDbLine
 10
-55.500915542987
 20
13.837932428300995
 30
0.0
 11
-54.62764938933861
 21
13.620202722261293
 31
0.0
  0
LINE
  5
F6
330
17
100
AcDbEntity
  8
ENGRAVE_COMPASS
100
AcDbLine
 10
-55.95004276197369
 20
11.892548714775833
 30
0.0
 11
-55.06970992131326
 21
11.70542819303985
 31
0.0
  0
LINE
  5
F7
330
17
100
AcDbEntity
  8
ENGRAVE_COMPASS
100
AcDbLine
 10
-56.3310034722983
 20
9.932675762548412
 30
0.0
 11
-54.755311067478765
 21
9.654838678281324
 31
0.0
  0
LINE
  5
F8
330
17
100
AcDbEntity
  8
ENGRAVE_COMPASS
100
AcDbLine
 10
-56.64333353201783
 20
7.960701374915737
 30
0.0
 11
-55.75209227015041
 21
7.835445584051678
 31
0.0
  0
LINE
  5
F9
330
17
100
AcDbEntity
  8
ENGRAVE_COMPASS
100
AcDbLine
 10
-56.886652415065235
 20
5.979028098909794
 30
0.0
 11
-55.99158270923379
 21
5.884952481968906
 31
0.0
  0
LINE
  5
FA
330
17
100
AcDbEntity
  8
ENGRAVE_COMPASS
100
AcDbLine
 10
-57.06066367486195
 20
3.9900702981639804
 30
0.0
 11
-56.16285602962811
 21
3.9272894717942672
 31
0.0
  0
LINE
  5
FB
330
17
100
AcDbEntity
  8
ENGRAVE_COMPASS
100
AcDbLine
 10
-57.16515530549228
 20
1.9962512113830655
 30
0.0
 11
-56.265703561175094
 21
1.9648416643508144
 31
0.0
  0
LINE
  5
FC
330
17
100
AcDbEntity
  8
ENGRAVE_COMPASS
100
AcDbLine
 10
-57.2
 20
7.0049796911228604e-15
 30
0.0
 11
-55.6
 21
6.809036203259284e-15
 31
0.0
  0
TEXT
  5
FD
330
17
100
AcDbEntity
  8
ENGRAVE_TEXT
100
AcDbText
 10
-53.7
 20
6.5763533114212874e-15
 30
0.0
 40
3.2
  1
180°
 50
-90.0
 72
1
 11
-53.7
 21
6.5763533114212874e-15
 31
0.0
100
AcDbText
 73
2
  0
LINE
  5
FE
330
17
100
AcDbEntity
  8
ENGRAVE_COMPASS
100
AcDbLine
 10
-57.16515530549228
 20
-1.9962512113830515
 30
0.0
 11
-56.265703561175094
 21
-1.9648416643508009
 31
0.0
  0
LINE
  5
FF
330
17
100
AcDbEntity
  8
ENGRAVE_COMPASS
100
AcDbLine
 10
-57.06066367486195
 20
-3.9900702981639657
 30
0.0
 11
-56.16285602962811
 21
-3.9272894717942535
 31
0.0
  0
LINE
  5
100
330
17
100
AcDbEntity
  8
ENGRAVE_COMPASS
100
AcDbLine
 10
-56.886652415065235
 20
-5.97902809890978
 30
0.0
 11
-55.99158270923379
 21
-5.8849524819688925
 31
0.0
  0
LINE
  5
101
330
17
100
AcDbEntity
  8
ENGRAVE_COMPASS
100
AcDbLine
 10
-56.64333353201782
 20
-7.9607013749157485
 30
0.0
 11
-55.752092270150406
 21
-7.83544558405169
 31
0.0
  0
LINE
  5
102
330
17
100
AcDbEntity
  8
ENGRAVE_COMPASS
100
AcDbLine
 10
-56.3310034722983
 20
-9.932675762548424
 30
0.0
 11
-54.755311067478765
 21
-9.654838678281335
 31
0.0
  0
LINE
  5
103
330
17
100
AcDbEntity
  8
ENGRAVE_COMPASS
100
AcDbLine
 10
-55.950042761973684
 20
-11.892548714775845
 30
0.0
 11
-55.06970992131326
 21
-11.705428193039861
 31
0.0
  0
LINE
  5
104
330
17
100
AcDbEntity
  8
ENGRAVE_COMPASS
100
AcDbLine
 10
-55.500915542987
 20
-13.837932428300983
 30
0.0
 11
-54.62764938933861
 21
-13.620202722261281
 31
0.0
  0
LINE
  5
105
330
17
100
AcDbEntity
  8
ENGRAVE_COMPASS
100
AcDbLine
 10
-54.984169007671845
 20
-15.766456752732344
 30
0.0
 11
-54.11903348132736
 21
-15.518383132497044
 31
0.0
  0
LINE
  5
106
330
17
100
AcDbEntity
  8
ENGRAVE_COMPASS
100
AcDbLine
 10
-54.40043273208279
 20
-17.675772078246986
 30
0.0
 11
-53.544481867417154
 21
-17.397656783309532
 31
0.0
  0
LINE
  5
107
330
17
100
AcDbEntity
  8
ENGRAVE_COMPASS
100
AcDbLine
 10
-53.75041790895396
 20
-19.563552198228248
 30
0.0
 11
-52.24690971569651
 21
-19.01631996890718
 31
0.0
  0
LINE
  5
108
330
17
100
AcDbEntity
  8
ENGRAVE_COMPASS
100
AcDbLine
 10
-53.03491648122024
 20
-21.42749714339017
 30
0.0
 11
-52.200451012110136
 21
-21.09035120931585
 31
0.0
  0
LINE
  5
109
330
17
100
AcDbEntity
  8
ENGRAVE_COMPASS
100
AcDbLine
 10
-52.254800177156774
 20
-23.265335983935774
 30
0.0
 11
-51.43260926527843
 21
-22.899273005167554
 31
0.0
  0
LINE
  5
10A
330
17
100
AcDbEntity
  8
ENGRAVE_COMPASS
100
AcDbLine
 10
-51.41101944831235
 20
-25.07482959633523
 30
0.0
 11
-50.602104806643105
 21
-24.680295564225062
 31
0.0
  0
LINE
  5
10B
330
17
100
AcDbEntity
  8
ENGRAVE_COMPASS
100
AcDbLine
 10
-50.50460231153062
 20
-26.85377339135296
 30
0.0
 11
-49.709949477957586
 21
-26.431248984845656
 31
0.0
  0
LINE
  5
10C
330
17
100
AcDbEntity
  8
ENGRAVE_COMPASS
100
AcDbLine
 10
-49.53665309646989
 20
-28.60000000000001
 30
0.0
 11
-48.15101245041479
 21
-27.800000000000008
 31
0.0
  0
TEXT
  5
10D
330
17
100
AcDbEntity
  8
ENGRAVE_TEXT
100
AcDbText
 10
-46.50556418322436
 20
-26.85000000000001
 30
0.0
 40
3.2
  1
210°
 50
-120.0
 72
1
 11
-46.50556418322436
 21
-26.85000000000001
 31
0.0
100
AcDbText
 73
2
  0
LINE
  5
10E
330
17
100
AcDbEntity
  8
ENGRAVE_COMPASS
100
AcDbLine
 10
-48.50835110014757
 20
-30.311381914139314
 30
0.0
 11
-47.74510781360679
 21
-29.83445457632943
 31
0.0
  0
LINE
  5
10F
330
17
100
AcDbEntity
  8
ENGRAVE_COMPASS
100
AcDbLine
 10
-47.420949150148395
 20
-31.98583407852671
 30
0.0
 11
-46.67481533484886
 21
-31.48256046540304
 31
0.0
  0
LINE
  5
110
330
17
100
AcDbEntity
  8
ENGRAVE_COMPASS
100
AcDbLine
 10
-46.275772078247
 20
-33.62131643112946
 30
0.0
 11
-45.54765678330955
 21
-33.09230970406623
 31
0.0
  0
LINE
  5
111
330
17
100
AcDbEntity
  8
ENGRAVE_COMPASS
100
AcDbLine
 10
-45.0742151063045
 20
-35.21583638862765
 30
0.0
 11
-44.36500542805845
 21
-34.66174106083456
 31
0.0
  0
LINE
  5
112
330
17
100
AcDbEntity
  8
ENGRAVE_COMPASS
100
AcDbLine
 10
-43.81774214640554
 20
-36.76745127407005
 30
0.0
 11
-42.59207103741518
 21
-35.73899109857158
 31
0.0
  0
LINE
  5
113
330
17
100
AcDbEntity
  8
ENGRAVE_COMPASS
100
AcDbLine
 10
-42.50788401730695
 20
-38.27427068372669
 30
0.0
 11
-41.8390536743773
 21
-37.67205313800372
 31
0.0
  0
LINE
  5
114
330
17
100
AcDbEntity
  8
ENGRAVE_COMPASS
100
AcDbLine
 10
-41.14623657937084
 20
-39.73445879025465
 30
0.0
 11
-40.49883075906606
 21
-39.10926625684156
 31
0.0
  0
LINE
  5
115
330
17
100
AcDbEntity
  8
ENGRAVE_COMPASS
100
AcDbLine
 10
-39.73445879025464
 20
-41.14623657937085
 30
0.0
 11
-39.10926625684155
 21
-40.49883075906607
 31
0.0
  0
LINE
  5
116
330
17
100
AcDbEntity
  8
ENGRAVE_COMPASS
100
AcDbLine
 10
-38.274270683726684
 20
-42.50788401730696
 30
0.0
 11
-37.67205313800372
 21
-41.839053674377304
 31
0.0
  0
LINE
  5
117
330
17
100
AcDbEntity
  8
ENGRAVE_COMPASS
100
AcDbLine
 10
-36.76745127407006
 20
-43.817742146405536
 30
0.0
 11
-35.738991098571596
 21
-42.592071037415174
 31
0.0
  0
LINE
  5
118
330
17
100
AcDbEntity
  8
ENGRAVE_COMPASS
100
AcDbLine
 10
-35.21583638862764
 20
-45.07421510630451
 30
0.0
 11
-34.66174106083455
 21
-44.36500542805846
 31
0.0
  0
LINE
  5
119
330
17
100
AcDbEntity
  8
ENGRAVE_COMPASS
100
AcDbLine
 10
-33.62131643112947
 20
-46.27577207824699
 30
0.0
 11
-33.092309704066246
 21
-45.54765678330954
 31
0.0
  0
LINE
  5
11A
330
17
100
AcDbEntity
  8
ENGRAVE_COMPASS
100
AcDbLine
 10
-31.985834078526704
 20
-47.420949150148395
 30
0.0
 11
-31.482560465403033
 21
-46.67481533484886
 31
0.0
  0
LINE
  5
11B
330
17
100
AcDbEntity
  8
ENGRAVE_COMPASS
100
AcDbLine
 10
-30.31138191413933
 20
-48.508351100147564
 30
0.0
 11
-29.834454576329446
 21
-47.745107813606786
 31
0.0
  0
LINE
  5
11C
330
17
100
AcDbEntity
  8
ENGRAVE_COMPASS
100
AcDbLine
 10
-28.600000000000026
 20
-49.53665309646988
 30
0.0
 11
-27.800000000000026
 21
-48.151012450414775
 31
0.0
  0
TEXT
  5
11D
330
17
100
AcDbEntity
  8
ENGRAVE_TEXT
100
AcDbText
 10
-26.850000000000026
 20
-46.505564183224344
 30
0.0
 40
3.2
  1
240°
 50
-150.0
 72
1
 11
-26.850000000000026
 21
-46.505564183224344
 31
0.0
100
AcDbText
 73
2
  0
LINE
  5
11E
330
17
100
AcDbEntity
  8
ENGRAVE_COMPASS
100
AcDbLine
 10
-26.853773391352952
 20
-50.504602311530626
 30
0.0
 11
-26.431248984845652
 21
-49.70994947795759
 31
0.0
  0
LINE
  5
11F
330
17
100
AcDbEntity
  8
ENGRAVE_COMPASS
100
AcDbLine
 10
-25.07482959633525
 20
-51.411019448312345
 30
0.0
 11
-24.68029556422508
 21
-50.6021048066431
 31
0.0
  0
LINE
  5
120
330
17
100
AcDbEntity
  8
ENGRAVE_COMPASS
100
AcDbLine
 10
-23.265335983935767
 20
-52.25480017715678
 30
0.0
 11
-22.899273005167547
 21
-51.43260926527844
 31
0.0
  0
LINE
  5
121
330
17
100
AcDbEntity
  8
ENGRAVE_COMPASS
100
AcDbLine
 10
-21.427497143390184
 20
-53.034916481220236
 30
0.0
 11
-21.090351209315862
 21
-52.20045101211013
 31
0.0
  0
LINE
  5
122
330
17
100
AcDbEntity
  8
ENGRAVE_COMPASS
100
AcDbLine
 10
-19.56355219822824
 20
-53.75041790895396
 30
0.0
 11
-19.016319968907172
 21
-52.24690971569651
 31
0.0
  0
LINE
  5
123
330
17
100
AcDbEntity
  8
ENGRAVE_COMPASS
100
AcDbLine
 10
-17.675772078247
 20
-54.400432732082784
 30
0.0
 11
-17.39765678330955
 21
-53.54448186741715
 31
0.0
  0
LINE
  5
124
330
17
100
AcDbEntity
  8
ENGRAVE_COMPASS
100
AcDbLine
 10
-15.766456752732337
 20
-54.98416900767185
 30
0.0
 11
-15.51838313249704
 21
-54.119033481327364
 31
0.0
  0
LINE
  5
125
330
17
100
AcDbEntity
  8
ENGRAVE_COMPASS
100
AcDbLine
 10
-13.837932428300999
 20
-55.500915542987
 30
0.0
 11
-13.620202722261297
 21
-54.62764938933861
 31
0.0
  0
LINE
  5
126
330
17
100
AcDbEntity
  8
ENGRAVE_COMPASS
100
AcDbLine
 10
-11.89254871477586
 20
-55.950042761973684
 30
0.0
 11
-11.705428193039877
 21
-55.06970992131326
 31
0.0
  0
LINE
  5
127
330
17
100
AcDbEntity
  8
ENGRAVE_COMPASS
100
AcDbLine
 10
-9.932675762548415
 20
-56.3310034722983
 30
0.0
 11
-9.654838678281326
 21
-54.755311067478765
 31
0.0
  0
LINE
  5
128
330
17
100
AcDbEntity
  8
ENGRAVE_COMPASS
100
AcDbLine
 10
-7.960701374915765
 20
-56.64333353201782
 30
0.0
 11
-7.8354455840517065
 21
-55.752092270150406
 31
0.0
  0
LINE
  5
129
330
17
100
AcDbEntity
  8
ENGRAVE_COMPASS
100
AcDbLine
 10
-5.979028098909772
 20
-56.88665241506524
 30
0.0
 11
-5.8849524819688845
 21
-55.991582709233796
 31
0.0
  0
LINE
  5
12A
330
17
100
AcDbEntity
  8
ENGRAVE_COMPASS
100
AcDbLine
 10
-3.9900702981639835
 20
-57.06066367486195
 30
0.0
 11
-3.9272894717942703
 21
-56.16285602962811
 31
0.0
  0
LINE
  5
12B
330
17
100
AcDbEntity
  8
ENGRAVE_COMPASS
100
AcDbLine
 10
-1.9962512113830437
 20
-57.16515530549228
 30
0.0
 11
-1.964841664350793
 21
-56.265703561175094
 31
0.0
  0
LINE
  5
12C
330
17
100
AcDbEntity
  8
ENGRAVE_COMPASS
100
AcDbLine
 10
-1.050746953668429e-14
 20
-57.2
 30
0.0
 11
-1.0213554304888925e-14
 21
-55.6
 31
0.0
  0
TEXT
  5
12D
330
17
100
AcDbEntity
  8
ENGRAVE_TEXT
100
AcDbText
 10
-9.86452996713193e-15
 20
-53.7
 30
0.0
 40
3.2
  1
270°
 50
-180.0
 72
1
 11
-9.86452996713193e-15
 21
-53.7
 31
0.0
100
AcDbText
 73
2
  0
LINE
  5
12E
330
17
100
AcDbEntity
  8
ENGRAVE_COMPASS
100
AcDbLine
 10
1.9962512113830735
 20
-57.16515530549228
 30
0.0
 11
1.9648416643508222
 21
-56.265703561175094
 31
0.0
  0
LINE
  5
12F
330
17
100
AcDbEntity
  8
ENGRAVE_COMPASS
100
AcDbLine
 10
3.9900702981639626
 20
-57.06066367486196
 30
0.0
 11
3.92728947179425
 21
-56.16285602962811
 31
0.0
  0
LINE
  5
130
330
17
100
AcDbEntity
  8
ENGRAVE_COMPASS
100
AcDbLine
 10
5.979028098909751
 20
-56.88665241506524
 30
0.0
 11
5.884952481968863
 21
-55.991582709233796
 31
0.0
  0
LINE
  5
131
330
17
100
AcDbEntity
  8
ENGRAVE_COMPASS
100
AcDbLine
 10
7.960701374915745
 20
-56.64333353201783
 30
0.0
 11
7.835445584051686
 21
-55.75209227015041
 31
0.0
  0
LINE
  5
132
330
17
100
AcDbEntity
  8
ENGRAVE_COMPASS
100
AcDbLine
 10
9.932675762548396
 20
-56.331003472298306
 30
0.0
 11
9.654838678281306
 21
-54.75531106747877
 31
0.0
  0
LINE
  5
133
330
17
100
AcDbEntity
  8
ENGRAVE_COMPASS
100
AcDbLine
 10
11.89254871477584
 20
-55.950042761973684
 30
0.0
 11
11.705428193039857
 21
-55.06970992131326
 31
0.0
  0
LINE
  5
134
330
17
100
AcDbEntity
  8
ENGRAVE_COMPASS
100
AcDbLine
 10
13.837932428300979
 20
-55.50091554298701
 30
0.0
 11
13.62020272226128
 21
-54.627649389338615
 31
0.0
  0
LINE
  5
135
330
17
100
AcDbEntity
  8
ENGRAVE_COMPASS
100
AcDbLine
 10
15.766456752732365
 20
-54.98416900767184
 30
0.0
 11
15.518383132497066
 21
-54.11903348132735
 31
0.0
  0
LINE
  5
136
330
17
100
AcDbEntity
  8
ENGRAVE_COMPASS
100
AcDbLine
 10
17.675772078246982
 20
-54.40043273208279
 30
0.0
 11
17.39765678330953
 21
-53.544481867417154
 31
0.0
  0
LINE
  5
137
330
17
100
AcDbEntity
  8
ENGRAVE_COMPASS
100
AcDbLine
 10
19.56355219822827
 20
-53.750417908953956
 30
0.0
 11
19.016319968907197
 21
-52.2469097156965
 31
0.0
  0
LINE
  5
138
330
17
100
AcDbEntity
  8
ENGRAVE_COMPASS
100
AcDbLine
 10
21.427497143390166
 20
-53.03491648122024
 30
0.0
 11
21.090351209315845
 21
-52.200451012110136
 31
0.0
  0
LINE
  5
139
330
17
100
AcDbEntity
  8
ENGRAVE_COMPASS
100
AcDbLine
 10
23.26533598393575
 20
-52.25480017715679
 30
0.0
 11
22.89927300516753
 21
-51.432609265278444
 31
0.0
  0
LINE
  5
13A
330
17
100
AcDbEntity
  8
ENGRAVE_COMPASS
100
AcDbLine
 10
25.074829596335228
 20
-51.41101944831236
 30
0.0
 11
24.68029556422506
 21
-50.602104806643105
 31
0.0
  0
LINE
  5
13B
330
17
100
AcDbEntity
  8
ENGRAVE_COMPASS
100
AcDbLine
 10
26.853773391352934
 20
-50.50460231153063
 30
0.0
 11
26.43124898484563
 21
-49.7099494779576
 31
0.0
  0
LINE
  5
13C
330
17
100
AcDbEntity
  8
ENGRAVE_COMPASS
100
AcDbLine
 10
28.60000000000001
 20
-49.53665309646989
 30
0.0
 11
27.800000000000008
 21
-48.15101245041479
 31
0.0
  0
TEXT
  5
13D
330
17
100
AcDbEntity
  8
ENGRAVE_TEXT
100
AcDbText
 10
26.85000000000001
 20
-46.50556418322436
 30
0.0
 40
3.2
  1
300°
 50
-210.0
 72
1
 11
26.85000000000001
 21
-46.50556418322436
 31
0.0
100
AcDbText
 73
2
  0
LINE
  5
13E
330
17
100
AcDbEntity
  8
ENGRAVE_COMPASS
100
AcDbLine
 10
30.31138191413931
 20
-48.50835110014758
 30
0.0
 11
29.834454576329424
 21
-47.7451078136068
 31
0.0
  0
LINE
  5
13F
330
17
100
AcDbEntity
  8
ENGRAVE_COMPASS
100
AcDbLine
 10
31.985834078526732
 20
-47.42094915014838
 30
0.0
 11
31.482560465403058
 21
-46.674815334848844
 31
0.0
  0
LINE
  5
140
330
17
100
AcDbEntity
  8
ENGRAVE_COMPASS
100
AcDbLine
 10
33.62131643112945
 20
-46.275772078247
 30
0.0
 11
33.092309704066224
 21
-45.54765678330955
 31
0.0
  0
LINE
  5
141
330
17
100
AcDbEntity
  8
ENGRAVE_COMPASS
100
AcDbLine
 10
35.21583638862767
 20
-45.074215106304486
 30
0.0
 11
34.66174106083458
 21
-44.36500542805844
 31
0.0
  0
LINE
  5
142
330
17
100
AcDbEntity
  8
ENGRAVE_COMPASS
100
AcDbLine
 10
36.76745127407005
 20
-43.81774214640555
 30
0.0
 11
35.73899109857158
 21
-42.59207103741519
 31
0.0
  0
LINE
  5
143
330
17
100
AcDbEntity
  8
ENGRAVE_COMPASS
100
AcDbLine
 10
38.27427068372667
 20
-42.50788401730697
 30
0.0
 11
37.6720531380037
 21
-41.83905367437732
 31
0.0
  0
LINE
  5
144
330
17
100
AcDbEntity
  8
ENGRAVE_COMPASS
100
AcDbLine
 10
39.73445879025464
 20
-41.14623657937085
 30
0.0
 11
39.10926625684155
 21
-40.49883075906607
 31
0.0
  0
LINE
  5
145
330
17
100
AcDbEntity
  8
ENGRAVE_COMPASS
100
AcDbLine
 10
41.14623657937083
 20
-39.73445879025466
 30
0.0
 11
40.498830759066045
 21
-39.109266256841565
 31
0.0
  0
LINE
  5
146
330
17
100
AcDbEntity
  8
ENGRAVE_COMPASS
100
AcDbLine
 10
42.50788401730695
 20
-38.274270683726684
 30
0.0
 11
41.8390536743773
 21
-37.67205313800372
 31
0.0
  0
LINE
  5
147
330
17
100
AcDbEntity
  8
ENGRAVE_COMPASS
100
AcDbLine
 10
43.81774214640553
 20
-36.76745127407007
 30
0.0
 11
42.59207103741517
 21
-35.7389910985716
 31
0.0
  0
LINE
  5
148
330
17
100
AcDbEntity
  8
ENGRAVE_COMPASS
100
AcDbLine
 10
45.0742151063045
 20
-35.21583638862765
 30
0.0
 11
44.36500542805845
 21
-34.66174106083456
 31
0.0
  0
LINE
  5
149
330
17
100
AcDbEntity
  8
ENGRAVE_COMPASS
100
AcDbLine
 10
46.27577207824699
 20
-33.62131643112948
 30
0.0
 11
45.54765678330954
 21
-33.09230970406625
 31
0.0
  0
LINE
  5
14A
330
17
100
AcDbEntity
  8
ENGRAVE_COMPASS
100
AcDbLine
 10
47.420949150148395
 20
-31.985834078526704
 30
0.0
 11
46.67481533484886
 21
-31.482560465403033
 31
0.0
  0
LINE
  5
14B
330
17
100
AcDbEntity
  8
ENGRAVE_COMPASS
100
AcDbLine
 10
48.508351100147564
 20
-30.31138191413933
 30
0.0
 11
47.745107813606786
 21
-29.834454576329446
 31
0.0
  0
LINE
  5
14C
330
17
100
AcDbEntity
  8
ENGRAVE_COMPASS
100
AcDbLine
 10
49.53665309646988
 20
-28.600000000000026
 30
0.0
 11
48.151012450414775
 21
-27.800000000000026
 31
0.0
  0
TEXT
  5
14D
330
17
100
AcDbEntity
  8
ENGRAVE_TEXT
100
AcDbText
 10
46.505564183224344
 20
-26.850000000000026
 30
0.0
 40
3.2
  1
330°
 50
-240.0
 72
1
 11
46.505564183224344
 21
-26.850000000000026
 31
0.0
100
AcDbText
 73
2
  0
LINE
  5
14E
330
17
100
AcDbEntity
  8
ENGRAVE_COMPASS
100
AcDbLine
 10
50.50460231153062
 20
-26.853773391352956
 30
0.0
 11
49.709949477957586
 21
-26.431248984845656
 31
0.0
  0
LINE
  5
14F
330
17
100
AcDbEntity
  8
ENGRAVE_COMPASS
100
AcDbLine
 10
51.411019448312345
 20
-25.074829596335253
 30
0.0
 11
50.6021048066431
 21
-24.68029556422508
 31
0.0
  0
LINE
  5
150
330
17
100
AcDbEntity
  8
ENGRAVE_COMPASS
100
AcDbLine
 10
52.25480017715678
 20
-23.26533598393577
 30
0.0
 11
51.43260926527844
 21
-22.89927300516755
 31
0.0
  0
LINE
  5
151
330
17
100
AcDbEntity
  8
ENGRAVE_COMPASS
100
AcDbLine
 10
53.034916481220236
 20
-21.427497143390188
 30
0.0
 11
52.20045101211013
 21
-21.090351209315866
 31
0.0
  0
LINE
  5
152
330
17
100
AcDbEntity
  8
ENGRAVE_COMPASS
100
AcDbLine
 10
53.75041790895396
 20
-19.563552198228244
 30
0.0
 11
52.24690971569651
 21
-19.016319968907176
 31
0.0
  0
LINE
  5
153
330
17
100
AcDbEntity
  8
ENGRAVE_COMPASS
100
AcDbLine
 10
54.400432732082784
 20
-17.675772078247004
 30
0.0
 11
53.54448186741715
 21
-17.397656783309554
 31
0.0
  0
LINE
  5
154
330
17
100
AcDbEntity
  8
ENGRAVE_COMPASS
100
AcDbLine
 10
54.984169007671845
 20
-15.76645675273234
 30
0.0
 11
54.11903348132736
 21
-15.518383132497041
 31
0.0
  0
LINE
  5
155
330
17
100
AcDbEntity
  8
ENGRAVE_COMPASS
100
AcDbLine
 10
55.500915542987
 20
-13.837932428301002
 30
0.0
 11
54.62764938933861
 21
-13.620202722261302
 31
0.0
  0
LINE
  5
156
330
17
100
AcDbEntity
  8
ENGRAVE_COMPASS
100
AcDbLine
 10
55.950042761973684
 20
-11.892548714775865
 30
0.0
 11
55.06970992131326
 21
-11.705428193039882
 31
0.0
  0
LINE
  5
157
330
17
100
AcDbEntity
  8
ENGRAVE_COMPASS
100
AcDbLine
 10
56.3310034722983
 20
-9.932675762548419
 30
0.0
 11
54.755311067478765
 21
-9.65483867828133
 31
0.0
  0
LINE
  5
158
330
17
100
AcDbEntity
  8
ENGRAVE_COMPASS
100
AcDbLine
 10
56.64333353201782
 20
-7.960701374915769
 30
0.0
 11
55.752092270150406
 21
-7.83544558405171
 31
0.0
  0
LINE
  5
159
330
17
100
AcDbEntity
  8
ENGRAVE_COMPASS
100
AcDbLine
 10
56.886652415065235
 20
-5.979028098909776
 30
0.0
 11
55.99158270923379
 21
-5.884952481968888
 31
0.0
  0
LINE
  5
15A
330
17
100
AcDbEntity
  8
ENGRAVE_COMPASS
100
AcDbLine
 10
57.06066367486195
 20
-3.9900702981639866
 30
0.0
 11
56.16285602962811
 21
-3.9272894717942735
 31
0.0
  0
LINE
  5
15B
330
17
100
AcDbEntity
  8
ENGRAVE_COMPASS
100
AcDbLine
 10
57.16515530549228
 20
-1.9962512113830473
 30
0.0
 11
56.265703561175094
 21
-1.9648416643507964
 31
0.0
  0
CIRCLE
  5
15C
330
17
100
AcDbEntity
  8
ENGRAVE_AWA
100
AcDbCircle
 10
0.0
 20
0.0
 30
0.0
 40
47.8
  0
LINE
  5
15D
330
17
100
AcDbEntity
  8
ENGRAVE_AWA
100
AcDbLine
 10
14.879100584478719
 20
45.42523930368407
 30
0.0
 11
15.122208033212422
 21
46.80397015790116
 31
0.0
  0
LINE
  5
15E
330
17
100
AcDbEntity
  8
ENGRAVE_AWA
100
AcDbLine
 10
-14.879100584478719
 20
45.42523930368407
 30
0.0
 11
-15.122208033212422
 21
46.80397015790116
 31
0.0
  0
LINE
  5
15F
330
17
100
AcDbEntity
  8
ENGRAVE_AWA
100
AcDbLine
 10
17.717345003930017
 20
44.39522143217349
 30
0.0
 11
17.862883187502447
 21
45.079924752687155
 31
0.0
  0
LINE
  5
160
330
17
100
AcDbEntity
  8
ENGRAVE_AWA
100
AcDbLine
 10
-17.717345003930017
 20
44.39522143217349
 30
0.0
 11
-17.862883187502447
 21
45.079924752687155
 31
0.0
  0
LINE
  5
161
330
17
100
AcDbEntity
  8
ENGRAVE_AWA
100
AcDbLine
 10
20.481767594096706
 20
43.18954961818206
 30
0.0
 11
20.651112921016473
 21
43.86875662657526
 31
0.0
  0
LINE
  5
162
330
17
100
AcDbEntity
  8
ENGRAVE_AWA
100
AcDbLine
 10
-20.481767594096706
 20
43.18954961818206
 30
0.0
 11
-20.651112921016473
 21
43.86875662657526
 31
0.0
  0
LINE
  5
163
330
17
100
AcDbEntity
  8
ENGRAVE_AWA
100
AcDbLine
 10
23.161073565529705
 20
41.81392915395681
 30
0.0
 11
23.354019714601606
 21
42.486812341113634
 31
0.0
  0
LINE
  5
164
330
17
100
AcDbEntity
  8
ENGRAVE_AWA
100
AcDbLine
 10
-23.161073565529705
 20
41.81392915395681
 30
0.0
 11
-23.354019714601606
 21
42.486812341113634
 31
0.0
  0
LINE
  5
165
330
17
100
AcDbEntity
  8
ENGRAVE_AWA
100
AcDbLine
 10
25.74442587018082
 20
40.274862341350875
 30
0.0
 11
25.960737766243284
 21
40.940601902757486
 31
0.0
  0
LINE
  5
166
330
17
100
AcDbEntity
  8
ENGRAVE_AWA
100
AcDbLine
 10
-25.74442587018082
 20
40.274862341350875
 30
0.0
 11
-25.960737766243284
 21
40.940601902757486
 31
0.0
  0
LINE
  5
167
330
17
100
AcDbEntity
  8
ENGRAVE_AWA
100
AcDbLine
 10
28.221505031660854
 20
38.57961448417988
 30
0.0
 11
28.70033323231679
 21
39.89518415328015
 31
0.0
  0
TEXT
  5
168
330
17
100
AcDbEntity
  8
ENGRAVE_TEXT
100
AcDbText
 10
29.281767475970426
 20
41.492661608616196
 30
0.0
 40
2.8
  1
20°
 50
19.999999999999986
 72
1
 11
29.281767475970426
 21
41.492661608616196
 31
0.0
100
AcDbText
 73
2
  0
LINE
  5
169
330
17
100
AcDbEntity
  8
ENGRAVE_AWA
100
AcDbLine
 10
-28.221505031660854
 20
38.57961448417988
 30
0.0
 11
-28.70033323231679
 21
39.89518415328015
 31
0.0
  0
LINE
  5
16A
330
17
100
AcDbEntity
  8
ENGRAVE_AWA
100
AcDbLine
 10
30.58256681266326
 20
36.73617572841501
 30
0.0
 11
30.844791428054396
 21
37.385204426611764
 31
0.0
  0
LINE
  5
16B
330
17
100
AcDbEntity
  8
ENGRAVE_AWA
100
AcDbLine
 10
-30.58256681266326
 20
36.73617572841501
 30
0.0
 11
-30.844791428054396
 21
37.385204426611764
 31
0.0
  0
LINE
  5
16C
330
17
100
AcDbEntity
  8
ENGRAVE_AWA
100
AcDbLine
 10
32.81849748567101
 20
34.7532188837668
 30
0.0
 11
33.10321313582407
 21
35.39270070411662
 31
0.0
  0
LINE
  5
16D
330
17
100
AcDbEntity
  8
ENGRAVE_AWA
100
AcDbLine
 10
-32.81849748567101
 20
34.7532188837668
 30
0.0
 11
-33.10321313582407
 21
35.39270070411662
 31
0.0
  0
LINE
  5
16E
330
17
100
AcDbEntity
  8
ENGRAVE_AWA
100
AcDbLine
 10
34.92086648402136
 20
32.64005337013335
 30
0.0
 11
35.227726286773716
 21
33.26920920254277
 31
0.0
  0
LINE
  5
16F
330
17
100
AcDbEntity
  8
ENGRAVE_AWA
100
AcDbLine
 10
-34.92086648402136
 20
32.64005337013335
 30
0.0
 11
-35.227726286773716
 21
33.26920920254277
 31
0.0
  0
LINE
  5
170
330
17
100
AcDbEntity
  8
ENGRAVE_AWA
100
AcDbLine
 10
36.881976221312726
 20
30.406575440363603
 30
0.0
 11
37.21060631526285
 21
31.02463875536485
 31
0.0
  0
LINE
  5
171
330
17
100
AcDbEntity
  8
ENGRAVE_AWA
100
AcDbLine
 10
-36.881976221312726
 20
30.406575440363603
 30
0.0
 11
-37.21060631526285
 21
31.02463875536485
 31
0.0
  0
LINE
  5
172
330
17
100
AcDbEntity
  8
ENGRAVE_AWA
100
AcDbLine
 10
38.694908877435196
 20
28.063214836632433
 30
0.0
 11
39.3949088774352
 21
29.275650401930648
 31
0.0
  0
LINE
  5
173
330
17
100
AcDbEntity
  8
ENGRAVE_AWA
100
AcDbLine
 10
-38.694908877435196
 20
28.063214836632433
 30
0.0
 11
-39.3949088774352
 21
29.275650401930648
 31
0.0
  0
LINE
  5
174
330
17
100
AcDbEntity
  8
ENGRAVE_AWA
100
AcDbLine
 10
40.353569958474495
 20
25.62087804128702
 30
0.0
 11
40.724513443437736
 21
26.21451170859652
 31
0.0
  0
LINE
  5
175
330
17
100
AcDbEntity
  8
ENGRAVE_AWA
100
AcDbLine
 10
-40.353569958474495
 20
25.62087804128702
 30
0.0
 11
-40.724513443437736
 21
26.21451170859652
 31
0.0
  0
LINE
  5
176
330
17
100
AcDbEntity
  8
ENGRAVE_AWA
100
AcDbLine
 10
41.85272844447006
 20
23.0908882842009
 30
0.0
 11
42.24416347689958
 21
23.67121458498943
 31
0.0
  0
LINE
  5
177
330
17
100
AcDbEntity
  8
ENGRAVE_AWA
100
AcDbLine
 10
-41.85272844447006
 20
23.0908882842009
 30
0.0
 11
-42.24416347689958
 21
23.67121458498943
 31
0.0
  0
LINE
  5
178
330
17
100
AcDbEntity
  8
ENGRAVE_AWA
100
AcDbLine
 10
43.18805334236434
 20
20.484922467441578
 30
0.0
 11
43.599503018969074
 21
21.05123436350404
 31
0.0
  0
LINE
  5
179
330
17
100
AcDbEntity
  8
ENGRAVE_AWA
100
AcDbLine
 10
-43.18805334236434
 20
20.484922467441578
 30
0.0
 11
-43.599503018969074
 21
21.05123436350404
 31
0.0
  0
LINE
  5
17A
330
17
100
AcDbEntity
  8
ENGRAVE_AWA
100
AcDbLine
 10
44.3561464600432
 20
17.814945164529604
 30
0.0
 11
44.78710949277116
 21
18.36655269205431
 31
0.0
  0
LINE
  5
17B
330
17
100
AcDbEntity
  8
ENGRAVE_AWA
100
AcDbLine
 10
-44.3561464600432
 20
17.814945164529604
 30
0.0
 11
-44.78710949277116
 21
18.36655269205431
 31
0.0
  0
LINE
  5
17C
330
17
100
AcDbEntity
  8
ENGRAVE_AWA
100
AcDbLine
 10
45.354571209395054
 20
15.093139846033147
 30
0.0
 11
46.25447386295621
 21
16.165602066399714
 31
0.0
  0
TEXT
  5
17D
330
17
100
AcDbEntity
  8
ENGRAVE_TEXT
100
AcDbText
 10
47.347212799423325
 20
17.46787761970198
 30
0.0
 40
2.8
  1
40°
 50
39.99999999999999
 72
1
 11
47.347212799423325
 21
17.46787761970198
 31
0.0
100
AcDbText
 73
2
  0
LINE
  5
17E
330
17
100
AcDbEntity
  8
ENGRAVE_AWA
100
AcDbLine
 10
-45.354571209395054
 20
15.093139846033147
 30
0.0
 11
-46.25447386295621
 21
16.165602066399714
 31
0.0
  0
LINE
  5
17F
330
17
100
AcDbEntity
  8
ENGRAVE_AWA
100
AcDbLine
 10
46.18187722969675
 20
12.331837476273215
 30
0.0
 11
46.65026865414795
 21
12.852038854107391
 31
0.0
  0
LINE
  5
180
330
17
100
AcDbEntity
  8
ENGRAVE_AWA
100
AcDbLine
 10
-46.18187722969675
 20
12.331837476273215
 30
0.0
 11
-46.65026865414795
 21
12.852038854107391
 31
0.0
  0
LINE
  5
181
330
17
100
AcDbEntity
  8
ENGRAVE_AWA
100
AcDbLine
 10
46.83762059485999
 20
9.543442618465683
 30
0.0
 11
47.32388145418129
 21
10.04698047870274
 31
0.0
  0
LINE
  5
182
330
17
100
AcDbEntity
  8
ENGRAVE_AWA
100
AcDbLine
 10
-46.83762059485999
 20
9.543442618465683
 30
0.0
 11
-47.32388145418129
 21
10.04698047870274
 31
0.0
  0
LINE
  5
183
330
17
100
AcDbEntity
  8
ENGRAVE_AWA
100
AcDbLine
 10
47.32237932624504
 20
6.740357179183846
 30
0.0
 11
47.825917186482094
 21
7.226618038505144
 31
0.0
  0
LINE
  5
184
330
17
100
AcDbEntity
  8
ENGRAVE_AWA
100
AcDbLine
 10
-47.32237932624504
 20
6.740357179183846
 30
0.0
 11
-47.825917186482094
 21
7.226618038505144
 31
0.0
  0
LINE
  5
185
330
17
100
AcDbEntity
  8
ENGRAVE_AWA
100
AcDbLine
 10
47.637763873648716
 20
3.9349019198055046
 30
0.0
 11
48.15796525148289
 21
4.4032933442567055
 31
0.0
  0
LINE
  5
186
330
17
100
AcDbEntity
  8
ENGRAVE_AWA
100
AcDbLine
 10
-47.637763873648716
 20
3.9349019198055046
 30
0.0
 11
-48.15796525148289
 21
4.4032933442567055
 31
0.0
  0
LINE
  5
187
330
17
100
AcDbEntity
  8
ENGRAVE_AWA
100
AcDbLine
 10
47.78642214732287
 20
1.1392358657670911
 30
0.0
 11
48.858884367689434
 21
2.039138519328246
 31
0.0
  0
LINE
  5
188
330
17
100
AcDbEntity
  8
ENGRAVE_AWA
100
AcDbLine
 10
-47.78642214732287
 20
1.1392358657670911
 30
0.0
 11
-48.858884367689434
 21
2.0391385193282465
 31
0.0
  0
LINE
  5
189
330
17
100
AcDbEntity
  8
ENGRAVE_AWA
100
AcDbLine
 10
47.7720385802708
 20
-1.634726241643385
 30
0.0
 11
48.323646107795504
 21
-1.2037632089154242
 31
0.0
  0
LINE
  5
18A
330
17
100
AcDbEntity
  8
ENGRAVE_AWA
100
AcDbLine
 10
-47.7720385802708
 20
-1.634726241643385
 30
0.0
 11
-48.323646107795504
 21
-1.203763208915424
 31
0.0
  0
LINE
  5
18B
330
17
100
AcDbEntity
  8
ENGRAVE_AWA
100
AcDbLine
 10
47.59932657011826
 20
-4.375398275726873
 30
0.0
 11
48.165638466180724
 21
-3.963948599122142
 31
0.0
  0
LINE
  5
18C
330
17
100
AcDbEntity
  8
ENGRAVE_AWA
100
AcDbLine
 10
-47.59932657011826
 20
-4.375398275726873
 30
0.0
 11
-48.165638466180724
 21
-3.963948599122142
 31
0.0
  0
LINE
  5
18D
330
17
100
AcDbEntity
  8
ENGRAVE_AWA
100
AcDbLine
 10
47.274013492686215
 20
-7.071608607192697
 30
0.0
 11
47.85433979347474
 21
-6.680173574763175
 31
0.0
  0
LINE
  5
18E
330
17
100
AcDbEntity
  8
ENGRAVE_AWA
100
AcDbLine
 10
-47.274013492686215
 20
-7.071608607192697
 30
0.0
 11
-47.85433979347474
 21
-6.680173574763175
 31
0.0
  0
LINE
  5
18F
330
17
100
AcDbEntity
  8
ENGRAVE_AWA
100
AcDbLine
 10
46.802817297029215
 20
-9.712687221408029
 30
0.0
 11
47.39645096433871
 21
-9.341743736444785
 31
0.0
  0
LINE
  5
190
330
17
100
AcDbEntity
  8
ENGRAVE_AWA
100
AcDbLine
 10
-46.802817297029215
 20
-9.712687221408029
 30
0.0
 11
-47.39645096433871
 21
-9.341743736444785
 31
0.0
  0
LINE
  5
191
330
17
100
AcDbEntity
  8
ENGRAVE_AWA
100
AcDbLine
 10
46.19341349086905
 20
-12.288553619592392
 30
0.0
 11
47.40584905616726
 21
-11.588553619592393
 31
0.0
  0
TEXT
  5
192
330
17
100
AcDbEntity
  8
ENGRAVE_TEXT
100
AcDbText
 10
48.87809224260081
 20
-10.738553619592391
 30
0.0
 40
2.8
  1
60°
 50
59.999999999999986
 72
1
 11
48.87809224260081
 21
-10.738553619592391
 31
0.0
100
AcDbText
 73
2
  0
LINE
  5
193
330
17
100
AcDbEntity
  8
ENGRAVE_AWA
100
AcDbLine
 10
-46.19341349086905
 20
-12.288553619592392
 30
0.0
 11
-47.40584905616726
 21
-11.588553619592393
 31
0.0
  0
LINE
  5
194
330
17
100
AcDbEntity
  8
ENGRAVE_AWA
100
AcDbLine
 10
45.45439111977451
 20
-14.789804864519457
 30
0.0
 11
46.072454434775764
 21
-14.461174770569334
 31
0.0
  0
LINE
  5
195
330
17
100
AcDbEntity
  8
ENGRAVE_AWA
100
AcDbLine
 10
-45.45439111977451
 20
-14.789804864519457
 30
0.0
 11
-46.072454434775764
 21
-14.461174770569334
 31
0.0
  0
LINE
  5
196
330
17
100
AcDbEntity
  8
ENGRAVE_AWA
100
AcDbLine
 10
44.595196156524715
 20
-17.20780287430918
 30
0.0
 11
45.22435198893413
 21
-16.900943071556828
 31
0.0
  0
LINE
  5
197
330
17
100
AcDbEntity
  8
ENGRAVE_AWA
100
AcDbLine
 10
-44.595196156524715
 20
-17.20780287430918
 30
0.0
 11
-45.22435198893413
 21
-16.900943071556828
 31
0.0
  0
LINE
  5
198
330
17
100
AcDbEntity
  8
ENGRAVE_AWA
100
AcDbLine
 10
43.62606058461869
 20
-19.534759734053004
 30
0.0
 11
44.265542404968514
 21
-19.250044083899944
 31
0.0
  0
LINE
  5
199
330
17
100
AcDbEntity
  8
ENGRAVE_AWA
100
AcDbLine
 10
-43.62606058461869
 20
-19.534759734053004
 30
0.0
 11
-44.265542404968514
 21
-19.250044083899944
 31
0.0
  0
LINE
  5
19A
330
17
100
AcDbEntity
  8
ENGRAVE_AWA
100
AcDbLine
 10
42.55791543190283
 20
-21.763819381969864
 30
0.0
 11
43.20694413009958
 21
-21.501594766578727
 31
0.0
  0
LINE
  5
19B
330
17
100
AcDbEntity
  8
ENGRAVE_AWA
100
AcDbLine
 10
-42.55791543190283
 20
-21.763819381969864
 30
0.0
 11
-43.20694413009958
 21
-21.501594766578727
 31
0.0
  0
LINE
  5
19C
330
17
100
AcDbEntity
  8
ENGRAVE_AWA
100
AcDbLine
 10
41.40228615095906
 20
-23.889133543812417
 30
0.0
 11
42.71785582005933
 21
-23.41030534315648
 31
0.0
  0
LINE
  5
19D
330
17
100
AcDbEntity
  8
ENGRAVE_AWA
100
AcDbLine
 10
-41.40228615095906
 20
-23.889133543812417
 30
0.0
 11
-42.71785582005933
 21
-23.41030534315648
 31
0.0
  0
LINE
  5
19E
330
17
100
AcDbEntity
  8
ENGRAVE_AWA
100
AcDbLine
 10
40.1711691266304
 20
-25.90592926338788
 30
0.0
 11
40.83690868803701
 21
-25.689617367325415
 31
0.0
  0
LINE
  5
19F
330
17
100
AcDbEntity
  8
ENGRAVE_AWA
100
AcDbLine
 10
-40.1711691266304
 20
-25.90592926338788
 30
0.0
 11
-40.83690868803701
 21
-25.689617367325415
 31
0.0
  0
LINE
  5
1A0
330
17
100
AcDbEntity
  8
ENGRAVE_AWA
100
AcDbLine
 10
38.87688879274702
 20
-27.810564859354816
 30
0.0
 11
39.54977197990384
 21
-27.617618710282915
 31
0.0
  0
LINE
  5
1A1
330
17
100
AcDbEntity
  8
ENGRAVE_AWA
100
AcDbLine
 10
-38.87688879274702
 20
-27.810564859354816
 30
0.0
 11
-39.54977197990384
 21
-27.617618710282915
 31
0.0
  0
LINE
  5
1A2
330
17
100
AcDbEntity
  8
ENGRAVE_AWA
100
AcDbLine
 10
37.53193591807084
 20
-29.600570708042497
 30
0.0
 11
38.21114292646404
 21
-29.43122538112273
 31
0.0
  0
LINE
  5
1A3
330
17
100
AcDbEntity
  8
ENGRAVE_AWA
100
AcDbLine
 10
-37.53193591807084
 20
-29.600570708042497
 30
0.0
 11
-38.21114292646404
 21
-29.43122538112273
 31
0.0
  0
LINE
  5
1A4
330
17
100
AcDbEntity
  8
ENGRAVE_AWA
100
AcDbLine
 10
36.1487890930239
 20
-31.274671015185373
 30
0.0
 11
36.83349241353756
 21
-31.129132831612942
 31
0.0
  0
LINE
  5
1A5
330
17
100
AcDbEntity
  8
ENGRAVE_AWA
100
AcDbLine
 10
-36.1487890930239
 20
-31.274671015185373
 30
0.0
 11
-36.83349241353756
 21
-31.129132831612942
 31
0.0
  0
LINE
  5
1A6
330
17
100
AcDbEntity
  8
ENGRAVE_AWA
100
AcDbLine
 10
34.73972326167386
 20
-32.83278281995476
 30
0.0
 11
36.11845411589095
 21
-32.589675371221055
 31
0.0
  0
TEXT
  5
1A7
330
17
100
AcDbEntity
  8
ENGRAVE_TEXT
100
AcDbText
 10
37.7926272960117
 20
-32.294473469187274
 30
0.0
 40
2.8
  1
80°
 50
80.0
 72
1
 11
37.7926272960117
 21
-32.294473469187274
 31
0.0
100
AcDbText
 73
2
  0
LINE
  5
1A8
330
17
100
AcDbEntity
  8
ENGRAVE_AWA
100
AcDbLine
 10
-34.73972326167386
 20
-32.83278281995476
 30
0.0
 11
-36.11845411589095
 21
-32.589675371221055
 31
0.0
  0
LINE
  5
1A9
330
17
100
AcDbEntity
  8
ENGRAVE_AWA
100
AcDbLine
 10
33.31661115072314
 20
-34.2759889927557
 30
0.0
 11
34.00979879884224
 21
-34.17856782208366
 31
0.0
  0
LINE
  5
1AA
330
17
100
AcDbEntity
  8
ENGRAVE_AWA
100
AcDbLine
 10
-33.31661115072314
 20
-34.2759889927557
 30
0.0
 11
-34.00979879884224
 21
-34.17856782208366
 31
0.0
  0
LINE
  5
1AB
330
17
100
AcDbEntity
  8
ENGRAVE_AWA
100
AcDbLine
 10
31.89072539700723
 20
-35.6064830284132
 30
0.0
 11
32.58689072376502
 21
-35.533313104125845
 31
0.0
  0
LINE
  5
1AC
330
17
100
AcDbEntity
  8
ENGRAVE_AWA
100
AcDbLine
 10
-31.89072539700723
 20
-35.6064830284132
 30
0.0
 11
-32.58689072376502
 21
-35.533313104125845
 31
0.0
  0
LINE
  5
1AD
330
17
100
AcDbEntity
  8
ENGRAVE_AWA
100
AcDbLine
 10
30.47255072855967
 20
-36.82748500909826
 30
0.0
 11
31.170845563741548
 21
-36.77865547747737
 31
0.0
  0
LINE
  5
1AE
330
17
100
AcDbEntity
  8
ENGRAVE_AWA
100
AcDbLine
 10
-30.47255072855967
 20
-36.82748500909826
 30
0.0
 11
-31.170845563741548
 21
-36.77865547747737
 31
0.0
  0
LINE
  5
1AF
330
17
100
AcDbEntity
  8
ENGRAVE_AWA
100
AcDbLine
 10
29.071616340871977
 20
-37.943130120341216
 30
0.0
 11
29.771189919785343
 21
-37.91870047264946
 31
0.0
  0
LINE
  5
1B0
330
17
100
AcDbEntity
  8
ENGRAVE_AWA
100
AcDbLine
 10
-29.071616340871977
 20
-37.943130120341216
 30
0.0
 11
-29.771189919785343
 21
-37.91870047264946
 31
0.0
  0
LINE
  5
1B1
330
17
100
AcDbEntity
  8
ENGRAVE_AWA
100
AcDbLine
 10
27.69635831456707
 20
-38.958333333333336
 30
0.0
 11
29.09635831456707
 21
-38.958333333333336
 31
0.0
  0
LINE
  5
1B2
330
17
100
AcDbEntity
  8
ENGRAVE_AWA
100
AcDbLine
 10
-27.69635831456707
 20
-38.958333333333336
 30
0.0
 11
-29.09635831456707
 21
-38.958333333333336
 31
0.0
  0
LINE
  5
1B3
330
17
100
AcDbEntity
  8
ENGRAVE_AWA
100
AcDbLine
 10
26.354020384590424
 20
-39.87863600436444
 30
0.0
 11
27.05359396350379
 21
-39.90306565205619
 31
0.0
  0
LINE
  5
1B4
330
17
100
AcDbEntity
  8
ENGRAVE_AWA
100
AcDbLine
 10
-26.354020384590424
 20
-39.87863600436444
 30
0.0
 11
-27.05359396350379
 21
-39.90306565205619
 31
0.0
  0
LINE
  5
1B5
330
17
100
AcDbEntity
  8
ENGRAVE_AWA
100
AcDbLine
 10
25.05059867032379
 20
-40.71004183562542
 30
0.0
 11
25.748893505505666
 21
-40.75887136724631
 31
0.0
  0
LINE
  5
1B6
330
17
100
AcDbEntity
  8
ENGRAVE_AWA
100
AcDbLine
 10
-25.05059867032379
 20
-40.71004183562542
 30
0.0
 11
-25.748893505505666
 21
-40.75887136724631
 31
0.0
  0
LINE
  5
1B7
330
17
100
AcDbEntity
  8
ENGRAVE_AWA
100
AcDbLine
 10
23.79083244223202
 20
-41.45885058350798
 30
0.0
 11
24.486997768989813
 21
-41.53202050779534
 31
0.0
  0
LINE
  5
1B8
330
17
100
AcDbEntity
  8
ENGRAVE_AWA
100
AcDbLine
 10
-23.79083244223202
 20
-41.45885058350798
 30
0.0
 11
-24.486997768989813
 21
-41.53202050779534
 31
0.0
  0
LINE
  5
1B9
330
17
100
AcDbEntity
  8
ENGRAVE_AWA
100
AcDbLine
 10
22.578239163685883
 20
-42.13149791150797
 30
0.0
 11
23.271426811804982
 21
-42.22891908218001
 31
0.0
  0
LINE
  5
1BA
330
17
100
AcDbEntity
  8
ENGRAVE_AWA
100
AcDbLine
 10
-22.578239163685883
 20
-42.13149791150797
 30
0.0
 11
-23.271426811804982
 21
-42.22891908218001
 31
0.0
  0
LINE
  5
1BB
330
17
100
AcDbEntity
  8
ENGRAVE_AWA
100
AcDbLine
 10
21.415188511278007
 20
-42.73440886482959
 30
0.0
 11
22.7939193654951
 21
-42.97751631356329
 31
0.0
  0
TEXT
  5
1BC
330
17
100
AcDbEntity
  8
ENGRAVE_TEXT
100
AcDbText
 10
24.468092545615853
 20
-43.272718215597074
 30
0.0
 40
2.8
  1
100°
 50
99.99999999999999
 72
1
 11
24.468092545615853
 21
-43.272718215597074
 31
0.0
100
AcDbText
 73
2
  0
LINE
  5
1BD
330
17
100
AcDbEntity
  8
ENGRAVE_AWA
100
AcDbLine
 10
-21.415188511278007
 20
-42.73440886482959
 30
0.0
 11
-22.7939193654951
 21
-42.97751631356329
 31
0.0
  0
LINE
  5
1BE
330
17
100
AcDbEntity
  8
ENGRAVE_AWA
100
AcDbLine
 10
20.303007373195847
 20
-43.27387077214095
 30
0.0
 11
20.98771069370951
 21
-43.419408955713386
 31
0.0
  0
LINE
  5
1BF
330
17
100
AcDbEntity
  8
ENGRAVE_AWA
100
AcDbLine
 10
-20.303007373195847
 20
-43.27387077214095
 30
0.0
 11
-20.98771069370951
 21
-43.419408955713386
 31
0.0
  0
LINE
  5
1C0
330
17
100
AcDbEntity
  8
ENGRAVE_AWA
100
AcDbLine
 10
19.24210628453718
 20
-43.75592926375321
 30
0.0
 11
19.92131329293038
 21
-43.92527459067298
 31
0.0
  0
LINE
  5
1C1
330
17
100
AcDbEntity
  8
ENGRAVE_AWA
100
AcDbLine
 10
-19.24210628453718
 20
-43.75592926375321
 30
0.0
 11
-19.92131329293038
 21
-43.92527459067298
 31
0.0
  0
LINE
  5
1C2
330
17
100
AcDbEntity
  8
ENGRAVE_AWA
100
AcDbLine
 10
18.23211745699508
 20
-44.18630888673928
 30
0.0
 11
18.905000644151905
 21
-44.379255035811184
 31
0.0
  0
LINE
  5
1C3
330
17
100
AcDbEntity
  8
ENGRAVE_AWA
100
AcDbLine
 10
-18.23211745699508
 20
-44.18630888673928
 30
0.0
 11
-18.905000644151905
 21
-44.379255035811184
 31
0.0
  0
LINE
  5
1C4
330
17
100
AcDbEntity
  8
ENGRAVE_AWA
100
AcDbLine
 10
17.272035339402795
 20
-44.57035780913611
 30
0.0
 11
17.9377749008094
 21
-44.78666970519858
 31
0.0
  0
LINE
  5
1C5
330
17
100
AcDbEntity
  8
ENGRAVE_AWA
100
AcDbLine
 10
-17.272035339402795
 20
-44.57035780913611
 30
0.0
 11
-17.9377749008094
 21
-44.78666970519858
 31
0.0
  0
LINE
  5
1C6
330
17
100
AcDbEntity
  8
ENGRAVE_AWA
100
AcDbLine
 10
16.360352190254286
 20
-44.91301455269777
 30
0.0
 11
17.675921859354556
 21
-45.3918427533537
 31
0.0
  0
LINE
  5
1C7
330
17
100
AcDbEntity
  8
ENGRAVE_AWA
100
AcDbLine
 10
-16.360352190254286
 20
-44.91301455269777
 30
0.0
 11
-17.675921859354556
 21
-45.39184275335371
 31
0.0
  0
LINE
  5
1C8
330
17
100
AcDbEntity
  8
ENGRAVE_AWA
100
AcDbLine
 10
15.495183082771057
 20
-45.218793672890094
 30
0.0
 11
16.144211780967808
 21
-45.481018288281234
 31
0.0
  0
LINE
  5
1C9
330
17
100
AcDbEntity
  8
ENGRAVE_AWA
100
AcDbLine
 10
-15.495183082771057
 20
-45.218793672890094
 30
0.0
 11
-16.144211780967808
 21
-45.481018288281234
 31
0.0
  0
LINE
  5
1CA
330
17
100
AcDbEntity
  8
ENGRAVE_AWA
100
AcDbLine
 10
14.674376758728544
 20
-45.491786805344184
 30
0.0
 11
15.313858579078364
 21
-45.776502455497244
 31
0.0
  0
LINE
  5
1CB
330
17
100
AcDbEntity
  8
ENGRAVE_AWA
100
AcDbLine
 10
-14.674376758728544
 20
-45.491786805344184
 30
0.0
 11
-15.313858579078364
 21
-45.776502455497244
 31
0.0
  0
LINE
  5
1CC
330
17
100
AcDbEntity
  8
ENGRAVE_AWA
100
AcDbLine
 10
13.895610547262828
 20
-45.73567543525292
 30
0.0
 11
14.524766379672245
 21
-46.04253523800528
 31
0.0
  0
LINE
  5
1CD
330
17
100
AcDbEntity
  8
ENGRAVE_AWA
100
AcDbLine
 10
-13.895610547262828
 20
-45.73567543525292
 30
0.0
 11
-14.524766379672245
 21
-46.04253523800528
 31
0.0
  0
LINE
  5
1CE
330
17
100
AcDbEntity
  8
ENGRAVE_AWA
100
AcDbLine
 10
13.15646902231767
 20
-45.953751999861716
 30
0.0
 11
13.77453233731892
 21
-46.28238209381184
 31
0.0
  0
LINE
  5
1CF
330
17
100
AcDbEntity
  8
ENGRAVE_AWA
100
AcDbLine
 10
-13.15646902231767
 20
-45.953751999861716
 30
0.0
 11
-13.77453233731892
 21
-46.28238209381184
 31
0.0
  0
LINE
  5
1D0
330
17
100
AcDbEntity
  8
ENGRAVE_AWA
100
AcDbLine
 10
12.454507135100291
 20
-46.1489463804076
 30
0.0
 11
13.666942700398506
 21
-46.848946380407604
 31
0.0
  0
TEXT
  5
1D1
330
17
100
AcDbEntity
  8
ENGRAVE_TEXT
100
AcDbText
 10
15.13918588683205
 20
-47.6989463804076
 30
0.0
 40
2.8
  1
120°
 50
120.0
 72
1
 11
15.13918588683205
 21
-47.6989463804076
 31
0.0
100
AcDbText
 73
2
  0
LINE
  5
1D2
330
17
100
AcDbEntity
  8
ENGRAVE_AWA
100
AcDbLine
 10
-12.454507135100291
 20
-46.1489463804076
 30
0.0
 11
-13.666942700398506
 21
-46.848946380407604
 31
0.0
  0
LINE
  5
1D3
330
17
100
AcDbEntity
  8
ENGRAVE_AWA
100
AcDbLine
 10
11.787299243290835
 20
-46.32385537224978
 30
0.0
 11
12.380932910600334
 21
-46.69479885721302
 31
0.0
  0
LINE
  5
1D4
330
17
100
AcDbEntity
  8
ENGRAVE_AWA
100
AcDbLine
 10
-11.787299243290835
 20
-46.32385537224978
 30
0.0
 11
-12.380932910600334
 21
-46.69479885721302
 31
0.0
  0
LINE
  5
1D5
330
17
100
AcDbEntity
  8
ENGRAVE_AWA
100
AcDbLine
 10
11.152475825188453
 20
-46.48077326130222
 30
0.0
 11
11.732802125976983
 21
-46.87220829373174
 31
0.0
  0
LINE
  5
1D6
330
17
100
AcDbEntity
  8
ENGRAVE_AWA
100
AcDbLine
 10
-11.152475825188453
 20
-46.48077326130222
 30
0.0
 11
-11.732802125976983
 21
-46.87220829373174
 31
0.0
  0
LINE
  5
1D7
330
17
100
AcDbEntity
  8
ENGRAVE_AWA
100
AcDbLine
 10
10.5477497894529
 20
-46.62172213013046
 30
0.0
 11
11.114061685515363
 21
-47.03317180673519
 31
0.0
  0
LINE
  5
1D8
330
17
100
AcDbEntity
  8
ENGRAVE_AWA
100
AcDbLine
 10
-10.5477497894529
 20
-46.62172213013046
 30
0.0
 11
-11.114061685515363
 21
-47.03317180673519
 31
0.0
  0
LINE
  5
1D9
330
17
100
AcDbEntity
  8
ENGRAVE_AWA
100
AcDbLine
 10
9.970934244101775
 20
-46.748480941093675
 30
0.0
 11
10.52254177162648
 21
-47.179443973821634
 31
0.0
  0
LINE
  5
1DA
330
17
100
AcDbEntity
  8
ENGRAVE_AWA
100
AcDbLine
 10
-9.970934244101775
 20
-46.748480941093675
 30
0.0
 11
-10.52254177162648
 21
-47.179443973821634
 31
0.0
  0
LINE
  5
1DB
330
17
100
AcDbEntity
  8
ENGRAVE_AWA
100
AcDbLine
 10
9.41995343622226
 20
-46.86261278737459
 30
0.0
 11
10.492415656588829
 21
-47.76251544093574
 31
0.0
  0
LINE
  5
1DC
330
17
100
AcDbEntity
  8
ENGRAVE_AWA
100
AcDbLine
 10
-9.41995343622226
 20
-46.86261278737459
 30
0.0
 11
-10.492415656588829
 21
-47.76251544093574
 31
0.0
  0
LINE
  5
1DD
330
17
100
AcDbEntity
  8
ENGRAVE_AWA
100
AcDbLine
 10
8.892848366593064
 20
-46.96548996794117
 30
0.0
 11
9.41304974442724
 21
-47.433881392392365
 31
0.0
  0
LINE
  5
1DE
330
17
100
AcDbEntity
  8
ENGRAVE_AWA
100
AcDbLine
 10
-8.892848366593064
 20
-46.96548996794117
 30
0.0
 11
-9.41304974442724
 21
-47.433881392392365
 31
0.0
  0
LINE
  5
1DF
330
17
100
AcDbEntity
  8
ENGRAVE_AWA
100
AcDbLine
 10
8.387778356959434
 20
-47.058316738218785
 30
0.0
 11
8.89131621719649
 21
-47.54457759754008
 31
0.0
  0
LINE
  5
1E0
330
17
100
AcDbEntity
  8
ENGRAVE_AWA
100
AcDbLine
 10
-8.387778356959434
 20
-47.058316738218785
 30
0.0
 11
-8.89131621719649
 21
-47.54457759754008
 31
0.0
  0
LINE
  5
1E1
330
17
100
AcDbEntity
  8
ENGRAVE_AWA
100
AcDbLine
 10
7.9030196255743865
 20
-47.142149726097415
 30
0.0
 11
8.389280484895684
 21
-47.64568758633447
 31
0.0
  0
LINE
  5
1E2
330
17
100
AcDbEntity
  8
ENGRAVE_AWA
100
AcDbLine
 10
-7.9030196255743865
 20
-47.142149726097415
 30
0.0
 11
-8.389280484895684
 21
-47.64568758633447
 31
0.0
  0
LINE
  5
1E3
330
17
100
AcDbEntity
  8
ENGRAVE_AWA
100
AcDbLine
 10
7.436961722641102
 20
-47.21791609480421
 30
0.0
 11
7.905353147092303
 21
-47.738117472638386
 31
0.0
  0
LINE
  5
1E4
330
17
100
AcDbEntity
  8
ENGRAVE_AWA
100
AcDbLine
 10
-7.436961722641102
 20
-47.21791609480421
 30
0.0
 11
-7.905353147092303
 21
-47.738117472638386
 31
0.0
  0
LINE
  5
1E5
330
17
100
AcDbEntity
  8
ENGRAVE_AWA
100
AcDbLine
 10
6.988102498294448
 20
-47.286429591092315
 30
0.0
 11
7.888005151855603
 21
-48.35889181145888
 31
0.0
  0
TEXT
  5
1E6
330
17
100
AcDbEntity
  8
ENGRAVE_TEXT
100
AcDbText
 10
8.98074408832272
 20
-49.66116736476115
 30
0.0
 40
2.8
  1
140°
 50
140.0
 72
1
 11
8.98074408832272
 21
-49.66116736476115
 31
0.0
100
AcDbText
 73
2
  0
LINE
  5
1E7
330
17
100
AcDbEntity
  8
ENGRAVE_AWA
100
AcDbLine
 10
-6.988102498294448
 20
-47.286429591092315
 30
0.0
 11
-7.888005151855603
 21
-48.35889181145888
 31
0.0
  0
LINE
  5
1E8
330
17
100
AcDbEntity
  8
ENGRAVE_AWA
100
AcDbLine
 10
6.555042123874167
 20
-47.34840464845922
 30
0.0
 11
6.986005156602128
 21
-47.900012175983925
 31
0.0
  0
LINE
  5
1E9
330
17
100
AcDbEntity
  8
ENGRAVE_AWA
100
AcDbLine
 10
-6.555042123874167
 20
-47.34840464845922
 30
0.0
 11
-6.986005156602128
 21
-47.900012175983925
 31
0.0
  0
LINE
  5
1EA
330
17
100
AcDbEntity
  8
ENGRAVE_AWA
100
AcDbLine
 10
6.136476561698978
 20
-47.40446872825092
 30
0.0
 11
6.54792623830371
 21
-47.970780624313385
 31
0.0
  0
LINE
  5
1EB
330
17
100
AcDbEntity
  8
ENGRAVE_AWA
100
AcDbLine
 10
-6.136476561698978
 20
-47.40446872825092
 30
0.0
 11
-6.54792623830371
 21
-47.970780624313385
 31
0.0
  0
LINE
  5
1EC
330
17
100
AcDbEntity
  8
ENGRAVE_AWA
100
AcDbLine
 10
5.731190776972296
 20
-47.45517308237267
 30
0.0
 11
6.122625809401819
 21
-48.035499383161195
 31
0.0
  0
LINE
  5
1ED
330
17
100
AcDbEntity
  8
ENGRAVE_AWA
100
AcDbLine
 10
-5.731190776972296
 20
-47.45517308237267
 30
0.0
 11
-6.122625809401819
 21
-48.035499383161195
 31
0.0
  0
LINE
  5
1EE
330
17
100
AcDbEntity
  8
ENGRAVE_AWA
100
AcDbLine
 10
5.338051904736118
 20
-47.50100211429589
 30
0.0
 11
5.7089953896993615
 21
-48.09463578160539
 31
0.0
  0
LINE
  5
1EF
330
17
100
AcDbEntity
  8
ENGRAVE_AWA
100
AcDbLine
 10
-5.338051904736118
 20
-47.50100211429589
 30
0.0
 11
-5.7089953896993615
 21
-48.09463578160539
 31
0.0
  0
LINE
  5
1F0
330
17
100
AcDbEntity
  8
ENGRAVE_AWA
100
AcDbLine
 10
4.9560025216664405
 20
-47.54238150329909
 30
0.0
 11
5.656002521666441
 21
-48.754817068597305
 31
0.0
  0
LINE
  5
1F1
330
17
100
AcDbEntity
  8
ENGRAVE_AWA
100
AcDbLine
 10
-4.9560025216664405
 20
-47.54238150329909
 30
0.0
 11
-5.65600252166644
 21
-48.754817068597305
 31
0.0
  0
LINE
  5
1F2
330
17
100
AcDbEntity
  8
ENGRAVE_AWA
100
AcDbLine
 10
4.584054123855883
 20
-47.57968524264909
 30
0.0
 11
4.912684217806007
 21
-48.19774855765034
 31
0.0
  0
LINE
  5
1F3
330
17
100
AcDbEntity
  8
ENGRAVE_AWA
100
AcDbLine
 10
-4.584054123855883
 20
-47.57968524264909
 30
0.0
 11
-4.912684217806007
 21
-48.19774855765034
 31
0.0
  0
LINE
  5
1F4
330
17
100
AcDbEntity
  8
ENGRAVE_AWA
100
AcDbLine
 10
4.221280874759482
 20
-47.61324172723792
 30
0.0
 11
4.528140677511836
 21
-48.24239755964734
 31
0.0
  0
LINE
  5
1F5
330
17
100
AcDbEntity
  8
ENGRAVE_AWA
100
AcDbLine
 10
-4.221280874759482
 20
-47.61324172723792
 30
0.0
 11
-4.528140677511836
 21
-48.24239755964734
 31
0.0
  0
LINE
  5
1F6
330
17
100
AcDbEntity
  8
ENGRAVE_AWA
100
AcDbLine
 10
3.8668136597808567
 20
-47.64333901103628
 30
0.0
 11
4.151529309933917
 21
-48.282820831386104
 31
0.0
  0
LINE
  5
1F7
330
17
100
AcDbEntity
  8
ENGRAVE_AWA
100
AcDbLine
 10
-3.8668136597808567
 20
-47.64333901103628
 30
0.0
 11
-4.151529309933917
 21
-48.282820831386104
 31
0.0
  0
LINE
  5
1F8
330
17
100
AcDbEntity
  8
ENGRAVE_AWA
100
AcDbLine
 10
3.519834463531491
 20
-47.670229340221724
 30
0.0
 11
3.7820590789226296
 21
-48.319258038418475
 31
0.0
  0
LINE
  5
1F9
330
17
100
AcDbEntity
  8
ENGRAVE_AWA
100
AcDbLine
 10
-3.519834463531491
 20
-47.670229340221724
 30
0.0
 11
-3.7820590789226296
 21
-48.319258038418475
 31
0.0
  0
LINE
  5
1FA
330
17
100
AcDbEntity
  8
ENGRAVE_AWA
100
AcDbLine
 10
3.1795710709560923
 20
-47.69413305433635
 30
0.0
 11
3.6583992716120286
 21
-49.00970272343662
 31
0.0
  0
TEXT
  5
1FB
330
17
100
AcDbEntity
  8
ENGRAVE_TEXT
100
AcDbText
 10
4.239833515265666
 20
-50.607180178772666
 30
0.0
 40
2.8
  1
160°
 50
160.0
 72
1
 11
4.239833515265666
 21
-50.607180178772666
 31
0.0
100
AcDbText
 73
2
  0
LINE
  5
1FC
330
17
100
AcDbEntity
  8
ENGRAVE_AWA
100
AcDbLine
 10
-3.1795710709560923
 20
-47.69413305433635
 30
0.0
 11
-3.6583992716120286
 21
-49.00970272343662
 31
0.0
  0
LINE
  5
1FD
330
17
100
AcDbEntity
  8
ENGRAVE_AWA
100
AcDbLine
 10
2.8452920829532267
 20
-47.715241935493566
 30
0.0
 11
3.0616039790156897
 21
-48.380981496900176
 31
0.0
  0
LINE
  5
1FE
330
17
100
AcDbEntity
  8
ENGRAVE_AWA
100
AcDbLine
 10
-2.8452920829532267
 20
-47.715241935493566
 30
0.0
 11
-3.0616039790156897
 21
-48.380981496900176
 31
0.0
  0
LINE
  5
1FF
330
17
100
AcDbEntity
  8
ENGRAVE_AWA
100
AcDbLine
 10
2.5163022297777644
 20
-47.733722074529396
 30
0.0
 11
2.7092483788496637
 21
-48.40660526168622
 31
0.0
  0
LINE
  5
200
330
17
100
AcDbEntity
  8
ENGRAVE_AWA
100
AcDbLine
 10
-2.5163022297777644
 20
-47.733722074529396
 30
0.0
 11
-2.7092483788496637
 21
-48.40660526168622
 31
0.0
  0
LINE
  5
201
330
17
100
AcDbEntity
  8
ENGRAVE_AWA
100
AcDbLine
 10
2.191937960563042
 20
-47.74971631305303
 30
0.0
 11
2.3612832874828094
 21
-48.42892332144623
 31
0.0
  0
LINE
  5
202
330
17
100
AcDbEntity
  8
ENGRAVE_AWA
100
AcDbLine
 10
-2.191937960563042
 20
-47.74971631305303
 30
0.0
 11
-2.3612832874828094
 21
-48.42892332144623
 31
0.0
  0
LINE
  5
203
330
17
100
AcDbEntity
  8
ENGRAVE_AWA
100
AcDbLine
 10
1.8715632841019656
 20
-47.76334631151382
 30
0.0
 11
2.0171014676743972
 21
-48.448049632027484
 31
0.0
  0
LINE
  5
204
330
17
100
AcDbEntity
  8
ENGRAVE_AWA
100
AcDbLine
 10
-1.8715632841019656
 20
-47.76334631151382
 30
0.0
 11
-2.0171014676743972
 21
-48.448049632027484
 31
0.0
  0
LINE
  5
205
330
17
100
AcDbEntity
  8
ENGRAVE_AWA
100
AcDbLine
 10
1.554565834082876
 20
-47.7747142855664
 30
0.0
 11
1.7976732828165785
 21
-49.153445139783486
 31
0.0
  0
LINE
  5
206
330
17
100
AcDbEntity
  8
ENGRAVE_AWA
100
AcDbLine
 10
-1.554565834082876
 20
-47.7747142855664
 30
0.0
 11
-1.7976732828165785
 21
-49.153445139783486
 31
0.0
  0
LINE
  5
207
330
17
100
AcDbEntity
  8
ENGRAVE_AWA
100
AcDbLine
 10
1.240353130908582
 20
-47.783904446064724
 30
0.0
 11
1.3377743015806276
 21
-48.477092094183824
 31
0.0
  0
LINE
  5
208
330
17
100
AcDbEntity
  8
ENGRAVE_AWA
100
AcDbLine
 10
-1.240353130908582
 20
-47.783904446064724
 30
0.0
 11
-1.3377743015806278
 21
-48.477092094183824
 31
0.0
  0
LINE
  5
209
330
17
100
AcDbEntity
  8
ENGRAVE_AWA
100
AcDbLine
 10
0.9283490117492365
 20
-47.79098417183292
 30
0.0
 11
1.001518936036594
 21
-48.48714949859071
 31
0.0
  0
LINE
  5
20A
330
17
100
AcDbEntity
  8
ENGRAVE_AWA
100
AcDbLine
 10
-0.9283490117492365
 20
-47.79098417183292
 30
0.0
 11
-1.0015189360365941
 21
-48.48714949859071
 31
0.0
  0
LINE
  5
20B
330
17
100
AcDbEntity
  8
ENGRAVE_AWA
100
AcDbLine
 10
0.61799020037576
 20
-47.79600493882558
 30
0.0
 11
0.6668197319966478
 21
-48.49429977400746
 31
0.0
  0
LINE
  5
20C
330
17
100
AcDbEntity
  8
ENGRAVE_AWA
100
AcDbLine
 10
-0.61799020037576
 20
-47.79600493882558
 30
0.0
 11
-0.6668197319966479
 21
-48.49429977400746
 31
0.0
  0
LINE
  5
20D
330
17
100
AcDbEntity
  8
ENGRAVE_AWA
100
AcDbLine
 10
0.3087229884307001
 20
-47.79900302429344
 30
0.0
 11
0.3331526361224509
 21
-48.49857660320681
 31
0.0
  0
LINE
  5
20E
330
17
100
AcDbEntity
  8
ENGRAVE_AWA
100
AcDbLine
 10
-0.3087229884307001
 20
-47.79900302429344
 30
0.0
 11
-0.33315263612245094
 21
-48.49857660320681
 31
0.0
  0
LINE
  5
20F
330
17
100
AcDbEntity
  8
ENGRAVE_AWA
100
AcDbLine
 10
1.0827918782461175e-15
 20
-47.8
 30
0.0
 11
1.1685171541864322e-15
 21
-49.199999999999996
 31
0.0
  0
TEXT
  5
210
330
17
100
AcDbEntity
  8
ENGRAVE_TEXT
100
AcDbText
 10
1.2726121321139573e-15
 20
-50.9
 30
0.0
 40
2.8
  1
180°
 50
180.0
 72
1
 11
1.2726121321139573e-15
 21
-50.9
 31
0.0
100
AcDbText
 73
2
  0
LINE
  5
211
330
17
100
AcDbEntity
  8
ENGRAVE_AWA
100
AcDbLine
 10
-1.0827918782461175e-15
 20
-47.8
 30
0.0
 11
-1.3079290492008465e-15
 21
-49.199999999999996
 31
0.0
  0
ENDSEC
  0
SECTION
  2
OBJECTS
  0
DICTIONARY
  5
A
330
0
100
AcDbDictionary
281
1
  3
ACAD_COLOR
350
B
  3
ACAD_GROUP
350
C
  3
ACAD_LAYOUT
350
D
  3
ACAD_MATERIAL
350
E
  3
ACAD_MLEADERSTYLE
350
F
  3
ACAD_MLINESTYLE
350
10
  3
ACAD_PLOTSETTINGS
350
11
  3
ACAD_PLOTSTYLENAME
350
12
  3
ACAD_SCALELIST
350
14
  3
ACAD_TABLESTYLE
350
15
  3
ACAD_VISUALSTYLE
350
16
  3
EZDXF_META
350
2D
  0
DICTIONARY
  5
B
330
A
100
AcDbDictionary
281
1
  0
DICTIONARY
  5
C
330
A
100
AcDbDictionary
281
1
  0
DICTIONARY
  5
D
330
A
100
AcDbDictionary
281
1
  3
Model
350
1A
  3
Layout1
350
1E
  0
DICTIONARY
  5
E
330
A
100
AcDbDictionary
281
1
  3
ByBlock
350
1F
  3
ByLayer
350
20
  3
Global
350
21
  0
DICTIONARY
  5
F
330
A
100
AcDbDictionary
281
1
  3
Standard
350
2C
  0
DICTIONARY
  5
10
330
A
100
AcDbDictionary
281
1
  3
Standard
350
22
  0
DICTIONARY
  5
11
330
A
100
AcDbDictionary
281
1
  0
ACDBDICTIONARYWDFLT
  5
12
330
A
100
AcDbDictionary
281
1
  3
Normal
350
13
100
AcDbDictionaryWithDefault
340
13
  0
ACDBPLACEHOLDER
  5
13
330
12
  0
DICTIONARY
  5
14
330
A
100
AcDbDictionary
281
1
  0
DICTIONARY
  5
15
330
A
100
AcDbDictionary
281
1
  0
DICTIONARY
  5
16
330
A
100
AcDbDictionary
281
1
  0
LAYOUT
  5
1A
330
D
100
AcDbPlotSettings
  1

  4
A3
  6

 40
7.5
 41
20.0
 42
7.5
 43
20.0
 44
420.0
 45
297.0
 46
0.0
 47
0.0
 48
0.0
 49
0.0
140
0.0
141
0.0
142
1.0
143
1.0
 70
1024
 72
1
 73
0
 74
5
  7

 75
16
 76
0
 77
2
 78
300
147
1.0
148
0.0
149
0.0
100
AcDbLayout
  1
Model
 70
1
 71
0
 10
0.0
 20
0.0
 11
420.0
 21
297.0
 12
0.0
 22
0.0
 32
0.0
 14
1e+20
 24
1e+20
 34
1e+20
 15
-1e+20
 25
-1e+20
 35
-1e+20
146
0.0
 13
0.0
 23
0.0
 33
0.0
 16
1.0
 26
0.0
 36
0.0
 17
0.0
 27
1.0
 37
0.0
 76
1
330
17
  0
LAYOUT
  5
1E
330
D
100
AcDbPlotSettings
  1

  4
A3
  6

 40
7.5
 41
20.0
 42
7.5
 43
20.0
 44
420.0
 45
297.0
 46
0.0
 47
0.0
 48
0.0
 49
0.0
140
0.0
141
0.0
142
1.0
143
1.0
 70
0
 72
1
 73
0
 74
5
  7

 75
16
 76
0
 77
2
 78
300
147
1.0
148
0.0
149
0.0
100
AcDbLayout
  1
Layout1
 70
1
 71
1
 10
0.0
 20
0.0
 11
420.0
 21
297.0
 12
0.0
 22
0.0
 32
0.0
 14
1e+20
 24
1e+20
 34
1e+20
 15
-1e+20
 25
-1e+20
 35
-1e+20
146
0.0
 13
0.0
 23
0.0
 33
0.0
 16
1.0
 26
0.0
 36
0.0
 17
0.0
 27
1.0
 37
0.0
 76
1
330
1B
  0
MATERIAL
  5
1F
102
{ACAD_REACTORS
330
E
102
}
330
E
100
AcDbMaterial
  1
ByBlock
  2

 70
0
 40
1.0
 71
1
 41
1.0
 91
-1023410177
 42
1.0
 72
1
  3

 73
1
 74
1
 75
1
 44
0.5
 73
0
 45
1.0
 46
1.0
 77
1
  4

 78
1
 79
1
170
1
 48
1.0
171
1
  6

172
1
173
1
174
1
140
1.0
141
1.0
175
1
  7

176
1
177
1
178
1
143
1.0
179
1
  8

270
1
271
1
272
1
145
1.0
146
1.0
273
1
  9

274
1
275
1
276
1
 42
1.0
 72
1
  3

 73
1
 74
1
 75
1
 94
63
  0
MATERIAL
  5
20
102
{ACAD_REACTORS
330
E
102
}
330
E
100
AcDbMaterial
  1
ByLayer
  2

 70
0
 40
1.0
 71
1
 41
1.0
 91
-1023410177
 42
1.0
 72
1
  3

 73
1
 74
1
 75
1
 44
0.5
 73
0
 45
1.0
 46
1.0
 77
1
  4

 78
1
 79
1
170
1
 48
1.0
171
1
  6

172
1
173
1
174
1
140
1.0
141
1.0
175
1
  7

176
1
177
1
178
1
143
1.0
179
1
  8

270
1
271
1
272
1
145
1.0
146
1.0
273
1
  9

274
1
275
1
276
1
 42
1.0
 72
1
  3

 73
1
 74
1
 75
1
 94
63
  0
MATERIAL
  5
21
102
{ACAD_REACTORS
330
E
102
}
330
E
100
AcDbMaterial
  1
Global
  2

 70
0
 40
1.0
 71
1
 41
1.0
 91
-1023410177
 42
1.0
 72
1
  3

 73
1
 74
1
 75
1
 44
0.5
 73
0
 45
1.0
 46
1.0
 77
1
  4

 78
1
 79
1
170
1
 48
1.0
171
1
  6

172
1
173
1
174
1
140
1.0
141
1.0
175
1
  7

176
1
177
1
178
1
143
1.0
179
1
  8

270
1
271
1
272
1
145
1.0
146
1.0
273
1
  9

274
1
275
1
276
1
 42
1.0
 72
1
  3

 73
1
 74
1
 75
1
 94
63
  0
MLINESTYLE
  5
22
102
{ACAD_REACTORS
330
10
102
}
330
10
100
AcDbMlineStyle
  2
Standard
 70
0
  3

 62
256
 51
90.0
 52
90.0
 71
2
 49
0.5
 62
256
  6
BYLAYER
 49
-0.5
 62
256
  6
BYLAYER
  0
MLEADERSTYLE
  5
2C
102
{ACAD_REACTORS
330
F
102
}
330
F
100
AcDbMLeaderStyle
179
2
170
2
171
1
172
0
 90
2
 40
0.0
 41
0.0
173
1
 91
-1056964608
 92
-2
290
1
 42
2.0
291
1
 43
8.0
  3
Standard
 44
4.0
300

342
29
174
1
175
1
176
0
178
1
 93
-1056964608
 45
4.0
292
0
297
0
 46
4.0
 94
-1056964608
 47
1.0
 49
1.0
140
1.0
294
1
141
0.0
177
0
142
1.0
295
0
296
0
143
3.75
271
0
272
9
273
9
  0
DICTIONARY
  5
2D
330
A
100
AcDbDictionary
280
1
281
1
  3
CREATED_BY_EZDXF
350
2E
  3
WRITTEN_BY_EZDXF
350
214
  0
DICTIONARYVAR
  5
2E
330
2D
100
DictionaryVariables
280
0
  1
1.4.4 @ 2026-08-30T09:08:09.040715+00:00
  0
DICTIONARYVAR
  5
214
330
2D
100
DictionaryVariables
280
0
  1
1.4.4 @ 2026-08-30T09:08:09.046321+00:00
  0
ENDSEC
  0
EOF
