  0
SECTION
  2
HEADER
  9
$ACADVER
  1
AC1024
  9
$ACADMAINTVER
 70
6
  9
$DWGCODEPAGE
  3
ANSI_1252
  9
$LASTSAVEDBY
  1
ezdxf
  9
$INSBASE
 10
0.0
 20
0.0
 30
0.0
  9
$EXTMIN
 10
1e+20
 20
1e+20
 30
1e+20
  9
$EXTMAX
 10
-1e+20
 20
-1e+20
 30
-1e+20
  9
$LIMMIN
 10
0.0
 20
0.0
  9
$LIMMAX
 10
420.0
 20
297.0
  9
$ORTHOMODE
 70
0
  9
$REGENMODE
 70
1
  9
$FILLMODE
 70
1
  9
$QTEXTMODE
 70
0
  9
$MIRRTEXT
 70
1
  9
$LTSCALE
 40
1.0
  9
$ATTMODE
 70
1
  9
$TEXTSIZE
 40
2.5
  9
$TRACEWID
 40
1.0
  9
$TEXTSTYLE
  7
Standard
  9
$CLAYER
  8
0
  9
$CELTYPE
  6
ByLayer
  9
$CECOLOR
 62
256
  9
$CELTSCALE
 40
1.0
  9
$DISPSILH
 70
0
  9
$DIMSCALE
 40
1.0
  9
$DIMASZ
 40
2.5
  9
$DIMEXO
 40
0.625
  9
$DIMDLI
 40
3.75
  9
$DIMRND
 40
0.0
  9
$DIMDLE
 40
0.0
  9
$DIMEXE
 40
1.25
  9
$DIMTP
 40
0.0
  9
$DIMTM
 40
0.0
  9
$DIMTXT
 40
2.5
  9
$DIMCEN
 40
2.5
  9
$DIMTSZ
 40
0.0
  9
$DIMTOL
 70
0
  9
$DIMLIM
 70
0
  9
$DIMTIH
 70
0
  9
$DIMTOH
 70
0
  9
$DIMSE1
 70
0
  9
$DIMSE2
 70
0
  9
$DIMTAD
 70
1
  9
$DIMZIN
 70
8
  9
$DIMBLK
  1

  9
$DIMASO
 70
1
  9
$DIMSHO
 70
1
  9
$DIMPOST
  1

  9
$DIMAPOST
  1

  9
$DIMALT
 70
0
  9
$DIMALTD
 70
3
  9
$DIMALTF
 40
0.03937007874
  9
$DIMLFAC
 40
1.0
  9
$DIMTOFL
 70
1
  9
$DIMTVP
 40
0.0
  9
$DIMTIX
 70
0
  9
$DIMSOXD
 70
0
  9
$DIMSAH
 70
0
  9
$DIMBLK1
  1

  9
$DIMBLK2
  1

  9
$DIMSTYLE
  2
ISO-25
  9
$DIMCLRD
 70
0
  9
$DIMCLRE
 70
0
  9
$DIMCLRT
 70
0
  9
$DIMTFAC
 40
1.0
  9
$DIMGAP
 40
0.625
  9
$DIMJUST
 70
0
  9
$DIMSD1
 70
0
  9
$DIMSD2
 70
0
  9
$DIMTOLJ
 70
0
  9
$DIMTZIN
 70
8
  9
$DIMALTZ
 70
0
  9
$DIMALTTZ
 70
0
  9
$DIMUPT
 70
0
  9
$DIMDEC
 70
2
  9
$DIMTDEC
 70
2
  9
$DIMALTU
 70
2
  9
$DIMALTTD
 70
3
  9
$DIMTXSTY
  7
Standard
  9
$DIMAUNIT
 70
0
  9
$DIMADEC
 70
0
  9
$DIMALTRND
 40
0.0
  9
$DIMAZIN
 70
0
  9
$DIMDSEP
 70
44
  9
$DIMATFIT
 70
3
  9
$DIMFRAC
 70
0
  9
$DIMLDRBLK
  1

  9
$DIMLUNIT
 70
2
  9
$DIMLWD
 70
-2
  9
$DIMLWE
 70
-2
  9
$DIMTMOVE
 70
0
  9
$DIMFXL
 40
1.0
  9
$DIMFXLON
 70
0
  9
$DIMJOGANG
 40
0.785398163397
  9
$DIMTFILL
 70
0
  9
$DIMTFILLCLR
 70
0
  9
$DIMARCSYM
 70
0
  9
$DIMLTYPE
  6

  9
$DIMLTEX1
  6

  9
$DIMLTEX2
  6

  9
$DIMTXTDIRECTION
 70
0
  9
$LUNITS
 70
2
  9
$LUPREC
 70
4
  9
$SKETCHINC
 40
1.0
  9
$FILLETRAD
 40
10.0
  9
$AUNITS
 70
0
  9
$AUPREC
 70
2
  9
$MENU
  1
.
  9
$ELEVATION
 40
0.0
  9
$PELEVATION
 40
0.0
  9
$THICKNESS
 40
0.0
  9
$LIMCHECK
 70
0
  9
$CHAMFERA
 40
0.0
  9
$CHAMFERB
 40
0.0
  9
$CHAMFERC
 40
0.0
  9
$CHAMFERD
 40
0.0
  9
$SKPOLY
 70
0
  9
$TDCREATE
 40
2461283.473761574
  9
$TDUCREATE
 40
2458532.153996898
  9
$TDUPDATE
 40
2461283.473761574
  9
$TDUUPDATE
 40
2458532.1544311
  9
$TDINDWG
 40
0.0
  9
$TDUSRTIMER
 40
0.0
  9
$USRTIMER
 70
1
  9
$ANGBASE
 50
0.0
  9
$ANGDIR
 70
0
  9
$PDMODE
 70
0
  9
$PDSIZE
 40
0.0
  9
$PLINEWID
 40
0.0
  9
$SPLFRAME
 70
0
  9
$SPLINETYPE
 70
6
  9
$SPLINESEGS
 70
8
  9
$HANDSEED
  5
32C
  9
$SURFTAB1
 70
6
  9
$SURFTAB2
 70
6
  9
$SURFTYPE
 70
6
  9
$SURFU
 70
6
  9
$SURFV
 70
6
  9
$UCSBASE
  2

  9
$UCSNAME
  2

  9
$UCSORG
 10
0.0
 20
0.0
 30
0.0
  9
$UCSXDIR
 10
1.0
 20
0.0
 30
0.0
  9
$UCSYDIR
 10
0.0
 20
1.0
 30
0.0
  9
$UCSORTHOREF
  2

  9
$UCSORTHOVIEW
 70
0
  9
$UCSORGTOP
 10
0.0
 20
0.0
 30
0.0
  9
$UCSORGBOTTOM
 10
0.0
 20
0.0
 30
0.0
  9
$UCSORGLEFT
 10
0.0
 20
0.0
 30
0.0
  9
$UCSORGRIGHT
 10
0.0
 20
0.0
 30
0.0
  9
$UCSORGFRONT
 10
0.0
 20
0.0
 30
0.0
  9
$UCSORGBACK
 10
0.0
 20
0.0
 30
0.0
  9
$PUCSBASE
  2

  9
$PUCSNAME
  2

  9
$PUCSORG
 10
0.0
 20
0.0
 30
0.0
  9
$PUCSXDIR
 10
1.0
 20
0.0
 30
0.0
  9
$PUCSYDIR
 10
0.0
 20
1.0
 30
0.0
  9
$PUCSORTHOREF
  2

  9
$PUCSORTHOVIEW
 70
0
  9
$PUCSORGTOP
 10
0.0
 20
0.0
 30
0.0
  9
$PUCSORGBOTTOM
 10
0.0
 20
0.0
 30
0.0
  9
$PUCSORGLEFT
 10
0.0
 20
0.0
 30
0.0
  9
$PUCSORGRIGHT
 10
0.0
 20
0.0
 30
0.0
  9
$PUCSORGFRONT
 10
0.0
 20
0.0
 30
0.0
  9
$PUCSORGBACK
 10
0.0
 20
0.0
 30
0.0
  9
$USERI1
 70
0
  9
$USERI2
 70
0
  9
$USERI3
 70
0
  9
$USERI4
 70
0
  9
$USERI5
 70
0
  9
$USERR1
 40
0.0
  9
$USERR2
 40
0.0
  9
$USERR3
 40
0.0
  9
$USERR4
 40
0.0
  9
$USERR5
 40
0.0
  9
$WORLDVIEW
 70
1
  9
$SHADEDGE
 70
3
  9
$SHADEDIF
 70
70
  9
$TILEMODE
 70
1
  9
$MAXACTVP
 70
64
  9
$PINSBASE
 10
0.0
 20
0.0
 30
0.0
  9
$PLIMCHECK
 70
0
  9
$PEXTMIN
 10
1e+20
 20
1e+20
 30
1e+20
  9
$PEXTMAX
 10
-1e+20
 20
-1e+20
 30
-1e+20
  9
$PLIMMIN
 10
0.0
 20
0.0
  9
$PLIMMAX
 10
420.0
 20
297.0
  9
$UNITMODE
 70
0
  9
$VISRETAIN
 70
1
  9
$PLINEGEN
 70
0
  9
$PSLTSCALE
 70
1
  9
$TREEDEPTH
 70
3020
  9
$CMLSTYLE
  2
Standard
  9
$CMLJUST
 70
0
  9
$CMLSCALE
 40
20.0
  9
$PROXYGRAPHICS
 70
1
  9
$MEASUREMENT
 70
1
  9
$CELWEIGHT
370
-1
  9
$ENDCAPS
280
0
  9
$JOINSTYLE
280
0
  9
$LWDISPLAY
290
0
  9
$INSUNITS
 70
6
  9
$HYPERLINKBASE
  1

  9
$STYLESHEET
  1

  9
$XEDIT
290
1
  9
$CEPSNTYPE
380
0
  9
$PSTYLEMODE
290
1
  9
$FINGERPRINTGUID
  2
{A7FCF4CB-51E4-4B1E-8085-94971A635285}
  9
$VERSIONGUID
  2
{31E4FD6A-7A03-404A-8185-8CBCCCBE1340}
  9
$EXTNAMES
290
1
  9
$PSVPSCALE
 40
0.0
  9
$OLESTARTUP
290
0
  9
$SORTENTS
280
127
  9
$INDEXCTL
280
0
  9
$HIDETEXT
280
1
  9
$XCLIPFRAME
280
1
  9
$HALOGAP
280
0
  9
$OBSCOLOR
 70
257
  9
$OBSLTYPE
280
0
  9
$INTERSECTIONDISPLAY
280
0
  9
$INTERSECTIONCOLOR
 70
257
  9
$DIMASSOC
280
2
  9
$PROJECTNAME
  1

  9
$CAMERADISPLAY
290
0
  9
$LENSLENGTH
 40
50.0
  9
$CAMERAHEIGHT
 40
0.0
  9
$STEPSPERSEC
 40
24.0
  9
$STEPSIZE
 40
100.0
  9
$3DDWFPREC
 40
2.0
  9
$PSOLWIDTH
 40
0.005
  9
$PSOLHEIGHT
 40
0.08
  9
$LOFTANG1
 40
1.570796326795
  9
$LOFTANG2
 40
1.570796326795
  9
$LOFTMAG1
 40
0.0
  9
$LOFTMAG2
 40
0.0
  9
$LOFTPARAM
 70
7
  9
$LOFTNORMALS
280
1
  9
$LATITUDE
 40
37.795
  9
$LONGITUDE
 40
-122.394
  9
$NORTHDIRECTION
 40
0.0
  9
$TIMEZONE
 70
-8000
  9
$LIGHTGLYPHDISPLAY
280
1
  9
$TILEMODELIGHTSYNCH
280
1
  9
$CMATERIAL
347
20
  9
$SOLIDHIST
280
0
  9
$SHOWHIST
280
1
  9
$DWFFRAME
280
2
  9
$DGNFRAME
280
2
  9
$REALWORLDSCALE
290
1
  9
$INTERFERECOLOR
 62
256
  9
$CSHADOW
280
0
  9
$SHADOWPLANELOCATION
 40
0.0
  0
ENDSEC
  0
SECTION
  2
CLASSES
  0
CLASS
  1
ACDBDICTIONARYWDFLT
  2
AcDbDictionaryWithDefault
  3
ObjectDBX Classes
 90
0
 91
0
280
0
281
0
  0
CLASS
  1
SUN
  2
AcDbSun
  3
SCENEOE
 90
1153
 91
0
280
0
281
0
  0
CLASS
  1
VISUALSTYLE
  2
AcDbVisualStyle
  3
ObjectDBX Classes
 90
4095
 91
0
280
0
281
0
  0
CLASS
  1
MATERIAL
  2
AcDbMaterial
  3
ObjectDBX Classes
 90
1153
 91
0
280
0
281
0
  0
CLASS
  1
SCALE
  2
AcDbScale
  3
ObjectDBX Classes
 90
1153
 91
0
280
0
281
0
  0
CLASS
  1
TABLESTYLE
  2
AcDbTableStyle
  3
ObjectDBX Classes
 90
4095
 91
0
280
0
281
0
  0
CLASS
  1
MLEADERSTYLE
  2
AcDbMLeaderStyle
  3
ACDB_MLEADERSTYLE_CLASS
 90
4095
 91
0
280
0
281
0
  0
CLASS
  1
DICTIONARYVAR
  2
AcDbDictionaryVar
  3
ObjectDBX Classes
 90
0
 91
0
280
0
281
0
  0
CLASS
  1
CELLSTYLEMAP
  2
AcDbCellStyleMap
  3
ObjectDBX Classes
 90
1152
 91
0
280
0
281
0
  0
CLASS
  1
MENTALRAYRENDERSETTINGS
  2
AcDbMentalRayRenderSettings
  3
SCENEOE
 90
1024
 91
0
280
0
281
0
  0
CLASS
  1
ACDBDETAILVIEWSTYLE
  2
AcDbDetailViewStyle
  3
ObjectDBX Classes
 90
1025
 91
0
280
0
281
0
  0
CLASS
  1
ACDBSECTIONVIEWSTYLE
  2
AcDbSectionViewStyle
  3
ObjectDBX Classes
 90
1025
 91
0
280
0
281
0
  0
CLASS
  1
RASTERVARIABLES
  2
AcDbRasterVariables
  3
ISM
 90
0
 91
0
280
0
281
0
  0
CLASS
  1
LAYOUT
  2
AcDbLayout
  3
ObjectDBX Classes
 90
0
 91
0
280
0
281
0
  0
CLASS
  1
ACDBPLACEHOLDER
  2
AcDbPlaceHolder
  3
ObjectDBX Classes
 90
0
 91
0
280
0
281
0
  0
ENDSEC
  0
SECTION
  2
TABLES
  0
TABLE
  2
VPORT
  5
8
330
0
100
AcDbSymbolTable
 70
1
  0
VPORT
  5
23
330
8
100
AcDbSymbolTableRecord
100
AcDbViewportTableRecord
  2
*Active
 70
0
 10
0.0
 20
0.0
 11
1.0
 21
1.0
 12
0.0
 22
0.0
 13
0.0
 23
0.0
 14
0.5
 24
0.5
 15
0.5
 25
0.5
 16
0.0
 26
0.0
 36
1.0
 17
0.0
 27
0.0
 37
0.0
 40
1000.0
 41
1.34
 42
50.0
 43
0.0
 44
0.0
 50
0.0
 51
0.0
 71
0
 72
1000
 73
1
 74
3
 75
0
 76
0
 77
0
 78
0
281
0
 65
0
146
0.0
  0
ENDTAB
  0
TABLE
  2
LTYPE
  5
2
330
0
100
AcDbSymbolTable
 70
3
  0
LTYPE
  5
24
330
2
100
AcDbSymbolTableRecord
100
AcDbLinetypeTableRecord
  2
ByBlock
 70
0
  3

 72
65
 73
0
 40
0.0
  0
LTYPE
  5
25
330
2
100
AcDbSymbolTableRecord
100
AcDbLinetypeTableRecord
  2
ByLayer
 70
0
  3

 72
65
 73
0
 40
0.0
  0
LTYPE
  5
26
330
2
100
AcDbSymbolTableRecord
100
AcDbLinetypeTableRecord
  2
Continuous
 70
0
  3

 72
65
 73
0
 40
0.0
  0
ENDTAB
  0
TABLE
  2
LAYER
  5
1
330
0
100
AcDbSymbolTable
 70
13
  0
LAYER
  5
27
330
1
100
AcDbSymbolTableRecord
100
AcDbLayerTableRecord
  2
0
 70
0
 62
7
  6
Continuous
370
-3
390
13
347
21
  0
LAYER
  5
28
330
1
100
AcDbSymbolTableRecord
100
AcDbLayerTableRecord
  2
Defpoints
 70
0
 62
7
  6
Continuous
290
0
370
-3
390
13
347
21
  0
LAYER
  5
2F
330
1
100
AcDbSymbolTableRecord
100
AcDbLayerTableRecord
  2
CUT_REFERENCE
 70
0
 62
1
  6
Continuous
370
-3
390
13
347
21
  0
LAYER
  5
30
330
1
100
AcDbSymbolTableRecord
100
AcDbLayerTableRecord
  2
ENGRAVE_AWA
 70
0
 62
4
  6
Continuous
370
-3
390
13
347
21
  0
LAYER
  5
31
330
1
100
AcDbSymbolTableRecord
100
AcDbLayerTableRecord
  2
ENGRAVE_POLARS
 70
0
 62
5
  6
Continuous
370
-3
390
13
347
21
  0
LAYER
  5
32
330
1
100
AcDbSymbolTableRecord
100
AcDbLayerTableRecord
  2
ENGRAVE_VMG
 70
0
 62
3
  6
Continuous
370
-3
390
13
347
21
  0
LAYER
  5
33
330
1
100
AcDbSymbolTableRecord
100
AcDbLayerTableRecord
  2
ENGRAVE_COMPASS
 70
0
 62
7
  6
Continuous
370
-3
390
13
347
21
  0
LAYER
  5
34
330
1
100
AcDbSymbolTableRecord
100
AcDbLayerTableRecord
  2
ENGRAVE_LOG
 70
0
 62
7
  6
Continuous
370
-3
390
13
347
21
  0
LAYER
  5
35
330
1
100
AcDbSymbolTableRecord
100
AcDbLayerTableRecord
  2
ENGRAVE_TEXT
 70
0
 62
7
  6
Continuous
370
-3
390
13
347
21
  0
LAYER
  5
36
330
1
100
AcDbSymbolTableRecord
100
AcDbLayerTableRecord
  2
ENGRAVE_POLAR_JIB
 70
0
 62
8
  6
Continuous
370
-3
390
13
347
21
  0
LAYER
  5
37
330
1
100
AcDbSymbolTableRecord
100
AcDbLayerTableRecord
  2
ENGRAVE_POLAR_ASYM
 70
0
 62
30
  6
Continuous
370
-3
390
13
347
21
  0
LAYER
  5
38
330
1
100
AcDbSymbolTableRecord
100
AcDbLayerTableRecord
  2
ENGRAVE_POLAR_SYM
 70
0
 62
210
  6
Continuous
370
-3
390
13
347
21
  0
LAYER
  5
39
330
1
100
AcDbSymbolTableRecord
100
AcDbLayerTableRecord
  2
POINTER
 70
0
 62
1
  6
Continuous
370
-3
390
13
347
21
  0
ENDTAB
  0
TABLE
  2
STYLE
  5
5
330
0
100
AcDbSymbolTable
 70
1
  0
STYLE
  5
29
330
5
100
AcDbSymbolTableRecord
100
AcDbTextStyleTableRecord
  2
Standard
 70
0
 40
0.0
 41
1.0
 50
0.0
 71
0
 42
2.5
  3
txt
  4

  0
ENDTAB
  0
TABLE
  2
VIEW
  5
7
330
0
100
AcDbSymbolTable
 70
0
  0
ENDTAB
  0
TABLE
  2
UCS
  5
6
330
0
100
AcDbSymbolTable
 70
0
  0
ENDTAB
  0
TABLE
  2
APPID
  5
3
330
0
100
AcDbSymbolTable
 70
3
  0
APPID
  5
2A
330
3
100
AcDbSymbolTableRecord
100
AcDbRegAppTableRecord
  2
ACAD
 70
0
  0
APPID
  5
329
330
3
100
AcDbSymbolTableRecord
100
AcDbRegAppTableRecord
  2
HATCHBACKGROUNDCOLOR
 70
0
  0
APPID
  5
32A
330
3
100
AcDbSymbolTableRecord
100
AcDbRegAppTableRecord
  2
EZDXF
 70
0
  0
ENDTAB
  0
TABLE
  2
DIMSTYLE
  5
4
330
0
100
AcDbSymbolTable
 70
1
100
AcDbDimStyleTable
  0
DIMSTYLE
105
2B
330
4
100
AcDbSymbolTableRecord
100
AcDbDimStyleTableRecord
  2
Standard
 70
0
 40
1.0
 41
2.5
 42
0.625
 43
3.75
 44
1.25
 45
0.0
 46
0.0
 47
0.0
 48
0.0
 49
2.5
140
2.5
141
2.5
142
0.0
143
0.03937007874
144
1.0
145
0.0
146
1.0
147
0.625
148
0.0
 69
0
 70
0
 71
0
 72
0
 73
0
 74
0
 75
0
 76
0
 77
1
 78
8
 79
3
170
0
171
3
172
1
173
0
174
0
175
0
176
0
177
0
178
0
179
2
271
2
272
2
273
2
274
3
275
0
276
0
277
2
278
44
279
0
280
0
281
0
282
0
283
0
284
8
285
0
286
0
288
0
289
3
290
0
371
-2
372
-2
  0
ENDTAB
  0
TABLE
  2
BLOCK_RECORD
  5
9
330
0
100
AcDbSymbolTable
 70
2
  0
BLOCK_RECORD
  5
17
330
9
100
AcDbSymbolTableRecord
100
AcDbBlockTableRecord
  2
*Model_Space
340
1A
 70
0
280
1
281
0
  0
BLOCK_RECORD
  5
1B
330
9
100
AcDbSymbolTableRecord
100
AcDbBlockTableRecord
  2
*Paper_Space
340
1E
 70
0
280
1
281
0
  0
ENDTAB
  0
ENDSEC
  0
SECTION
  2
BLOCKS
  0
BLOCK
  5
18
330
17
100
AcDbEntity
  8
0
100
AcDbBlockBegin
  2
*Model_Space
 70
0
 10
0.0
 20
0.0
 30
0.0
  3
*Model_Space
  1

  0
ENDBLK
  5
19
330
17
100
AcDbEntity
  8
0
100
AcDbBlockEnd
  0
BLOCK
  5
1C
330
1B
100
AcDbEntity
  8
0
100
AcDbBlockBegin
  2
*Paper_Space
 70
0
 10
0.0
 20
0.0
 30
0.0
  3
*Paper_Space
  1

  0
ENDBLK
  5
1D
330
1B
100
AcDbEntity
  8
0
100
AcDbBlockEnd
  0
ENDSEC
  0
SECTION
  2
ENTITIES
  0
CIRCLE
  5
3A
330
17
100
AcDbEntity
  8
CUT_REFERENCE
100
AcDbCircle
 10
0.0
 20
0.0
 30
0.0
 40
57.5
  0
CIRCLE
  5
3B
330
17
100
AcDbEntity
  8
CUT_REFERENCE
100
AcDbCircle
 10
0.0
 20
0.0
 30
0.0
 40
47.0
  0
CIRCLE
  5
3C
330
17
100
AcDbEntity
  8
CUT_REFERENCE
100
AcDbCircle
 10
0.0
 20
0.0
 30
0.0
 40
1.6
  0
LINE
  5
3D
330
17
100
AcDbEntity
  8
ENGRAVE_LOG
100
AcDbLine
 10
2.87791997799628e-15
 20
47.0
 30
0.0
 11
2.718715894107124e-15
 21
44.4
 31
0.0
  0
LINE
  5
3E
330
17
100
AcDbEntity
  8
ENGRAVE_LOG
100
AcDbLine
 10
2.87791997799628e-15
 20
47.0
 30
0.0
 11
3.037124061885436e-15
 21
49.6
 31
0.0
  0
TEXT
  5
3F
330
17
100
AcDbEntity
  8
ENGRAVE_TEXT
100
AcDbText
 10
2.6084976821838625e-15
 20
42.6
 30
0.0
 40
3.5
  1
1
 72
1
 11
2.6084976821838625e-15
 21
42.6
 31
0.0
100
AcDbText
 73
2
  0
TEXT
  5
40
330
17
100
AcDbEntity
  8
ENGRAVE_TEXT
100
AcDbText
 10
3.1473422738086977e-15
 20
51.4
 30
0.0
 40
3.5
  1
1
 72
1
 11
3.1473422738086977e-15
 21
51.4
 31
0.0
100
AcDbText
 73
2
  0
LINE
  5
41
330
17
100
AcDbEntity
  8
ENGRAVE_LOG
100
AcDbLine
 10
1.275986839861749
 20
46.982676143281786
 30
0.0
 11
1.2583402133530228
 21
46.332915728534275
 31
0.0
  0
LINE
  5
42
330
17
100
AcDbEntity
  8
ENGRAVE_LOG
100
AcDbLine
 10
1.275986839861749
 20
46.982676143281786
 30
0.0
 11
1.2936334663704754
 21
47.6324365580293
 31
0.0
  0
LINE
  5
43
330
17
100
AcDbEntity
  8
ENGRAVE_LOG
100
AcDbLine
 10
2.5384784355319487
 20
46.93139809586263
 30
0.0
 11
2.503371818870337
 21
46.282346845600706
 31
0.0
  0
LINE
  5
44
330
17
100
AcDbEntity
  8
ENGRAVE_LOG
100
AcDbLine
 10
2.5384784355319487
 20
46.93139809586263
 30
0.0
 11
2.573585052193561
 21
47.58044934612457
 31
0.0
  0
LINE
  5
45
330
17
100
AcDbEntity
  8
ENGRAVE_LOG
100
AcDbLine
 10
3.786847887356693
 20
46.84719610689653
 30
0.0
 11
3.7344765867868666
 21
46.19930935222669
 31
0.0
  0
LINE
  5
46
330
17
100
AcDbEntity
  8
ENGRAVE_LOG
100
AcDbLine
 10
3.786847887356693
 20
46.84719610689653
 30
0.0
 11
3.8392191879265196
 21
47.49508286156638
 31
0.0
  0
LINE
  5
47
330
17
100
AcDbEntity
  8
ENGRAVE_LOG
100
AcDbLine
 10
5.020513448460052
 20
46.73108649190421
 30
0.0
 11
4.951080815662201
 21
46.08480550850553
 31
0.0
  0
LINE
  5
48
330
17
100
AcDbEntity
  8
ENGRAVE_LOG
100
AcDbLine
 10
5.020513448460052
 20
46.73108649190421
 30
0.0
 11
5.089946081257905
 21
47.37736747530288
 31
0.0
  0
LINE
  5
49
330
17
100
AcDbEntity
  8
ENGRAVE_LOG
100
AcDbLine
 10
6.23893642423972
 20
46.58407101461072
 30
0.0
 11
6.083626730274602
 21
45.42442499148105
 31
0.0
  0
LINE
  5
4A
330
17
100
AcDbEntity
  8
ENGRAVE_LOG
100
AcDbLine
 10
6.23893642423972
 20
46.58407101461072
 30
0.0
 11
6.394246118204836
 21
47.743717037740396
 31
0.0
  0
LINE
  5
4B
330
17
100
AcDbEntity
  8
ENGRAVE_LOG
100
AcDbLine
 10
7.441619156508631
 20
46.40713635131437
 30
0.0
 11
7.338703146897342
 21
45.765335529434495
 31
0.0
  0
LINE
  5
4C
330
17
100
AcDbEntity
  8
ENGRAVE_LOG
100
AcDbLine
 10
7.441619156508631
 20
46.40713635131437
 30
0.0
 11
7.544535166119921
 21
47.048937173194254
 31
0.0
  0
LINE
  5
4D
330
17
100
AcDbEntity
  8
ENGRAVE_LOG
100
AcDbLine
 10
8.628103089540222
 20
46.201253631002984
 30
0.0
 11
8.508778259578495
 21
45.56230012334018
 31
0.0
  0
LINE
  5
4E
330
17
100
AcDbEntity
  8
ENGRAVE_LOG
100
AcDbLine
 10
8.628103089540222
 20
46.201253631002984
 30
0.0
 11
8.747427919501948
 21
46.84020713866579
 31
0.0
  0
LINE
  5
4F
330
17
100
AcDbEntity
  8
ENGRAVE_LOG
100
AcDbLine
 10
9.797966915288216
 20
45.967378044945285
 30
0.0
 11
9.662463117523592
 21
45.331658986876896
 31
0.0
  0
LINE
  5
50
330
17
100
AcDbEntity
  8
ENGRAVE_LOG
100
AcDbLine
 10
9.797966915288216
 20
45.967378044945285
 30
0.0
 11
9.93347071305284
 21
46.603097103013674
 31
0.0
  0
LINE
  5
51
330
17
100
AcDbEntity
  8
ENGRAVE_LOG
100
AcDbLine
 10
10.950824795075913
 20
45.706448519957775
 30
0.0
 11
10.799377218122737
 21
45.074338061703045
 31
0.0
  0
LINE
  5
52
330
17
100
AcDbEntity
  8
ENGRAVE_LOG
100
AcDbLine
 10
10.950824795075913
 20
45.706448519957775
 30
0.0
 11
11.102272372029091
 21
46.33855897821251
 31
0.0
  0
LINE
  5
53
330
17
100
AcDbEntity
  8
ENGRAVE_LOG
100
AcDbLine
 10
12.086324655083876
 20
45.41938744998562
 30
0.0
 11
11.417719461398384
 21
42.90682559105025
 31
0.0
  0
LINE
  5
54
330
17
100
AcDbEntity
  8
ENGRAVE_LOG
100
AcDbLine
 10
12.086324655083876
 20
45.41938744998562
 30
0.0
 11
12.754929848769367
 21
47.931949308921
 31
0.0
  0
TEXT
  5
55
330
17
100
AcDbEntity
  8
ENGRAVE_TEXT
100
AcDbText
 10
10.954838942693046
 20
41.16735968871038
 30
0.0
 40
3.5
  1
1.1
 50
-14.901366656961025
 72
1
 11
10.954838942693046
 21
41.16735968871038
 31
0.0
100
AcDbText
 73
2
  0
TEXT
  5
56
330
17
100
AcDbEntity
  8
ENGRAVE_TEXT
100
AcDbText
 10
13.217810367474707
 20
49.67141521126087
 30
0.0
 40
3.5
  1
1.1
 50
-14.901366656961025
 72
1
 11
13.217810367474707
 21
49.67141521126087
 31
0.0
100
AcDbText
 73
2
  0
LINE
  5
57
330
17
100
AcDbEntity
  8
ENGRAVE_LOG
100
AcDbLine
 10
13.20414655300706
 20
45.10710048104081
 30
0.0
 11
13.021536015571856
 21
44.48327887864344
 31
0.0
  0
LINE
  5
58
330
17
100
AcDbEntity
  8
ENGRAVE_LOG
100
AcDbLine
 10
13.20414655300706
 20
45.10710048104081
 30
0.0
 11
13.386757090442263
 21
45.73092208343818
 31
0.0
  0
LINE
  5
59
330
17
100
AcDbEntity
  8
ENGRAVE_LOG
100
AcDbLine
 10
14.304001113300517
 20
44.77047634491616
 30
0.0
 11
14.106179821308062
 21
44.151310182699234
 31
0.0
  0
LINE
  5
5A
330
17
100
AcDbEntity
  8
ENGRAVE_LOG
100
AcDbLine
 10
14.304001113300517
 20
44.77047634491616
 30
0.0
 11
14.50182240529297
 21
45.38964250713309
 31
0.0
  0
LINE
  5
5B
330
17
100
AcDbEntity
  8
ENGRAVE_LOG
100
AcDbLine
 10
15.385628028486458
 20
44.41038673744074
 30
0.0
 11
15.172848066390369
 21
43.79620053788039
 31
0.0
  0
LINE
  5
5C
330
17
100
AcDbEntity
  8
ENGRAVE_LOG
100
AcDbLine
 10
15.385628028486458
 20
44.41038673744074
 30
0.0
 11
15.598407990582547
 21
45.02457293700109
 31
0.0
  0
LINE
  5
5D
330
17
100
AcDbEntity
  8
ENGRAVE_LOG
100
AcDbLine
 10
16.448794624054184
 20
44.027686237363035
 30
0.0
 11
16.221311294147053
 21
43.41879270429312
 31
0.0
  0
LINE
  5
5E
330
17
100
AcDbEntity
  8
ENGRAVE_LOG
100
AcDbLine
 10
16.448794624054184
 20
44.027686237363035
 30
0.0
 11
16.676277953961314
 21
44.636579770432945
 31
0.0
  0
LINE
  5
5F
330
17
100
AcDbEntity
  8
ENGRAVE_LOG
100
AcDbLine
 10
17.493294484544048
 20
43.62321226224658
 30
0.0
 11
17.057823111205398
 21
42.53727272295236
 31
0.0
  0
LINE
  5
60
330
17
100
AcDbEntity
  8
ENGRAVE_LOG
100
AcDbLine
 10
17.493294484544048
 20
43.62321226224658
 30
0.0
 11
17.9287658578827
 21
44.70915180154081
 31
0.0
  0
LINE
  5
61
330
17
100
AcDbEntity
  8
ENGRAVE_LOG
100
AcDbLine
 10
18.518946138472625
 20
43.19778505803683
 30
0.0
 11
18.262833053578856
 21
42.60036888170227
 31
0.0
  0
LINE
  5
62
330
17
100
AcDbEntity
  8
ENGRAVE_LOG
100
AcDbLine
 10
18.518946138472625
 20
43.19778505803683
 30
0.0
 11
18.775059223366394
 21
43.795201234371376
 31
0.0
  0
LINE
  5
63
330
17
100
AcDbEntity
  8
ENGRAVE_LOG
100
AcDbLine
 10
19.52559179981971
 20
42.75220771921391
 30
0.0
 11
19.25555701960944
 21
42.16095378267159
 31
0.0
  0
LINE
  5
64
330
17
100
AcDbEntity
  8
ENGRAVE_LOG
100
AcDbLine
 10
19.52559179981971
 20
42.75220771921391
 30
0.0
 11
19.795626580029985
 21
43.34346165575623
 31
0.0
  0
LINE
  5
65
330
17
100
AcDbEntity
  8
ENGRAVE_LOG
100
AcDbLine
 10
20.513096163866145
 20
42.28726623668146
 30
0.0
 11
20.22940440840842
 21
41.70244234191885
 31
0.0
  0
LINE
  5
66
330
17
100
AcDbEntity
  8
ENGRAVE_LOG
100
AcDbLine
 10
20.513096163866145
 20
42.28726623668146
 30
0.0
 11
20.796787919323865
 21
42.872090131444075
 31
0.0
  0
LINE
  5
67
330
17
100
AcDbEntity
  8
ENGRAVE_LOG
100
AcDbLine
 10
21.481345255238274
 20
41.80372957076021
 30
0.0
 11
21.18426282085732
 21
41.22559288520715
 31
0.0
  0
LINE
  5
68
330
17
100
AcDbEntity
  8
ENGRAVE_LOG
100
AcDbLine
 10
21.481345255238274
 20
41.80372957076021
 30
0.0
 11
21.77842768961923
 21
42.38186625631328
 31
0.0
  0
LINE
  5
69
330
17
100
AcDbEntity
  8
ENGRAVE_LOG
100
AcDbLine
 10
22.430245326082943
 20
41.30234974685743
 30
0.0
 11
21.189423244214524
 21
39.01753890979723
 31
0.0
  0
LINE
  5
6A
330
17
100
AcDbEntity
  8
ENGRAVE_LOG
100
AcDbLine
 10
22.430245326082943
 20
41.30234974685743
 30
0.0
 11
23.671067407951362
 21
43.58716058391763
 31
0.0
  0
TEXT
  5
6B
330
17
100
AcDbEntity
  8
ENGRAVE_TEXT
100
AcDbText
 10
20.330392572151776
 20
37.43574679183248
 30
0.0
 40
3.5
  1
1.2
 50
-28.505248577144933
 72
1
 11
20.330392572151776
 21
37.43574679183248
 31
0.0
100
AcDbText
 73
2
  0
TEXT
  5
6C
330
17
100
AcDbEntity
  8
ENGRAVE_TEXT
100
AcDbText
 10
24.530098080014113
 20
45.16895270188238
 30
0.0
 40
3.5
  1
1.2
 50
-28.505248577144933
 72
1
 11
24.530098080014113
 21
45.16895270188238
 31
0.0
100
AcDbText
 73
2
  0
LINE
  5
6D
330
17
100
AcDbEntity
  8
ENGRAVE_LOG
100
AcDbLine
 10
23.359721802364586
 20
40.78386197157072
 30
0.0
 11
23.03666181999146
 21
40.21982983792134
 31
0.0
  0
LINE
  5
6E
330
17
100
AcDbEntity
  8
ENGRAVE_LOG
100
AcDbLine
 10
23.359721802364586
 20
40.78386197157072
 30
0.0
 11
23.682781784737713
 21
41.34789410522011
 31
0.0
  0
LINE
  5
6F
330
17
100
AcDbEntity
  8
ENGRAVE_LOG
100
AcDbLine
 10
24.26971827634347
 20
40.248984767158035
 30
0.0
 11
23.934073236351484
 21
39.69234987144202
 31
0.0
  0
LINE
  5
70
330
17
100
AcDbEntity
  8
ENGRAVE_LOG
100
AcDbLine
 10
24.26971827634347
 20
40.248984767158035
 30
0.0
 11
24.60536331633545
 21
40.80561966287405
 31
0.0
  0
LINE
  5
71
330
17
100
AcDbEntity
  8
ENGRAVE_LOG
100
AcDbLine
 10
25.1601955433606
 20
39.69842012246655
 30
0.0
 11
24.81223539222902
 21
39.14939941864521
 31
0.0
  0
LINE
  5
72
330
17
100
AcDbEntity
  8
ENGRAVE_LOG
100
AcDbLine
 10
25.1601955433606
 20
39.69842012246655
 30
0.0
 11
25.50815569449218
 21
40.2474408262879
 31
0.0
  0
LINE
  5
73
330
17
100
AcDbEntity
  8
ENGRAVE_LOG
100
AcDbLine
 10
26.031130681120665
 20
39.13285365856186
 30
0.0
 11
25.67112568233921
 21
38.59165461860302
 31
0.0
  0
LINE
  5
74
330
17
100
AcDbEntity
  8
ENGRAVE_LOG
100
AcDbLine
 10
26.031130681120665
 20
39.13285365856186
 30
0.0
 11
26.39113567990212
 21
39.67405269852069
 31
0.0
  0
LINE
  5
75
330
17
100
AcDbEntity
  8
ENGRAVE_LOG
100
AcDbLine
 10
26.88251616972917
 20
38.55295480743661
 30
0.0
 11
26.213313107631656
 21
37.5932323154217
 31
0.0
  0
LINE
  5
76
330
17
100
AcDbEntity
  8
ENGRAVE_LOG
100
AcDbLine
 10
26.88251616972917
 20
38.55295480743661
 30
0.0
 11
27.551719231826684
 21
39.512677299451525
 31
0.0
  0
LINE
  5
77
330
17
100
AcDbEntity
  8
ENGRAVE_LOG
100
AcDbLine
 10
27.71435905080309
 20
37.95937700230562
 30
0.0
 11
27.331075361802622
 21
37.43440689482693
 31
0.0
  0
LINE
  5
78
330
17
100
AcDbEntity
  8
ENGRAVE_LOG
100
AcDbLine
 10
27.71435905080309
 20
37.95937700230562
 30
0.0
 11
28.097642739803558
 21
38.484347109784316
 31
0.0
  0
LINE
  5
79
330
17
100
AcDbEntity
  8
ENGRAVE_LOG
100
AcDbLine
 10
28.52668012403678
 20
37.35275787811236
 30
0.0
 11
28.13216220742776
 21
36.83617718405336
 31
0.0
  0
LINE
  5
7A
330
17
100
AcDbEntity
  8
ENGRAVE_LOG
100
AcDbLine
 10
28.52668012403678
 20
37.35275787811236
 30
0.0
 11
28.921198040645795
 21
37.86933857217136
 31
0.0
  0
LINE
  5
7B
330
17
100
AcDbEntity
  8
ENGRAVE_LOG
100
AcDbLine
 10
29.319513179665197
 20
36.733719480981485
 30
0.0
 11
28.914030550584723
 21
36.225699956244505
 31
0.0
  0
LINE
  5
7C
330
17
100
AcDbEntity
  8
ENGRAVE_LOG
100
AcDbLine
 10
29.319513179665197
 20
36.733719480981485
 30
0.0
 11
29.724995808745675
 21
37.24173900571846
 31
0.0
  0
LINE
  5
7D
330
17
100
AcDbEntity
  8
ENGRAVE_LOG
100
AcDbLine
 10
30.092904265325714
 20
36.10286848545336
 30
0.0
 11
29.67672580208185
 21
35.60357349576092
 31
0.0
  0
LINE
  5
7E
330
17
100
AcDbEntity
  8
ENGRAVE_LOG
100
AcDbLine
 10
30.092904265325714
 20
36.10286848545336
 30
0.0
 11
30.50908272856958
 21
36.602163475145794
 31
0.0
  0
LINE
  5
7F
330
17
100
AcDbEntity
  8
ENGRAVE_LOG
100
AcDbLine
 10
30.846910985877344
 20
35.460796418430306
 30
0.0
 11
29.140486122828808
 21
33.49913533996395
 31
0.0
  0
LINE
  5
80
330
17
100
AcDbEntity
  8
ENGRAVE_LOG
100
AcDbLine
 10
30.846910985877344
 20
35.460796418430306
 30
0.0
 11
32.553335848925876
 21
37.42245749689666
 31
0.0
  0
TEXT
  5
81
330
17
100
AcDbEntity
  8
ENGRAVE_TEXT
100
AcDbText
 10
27.95911506379521
 20
32.141062285641084
 30
0.0
 40
3.5
  1
1.3
 50
-41.01960683046124
 72
1
 11
27.95911506379521
 21
32.141062285641084
 31
0.0
100
AcDbText
 73
2
  0
TEXT
  5
82
330
17
100
AcDbEntity
  8
ENGRAVE_TEXT
100
AcDbText
 10
33.73470690795948
 20
38.78053055121952
 30
0.0
 40
3.5
  1
1.3
 50
-41.01960683046124
 72
1
 11
33.73470690795948
 21
38.78053055121952
 31
0.0
100
AcDbText
 73
2
  0
LINE
  5
83
330
17
100
AcDbEntity
  8
ENGRAVE_LOG
100
AcDbLine
 10
31.581601834791854
 20
34.80807988885155
 30
0.0
 11
31.144835000906436
 21
34.32669154996318
 31
0.0
  0
LINE
  5
84
330
17
100
AcDbEntity
  8
ENGRAVE_LOG
100
AcDbLine
 10
31.581601834791854
 20
34.80807988885155
 30
0.0
 11
32.01836866867727
 21
35.289468227739924
 31
0.0
  0
LINE
  5
85
330
17
100
AcDbEntity
  8
ENGRAVE_LOG
100
AcDbLine
 10
32.297055555785754
 20
34.14528082219399
 30
0.0
 11
31.850394149163183
 21
33.67305885337641
 31
0.0
  0
LINE
  5
86
330
17
100
AcDbEntity
  8
ENGRAVE_LOG
100
AcDbLine
 10
32.297055555785754
 20
34.14528082219399
 30
0.0
 11
32.74371696240832
 21
34.61750279101156
 31
0.0
  0
LINE
  5
87
330
17
100
AcDbEntity
  8
ENGRAVE_LOG
100
AcDbLine
 10
32.99336053341423
 20
33.47294669897086
 30
0.0
 11
32.537069377101055
 21
33.01002296802764
 31
0.0
  0
LINE
  5
88
330
17
100
AcDbEntity
  8
ENGRAVE_LOG
100
AcDbLine
 10
32.99336053341423
 20
33.47294669897086
 30
0.0
 11
33.44965168972741
 21
33.93587042991407
 31
0.0
  0
LINE
  5
89
330
17
100
AcDbEntity
  8
ENGRAVE_LOG
100
AcDbLine
 10
33.67061421139942
 20
32.79161079646909
 30
0.0
 11
33.20495678081623
 21
32.33810979609238
 31
0.0
  0
LINE
  5
8A
330
17
100
AcDbEntity
  8
ENGRAVE_LOG
100
AcDbLine
 10
33.67061421139942
 20
32.79161079646909
 30
0.0
 11
34.136271641982596
 21
33.245111796845784
 31
0.0
  0
LINE
  5
8B
330
17
100
AcDbEntity
  8
ENGRAVE_LOG
100
AcDbLine
 10
34.32892253751405
 20
32.101792433030276
 30
0.0
 11
33.47435148711211
 21
31.302662706505902
 31
0.0
  0
LINE
  5
8C
330
17
100
AcDbEntity
  8
ENGRAVE_LOG
100
AcDbLine
 10
34.32892253751405
 20
32.101792433030276
 30
0.0
 11
35.183493587916004
 21
32.900922159554646
 31
0.0
  0
LINE
  5
8D
330
17
100
AcDbEntity
  8
ENGRAVE_LOG
100
AcDbLine
 10
34.96839943388962
 20
31.403997214239276
 30
0.0
 11
34.48479390980392
 21
30.969686614467882
 31
0.0
  0
LINE
  5
8E
330
17
100
AcDbEntity
  8
ENGRAVE_LOG
100
AcDbLine
 10
34.96839943388962
 20
31.403997214239276
 30
0.0
 11
35.452004957975326
 21
31.838307814010665
 31
0.0
  0
LINE
  5
8F
330
17
100
AcDbEntity
  8
ENGRAVE_LOG
100
AcDbLine
 10
35.58916629166337
 20
30.69871728043913
 30
0.0
 11
35.096975694012706
 21
30.274160552092635
 31
0.0
  0
LINE
  5
90
330
17
100
AcDbEntity
  8
ENGRAVE_LOG
100
AcDbLine
 10
35.58916629166337
 20
30.69871728043913
 30
0.0
 11
36.08135688931403
 21
31.12327400878563
 31
0.0
  0
LINE
  5
91
330
17
100
AcDbEntity
  8
ENGRAVE_LOG
100
AcDbLine
 10
36.19135148892322
 20
29.98643155504195
 30
0.0
 11
35.69083279811896
 21
29.571725586727542
 31
0.0
  0
LINE
  5
92
330
17
100
AcDbEntity
  8
ENGRAVE_LOG
100
AcDbLine
 10
36.19135148892322
 20
29.98643155504195
 30
0.0
 11
36.691870179727474
 21
30.40113752335636
 31
0.0
  0
LINE
  5
93
330
17
100
AcDbEntity
  8
ENGRAVE_LOG
100
AcDbLine
 10
36.77508993095216
 20
29.2676059931519
 30
0.0
 11
36.266498261694316
 21
28.862841229416823
 31
0.0
  0
LINE
  5
94
330
17
100
AcDbEntity
  8
ENGRAVE_LOG
100
AcDbLine
 10
36.77508993095216
 20
29.2676059931519
 30
0.0
 11
37.28368160021001
 21
29.67237075688698
 31
0.0
  0
LINE
  5
95
330
17
100
AcDbEntity
  8
ENGRAVE_LOG
100
AcDbLine
 10
37.340522611814535
 20
28.542693830060394
 30
0.0
 11
35.27487668009713
 21
26.963736299035773
 31
0.0
  0
LINE
  5
96
330
17
100
AcDbEntity
  8
ENGRAVE_LOG
100
AcDbLine
 10
37.340522611814535
 20
28.542693830060394
 30
0.0
 11
39.40616854353193
 21
30.12165136108501
 31
0.0
  0
TEXT
  5
97
330
17
100
AcDbEntity
  8
ENGRAVE_TEXT
100
AcDbText
 10
33.84481411198509
 20
25.870611854480273
 30
0.0
 40
3.5
  1
1.4
 50
-52.60609284416569
 72
1
 11
33.84481411198509
 21
25.870611854480273
 31
0.0
100
AcDbText
 73
2
  0
TEXT
  5
98
330
17
100
AcDbEntity
  8
ENGRAVE_TEXT
100
AcDbText
 10
40.836231111643976
 20
31.214775805640514
 30
0.0
 40
3.5
  1
1.4
 50
-52.60609284416569
 72
1
 11
40.836231111643976
 21
31.214775805640514
 31
0.0
100
AcDbText
 73
2
  0
LINE
  5
99
330
17
100
AcDbEntity
  8
ENGRAVE_LOG
100
AcDbLine
 10
37.88779619636645
 20
27.812135829213112
 30
0.0
 11
37.363816036203936
 21
27.4274999081708
 31
0.0
  0
LINE
  5
9A
330
17
100
AcDbEntity
  8
ENGRAVE_LOG
100
AcDbLine
 10
37.88779619636645
 20
27.812135829213112
 30
0.0
 11
38.41177635652897
 21
28.19677175025542
 31
0.0
  0
LINE
  5
9B
330
17
100
AcDbEntity
  8
ENGRAVE_LOG
100
AcDbLine
 10
38.41706262181067
 20
27.076360529286017
 30
0.0
 11
37.88576281959414
 21
26.701900224093766
 31
0.0
  0
LINE
  5
9C
330
17
100
AcDbEntity
  8
ENGRAVE_LOG
100
AcDbLine
 10
38.41706262181067
 20
27.076360529286017
 30
0.0
 11
38.948362424027195
 21
27.45082083447827
 31
0.0
  0
LINE
  5
9D
330
17
100
AcDbEntity
  8
ENGRAVE_LOG
100
AcDbLine
 10
38.928478717952444
 20
26.335784490041753
 30
0.0
 11
38.390106139938204
 21
25.97156619390288
 31
0.0
  0
LINE
  5
9E
330
17
100
AcDbEntity
  8
ENGRAVE_LOG
100
AcDbLine
 10
38.928478717952444
 20
26.335784490041753
 30
0.0
 11
39.46685129596668
 21
26.70000278618063
 31
0.0
  0
LINE
  5
9F
330
17
100
AcDbEntity
  8
ENGRAVE_LOG
100
AcDbLine
 10
39.422205845348586
 20
25.590812536669556
 30
0.0
 11
38.87700512621079
 21
25.23689704414115
 31
0.0
  0
LINE
  5
A0
330
17
100
AcDbEntity
  8
ENGRAVE_LOG
100
AcDbLine
 10
39.422205845348586
 20
25.590812536669556
 30
0.0
 11
39.96740656448639
 21
25.944728029197965
 31
0.0
  0
LINE
  5
A1
330
17
100
AcDbEntity
  8
ENGRAVE_LOG
100
AcDbLine
 10
39.89840955057549
 20
24.84183800234086
 30
0.0
 11
38.90519382346542
 21
24.223434801005993
 31
0.0
  0
LINE
  5
A2
330
17
100
AcDbEntity
  8
ENGRAVE_LOG
100
AcDbLine
 10
39.89840955057549
 20
24.84183800234086
 30
0.0
 11
40.89162527768556
 21
25.460241203675732
 31
0.0
  0
LINE
  5
A3
330
17
100
AcDbEntity
  8
ENGRAVE_LOG
100
AcDbLine
 10
40.357259237874196
 20
24.08924296874059
 30
0.0
 11
39.7991269292653
 21
23.75609386385375
 31
0.0
  0
LINE
  5
A4
330
17
100
AcDbEntity
  8
ENGRAVE_LOG
100
AcDbLine
 10
40.357259237874196
 20
24.08924296874059
 30
0.0
 11
40.91539154648309
 21
24.422392073627424
 31
0.0
  0
LINE
  5
A5
330
17
100
AcDbEntity
  8
ENGRAVE_LOG
100
AcDbLine
 10
40.79892785646238
 20
23.33339850435805
 30
0.0
 11
40.23468736483045
 21
23.010702567595654
 31
0.0
  0
LINE
  5
A6
330
17
100
AcDbEntity
  8
ENGRAVE_LOG
100
AcDbLine
 10
40.79892785646238
 20
23.33339850435805
 30
0.0
 11
41.3631683480943
 21
23.65609444112045
 31
0.0
  0
LINE
  5
A7
330
17
100
AcDbEntity
  8
ENGRAVE_LOG
100
AcDbLine
 10
41.22359160283231
 20
22.574664900345564
 30
0.0
 11
40.65347810194207
 21
22.262462087893976
 31
0.0
  0
LINE
  5
A8
330
17
100
AcDbEntity
  8
ENGRAVE_LOG
100
AcDbLine
 10
41.22359160283231
 20
22.574664900345564
 30
0.0
 11
41.79370510372254
 21
22.886867712797148
 31
0.0
  0
LINE
  5
A9
330
17
100
AcDbEntity
  8
ENGRAVE_LOG
100
AcDbLine
 10
41.63142963738322
 20
21.813391903773475
 30
0.0
 11
41.055675823249196
 21
21.511717334891504
 31
0.0
  0
LINE
  5
AA
330
17
100
AcDbEntity
  8
ENGRAVE_LOG
100
AcDbLine
 10
41.63142963738322
 20
21.813391903773475
 30
0.0
 11
42.20718345151724
 21
22.11506647265545
 31
0.0
  0
LINE
  5
AB
330
17
100
AcDbEntity
  8
ENGRAVE_LOG
100
AcDbLine
 10
42.022623814763755
 20
21.049918948130195
 30
0.0
 11
39.697968029266185
 21
19.88545534674427
 31
0.0
  0
LINE
  5
AC
330
17
100
AcDbEntity
  8
ENGRAVE_LOG
100
AcDbLine
 10
42.022623814763755
 20
21.049918948130195
 30
0.0
 11
44.347279600261324
 21
22.21438254951612
 31
0.0
  0
TEXT
  5
AD
330
17
100
AcDbEntity
  8
ENGRAVE_TEXT
100
AcDbText
 10
38.088590946998636
 20
19.079288238092474
 30
0.0
 40
3.5
  1
1.5
 50
-63.39285326004524
 72
1
 11
38.088590946998636
 21
19.079288238092474
 31
0.0
100
AcDbText
 73
2
  0
TEXT
  5
AE
330
17
100
AcDbEntity
  8
ENGRAVE_TEXT
100
AcDbText
 10
45.956656682528866
 20
23.020549658167912
 30
0.0
 40
3.5
  1
1.5
 50
-63.39285326004524
 72
1
 11
45.956656682528866
 21
23.020549658167912
 31
0.0
100
AcDbText
 73
2
  0
LINE
  5
AF
330
17
100
AcDbEntity
  8
ENGRAVE_LOG
100
AcDbLine
 10
42.39735842732667
 20
20.284575380933966
 30
0.0
 11
41.8110119809913
 21
20.00404401928275
 31
0.0
  0
LINE
  5
B0
330
17
100
AcDbEntity
  8
ENGRAVE_LOG
100
AcDbLine
 10
42.39735842732667
 20
20.284575380933966
 30
0.0
 11
42.98370487366204
 21
20.56510674258518
 31
0.0
  0
LINE
  5
B1
330
17
100
AcDbEntity
  8
ENGRAVE_LOG
100
AcDbLine
 10
42.75581996112352
 20
19.517680688339784
 30
0.0
 11
42.16451606804415
 21
19.247755317118063
 31
0.0
  0
LINE
  5
B2
330
17
100
AcDbEntity
  8
ENGRAVE_LOG
100
AcDbLine
 10
42.75581996112352
 20
19.517680688339784
 30
0.0
 11
43.347123854202884
 21
19.787606059561504
 31
0.0
  0
LINE
  5
B3
330
17
100
AcDbEntity
  8
ENGRAVE_LOG
100
AcDbLine
 10
43.09819686389105
 20
18.74954471664024
 30
0.0
 11
42.50215797109255
 21
18.49024250247394
 31
0.0
  0
LINE
  5
B4
330
17
100
AcDbEntity
  8
ENGRAVE_LOG
100
AcDbLine
 10
43.09819686389105
 20
18.74954471664024
 30
0.0
 11
43.69423575668954
 21
19.00884693080654
 31
0.0
  0
LINE
  5
B5
330
17
100
AcDbEntity
  8
ENGRAVE_LOG
100
AcDbLine
 10
43.42467932450474
 20
17.98046789057312
 30
0.0
 11
42.82412524874031
 21
17.73180184527796
 31
0.0
  0
LINE
  5
B6
330
17
100
AcDbEntity
  8
ENGRAVE_LOG
100
AcDbLine
 10
43.42467932450474
 20
17.98046789057312
 30
0.0
 11
44.02523340026916
 21
18.22913393586828
 31
0.0
  0
LINE
  5
B7
330
17
100
AcDbEntity
  8
ENGRAVE_LOG
100
AcDbLine
 10
43.735459063396945
 20
17.210741428361832
 30
0.0
 11
42.646725295223014
 21
16.782303822591974
 31
0.0
  0
LINE
  5
B8
330
17
100
AcDbEntity
  8
ENGRAVE_LOG
100
AcDbLine
 10
43.735459063396945
 20
17.210741428361832
 30
0.0
 11
44.82419283157087
 21
17.63917903413169
 31
0.0
  0
LINE
  5
B9
330
17
100
AcDbEntity
  8
ENGRAVE_LOG
100
AcDbLine
 10
44.03072913345873
 20
16.440647553426516
 30
0.0
 11
43.421793517783236
 21
16.213276895772747
 31
0.0
  0
LINE
  5
BA
330
17
100
AcDbEntity
  8
ENGRAVE_LOG
100
AcDbLine
 10
44.03072913345873
 20
16.440647553426516
 30
0.0
 11
44.63966474913422
 21
16.668018211080287
 31
0.0
  0
LINE
  5
BB
330
17
100
AcDbEntity
  8
ENGRAVE_LOG
100
AcDbLine
 10
44.3106837309649
 20
15.670459702714618
 30
0.0
 11
43.6978764027707
 21
15.453740579166439
 31
0.0
  0
LINE
  5
BC
330
17
100
AcDbEntity
  8
ENGRAVE_LOG
100
AcDbLine
 10
44.3106837309649
 20
15.670459702714618
 30
0.0
 11
44.92349105915909
 21
15.887178826262799
 31
0.0
  0
LINE
  5
BD
330
17
100
AcDbEntity
  8
ENGRAVE_LOG
100
AcDbLine
 10
44.575518016081524
 20
14.900442731610067
 30
0.0
 11
43.95904808607189
 21
14.694372778938865
 31
0.0
  0
LINE
  5
BE
330
17
100
AcDbEntity
  8
ENGRAVE_LOG
100
AcDbLine
 10
44.575518016081524
 20
14.900442731610067
 30
0.0
 11
45.19198794609117
 21
15.10651268428127
 31
0.0
  0
LINE
  5
BF
330
17
100
AcDbEntity
  8
ENGRAVE_LOG
100
AcDbLine
 10
44.825427942533864
 20
14.130853115389199
 30
0.0
 11
44.20550181141371
 21
13.93542642336786
 31
0.0
  0
LINE
  5
C0
330
17
100
AcDbEntity
  8
ENGRAVE_LOG
100
AcDbLine
 10
44.825427942533864
 20
14.130853115389199
 30
0.0
 11
45.44535407365401
 21
14.326279807410538
 31
0.0
  0
LINE
  5
C1
330
17
100
AcDbEntity
  8
ENGRAVE_LOG
100
AcDbLine
 10
45.06061009603095
 20
13.361939147199905
 30
0.0
 11
42.56789549497392
 21
12.62276804543991
 31
0.0
  0
LINE
  5
C2
330
17
100
AcDbEntity
  8
ENGRAVE_LOG
100
AcDbLine
 10
45.06061009603095
 20
13.361939147199905
 30
0.0
 11
47.55332469708799
 21
14.1011102489599
 31
0.0
  0
TEXT
  5
C3
330
17
100
AcDbEntity
  8
ENGRAVE_TEXT
100
AcDbText
 10
40.84217000193444
 20
12.111034205759914
 30
0.0
 40
3.5
  1
1.6
 50
-73.48319375613293
 72
1
 11
40.84217000193444
 21
12.111034205759914
 31
0.0
100
AcDbText
 73
2
  0
TEXT
  5
C4
330
17
100
AcDbEntity
  8
ENGRAVE_TEXT
100
AcDbText
 10
49.279050190127464
 20
14.612844088639896
 30
0.0
 40
3.5
  1
1.6
 50
-73.48319375613293
 72
1
 11
49.279050190127464
 21
14.612844088639896
 31
0.0
100
AcDbText
 73
2
  0
LINE
  5
C5
330
17
100
AcDbEntity
  8
ENGRAVE_LOG
100
AcDbLine
 10
45.28126154106019
 20
12.593941132548762
 30
0.0
 11
44.65503132825829
 21
12.419769606247558
 31
0.0
  0
LINE
  5
C6
330
17
100
AcDbEntity
  8
ENGRAVE_LOG
100
AcDbLine
 10
45.28126154106019
 20
12.593941132548762
 30
0.0
 11
45.90749175386208
 21
12.768112658849969
 31
0.0
  0
LINE
  5
C7
330
17
100
AcDbEntity
  8
ENGRAVE_LOG
100
AcDbLine
 10
45.487579675681786
 20
11.827091580287233
 30
0.0
 11
44.85849612697555
 21
11.663525420134324
 31
0.0
  0
LINE
  5
C8
330
17
100
AcDbEntity
  8
ENGRAVE_LOG
100
AcDbLine
 10
45.487579675681786
 20
11.827091580287233
 30
0.0
 11
46.11666322438802
 21
11.99065774044014
 31
0.0
  0
LINE
  5
C9
330
17
100
AcDbEntity
  8
ENGRAVE_LOG
100
AcDbLine
 10
45.679762093969046
 20
11.06161539009511
 30
0.0
 11
45.04802070330777
 21
10.908635602785283
 31
0.0
  0
LINE
  5
CA
330
17
100
AcDbEntity
  8
ENGRAVE_LOG
100
AcDbLine
 10
45.679762093969046
 20
11.06161539009511
 30
0.0
 11
46.311503484630315
 21
11.214595177404934
 31
0.0
  0
LINE
  5
CB
330
17
100
AcDbEntity
  8
ENGRAVE_LOG
100
AcDbLine
 10
45.85800645575523
 20
10.297730036464914
 30
0.0
 11
45.223799983494786
 21
10.155314621066996
 31
0.0
  0
LINE
  5
CC
330
17
100
AcDbEntity
  8
ENGRAVE_LOG
100
AcDbLine
 10
45.85800645575523
 20
10.297730036464914
 30
0.0
 11
46.492212928015675
 21
10.440145451862834
 31
0.0
  0
LINE
  5
CD
330
17
100
AcDbEntity
  8
ENGRAVE_LOG
100
AcDbLine
 10
46.02251036336278
 20
9.535645749196307
 30
0.0
 11
44.87684361601949
 21
9.29826903586525
 31
0.0
  0
LINE
  5
CE
330
17
100
AcDbEntity
  8
ENGRAVE_LOG
100
AcDbLine
 10
46.02251036336278
 20
9.535645749196307
 30
0.0
 11
47.16817711070607
 21
9.773022462527365
 31
0.0
  0
LINE
  5
CF
330
17
100
AcDbEntity
  8
ENGRAVE_LOG
100
AcDbLine
 10
46.17347124500407
 20
8.775565690414615
 30
0.0
 11
45.53490196182848
 21
8.654201484057817
 31
0.0
  0
LINE
  5
D0
330
17
100
AcDbEntity
  8
ENGRAVE_LOG
100
AcDbLine
 10
46.17347124500407
 20
8.775565690414615
 30
0.0
 11
46.81204052817966
 21
8.896929896771413
 31
0.0
  0
LINE
  5
D1
330
17
100
AcDbEntity
  8
ENGRAVE_LOG
100
AcDbLine
 10
46.31108624455665
 20
8.017686128131746
 30
0.0
 11
45.670613775217035
 21
7.90680323487035
 31
0.0
  0
LINE
  5
D2
330
17
100
AcDbEntity
  8
ENGRAVE_LOG
100
AcDbLine
 10
46.31108624455665
 20
8.017686128131746
 30
0.0
 11
46.95155871389626
 21
8.128569021393142
 31
0.0
  0
LINE
  5
D3
330
17
100
AcDbEntity
  8
ENGRAVE_LOG
100
AcDbLine
 10
46.435552117428315
 20
7.262196606371841
 30
0.0
 11
45.793358311548985
 21
7.161761972453933
 31
0.0
  0
LINE
  5
D4
330
17
100
AcDbEntity
  8
ENGRAVE_LOG
100
AcDbLine
 10
46.435552117428315
 20
7.262196606371841
 30
0.0
 11
47.07774592330764
 21
7.362631240289749
 31
0.0
  0
LINE
  5
D5
330
17
100
AcDbEntity
  8
ENGRAVE_LOG
100
AcDbLine
 10
46.5470651322399
 20
6.509280111887651
 30
0.0
 11
45.90332912509191
 21
6.41925815289346
 31
0.0
  0
LINE
  5
D6
330
17
100
AcDbEntity
  8
ENGRAVE_LOG
100
AcDbLine
 10
46.5470651322399
 20
6.509280111887651
 30
0.0
 11
47.1908011393879
 21
6.5993020708818415
 31
0.0
  0
LINE
  5
D7
330
17
100
AcDbEntity
  8
ENGRAVE_LOG
100
AcDbLine
 10
46.64582097806501
 20
5.759113237496735
 30
0.0
 11
44.065413860129496
 21
5.440523994571383
 31
0.0
  0
LINE
  5
D8
330
17
100
AcDbEntity
  8
ENGRAVE_LOG
100
AcDbLine
 10
46.64582097806501
 20
5.759113237496735
 30
0.0
 11
49.22622809600052
 21
6.0777024804220865
 31
0.0
  0
TEXT
  5
D9
330
17
100
AcDbEntity
  8
ENGRAVE_TEXT
100
AcDbText
 10
42.27897816309722
 20
5.219962211007679
 30
0.0
 40
3.5
  1
1.7
 50
-82.96161169617861
 72
1
 11
42.27897816309722
 21
5.219962211007679
 31
0.0
100
AcDbText
 73
2
  0
TEXT
  5
DA
330
17
100
AcDbEntity
  8
ENGRAVE_TEXT
100
AcDbText
 10
51.01266379303279
 20
6.298264263985791
 30
0.0
 40
3.5
  1
1.7
 50
-82.96161169617861
 72
1
 11
51.01266379303279
 21
6.298264263985791
 31
0.0
100
AcDbText
 73
2
  0
LINE
  5
DB
330
17
100
AcDbEntity
  8
ENGRAVE_LOG
100
AcDbLine
 10
46.73201467697741
 20
5.011866342069393
 30
0.0
 11
46.08572085697666
 21
4.942553296913114
 31
0.0
  0
LINE
  5
DC
330
17
100
AcDbEntity
  8
ENGRAVE_LOG
100
AcDbLine
 10
46.73201467697741
 20
5.011866342069393
 30
0.0
 11
47.37830849697816
 21
5.081179387225672
 31
0.0
  0
LINE
  5
DD
330
17
100
AcDbEntity
  8
ENGRAVE_LOG
100
AcDbLine
 10
46.80584050166735
 20
4.267703707203238
 30
0.0
 11
46.15852568621876
 21
4.2086822729546824
 31
0.0
  0
LINE
  5
DE
330
17
100
AcDbEntity
  8
ENGRAVE_LOG
100
AcDbLine
 10
46.80584050166735
 20
4.267703707203238
 30
0.0
 11
47.45315531711594
 21
4.326725141451793
 31
0.0
  0
LINE
  5
DF
330
17
100
AcDbEntity
  8
ENGRAVE_LOG
100
AcDbLine
 10
46.86749189789838
 20
3.526783690620916
 30
0.0
 11
46.219324456757235
 21
3.4780090225591374
 31
0.0
  0
LINE
  5
E0
330
17
100
AcDbEntity
  8
ENGRAVE_LOG
100
AcDbLine
 10
46.86749189789838
 20
3.526783690620916
 30
0.0
 11
47.51565933903953
 21
3.5755583586826947
 31
0.0
  0
LINE
  5
E1
330
17
100
AcDbEntity
  8
ENGRAVE_LOG
100
AcDbLine
 10
46.91716141158599
 20
2.789258876330156
 30
0.0
 11
46.26830705163852
 21
2.7506840195298454
 31
0.0
  0
LINE
  5
E2
330
17
100
AcDbEntity
  8
ENGRAVE_LOG
100
AcDbLine
 10
46.91716141158599
 20
2.789258876330156
 30
0.0
 11
47.56601577153345
 21
2.8278337331304666
 31
0.0
  0
LINE
  5
E3
330
17
100
AcDbEntity
  8
ENGRAVE_LOG
100
AcDbLine
 10
46.9550406202889
 20
2.0552762215867357
 30
0.0
 11
45.786159821868935
 21
2.0041129624536187
 31
0.0
  0
LINE
  5
E4
330
17
100
AcDbEntity
  8
ENGRAVE_LOG
100
AcDbLine
 10
46.9550406202889
 20
2.0552762215867357
 30
0.0
 11
48.12392141870885
 21
2.1064394807198523
 31
0.0
  0
LINE
  5
E5
330
17
100
AcDbEntity
  8
ENGRAVE_LOG
100
AcDbLine
 10
46.98132006891269
 20
1.3249772007026384
 30
0.0
 11
46.33157840838517
 21
1.3066530479269638
 31
0.0
  0
LINE
  5
E6
330
17
100
AcDbEntity
  8
ENGRAVE_LOG
100
AcDbLine
 10
46.98132006891269
 20
1.3249772007026384
 30
0.0
 11
47.631061729440205
 21
1.3433013534783131
 31
0.0
  0
LINE
  5
E7
330
17
100
AcDbEntity
  8
ENGRAVE_LOG
100
AcDbLine
 10
46.99618920943422
 20
0.5984979457431173
 30
0.0
 11
46.34624191185694
 21
0.5902208464934785
 31
0.0
  0
LINE
  5
E8
330
17
100
AcDbEntity
  8
ENGRAVE_LOG
100
AcDbLine
 10
46.99618920943422
 20
0.5984979457431173
 30
0.0
 11
47.6461365070115
 21
0.6067750449927561
 31
0.0
  0
LINE
  5
E9
330
17
100
AcDbEntity
  8
ENGRAVE_LOG
100
AcDbLine
 10
46.999836344463304
 20
-0.1240306158427825
 30
0.0
 11
46.34983860778456
 21
-0.12231529881516955
 31
0.0
  0
LINE
  5
EA
330
17
100
AcDbEntity
  8
ENGRAVE_LOG
100
AcDbLine
 10
46.999836344463304
 20
-0.1240306158427825
 30
0.0
 11
47.64983408114205
 21
-0.12574593287039545
 31
0.0
  0
LINE
  5
EB
330
17
100
AcDbEntity
  8
ENGRAVE_LOG
100
AcDbLine
 10
46.992448574466266
 20
-0.8424826266123062
 30
0.0
 11
46.34255300907471
 21
-0.8308312711378807
 31
0.0
  0
LINE
  5
EC
330
17
100
AcDbEntity
  8
ENGRAVE_LOG
100
AcDbLine
 10
46.992448574466266
 20
-0.8424826266123062
 30
0.0
 11
47.64234413985782
 21
-0.8541339820867316
 31
0.0
  0
LINE
  5
ED
330
17
100
AcDbEntity
  8
ENGRAVE_LOG
100
AcDbLine
 10
46.97421174848329
 20
-1.5567371674930168
 30
0.0
 11
44.375638332609746
 21
-1.4706197922699988
 31
0.0
  0
LINE
  5
EE
330
17
100
AcDbEntity
  8
ENGRAVE_LOG
100
AcDbLine
 10
46.97421174848329
 20
-1.5567371674930168
 30
0.0
 11
49.57278516435684
 21
-1.6428545427160348
 31
0.0
  0
TEXT
  5
EF
330
17
100
AcDbEntity
  8
ENGRAVE_TEXT
100
AcDbText
 10
42.57662596777422
 20
-1.4110000709617558
 30
0.0
 40
3.5
  1
1.8
 50
88.10189816280982
 72
1
 11
42.57662596777422
 21
-1.4110000709617558
 31
0.0
100
AcDbText
 73
2
  0
TEXT
  5
F0
330
17
100
AcDbEntity
  8
ENGRAVE_TEXT
100
AcDbText
 10
51.371797529192364
 20
-1.702474264024278
 30
0.0
 40
3.5
  1
1.8
 50
88.10189816280982
 72
1
 11
51.371797529192364
 21
-1.702474264024278
 31
0.0
100
AcDbText
 73
2
  0
LINE
  5
F1
330
17
100
AcDbEntity
  8
ENGRAVE_LOG
100
AcDbLine
 10
46.94531041817892
 20
-2.266678129073868
 30
0.0
 11
46.29606676345943
 21
-2.2353304528207185
 31
0.0
  0
LINE
  5
F2
330
17
100
AcDbEntity
  8
ENGRAVE_LOG
100
AcDbLine
 10
46.94531041817892
 20
-2.266678129073868
 30
0.0
 11
47.59455407289842
 21
-2.298025805327017
 31
0.0
  0
LINE
  5
F3
330
17
100
AcDbEntity
  8
ENGRAVE_LOG
100
AcDbLine
 10
46.90592779507175
 20
-2.9721940857749938
 30
0.0
 11
46.25722879365054
 21
-2.9310892739504464
 31
0.0
  0
LINE
  5
F4
330
17
100
AcDbEntity
  8
ENGRAVE_LOG
100
AcDbLine
 10
46.90592779507175
 20
-2.9721940857749938
 30
0.0
 11
47.55462679649295
 21
-3.0132988975995416
 31
0.0
  0
LINE
  5
F5
330
17
100
AcDbEntity
  8
ENGRAVE_LOG
100
AcDbLine
 10
46.85624571079623
 20
-3.6731781728484
 30
0.0
 11
46.2082338020299
 21
-3.622378900245178
 31
0.0
  0
LINE
  5
F6
330
17
100
AcDbEntity
  8
ENGRAVE_LOG
100
AcDbLine
 10
46.85624571079623
 20
-3.6731781728484
 30
0.0
 11
47.50425761956256
 21
-3.723977445451623
 31
0.0
  0
LINE
  5
F7
330
17
100
AcDbEntity
  8
ENGRAVE_LOG
100
AcDbLine
 10
46.79644458025564
 20
-4.369527966160958
 30
0.0
 11
46.14925970840104
 21
-4.309098324075753
 31
0.0
  0
LINE
  5
F8
330
17
100
AcDbEntity
  8
ENGRAVE_LOG
100
AcDbLine
 10
46.79644458025564
 20
-4.369527966160958
 30
0.0
 11
47.44362945211024
 21
-4.429957608246163
 31
0.0
  0
LINE
  5
F9
330
17
100
AcDbEntity
  8
ENGRAVE_LOG
100
AcDbLine
 10
46.72670336753137
 20
-5.061145364710693
 30
0.0
 11
45.563506709233245
 21
-4.935155150312576
 31
0.0
  0
LINE
  5
FA
330
17
100
AcDbEntity
  8
ENGRAVE_LOG
100
AcDbLine
 10
46.72670336753137
 20
-5.061145364710693
 30
0.0
 11
47.88990002582949
 21
-5.18713557910881
 31
0.0
  0
LINE
  5
FB
330
17
100
AcDbEntity
  8
ENGRAVE_LOG
100
AcDbLine
 10
46.6471995544196
 20
-5.74793647582813
 30
0.0
 11
46.00207870951805
 21
-5.668443737332635
 31
0.0
  0
LINE
  5
FC
330
17
100
AcDbEntity
  8
ENGRAVE_LOG
100
AcDbLine
 10
46.6471995544196
 20
-5.74793647582813
 30
0.0
 11
47.29232039932115
 21
-5.827429214323625
 31
0.0
  0
LINE
  5
FD
330
17
100
AcDbEntity
  8
ENGRAVE_LOG
100
AcDbLine
 10
46.55810911147189
 20
-6.429811503012998
 30
0.0
 11
45.914220368440894
 21
-6.34088857797133
 31
0.0
  0
LINE
  5
FE
330
17
100
AcDbEntity
  8
ENGRAVE_LOG
100
AcDbLine
 10
46.55810911147189
 20
-6.429811503012998
 30
0.0
 11
47.201997854502885
 21
-6.5187344280546675
 31
0.0
  0
LINE
  5
FF
330
17
100
AcDbEntity
  8
ENGRAVE_LOG
100
AcDbLine
 10
46.45960647142146
 20
-7.106684636358443
 30
0.0
 11
45.81707999894436
 21
-7.008400699898167
 31
0.0
  0
LINE
  5
100
330
17
100
AcDbEntity
  8
ENGRAVE_LOG
100
AcDbLine
 10
46.45960647142146
 20
-7.106684636358443
 30
0.0
 11
47.10213294389857
 21
-7.204968572818719
 31
0.0
  0
LINE
  5
101
330
17
100
AcDbEntity
  8
ENGRAVE_LOG
100
AcDbLine
 10
46.35186450488228
 20
-7.778473945513625
 30
0.0
 11
45.71082808087859
 21
-7.670899305841628
 31
0.0
  0
LINE
  5
102
330
17
100
AcDbEntity
  8
ENGRAVE_LOG
100
AcDbLine
 10
46.35186450488228
 20
-7.778473945513625
 30
0.0
 11
46.99290092888597
 21
-7.8860485851856215
 31
0.0
  0
LINE
  5
103
330
17
100
AcDbEntity
  8
ENGRAVE_LOG
100
AcDbLine
 10
46.23505449821269
 20
-8.44510127513594
 30
0.0
 11
43.67737063235411
 21
-7.977925459915653
 31
0.0
  0
LINE
  5
104
330
17
100
AcDbEntity
  8
ENGRAVE_LOG
100
AcDbLine
 10
46.23505449821269
 20
-8.44510127513594
 30
0.0
 11
48.79273836407126
 21
-8.912277090356225
 31
0.0
  0
TEXT
  5
105
330
17
100
AcDbEntity
  8
ENGRAVE_TEXT
100
AcDbText
 10
41.906666417528946
 20
-7.654496049378532
 30
0.0
 40
3.5
  1
1.9
 50
79.6487036569816
 72
1
 11
41.906666417528946
 21
-7.654496049378532
 31
0.0
100
AcDbText
 73
2
  0
TEXT
  5
106
330
17
100
AcDbEntity
  8
ENGRAVE_TEXT
100
AcDbText
 10
50.56344257889643
 20
-9.235706500893347
 30
0.0
 40
3.5
  1
1.9
 50
79.6487036569816
 72
1
 11
50.56344257889643
 21
-9.235706500893347
 31
0.0
100
AcDbText
 73
2
  0
LINE
  5
107
330
17
100
AcDbEntity
  8
ENGRAVE_LOG
100
AcDbLine
 10
46.10934613344005
 20
-9.106492142785683
 30
0.0
 11
45.47166368691375
 21
-8.980551294002476
 31
0.0
  0
LINE
  5
108
330
17
100
AcDbEntity
  8
ENGRAVE_LOG
100
AcDbLine
 10
46.10934613344005
 20
-9.106492142785683
 30
0.0
 11
46.74702857996635
 21
-9.232432991568889
 31
0.0
  0
LINE
  5
109
330
17
100
AcDbEntity
  8
ENGRAVE_LOG
100
AcDbLine
 10
45.97490747014747
 20
-9.762575639214182
 30
0.0
 11
45.33908428173054
 21
-9.627561295267604
 31
0.0
  0
LINE
  5
10A
330
17
100
AcDbEntity
  8
ENGRAVE_LOG
100
AcDbLine
 10
45.97490747014747
 20
-9.762575639214182
 30
0.0
 11
46.61073065856441
 21
-9.897589983160762
 31
0.0
  0
LINE
  5
10B
330
17
100
AcDbEntity
  8
ENGRAVE_LOG
100
AcDbLine
 10
45.8319049292278
 20
-10.413284330998797
 30
0.0
 11
45.198059435525714
 21
-10.269270824293494
 31
0.0
  0
LINE
  5
10C
330
17
100
AcDbEntity
  8
ENGRAVE_LOG
100
AcDbLine
 10
45.8319049292278
 20
-10.413284330998797
 30
0.0
 11
46.46575042292988
 21
-10.5572978377041
 31
0.0
  0
LINE
  5
10D
330
17
100
AcDbEntity
  8
ENGRAVE_LOG
100
AcDbLine
 10
45.68050327841416
 20
-11.058554165477219
 30
0.0
 11
45.0487516373297
 21
-10.905616714252533
 31
0.0
  0
LINE
  5
10E
330
17
100
AcDbEntity
  8
ENGRAVE_LOG
100
AcDbLine
 10
45.68050327841416
 20
-11.058554165477219
 30
0.0
 11
46.312254919498606
 21
-11.211491616701903
 31
0.0
  0
LINE
  5
10F
330
17
100
AcDbEntity
  8
ENGRAVE_LOG
100
AcDbLine
 10
45.5208656195005
 20
-11.698324377934536
 30
0.0
 11
44.38768662429165
 21
-11.40711077107957
 31
0.0
  0
LINE
  5
110
330
17
100
AcDbEntity
  8
ENGRAVE_LOG
100
AcDbLine
 10
45.5208656195005
 20
-11.698324377934536
 30
0.0
 11
46.65404461470934
 21
-11.989537984789504
 31
0.0
  0
LINE
  5
111
330
17
100
AcDbEntity
  8
ENGRAVE_LOG
100
AcDbLine
 10
45.3531533771689
 20
-12.33253740099713
 30
0.0
 11
44.72592891556976
 21
-12.161981032685468
 31
0.0
  0
LINE
  5
112
330
17
100
AcDbEntity
  8
ENGRAVE_LOG
100
AcDbLine
 10
45.3531533771689
 20
-12.33253740099713
 30
0.0
 11
45.98037783876804
 21
-12.50309376930879
 31
0.0
  0
LINE
  5
113
330
17
100
AcDbEntity
  8
ENGRAVE_LOG
100
AcDbLine
 10
45.17752628934444
 20
-12.961138776187543
 30
0.0
 11
44.55273071300244
 21
-12.78188898460197
 31
0.0
  0
LINE
  5
114
330
17
100
AcDbEntity
  8
ENGRAVE_LOG
100
AcDbLine
 10
45.17752628934444
 20
-12.961138776187543
 30
0.0
 11
45.80232186568644
 21
-13.140388567773114
 31
0.0
  0
LINE
  5
115
330
17
100
AcDbEntity
  8
ENGRAVE_LOG
100
AcDbLine
 10
44.99414239900156
 20
-13.584077067595365
 30
0.0
 11
44.37188298284516
 21
-13.396212171979684
 31
0.0
  0
LINE
  5
116
330
17
100
AcDbEntity
  8
ENGRAVE_LOG
100
AcDbLine
 10
44.99414239900156
 20
-13.584077067595365
 30
0.0
 11
45.616401815157964
 21
-13.771941963211045
 31
0.0
  0
LINE
  5
117
330
17
100
AcDbEntity
  8
ENGRAVE_LOG
100
AcDbLine
 10
44.803158047349406
 20
-14.201303777619513
 30
0.0
 11
44.183539904141384
 21
-14.00490276792903
 31
0.0
  0
LINE
  5
118
330
17
100
AcDbEntity
  8
ENGRAVE_LOG
100
AcDbLine
 10
44.803158047349406
 20
-14.201303777619513
 30
0.0
 11
45.42277619055743
 21
-14.397704787309996
 31
0.0
  0
LINE
  5
119
330
17
100
AcDbEntity
  8
ENGRAVE_LOG
100
AcDbLine
 10
44.60472786832642
 20
-14.812773264738233
 30
0.0
 11
42.13723228412113
 21
-13.993343254348458
 31
0.0
  0
LINE
  5
11A
330
17
100
AcDbEntity
  8
ENGRAVE_LOG
100
AcDbLine
 10
44.60472786832642
 20
-14.812773264738233
 30
0.0
 11
47.072223452531716
 21
-15.632203275128008
 31
0.0
  0
TEXT
  5
11B
330
17
100
AcDbEntity
  8
ENGRAVE_TEXT
100
AcDbText
 10
40.42896611044055
 20
-13.426045554847846
 30
0.0
 40
3.5
  1
2
 50
71.62920156096676
 72
1
 11
40.42896611044055
 21
-13.426045554847846
 31
0.0
100
AcDbText
 73
2
  0
TEXT
  5
11C
330
17
100
AcDbEntity
  8
ENGRAVE_TEXT
100
AcDbText
 10
48.7804896262123
 20
-16.19950097462862
 30
0.0
 40
3.5
  1
2
 50
71.62920156096676
 72
1
 11
48.7804896262123
 21
-16.19950097462862
 31
0.0
100
AcDbText
 73
2
  0
LINE
  5
11D
330
17
100
AcDbEntity
  8
ENGRAVE_LOG
100
AcDbLine
 10
44.18614000317307
 20
-16.018271805035283
 30
0.0
 11
43.57505508823558
 21
-15.796742514114582
 31
0.0
  0
LINE
  5
11E
330
17
100
AcDbEntity
  8
ENGRAVE_LOG
100
AcDbLine
 10
44.18614000317307
 20
-16.018271805035283
 30
0.0
 11
44.79722491811057
 21
-16.239801095955983
 31
0.0
  0
LINE
  5
11F
330
17
100
AcDbEntity
  8
ENGRAVE_LOG
100
AcDbLine
 10
43.73958159666136
 20
-17.20026167675954
 30
0.0
 11
43.13467248947349
 21
-16.9623857174001
 31
0.0
  0
LINE
  5
120
330
17
100
AcDbEntity
  8
ENGRAVE_LOG
100
AcDbLine
 10
43.73958159666136
 20
-17.20026167675954
 30
0.0
 11
44.344490703849225
 21
-17.43813763611898
 31
0.0
  0
LINE
  5
121
330
17
100
AcDbEntity
  8
ENGRAVE_LOG
100
AcDbLine
 10
43.26622797018667
 20
-18.358472627967622
 30
0.0
 11
42.66786524293941
 21
-18.104578857580837
 31
0.0
  0
LINE
  5
122
330
17
100
AcDbEntity
  8
ENGRAVE_LOG
100
AcDbLine
 10
43.26622797018667
 20
-18.358472627967622
 30
0.0
 11
43.86459069743393
 21
-18.612366398354407
 31
0.0
  0
LINE
  5
123
330
17
100
AcDbEntity
  8
ENGRAVE_LOG
100
AcDbLine
 10
42.767226991021374
 20
-19.492672866963446
 30
0.0
 11
42.17576534114555
 21
-19.22309334859055
 31
0.0
  0
LINE
  5
124
330
17
100
AcDbEntity
  8
ENGRAVE_LOG
100
AcDbLine
 10
42.767226991021374
 20
-19.492672866963446
 30
0.0
 11
43.3586886408972
 21
-19.762252385336346
 31
0.0
  0
LINE
  5
125
330
17
100
AcDbEntity
  8
ENGRAVE_LOG
100
AcDbLine
 10
42.24369914766223
 20
-20.602666874019047
 30
0.0
 11
41.19210067951829
 21
-20.089791975240274
 31
0.0
  0
LINE
  5
126
330
17
100
AcDbEntity
  8
ENGRAVE_LOG
100
AcDbLine
 10
42.24369914766223
 20
-20.602666874019047
 30
0.0
 11
43.295297615806156
 21
-21.11554177279782
 31
0.0
  0
LINE
  5
127
330
17
100
AcDbEntity
  8
ENGRAVE_LOG
100
AcDbLine
 10
41.69673767682557
 20
-21.688293319438365
 30
0.0
 11
41.12008066640139
 21
-21.388348837361026
 31
0.0
  0
LINE
  5
128
330
17
100
AcDbEntity
  8
ENGRAVE_LOG
100
AcDbLine
 10
41.69673767682557
 20
-21.688293319438365
 30
0.0
 11
42.273394687249755
 21
-21.988237801515705
 31
0.0
  0
LINE
  5
129
330
17
100
AcDbEntity
  8
ENGRAVE_LOG
100
AcDbLine
 10
41.12740873651639
 20
-22.7494230832238
 30
0.0
 11
40.55862542420286
 21
-22.4348034022856
 31
0.0
  0
LINE
  5
12A
330
17
100
AcDbEntity
  8
ENGRAVE_LOG
100
AcDbLine
 10
41.12740873651639
 20
-22.7494230832238
 30
0.0
 11
41.69619204882991
 21
-23.064042764162
 31
0.0
  0
LINE
  5
12B
330
17
100
AcDbEntity
  8
ENGRAVE_LOG
100
AcDbLine
 10
40.536751620078654
 20
-23.78595737177822
 30
0.0
 11
39.976136970013734
 21
-23.457002642168526
 31
0.0
  0
LINE
  5
12C
330
17
100
AcDbEntity
  8
ENGRAVE_LOG
100
AcDbLine
 10
40.536751620078654
 20
-23.78595737177822
 30
0.0
 11
41.09736627014357
 21
-24.11491210138792
 31
0.0
  0
LINE
  5
12D
330
17
100
AcDbEntity
  8
ENGRAVE_LOG
100
AcDbLine
 10
39.92577900657564
 20
-24.79782592724782
 30
0.0
 11
39.373613977761295
 21
-24.45487727080716
 31
0.0
  0
LINE
  5
12E
330
17
100
AcDbEntity
  8
ENGRAVE_LOG
100
AcDbLine
 10
39.92577900657564
 20
-24.79782592724782
 30
0.0
 11
40.47794403538998
 21
-25.140774583688483
 31
0.0
  0
LINE
  5
12F
330
17
100
AcDbEntity
  8
ENGRAVE_LOG
100
AcDbLine
 10
39.29547724325354
 20
-25.784985325280743
 30
0.0
 11
37.12168488511611
 21
-24.358581881754574
 31
0.0
  0
LINE
  5
130
330
17
100
AcDbEntity
  8
ENGRAVE_LOG
100
AcDbLine
 10
39.29547724325354
 20
-25.784985325280743
 30
0.0
 11
41.46926960139098
 21
-27.211388768806913
 31
0.0
  0
TEXT
  5
131
330
17
100
AcDbEntity
  8
ENGRAVE_TEXT
100
AcDbText
 10
35.616751714097894
 20
-23.371071805467228
 30
0.0
 40
3.5
  1
2.2
 50
56.72783490400573
 72
1
 11
35.616751714097894
 21
-23.371071805467228
 31
0.0
100
AcDbText
 73
2
  0
TEXT
  5
132
330
17
100
AcDbEntity
  8
ENGRAVE_TEXT
100
AcDbText
 10
42.97420277240919
 20
-28.19889884509426
 30
0.0
 40
3.5
  1
2.2
 50
56.72783490400573
 72
1
 11
42.97420277240919
 21
-28.19889884509426
 31
0.0
100
AcDbText
 73
2
  0
LINE
  5
133
330
17
100
AcDbEntity
  8
ENGRAVE_LOG
100
AcDbLine
 10
38.64680665621304
 20
-26.74741735714474
 30
0.0
 11
38.112329542882435
 21
-26.377506266035294
 31
0.0
  0
LINE
  5
134
330
17
100
AcDbEntity
  8
ENGRAVE_LOG
100
AcDbLine
 10
38.64680665621304
 20
-26.74741735714474
 30
0.0
 11
39.18128376954364
 21
-27.117328448254188
 31
0.0
  0
LINE
  5
135
330
17
100
AcDbEntity
  8
ENGRAVE_LOG
100
AcDbLine
 10
37.9807018857542
 20
-27.685127492310155
 30
0.0
 11
37.45543685967462
 21
-27.302248069544166
 31
0.0
  0
LINE
  5
136
330
17
100
AcDbEntity
  8
ENGRAVE_LOG
100
AcDbLine
 10
37.9807018857542
 20
-27.685127492310155
 30
0.0
 11
38.505966911833774
 21
-28.068006915076147
 31
0.0
  0
LINE
  5
137
330
17
100
AcDbEntity
  8
ENGRAVE_LOG
100
AcDbLine
 10
37.298072243172456
 20
-28.59814341776557
 30
0.0
 11
36.782247839809436
 21
-28.202637179009237
 31
0.0
  0
LINE
  5
138
330
17
100
AcDbEntity
  8
ENGRAVE_LOG
100
AcDbLine
 10
37.298072243172456
 20
-28.59814341776557
 30
0.0
 11
37.813896646535476
 21
-28.993649656521903
 31
0.0
  0
LINE
  5
139
330
17
100
AcDbEntity
  8
ENGRAVE_LOG
100
AcDbLine
 10
36.59980208606977
 20
-29.48651365048982
 30
0.0
 11
36.093634610411364
 21
-29.078721440429856
 31
0.0
  0
LINE
  5
13A
330
17
100
AcDbEntity
  8
ENGRAVE_LOG
100
AcDbLine
 10
36.59980208606977
 20
-29.48651365048982
 30
0.0
 11
37.10596956172818
 21
-29.894305860549785
 31
0.0
  0
LINE
  5
13B
330
17
100
AcDbEntity
  8
ENGRAVE_LOG
100
AcDbLine
 10
35.88675120950857
 20
-30.350306219655106
 30
0.0
 11
34.99340016876123
 21
-29.59477732014454
 31
0.0
  0
LINE
  5
13C
330
17
100
AcDbEntity
  8
ENGRAVE_LOG
100
AcDbLine
 10
35.88675120950857
 20
-30.350306219655106
 30
0.0
 11
36.78010225025591
 21
-31.10583511916567
 31
0.0
  0
LINE
  5
13D
330
17
100
AcDbEntity
  8
ENGRAVE_LOG
100
AcDbLine
 10
35.15975525057652
 20
-31.189607415284296
 30
0.0
 11
34.67350331626003
 21
-30.7582617808176
 31
0.0
  0
LINE
  5
13E
330
17
100
AcDbEntity
  8
ENGRAVE_LOG
100
AcDbLine
 10
35.15975525057652
 20
-31.189607415284296
 30
0.0
 11
35.646007184893
 21
-31.620953049750995
 31
0.0
  0
LINE
  5
13F
330
17
100
AcDbEntity
  8
ENGRAVE_LOG
100
AcDbLine
 10
34.4196261041519
 20
-32.00452060022748
 30
0.0
 11
33.94360999845618
 21
-31.561904889798804
 31
0.0
  0
LINE
  5
140
330
17
100
AcDbEntity
  8
ENGRAVE_LOG
100
AcDbLine
 10
34.4196261041519
 20
-32.00452060022748
 30
0.0
 11
34.895642209847615
 21
-32.447136310656155
 31
0.0
  0
LINE
  5
141
330
17
100
AcDbEntity
  8
ENGRAVE_LOG
100
AcDbLine
 10
33.66715234786222
 20
-32.795165082460485
 30
0.0
 11
33.20154279411519
 21
-32.341614927064754
 31
0.0
  0
LINE
  5
142
330
17
100
AcDbEntity
  8
ENGRAVE_LOG
100
AcDbLine
 10
33.66715234786222
 20
-32.795165082460485
 30
0.0
 11
34.13276190160925
 21
-33.24871523785621
 31
0.0
  0
LINE
  5
143
330
17
100
AcDbEntity
  8
ENGRAVE_LOG
100
AcDbLine
 10
32.90309967441415
 20
-33.56167504484196
 30
0.0
 11
32.44805680657651
 21
-33.09752421975372
 31
0.0
  0
LINE
  5
144
330
17
100
AcDbEntity
  8
ENGRAVE_LOG
100
AcDbLine
 10
32.90309967441415
 20
-33.56167504484196
 30
0.0
 11
33.35814254225179
 21
-34.0258258699302
 31
0.0
  0
LINE
  5
145
330
17
100
AcDbEntity
  8
ENGRAVE_LOG
100
AcDbLine
 10
32.12821132964458
 20
-34.30419852959252
 30
0.0
 11
31.32842394122577
 21
-33.450242949175
 31
0.0
  0
LINE
  5
146
330
17
100
AcDbEntity
  8
ENGRAVE_LOG
100
AcDbLine
 10
32.12821132964458
 20
-34.30419852959252
 30
0.0
 11
32.92799871806339
 21
-35.15815411001004
 31
0.0
  0
LINE
  5
147
330
17
100
AcDbEntity
  8
ENGRAVE_LOG
100
AcDbLine
 10
31.343208554798093
 20
-35.02289647488385
 30
0.0
 11
30.909738649253015
 21
-34.53853726831631
 31
0.0
  0
LINE
  5
148
330
17
100
AcDbEntity
  8
ENGRAVE_LOG
100
AcDbLine
 10
31.343208554798093
 20
-35.02289647488385
 30
0.0
 11
31.77667846034317
 21
-35.5072556814514
 31
0.0
  0
LINE
  5
149
330
17
100
AcDbEntity
  8
ENGRAVE_LOG
100
AcDbLine
 10
30.548791031679805
 20
-35.71794180104391
 30
0.0
 11
30.126307751454448
 21
-35.223970265497556
 31
0.0
  0
LINE
  5
14A
330
17
100
AcDbEntity
  8
ENGRAVE_LOG
100
AcDbLine
 10
30.548791031679805
 20
-35.71794180104391
 30
0.0
 11
30.971274311905162
 21
-36.21191333659026
 31
0.0
  0
LINE
  5
14B
330
17
100
AcDbEntity
  8
ENGRAVE_LOG
100
AcDbLine
 10
29.74563732946461
 20
-36.38951854399782
 30
0.0
 11
29.334261494057124
 21
-35.886259244985084
 31
0.0
  0
LINE
  5
14C
330
17
100
AcDbEntity
  8
ENGRAVE_LOG
100
AcDbLine
 10
29.74563732946461
 20
-36.38951854399782
 30
0.0
 11
30.1570131648721
 21
-36.892777843010556
 31
0.0
  0
LINE
  5
14D
330
17
100
AcDbEntity
  8
ENGRAVE_LOG
100
AcDbLine
 10
28.934405352063465
 20
-37.03782103367423
 30
0.0
 11
28.534248682300888
 21
-36.52559584916597
 31
0.0
  0
LINE
  5
14E
330
17
100
AcDbEntity
  8
ENGRAVE_LOG
100
AcDbLine
 10
28.934405352063465
 20
-37.03782103367423
 30
0.0
 11
29.334562021826045
 21
-37.55004621818249
 31
0.0
  0
LINE
  5
14F
330
17
100
AcDbEntity
  8
ENGRAVE_LOG
100
AcDbLine
 10
28.115732785058306
 20
-37.6630531152109
 30
0.0
 11
26.5603943756721
 21
-35.57956507053966
 31
0.0
  0
LINE
  5
150
330
17
100
AcDbEntity
  8
ENGRAVE_LOG
100
AcDbLine
 10
28.115732785058306
 20
-37.6630531152109
 30
0.0
 11
29.671071194444508
 21
-39.74654115988214
 31
0.0
  0
TEXT
  5
151
330
17
100
AcDbEntity
  8
ENGRAVE_TEXT
100
AcDbText
 10
25.48362163071242
 20
-34.13715027038265
 30
0.0
 40
3.5
  1
2.5
 50
36.741596878066474
 72
1
 11
25.48362163071242
 21
-34.13715027038265
 31
0.0
100
AcDbText
 73
2
  0
TEXT
  5
152
330
17
100
AcDbEntity
  8
ENGRAVE_TEXT
100
AcDbText
 10
30.747843939404188
 20
-41.18895596003915
 30
0.0
 40
3.5
  1
2.5
 50
36.741596878066474
 72
1
 11
30.747843939404188
 21
-41.18895596003915
 31
0.0
100
AcDbText
 73
2
  0
LINE
  5
153
330
17
100
AcDbEntity
  8
ENGRAVE_LOG
100
AcDbLine
 10
27.29023754131828
 20
-38.26542741089432
 30
0.0
 11
26.912819362555368
 21
-37.736224691381956
 31
0.0
  0
LINE
  5
154
330
17
100
AcDbEntity
  8
ENGRAVE_LOG
100
AcDbLine
 10
27.29023754131828
 20
-38.26542741089432
 30
0.0
 11
27.667655720081193
 21
-38.79463013040669
 31
0.0
  0
LINE
  5
155
330
17
100
AcDbEntity
  8
ENGRAVE_LOG
100
AcDbLine
 10
26.45851820450248
 20
-38.84516462086383
 30
0.0
 11
26.092602527206168
 21
-38.30794425908593
 31
0.0
  0
LINE
  5
156
330
17
100
AcDbEntity
  8
ENGRAVE_LOG
100
AcDbLine
 10
26.45851820450248
 20
-38.84516462086383
 30
0.0
 11
26.82443388179879
 21
-39.38238498264173
 31
0.0
  0
LINE
  5
157
330
17
100
AcDbEntity
  8
ENGRAVE_LOG
100
AcDbLine
 10
25.621154469739054
 20
-39.40249286070325
 30
0.0
 11
25.266819354732025
 21
-38.857564767948844
 31
0.0
  0
LINE
  5
158
330
17
100
AcDbEntity
  8
ENGRAVE_LOG
100
AcDbLine
 10
25.621154469739054
 20
-39.40249286070325
 30
0.0
 11
25.975489584746082
 21
-39.94742095345765
 31
0.0
  0
LINE
  5
159
330
17
100
AcDbEntity
  8
ENGRAVE_LOG
100
AcDbLine
 10
24.778707580848536
 20
-39.93764703413058
 30
0.0
 11
24.436023327070846
 21
-39.38531787302026
 31
0.0
  0
LINE
  5
15A
330
17
100
AcDbEntity
  8
ENGRAVE_LOG
100
AcDbLine
 10
24.778707580848536
 20
-39.93764703413058
 30
0.0
 11
25.121391834626227
 21
-40.48997619524089
 31
0.0
  0
LINE
  5
15B
330
17
100
AcDbEntity
  8
ENGRAVE_LOG
100
AcDbLine
 10
23.93172076354989
 20
-40.45086823908079
 30
0.0
 11
23.33597367220195
 21
-39.44389981695899
 31
0.0
  0
LINE
  5
15C
330
17
100
AcDbEntity
  8
ENGRAVE_LOG
100
AcDbLine
 10
23.93172076354989
 20
-40.45086823908079
 30
0.0
 11
24.527467854897836
 21
-41.457836661202585
 31
0.0
  0
LINE
  5
15D
330
17
100
AcDbEntity
  8
ENGRAVE_LOG
100
AcDbLine
 10
23.080719654152706
 20
-40.942403205557056
 30
0.0
 11
22.76151821212719
 21
-40.376178480373824
 31
0.0
  0
LINE
  5
15E
330
17
100
AcDbEntity
  8
ENGRAVE_LOG
100
AcDbLine
 10
23.080719654152706
 20
-40.942403205557056
 30
0.0
 11
23.399921096178222
 21
-41.508627930740296
 31
0.0
  0
LINE
  5
15F
330
17
100
AcDbEntity
  8
ENGRAVE_LOG
100
AcDbLine
 10
22.22621272329872
 20
-41.4125037637025
 30
0.0
 11
21.91882893031693
 21
-40.83977764782151
 31
0.0
  0
LINE
  5
160
330
17
100
AcDbEntity
  8
ENGRAVE_LOG
100
AcDbLine
 10
22.22621272329872
 20
-41.4125037637025
 30
0.0
 11
22.53359651628051
 21
-41.9852298795835
 31
0.0
  0
LINE
  5
161
330
17
100
AcDbEntity
  8
ENGRAVE_LOG
100
AcDbLine
 10
21.36869169436941
 20
-41.86142634061801
 30
0.0
 11
21.07316723476643
 21
-41.28249172101372
 31
0.0
  0
LINE
  5
162
330
17
100
AcDbEntity
  8
ENGRAVE_LOG
100
AcDbLine
 10
21.36869169436941
 20
-41.86142634061801
 30
0.0
 11
21.66421615397239
 21
-42.4403609602223
 31
0.0
  0
LINE
  5
163
330
17
100
AcDbEntity
  8
ENGRAVE_LOG
100
AcDbLine
 10
20.508631956226505
 20
-42.28943148452158
 30
0.0
 11
20.22500193981061
 21
-41.704577644842026
 31
0.0
  0
LINE
  5
164
330
17
100
AcDbEntity
  8
ENGRAVE_LOG
100
AcDbLine
 10
20.508631956226505
 20
-42.28943148452158
 30
0.0
 11
20.792261972642404
 21
-42.87428532420113
 31
0.0
  0
LINE
  5
165
330
17
100
AcDbEntity
  8
ENGRAVE_LOG
100
AcDbLine
 10
19.64649296999698
 20
-42.69678341491147
 30
0.0
 11
19.157420698190673
 21
-41.63390604054027
 31
0.0
  0
LINE
  5
166
330
17
100
AcDbEntity
  8
ENGRAVE_LOG
100
AcDbLine
 10
19.64649296999698
 20
-42.69678341491147
 30
0.0
 11
20.135565241803288
 21
-43.75966078928267
 31
0.0
  0
LINE
  5
167
330
17
100
AcDbEntity
  8
ENGRAVE_LOG
100
AcDbLine
 10
18.782718669655658
 20
-43.08374959745924
 30
0.0
 11
18.52295766677744
 21
-42.48791050728161
 31
0.0
  0
LINE
  5
168
330
17
100
AcDbEntity
  8
ENGRAVE_LOG
100
AcDbLine
 10
18.782718669655658
 20
-43.08374959745924
 30
0.0
 11
19.042479672533872
 21
-43.679588687636866
 31
0.0
  0
LINE
  5
169
330
17
100
AcDbEntity
  8
ENGRAVE_LOG
100
AcDbLine
 10
17.917737856195817
 20
-43.450600342419285
 30
0.0
 11
17.66993935392928
 21
-42.84968778449222
 31
0.0
  0
LINE
  5
16A
330
17
100
AcDbEntity
  8
ENGRAVE_LOG
100
AcDbLine
 10
17.917737856195817
 20
-43.450600342419285
 30
0.0
 11
18.165536358462354
 21
-44.05151290034636
 31
0.0
  0
LINE
  5
16B
330
17
100
AcDbEntity
  8
ENGRAVE_LOG
100
AcDbLine
 10
17.051964585212264
 20
-43.79760842539997
 30
0.0
 11
16.81613954307635
 21
-43.191896819516785
 31
0.0
  0
LINE
  5
16C
330
17
100
AcDbEntity
  8
ENGRAVE_LOG
100
AcDbLine
 10
17.051964585212264
 20
-43.79760842539997
 30
0.0
 11
17.28778962734818
 21
-44.403320031283165
 31
0.0
  0
LINE
  5
16D
330
17
100
AcDbEntity
  8
ENGRAVE_LOG
100
AcDbLine
 10
16.18579854775295
 20
-44.12504872939585
 30
0.0
 11
15.96195239762445
 21
-43.51480869377655
 31
0.0
  0
LINE
  5
16E
330
17
100
AcDbEntity
  8
ENGRAVE_LOG
100
AcDbLine
 10
16.18579854775295
 20
-44.12504872939585
 30
0.0
 11
16.409644697881447
 21
-44.735288765015156
 31
0.0
  0
LINE
  5
16F
330
17
100
AcDbEntity
  8
ENGRAVE_LOG
100
AcDbLine
 10
15.31962544432264
 20
-44.43319790703413
 30
0.0
 11
14.472156802721813
 21
-41.97519121430458
 31
0.0
  0
LINE
  5
170
330
17
100
AcDbEntity
  8
ENGRAVE_LOG
100
AcDbLine
 10
15.31962544432264
 20
-44.43319790703413
 30
0.0
 11
16.167094085923466
 21
-46.89120459976368
 31
0.0
  0
TEXT
  5
171
330
17
100
AcDbEntity
  8
ENGRAVE_TEXT
100
AcDbText
 10
13.88544774315201
 20
-40.27349427318413
 30
0.0
 40
3.5
  1
2.8
 50
19.02310871680109
 72
1
 11
13.88544774315201
 21
-40.27349427318413
 31
0.0
100
AcDbText
 73
2
  0
TEXT
  5
172
330
17
100
AcDbEntity
  8
ENGRAVE_TEXT
100
AcDbText
 10
16.75380314549327
 20
-48.592901540884135
 30
0.0
 40
3.5
  1
2.8
 50
19.02310871680109
 72
1
 11
16.75380314549327
 21
-48.592901540884135
 31
0.0
100
AcDbText
 73
2
  0
LINE
  5
173
330
17
100
AcDbEntity
  8
ENGRAVE_LOG
100
AcDbLine
 10
14.453817351948825
 20
-44.72233406203776
 30
0.0
 11
14.253924133251662
 21
-44.103833697350005
 31
0.0
  0
LINE
  5
174
330
17
100
AcDbEntity
  8
ENGRAVE_LOG
100
AcDbLine
 10
14.453817351948825
 20
-44.72233406203776
 30
0.0
 11
14.65371057064599
 21
-45.340834426725515
 31
0.0
  0
LINE
  5
175
330
17
100
AcDbEntity
  8
ENGRAVE_LOG
100
AcDbLine
 10
13.588733084241841
 20
-44.992736448956194
 30
0.0
 11
13.400803796906583
 21
-44.37049647678978
 31
0.0
  0
LINE
  5
176
330
17
100
AcDbEntity
  8
ENGRAVE_LOG
100
AcDbLine
 10
13.588733084241841
 20
-44.992736448956194
 30
0.0
 11
13.7766623715771
 21
-45.614976421122606
 31
0.0
  0
LINE
  5
177
330
17
100
AcDbEntity
  8
ENGRAVE_LOG
100
AcDbLine
 10
12.724718544403991
 20
-45.24468519025965
 30
0.0
 11
12.548738394321807
 21
-44.61896082060713
 31
0.0
  0
LINE
  5
178
330
17
100
AcDbEntity
  8
ENGRAVE_LOG
100
AcDbLine
 10
12.724718544403991
 20
-45.24468519025965
 30
0.0
 11
12.900698694486174
 21
-45.87040955991218
 31
0.0
  0
LINE
  5
179
330
17
100
AcDbEntity
  8
ENGRAVE_LOG
100
AcDbLine
 10
11.862107071159894
 20
-45.478461009936765
 30
0.0
 11
11.698056654218322
 21
-44.84950357043764
 31
0.0
  0
LINE
  5
17A
330
17
100
AcDbEntity
  8
ENGRAVE_LOG
100
AcDbLine
 10
11.862107071159894
 20
-45.478461009936765
 30
0.0
 11
12.026157488101466
 21
-46.10741844943589
 31
0.0
  0
LINE
  5
17B
330
17
100
AcDbEntity
  8
ENGRAVE_LOG
100
AcDbLine
 10
11.001219777598369
 20
-45.69434498277636
 30
0.0
 11
10.72735962568794
 21
-44.556847458737025
 31
0.0
  0
LINE
  5
17C
330
17
100
AcDbEntity
  8
ENGRAVE_LOG
100
AcDbLine
 10
11.001219777598369
 20
-45.69434498277636
 30
0.0
 11
11.275079929508795
 21
-46.83184250681568
 31
0.0
  0
LINE
  5
17D
330
17
100
AcDbEntity
  8
ENGRAVE_LOG
100
AcDbLine
 10
10.142365882931413
 20
-45.89261829855373
 30
0.0
 11
10.00209912072066
 21
-45.257933151871605
 31
0.0
  0
LINE
  5
17E
330
17
100
AcDbEntity
  8
ENGRAVE_LOG
100
AcDbLine
 10
10.142365882931413
 20
-45.89261829855373
 30
0.0
 11
10.282632645142167
 21
-46.52730344523586
 31
0.0
  0
LINE
  5
17F
330
17
100
AcDbEntity
  8
ENGRAVE_LOG
100
AcDbLine
 10
9.285843037189712
 20
-46.073562040379244
 30
0.0
 11
9.157421803696664
 21
-45.43637448024634
 31
0.0
  0
LINE
  5
180
330
17
100
AcDbEntity
  8
ENGRAVE_LOG
100
AcDbLine
 10
9.285843037189712
 20
-46.073562040379244
 30
0.0
 11
9.414264270682763
 21
-46.710749600512145
 31
0.0
  0
LINE
  5
181
330
17
100
AcDbEntity
  8
ENGRAVE_LOG
100
AcDbLine
 10
8.43193763888622
 20
-46.237456976502656
 30
0.0
 11
8.31532573536971
 21
-45.59800278427443
 31
0.0
  0
LINE
  5
182
330
17
100
AcDbEntity
  8
ENGRAVE_LOG
100
AcDbLine
 10
8.43193763888622
 20
-46.237456976502656
 30
0.0
 11
8.548549542402732
 21
-46.87691116873088
 31
0.0
  0
LINE
  5
183
330
17
100
AcDbEntity
  8
ENGRAVE_LOG
100
AcDbLine
 10
7.580925145691697
 20
-46.384583364900664
 30
0.0
 11
7.476082563889578
 21
-45.74309444602438
 31
0.0
  0
LINE
  5
184
330
17
100
AcDbEntity
  8
ENGRAVE_LOG
100
AcDbLine
 10
7.580925145691697
 20
-46.384583364900664
 30
0.0
 11
7.685767727493816
 21
-47.02607228377695
 31
0.0
  0
LINE
  5
185
330
17
100
AcDbEntity
  8
ENGRAVE_LOG
100
AcDbLine
 10
6.733070378174275
 20
-46.51522077000766
 30
0.0
 11
6.3606026551263355
 21
-43.94203834443277
 31
0.0
  0
LINE
  5
186
330
17
100
AcDbEntity
  8
ENGRAVE_LOG
100
AcDbLine
 10
6.733070378174275
 20
-46.51522077000766
 30
0.0
 11
7.105538101222213
 21
-49.08840319558256
 31
0.0
  0
TEXT
  5
187
330
17
100
AcDbEntity
  8
ENGRAVE_TEXT
100
AcDbText
 10
6.102740385323917
 20
-42.160604357496304
 30
0.0
 40
3.5
  1
3
 50
8.23634830092152
 72
1
 11
6.102740385323917
 21
-42.160604357496304
 31
0.0
100
AcDbText
 73
2
  0
TEXT
  5
188
330
17
100
AcDbEntity
  8
ENGRAVE_TEXT
100
AcDbText
 10
7.363400371024632
 20
-50.869837182519014
 30
0.0
 40
3.5
  1
3
 50
8.23634830092152
 72
1
 11
7.363400371024632
 21
-50.869837182519014
 31
0.0
100
AcDbText
 73
2
  0
LINE
  5
189
330
17
100
AcDbEntity
  8
ENGRAVE_LOG
100
AcDbLine
 10
5.888627816665628
 20
-46.62964789098017
 30
0.0
 11
5.807189346860678
 21
-45.9847697818496
 31
0.0
  0
LINE
  5
18A
330
17
100
AcDbEntity
  8
ENGRAVE_LOG
100
AcDbLine
 10
5.888627816665628
 20
-46.62964789098017
 30
0.0
 11
5.970066286470578
 21
-47.274526000110754
 31
0.0
  0
LINE
  5
18B
330
17
100
AcDbEntity
  8
ENGRAVE_LOG
100
AcDbLine
 10
5.047841891323271
 20
-46.728142400915125
 30
0.0
 11
4.978031311975183
 21
-46.08190213366842
 31
0.0
  0
LINE
  5
18C
330
17
100
AcDbEntity
  8
ENGRAVE_LOG
100
AcDbLine
 10
5.047841891323271
 20
-46.728142400915125
 30
0.0
 11
5.117652470671358
 21
-47.37438266816182
 31
0.0
  0
LINE
  5
18D
330
17
100
AcDbEntity
  8
ENGRAVE_LOG
100
AcDbLine
 10
4.210947265465652
 20
-46.810980796469835
 30
0.0
 11
4.152710760730489
 21
-46.1635948918378
 31
0.0
  0
LINE
  5
18E
330
17
100
AcDbEntity
  8
ENGRAVE_LOG
100
AcDbLine
 10
4.210947265465652
 20
-46.810980796469835
 30
0.0
 11
4.269183770200815
 21
-47.45836670110186
 31
0.0
  0
LINE
  5
18F
330
17
100
AcDbEntity
  8
ENGRAVE_LOG
100
AcDbLine
 10
3.378169112262571
 20
-46.878438257358304
 30
0.0
 11
3.3314497521993656
 21
-46.23011943039484
 31
0.0
  0
LINE
  5
190
330
17
100
AcDbEntity
  8
ENGRAVE_LOG
100
AcDbLine
 10
3.378169112262571
 20
-46.878438257358304
 30
0.0
 11
3.424888472325777
 21
-47.52675708432177
 31
0.0
  0
LINE
  5
191
330
17
100
AcDbEntity
  8
ENGRAVE_LOG
100
AcDbLine
 10
2.5497233848696017
 20
-46.93078851522366
 30
0.0
 11
2.486251547416465
 21
-45.76251143941916
 31
0.0
  0
LINE
  5
192
330
17
100
AcDbEntity
  8
ENGRAVE_LOG
100
AcDbLine
 10
2.5497233848696017
 20
-46.93078851522366
 30
0.0
 11
2.613195222322739
 21
-48.09906559102817
 31
0.0
  0
LINE
  5
193
330
17
100
AcDbEntity
  8
ENGRAVE_LOG
100
AcDbLine
 10
1.7258170800984678
 20
-46.96830373141062
 30
0.0
 11
1.7019493970758295
 21
-46.31874208406133
 31
0.0
  0
LINE
  5
194
330
17
100
AcDbEntity
  8
ENGRAVE_LOG
100
AcDbLine
 10
1.7258170800984678
 20
-46.96830373141062
 30
0.0
 11
1.749684763121106
 21
-47.617865378759916
 31
0.0
  0
LINE
  5
195
330
17
100
AcDbEntity
  8
ENGRAVE_LOG
100
AcDbLine
 10
0.9066484957202562
 20
-46.99125438318505
 30
0.0
 11
0.8941097399283804
 21
-46.34137533320483
 31
0.0
  0
LINE
  5
196
330
17
100
AcDbEntity
  8
ENGRAVE_LOG
100
AcDbLine
 10
0.9066484957202562
 20
-46.99125438318505
 30
0.0
 11
0.9191872515121321
 21
-47.641133433165265
 31
0.0
  0
LINE
  5
197
330
17
100
AcDbEntity
  8
ENGRAVE_LOG
100
AcDbLine
 10
0.09240748150169308
 20
-46.999909157969256
 30
0.0
 11
0.09112950569369094
 21
-46.349910414295216
 31
0.0
  0
LINE
  5
198
330
17
100
AcDbEntity
  8
ENGRAVE_LOG
100
AcDbLine
 10
0.09240748150169308
 20
-46.999909157969256
 30
0.0
 11
0.09368545730969521
 21
-47.6499079016433
 31
0.0
  0
LINE
  5
199
330
17
100
AcDbEntity
  8
ENGRAVE_LOG
100
AcDbLine
 10
-0.7167243159231316
 20
-46.994534855182515
 30
0.0
 11
-0.70681217112845
 21
-46.34461043697255
 31
0.0
  0
LINE
  5
19A
330
17
100
AcDbEntity
  8
ENGRAVE_LOG
100
AcDbLine
 10
-0.7167243159231316
 20
-46.994534855182515
 30
0.0
 11
-0.7266364607178132
 21
-47.644459273392485
 31
0.0
  0
LINE
  5
19B
330
17
100
AcDbEntity
  8
ENGRAVE_LOG
100
AcDbLine
 10
-1.5205732142402437
 20
-46.97539629529627
 30
0.0
 11
-1.4827206469921355
 21
-45.80600877049847
 31
0.0
  0
LINE
  5
19C
330
17
100
AcDbEntity
  8
ENGRAVE_LOG
100
AcDbLine
 10
-1.5205732142402437
 20
-46.97539629529627
 30
0.0
 11
-1.558425781488352
 21
-48.14478382009408
 31
0.0
  0
LINE
  5
19D
330
17
100
AcDbEntity
  8
ENGRAVE_LOG
100
AcDbLine
 10
-2.318973262595212
 20
-46.94275623573213
 30
0.0
 11
-2.286902355772087
 21
-46.29354790481244
 31
0.0
  0
LINE
  5
19E
330
17
100
AcDbEntity
  8
ENGRAVE_LOG
100
AcDbLine
 10
-2.318973262595212
 20
-46.94275623573213
 30
0.0
 11
-2.3510441694183375
 21
-47.59196456665183
 31
0.0
  0
LINE
  5
19F
330
17
100
AcDbEntity
  8
ENGRAVE_LOG
100
AcDbLine
 10
-3.1117660145766397
 20
-46.896875293248755
 30
0.0
 11
-3.0687309526729205
 21
-46.2483014860017
 31
0.0
  0
LINE
  5
1A0
330
17
100
AcDbEntity
  8
ENGRAVE_LOG
100
AcDbLine
 10
-3.1117660145766397
 20
-46.896875293248755
 30
0.0
 11
-3.1548010764803593
 21
-47.545449100495816
 31
0.0
  0
LINE
  5
1A1
330
17
100
AcDbEntity
  8
ENGRAVE_LOG
100
AcDbLine
 10
-3.8988003069332358
 20
-46.838011872480855
 30
0.0
 11
-3.8448807282203297
 21
-46.19025213381889
 31
0.0
  0
LINE
  5
1A2
330
17
100
AcDbEntity
  8
ENGRAVE_LOG
100
AcDbLine
 10
-3.8988003069332358
 20
-46.838011872480855
 30
0.0
 11
-3.9527198856461423
 21
-47.48577161114282
 31
0.0
  0
LINE
  5
1A3
330
17
100
AcDbEntity
  8
ENGRAVE_LOG
100
AcDbLine
 10
-4.679932043914791
 20
-46.76642210030975
 30
0.0
 11
-4.615209579477671
 21
-46.11965243296503
 31
0.0
  0
LINE
  5
1A4
330
17
100
AcDbEntity
  8
ENGRAVE_LOG
100
AcDbLine
 10
-4.679932043914791
 20
-46.76642210030975
 30
0.0
 11
-4.74465450835191
 21
-47.41319176765445
 31
0.0
  0
LINE
  5
1A5
330
17
100
AcDbEntity
  8
ENGRAVE_LOG
100
AcDbLine
 10
-5.455023987125384
 20
-46.68235976576042
 30
0.0
 11
-5.319228709148007
 21
-45.52026698010212
 31
0.0
  0
LINE
  5
1A6
330
17
100
AcDbEntity
  8
ENGRAVE_LOG
100
AcDbLine
 10
-5.455023987125384
 20
-46.68235976576042
 30
0.0
 11
-5.590819265102761
 21
-47.844452551418705
 31
0.0
  0
LINE
  5
1A7
330
17
100
AcDbEntity
  8
ENGRAVE_LOG
100
AcDbLine
 10
-6.22394555077851
 20
-46.58607626513468
 30
0.0
 11
-6.137869708054978
 21
-45.94180074231899
 31
0.0
  0
LINE
  5
1A8
330
17
100
AcDbEntity
  8
ENGRAVE_LOG
100
AcDbLine
 10
-6.22394555077851
 20
-46.58607626513468
 30
0.0
 11
-6.310021393502042
 21
-47.23035178795037
 31
0.0
  0
LINE
  5
1A9
330
17
100
AcDbEntity
  8
ENGRAVE_LOG
100
AcDbLine
 10
-6.986572602242185
 20
-46.4778205521042
 30
0.0
 11
-6.889949789657985
 21
-45.835042182766585
 31
0.0
  0
LINE
  5
1AA
330
17
100
AcDbEntity
  8
ENGRAVE_LOG
100
AcDbLine
 10
-6.986572602242185
 20
-46.4778205521042
 30
0.0
 11
-7.083195414826386
 21
-47.120598921441804
 31
0.0
  0
LINE
  5
1AB
330
17
100
AcDbEntity
  8
ENGRAVE_LOG
100
AcDbLine
 10
-7.742787267763856
 20
-46.35783909250035
 30
0.0
 11
-7.635706167252229
 21
-45.716720041221095
 31
0.0
  0
LINE
  5
1AC
330
17
100
AcDbEntity
  8
ENGRAVE_LOG
100
AcDbLine
 10
-7.742787267763856
 20
-46.35783909250035
 30
0.0
 11
-7.849868368275484
 21
-46.99895814377961
 31
0.0
  0
LINE
  5
1AD
330
17
100
AcDbEntity
  8
ENGRAVE_LOG
100
AcDbLine
 10
-8.492477743264105
 20
-46.22637582355082
 30
0.0
 11
-8.375028582984921
 21
-45.58707488131022
 31
0.0
  0
LINE
  5
1AE
330
17
100
AcDbEntity
  8
ENGRAVE_LOG
100
AcDbLine
 10
-8.492477743264105
 20
-46.22637582355082
 30
0.0
 11
-8.60992690354329
 21
-46.86567676579141
 31
0.0
  0
LINE
  5
1AF
330
17
100
AcDbEntity
  8
ENGRAVE_LOG
100
AcDbLine
 10
-9.235538110089992
 20
-46.08367211732454
 30
0.0
 11
-9.005632161392006
 21
-44.93648283270178
 31
0.0
  0
LINE
  5
1B0
330
17
100
AcDbEntity
  8
ENGRAVE_LOG
100
AcDbLine
 10
-9.235538110089992
 20
-46.08367211732454
 30
0.0
 11
-9.465444058787977
 21
-47.2308614019473
 31
0.0
  0
LINE
  5
1B1
330
17
100
AcDbEntity
  8
ENGRAVE_LOG
100
AcDbLine
 10
-9.971868155618195
 20
-45.92996674815875
 30
0.0
 11
-9.833959340700071
 21
-45.29476508036506
 31
0.0
  0
LINE
  5
1B2
330
17
100
AcDbEntity
  8
ENGRAVE_LOG
100
AcDbLine
 10
-9.971868155618195
 20
-45.92996674815875
 30
0.0
 11
-10.109776970536318
 21
-46.56516841595243
 31
0.0
  0
LINE
  5
1B3
330
17
100
AcDbEntity
  8
ENGRAVE_LOG
100
AcDbLine
 10
-10.701373198601114
 20
-45.765495863852074
 30
0.0
 11
-10.553375484152376
 21
-45.13256879339455
 31
0.0
  0
LINE
  5
1B4
330
17
100
AcDbEntity
  8
ENGRAVE_LOG
100
AcDbLine
 10
-10.701373198601114
 20
-45.765495863852074
 30
0.0
 11
-10.849370913049853
 21
-46.39842293430961
 31
0.0
  0
LINE
  5
1B5
330
17
100
AcDbEntity
  8
ENGRAVE_LOG
100
AcDbLine
 10
-11.42396391914737
 20
-45.59049296041905
 30
0.0
 11
-11.265972928776185
 21
-44.95998614288134
 31
0.0
  0
LINE
  5
1B6
330
17
100
AcDbEntity
  8
ENGRAVE_LOG
100
AcDbLine
 10
-11.42396391914737
 20
-45.59049296041905
 30
0.0
 11
-11.581954909518558
 21
-46.22099977795676
 31
0.0
  0
LINE
  5
1B7
330
17
100
AcDbEntity
  8
ENGRAVE_LOG
100
AcDbLine
 10
-12.139556193232528
 20
-45.405188860210124
 30
0.0
 11
-11.97166871396442
 21
-44.7772447589519
 31
0.0
  0
LINE
  5
1B8
330
17
100
AcDbEntity
  8
ENGRAVE_LOG
100
AcDbLine
 10
-12.139556193232528
 20
-45.405188860210124
 30
0.0
 11
-12.307443672500638
 21
-46.03313296146835
 31
0.0
  0
LINE
  5
1B9
330
17
100
AcDbEntity
  8
ENGRAVE_LOG
100
AcDbLine
 10
-12.848070931633938
 20
-45.20981169321216
 30
0.0
 11
-12.1373265822244
 21
-42.70884338677915
 31
0.0
  0
LINE
  5
1BA
330
17
100
AcDbEntity
  8
ENGRAVE_LOG
100
AcDbLine
 10
-12.848070931633938
 20
-45.20981169321216
 30
0.0
 11
-13.558815281043476
 21
-47.710779999645176
 31
0.0
  0
TEXT
  5
1BB
330
17
100
AcDbEntity
  8
ENGRAVE_TEXT
100
AcDbText
 10
-11.645272801863953
 20
-40.97740379001783
 30
0.0
 40
3.5
  1
3.5
 50
-15.864495966099241
 72
1
 11
-11.645272801863953
 21
-40.97740379001783
 31
0.0
100
AcDbText
 73
2
  0
TEXT
  5
1BC
330
17
100
AcDbEntity
  8
ENGRAVE_TEXT
100
AcDbText
 10
-14.050869061403922
 20
-49.44221959640649
 30
0.0
 40
3.5
  1
3.5
 50
-15.864495966099241
 72
1
 11
-14.050869061403922
 21
-49.44221959640649
 31
0.0
100
AcDbText
 73
2
  0
LINE
  5
1BD
330
17
100
AcDbEntity
  8
ENGRAVE_LOG
100
AcDbLine
 10
-13.549433923187685
 20
-45.00458688135211
 30
0.0
 11
-13.362048134888282
 21
-44.38218302022703
 31
0.0
  0
LINE
  5
1BE
330
17
100
AcDbEntity
  8
ENGRAVE_LOG
100
AcDbLine
 10
-13.549433923187685
 20
-45.00458688135211
 30
0.0
 11
-13.736819711487088
 21
-45.6269907424772
 31
0.0
  0
LINE
  5
1BF
330
17
100
AcDbEntity
  8
ENGRAVE_LOG
100
AcDbLine
 10
-14.243575682265174
 20
-44.789737125636094
 30
0.0
 11
-14.046590061127464
 21
-44.17030459091985
 31
0.0
  0
LINE
  5
1C0
330
17
100
AcDbEntity
  8
ENGRAVE_LOG
100
AcDbLine
 10
-14.243575682265174
 20
-44.789737125636094
 30
0.0
 11
-14.440561303402884
 21
-45.40916966035233
 31
0.0
  0
LINE
  5
1C1
330
17
100
AcDbEntity
  8
ENGRAVE_LOG
100
AcDbLine
 10
-14.930431300369069
 20
-44.565482395963805
 30
0.0
 11
-14.723946612172474
 21
-43.949151256445155
 31
0.0
  0
LINE
  5
1C2
330
17
100
AcDbEntity
  8
ENGRAVE_LOG
100
AcDbLine
 10
-14.930431300369069
 20
-44.565482395963805
 30
0.0
 11
-15.136915988565661
 21
-45.18181353548245
 31
0.0
  0
LINE
  5
1C3
330
17
100
AcDbEntity
  8
ENGRAVE_LOG
100
AcDbLine
 10
-15.609940301750498
 20
-44.33203992346603
 30
0.0
 11
-15.394058148641184
 21
-43.71893724367341
 31
0.0
  0
LINE
  5
1C4
330
17
100
AcDbEntity
  8
ENGRAVE_LOG
100
AcDbLine
 10
-15.609940301750498
 20
-44.33203992346603
 30
0.0
 11
-15.825822454859814
 21
-44.94514260325864
 31
0.0
  0
LINE
  5
1C5
330
17
100
AcDbEntity
  8
ENGRAVE_LOG
100
AcDbLine
 10
-16.28204650294938
 20
-44.089624195220736
 30
0.0
 11
-15.876727472982342
 21
-42.9920739758929
 31
0.0
  0
LINE
  5
1C6
330
17
100
AcDbEntity
  8
ENGRAVE_LOG
100
AcDbLine
 10
-16.28204650294938
 20
-44.089624195220736
 30
0.0
 11
-16.68736553291642
 21
-45.18717441454858
 31
0.0
  0
LINE
  5
1C7
330
17
100
AcDbEntity
  8
ENGRAVE_LOG
100
AcDbLine
 10
-16.946697876163075
 20
-43.83844695120996
 30
0.0
 11
-16.71232865021614
 21
-43.232170557203865
 31
0.0
  0
LINE
  5
1C8
330
17
100
AcDbEntity
  8
ENGRAVE_LOG
100
AcDbLine
 10
-16.946697876163075
 20
-43.83844695120996
 30
0.0
 11
-17.18106710211001
 21
-44.444723345216055
 31
0.0
  0
LINE
  5
1C9
330
17
100
AcDbEntity
  8
ENGRAVE_LOG
100
AcDbLine
 10
-17.603846416349406
 20
-43.57871718338646
 30
0.0
 11
-17.36038896591053
 21
-42.97603279680771
 31
0.0
  0
LINE
  5
1CA
330
17
100
AcDbEntity
  8
ENGRAVE_LOG
100
AcDbLine
 10
-17.603846416349406
 20
-43.57871718338646
 30
0.0
 11
-17.84730386678828
 21
-44.1814015699652
 31
0.0
  0
LINE
  5
1CB
330
17
100
AcDbEntity
  8
ENGRAVE_LOG
100
AcDbLine
 10
-18.253448011971642
 20
-43.31064113672584
 30
0.0
 11
-18.001006709678418
 21
-42.71166418483495
 31
0.0
  0
LINE
  5
1CC
330
17
100
AcDbEntity
  8
ENGRAVE_LOG
100
AcDbLine
 10
-18.253448011971642
 20
-43.31064113672584
 30
0.0
 11
-18.505889314264866
 21
-43.909618088616725
 31
0.0
  0
LINE
  5
1CD
330
17
100
AcDbEntity
  8
ENGRAVE_LOG
100
AcDbLine
 10
-18.895462319295
 20
-43.03442231214569
 30
0.0
 11
-18.63414209573028
 21
-42.439265407828785
 31
0.0
  0
LINE
  5
1CE
330
17
100
AcDbEntity
  8
ENGRAVE_LOG
100
AcDbLine
 10
-18.895462319295
 20
-43.03442231214569
 30
0.0
 11
-19.156782542859716
 21
-43.6295792164626
 31
0.0
  0
LINE
  5
1CF
330
17
100
AcDbEntity
  8
ENGRAVE_LOG
100
AcDbLine
 10
-19.529852640146483
 20
-42.75026147117891
 30
0.0
 11
-19.043683968040707
 21
-41.68605283455594
 31
0.0
  0
LINE
  5
1D0
330
17
100
AcDbEntity
  8
ENGRAVE_LOG
100
AcDbLine
 10
-19.529852640146483
 20
-42.75026147117891
 30
0.0
 11
-20.016021312252256
 21
-43.814470107801874
 31
0.0
  0
LINE
  5
1D1
330
17
100
AcDbEntity
  8
ENGRAVE_LOG
100
AcDbLine
 10
-20.15658580305013
 20
-42.458356642294554
 30
0.0
 11
-19.877824510029225
 21
-41.87116660362452
 31
0.0
  0
LINE
  5
1D2
330
17
100
AcDbEntity
  8
ENGRAVE_LOG
100
AcDbLine
 10
-20.15658580305013
 20
-42.458356642294554
 30
0.0
 11
-20.435347096071034
 21
-43.045546680964584
 31
0.0
  0
LINE
  5
1D3
330
17
100
AcDbEntity
  8
ENGRAVE_LOG
100
AcDbLine
 10
-20.775632047653332
 20
-42.15890312876415
 30
0.0
 11
-20.48830947678153
 21
-41.575854468472734
 31
0.0
  0
LINE
  5
1D4
330
17
100
AcDbEntity
  8
ENGRAVE_LOG
100
AcDbLine
 10
-20.775632047653332
 20
-42.15890312876415
 30
0.0
 11
-21.062954618525133
 21
-42.74195178905557
 31
0.0
  0
LINE
  5
1D5
330
17
100
AcDbEntity
  8
ENGRAVE_LOG
100
AcDbLine
 10
-21.386964912359925
 20
-41.85209351797692
 30
0.0
 11
-21.091187738040055
 21
-41.273287969324045
 31
0.0
  0
LINE
  5
1D6
330
17
100
AcDbEntity
  8
ENGRAVE_LOG
100
AcDbLine
 10
-21.386964912359925
 20
-41.85209351797692
 30
0.0
 11
-21.682742086679795
 21
-42.43089906662979
 31
0.0
  0
LINE
  5
1D7
330
17
100
AcDbEntity
  8
ENGRAVE_LOG
100
AcDbLine
 10
-21.99056112508919
 20
-41.53811769211161
 30
0.0
 11
-21.686436343572
 21
-40.96365436232709
 31
0.0
  0
LINE
  5
1D8
330
17
100
AcDbEntity
  8
ENGRAVE_LOG
100
AcDbLine
 10
-21.99056112508919
 20
-41.53811769211161
 30
0.0
 11
-22.294685906606382
 21
-42.11258102189613
 31
0.0
  0
LINE
  5
1D9
330
17
100
AcDbEntity
  8
ENGRAVE_LOG
100
AcDbLine
 10
-22.586400497079467
 20
-41.21716284007826
 30
0.0
 11
-22.024143293215996
 21
-40.19111857363376
 31
0.0
  0
LINE
  5
1DA
330
17
100
AcDbEntity
  8
ENGRAVE_LOG
100
AcDbLine
 10
-22.586400497079467
 20
-41.21716284007826
 30
0.0
 11
-23.148657700942934
 21
-42.24320710652277
 31
0.0
  0
LINE
  5
1DB
330
17
100
AcDbEntity
  8
ENGRAVE_LOG
100
AcDbLine
 10
-23.174465819659353
 20
-40.88941347064593
 30
0.0
 11
-22.853967888110873
 21
-40.3239215822221
 31
0.0
  0
LINE
  5
1DC
330
17
100
AcDbEntity
  8
ENGRAVE_LOG
100
AcDbLine
 10
-23.174465819659353
 20
-40.88941347064593
 30
0.0
 11
-23.49496375120783
 21
-41.454905359069755
 31
0.0
  0
LINE
  5
1DD
330
17
100
AcDbEntity
  8
ENGRAVE_LOG
100
AcDbLine
 10
-23.754742763908855
 20
-40.55505142667828
 30
0.0
 11
-23.426219725684582
 21
-39.994183694181665
 31
0.0
  0
LINE
  5
1DE
330
17
100
AcDbEntity
  8
ENGRAVE_LOG
100
AcDbLine
 10
-23.754742763908855
 20
-40.55505142667828
 30
0.0
 11
-24.083265802133123
 21
-41.115919159174894
 31
0.0
  0
LINE
  5
1DF
330
17
100
AcDbEntity
  8
ENGRAVE_LOG
100
AcDbLine
 10
-24.32721978313614
 20
-40.21425590040165
 30
0.0
 11
-23.99077950953958
 21
-39.658101297523764
 31
0.0
  0
LINE
  5
1E0
330
17
100
AcDbEntity
  8
ENGRAVE_LOG
100
AcDbLine
 10
-24.32721978313614
 20
-40.21425590040165
 30
0.0
 11
-24.663660056732706
 21
-40.77041050327955
 31
0.0
  0
LINE
  5
1E1
330
17
100
AcDbEntity
  8
ENGRAVE_LOG
100
AcDbLine
 10
-24.891888018096587
 20
-39.86720344963438
 30
0.0
 11
-24.5476385029527
 21
-39.31584850830965
 31
0.0
  0
LINE
  5
1E2
330
17
100
AcDbEntity
  8
ENGRAVE_LOG
100
AcDbLine
 10
-24.891888018096587
 20
-39.86720344963438
 30
0.0
 11
-25.236137533240477
 21
-40.41855839095911
 31
0.0
  0
LINE
  5
1E3
330
17
100
AcDbEntity
  8
ENGRAVE_LOG
100
AcDbLine
 10
-25.448741204882076
 20
-39.51406801491005
 30
0.0
 11
-24.81522998765416
 21
-38.5304199387942
 31
0.0
  0
LINE
  5
1E4
330
17
100
AcDbEntity
  8
ENGRAVE_LOG
100
AcDbLine
 10
-25.448741204882076
 20
-39.51406801491005
 30
0.0
 11
-26.082252422109992
 21
-40.4977160910259
 31
0.0
  0
LINE
  5
1E5
330
17
100
AcDbEntity
  8
ENGRAVE_LOG
100
AcDbLine
 10
-25.99777558541134
 20
-39.15502093743011
 30
0.0
 11
-25.638231880506716
 21
-38.61351532872097
 31
0.0
  0
LINE
  5
1E6
330
17
100
AcDbEntity
  8
ENGRAVE_LOG
100
AcDbLine
 10
-25.99777558541134
 20
-39.15502093743011
 30
0.0
 11
-26.357319290315964
 21
-39.696526546139246
 31
0.0
  0
LINE
  5
1E7
330
17
100
AcDbEntity
  8
ENGRAVE_LOG
100
AcDbLine
 10
-26.538989820452535
 20
-38.79023097778507
 30
0.0
 11
-26.171961237829258
 21
-38.25377033660294
 31
0.0
  0
LINE
  5
1E8
330
17
100
AcDbEntity
  8
ENGRAVE_LOG
100
AcDbLine
 10
-26.538989820452535
 20
-38.79023097778507
 30
0.0
 11
-26.906018403075816
 21
-39.3266916189672
 31
0.0
  0
LINE
  5
1E9
330
17
100
AcDbEntity
  8
ENGRAVE_LOG
100
AcDbLine
 10
-27.072384905111054
 20
-38.41986433538665
 30
0.0
 11
-26.697979581955263
 21
-37.888525786067476
 31
0.0
  0
LINE
  5
1EA
330
17
100
AcDbEntity
  8
ENGRAVE_LOG
100
AcDbLine
 10
-27.072384905111054
 20
-38.41986433538665
 30
0.0
 11
-27.446790228266845
 21
-38.95120288470583
 31
0.0
  0
LINE
  5
1EB
330
17
100
AcDbEntity
  8
ENGRAVE_LOG
100
AcDbLine
 10
-27.597964086718584
 20
-38.04408466855512
 30
0.0
 11
-27.21629011530652
 21
-37.517943072075106
 31
0.0
  0
LINE
  5
1EC
330
17
100
AcDbEntity
  8
ENGRAVE_LOG
100
AcDbLine
 10
-27.597964086718584
 20
-38.04408466855512
 30
0.0
 11
-27.97963805813065
 21
-38.57022626503514
 31
0.0
  0
LINE
  5
1ED
330
17
100
AcDbEntity
  8
ENGRAVE_LOG
100
AcDbLine
 10
-28.115732785058306
 20
-37.66305311521091
 30
0.0
 11
-26.5603943756721
 21
-35.57956507053966
 31
0.0
  0
LINE
  5
1EE
330
17
100
AcDbEntity
  8
ENGRAVE_LOG
100
AcDbLine
 10
-28.115732785058306
 20
-37.66305311521091
 30
0.0
 11
-29.671071194444508
 21
-39.74654115988215
 31
0.0
  0
TEXT
  5
1EF
330
17
100
AcDbEntity
  8
ENGRAVE_TEXT
100
AcDbText
 10
-25.48362163071242
 20
-34.13715027038265
 30
0.0
 40
3.5
  1
4
 50
-36.741596878066474
 72
1
 11
-25.48362163071242
 21
-34.13715027038265
 31
0.0
100
AcDbText
 73
2
  0
TEXT
  5
1F0
330
17
100
AcDbEntity
  8
ENGRAVE_TEXT
100
AcDbText
 10
-30.747843939404188
 20
-41.18895596003916
 30
0.0
 40
3.5
  1
4
 50
-36.741596878066474
 72
1
 11
-30.747843939404188
 21
-41.18895596003916
 31
0.0
100
AcDbText
 73
2
  0
LINE
  5
1F1
330
17
100
AcDbEntity
  8
ENGRAVE_LOG
100
AcDbLine
 10
-28.6256985148654
 20
-37.276928314119885
 30
0.0
 11
-28.229811194978968
 21
-36.761396326796955
 31
0.0
  0
LINE
  5
1F2
330
17
100
AcDbEntity
  8
ENGRAVE_LOG
100
AcDbLine
 10
-28.6256985148654
 20
-37.276928314119885
 30
0.0
 11
-29.02158583475184
 21
-37.79246030144282
 31
0.0
  0
LINE
  5
1F3
330
17
100
AcDbEntity
  8
ENGRAVE_LOG
100
AcDbLine
 10
-29.127870810541843
 20
-36.88586642664619
 30
0.0
 11
-28.725038554651373
 21
-36.37574274202236
 31
0.0
  0
LINE
  5
1F4
330
17
100
AcDbEntity
  8
ENGRAVE_LOG
100
AcDbLine
 10
-29.127870810541843
 20
-36.88586642664619
 30
0.0
 11
-29.530703066432316
 21
-37.39599011127002
 31
0.0
  0
LINE
  5
1F5
330
17
100
AcDbEntity
  8
ENGRAVE_LOG
100
AcDbLine
 10
-29.622261153025924
 20
-36.490021158967984
 30
0.0
 11
-29.212591583888333
 21
-35.98537193017375
 31
0.0
  0
LINE
  5
1F6
330
17
100
AcDbEntity
  8
ENGRAVE_LOG
100
AcDbLine
 10
-29.622261153025924
 20
-36.490021158967984
 30
0.0
 11
-30.031930722163516
 21
-36.99467038776222
 31
0.0
  0
LINE
  5
1F7
330
17
100
AcDbEntity
  8
ENGRAVE_LOG
100
AcDbLine
 10
-30.108882898760086
 20
-36.0895437847135
 30
0.0
 11
-29.69248345441553
 21
-35.590433072797246
 31
0.0
  0
LINE
  5
1F8
330
17
100
AcDbEntity
  8
ENGRAVE_LOG
100
AcDbLine
 10
-30.108882898760086
 20
-36.0895437847135
 30
0.0
 11
-30.52528234310464
 21
-36.588654496629744
 31
0.0
  0
LINE
  5
1F9
330
17
100
AcDbEntity
  8
ENGRAVE_LOG
100
AcDbLine
 10
-30.58775121069954
 20
-35.68458316797814
 30
0.0
 11
-29.826311446518297
 21
-34.7962648210306
 31
0.0
  0
LINE
  5
1FA
330
17
100
AcDbEntity
  8
ENGRAVE_LOG
100
AcDbLine
 10
-30.58775121069954
 20
-35.68458316797814
 30
0.0
 11
-31.349190974880788
 21
-36.57290151492568
 31
0.0
  0
LINE
  5
1FB
330
17
100
AcDbEntity
  8
ENGRAVE_LOG
100
AcDbLine
 10
-31.058882991307783
 20
-35.27528578668431
 30
0.0
 11
-30.629345247810974
 21
-34.78743608963442
 31
0.0
  0
LINE
  5
1FC
330
17
100
AcDbEntity
  8
ENGRAVE_LOG
100
AcDbLine
 10
-31.058882991307783
 20
-35.27528578668431
 30
0.0
 11
-31.488420734804592
 21
-35.763135483734196
 31
0.0
  0
LINE
  5
1FD
330
17
100
AcDbEntity
  8
ENGRAVE_LOG
100
AcDbLine
 10
-31.52229681748523
 20
-34.861795756248135
 30
0.0
 11
-31.086350159371076
 21
-34.379664538342574
 31
0.0
  0
LINE
  5
1FE
330
17
100
AcDbEntity
  8
ENGRAVE_LOG
100
AcDbLine
 10
-31.52229681748523
 20
-34.861795756248135
 30
0.0
 11
-31.95824347559939
 21
-35.343926974153696
 31
0.0
  0
LINE
  5
1FF
330
17
100
AcDbEntity
  8
ENGRAVE_LOG
100
AcDbLine
 10
-31.97801287737888
 20
-34.44425485351933
 30
0.0
 11
-31.53576376311726
 21
-33.967898137460026
 31
0.0
  0
LINE
  5
200
330
17
100
AcDbEntity
  8
ENGRAVE_LOG
100
AcDbLine
 10
-31.97801287737888
 20
-34.44425485351933
 30
0.0
 11
-32.4202619916405
 21
-34.92061156957865
 31
0.0
  0
LINE
  5
201
330
17
100
AcDbEntity
  8
ENGRAVE_LOG
100
AcDbLine
 10
-32.426052909022225
 20
-34.02280254096201
 30
0.0
 11
-31.97760749645064
 21
-33.55227442071467
 31
0.0
  0
LINE
  5
202
330
17
100
AcDbEntity
  8
ENGRAVE_LOG
100
AcDbLine
 10
-32.426052909022225
 20
-34.02280254096201
 30
0.0
 11
-32.874498321593805
 21
-34.493330661209356
 31
0.0
  0
LINE
  5
203
330
17
100
AcDbEntity
  8
ENGRAVE_LOG
100
AcDbLine
 10
-32.866440140756154
 20
-33.59757599104573
 30
0.0
 11
-32.048275567039454
 21
-32.7612108014814
 31
0.0
  0
LINE
  5
204
330
17
100
AcDbEntity
  8
ENGRAVE_LOG
100
AcDbLine
 10
-32.866440140756154
 20
-33.59757599104573
 30
0.0
 11
-33.68460471447285
 21
-34.43394118061006
 31
0.0
  0
LINE
  5
205
330
17
100
AcDbEntity
  8
ENGRAVE_LOG
100
AcDbLine
 10
-33.29919923338218
 20
-33.168710110818594
 30
0.0
 11
-32.838678392920514
 21
-32.709993907158335
 31
0.0
  0
LINE
  5
206
330
17
100
AcDbEntity
  8
ENGRAVE_LOG
100
AcDbLine
 10
-33.29919923338218
 20
-33.168710110818594
 30
0.0
 11
-33.75972007384385
 21
-33.62742631447885
 31
0.0
  0
LINE
  5
207
330
17
100
AcDbEntity
  8
ENGRAVE_LOG
100
AcDbLine
 10
-33.72435622400161
 20
-32.736337566634475
 30
0.0
 11
-33.257955552818615
 21
-32.283600983266126
 31
0.0
  0
LINE
  5
208
330
17
100
AcDbEntity
  8
ENGRAVE_LOG
100
AcDbLine
 10
-33.72435622400161
 20
-32.736337566634475
 30
0.0
 11
-34.19075689518461
 21
-33.189074150002824
 31
0.0
  0
LINE
  5
209
330
17
100
AcDbEntity
  8
ENGRAVE_LOG
100
AcDbLine
 10
-34.14193847149426
 20
-32.300588809009355
 30
0.0
 11
-33.66976272667572
 21
-31.85387853824646
 31
0.0
  0
LINE
  5
20A
330
17
100
AcDbEntity
  8
ENGRAVE_LOG
100
AcDbLine
 10
-34.14193847149426
 20
-32.300588809009355
 30
0.0
 11
-34.61411421631279
 21
-32.74729907977225
 31
0.0
  0
LINE
  5
20B
330
17
100
AcDbEntity
  8
ENGRAVE_LOG
100
AcDbLine
 10
-34.5519746035926
 20
-31.861592097581877
 30
0.0
 11
-34.07412814630887
 21
-31.42095305793447
 31
0.0
  0
LINE
  5
20C
330
17
100
AcDbEntity
  8
ENGRAVE_LOG
100
AcDbLine
 10
-34.5519746035926
 20
-31.861592097581877
 30
0.0
 11
-35.02982106087632
 21
-32.302231137229285
 31
0.0
  0
LINE
  5
20D
330
17
100
AcDbEntity
  8
ENGRAVE_LOG
100
AcDbLine
 10
-34.954494465507615
 20
-31.41947352615568
 30
0.0
 11
-34.08435066711093
 21
-30.637329185185422
 31
0.0
  0
LINE
  5
20E
330
17
100
AcDbEntity
  8
ENGRAVE_LOG
100
AcDbLine
 10
-34.954494465507615
 20
-31.41947352615568
 30
0.0
 11
-35.8246382639043
 21
-32.20161786712594
 31
0.0
  0
LINE
  5
20F
330
17
100
AcDbEntity
  8
ENGRAVE_LOG
100
AcDbLine
 10
-35.34952907006419
 20
-30.974357047801437
 30
0.0
 11
-34.860652604201604
 21
-30.54598828011908
 31
0.0
  0
LINE
  5
210
330
17
100
AcDbEntity
  8
ENGRAVE_LOG
100
AcDbLine
 10
-35.34952907006419
 20
-30.974357047801437
 30
0.0
 11
-35.83840553592678
 21
-31.402725815483798
 31
0.0
  0
LINE
  5
211
330
17
100
AcDbEntity
  8
ENGRAVE_LOG
100
AcDbLine
 10
-35.737110549304596
 20
-30.52636449999872
 30
0.0
 11
-35.24287391404826
 21
-30.10419137393491
 31
0.0
  0
LINE
  5
212
330
17
100
AcDbEntity
  8
ENGRAVE_LOG
100
AcDbLine
 10
-35.737110549304596
 20
-30.52636449999872
 30
0.0
 11
-36.23134718456094
 21
-30.94853762606253
 31
0.0
  0
LINE
  5
213
330
17
100
AcDbEntity
  8
ENGRAVE_LOG
100
AcDbLine
 10
-36.11727210752062
 20
-30.075615629797383
 30
0.0
 11
-35.6177779187996
 21
-29.659676264704444
 31
0.0
  0
LINE
  5
214
330
17
100
AcDbEntity
  8
ENGRAVE_LOG
100
AcDbLine
 10
-36.11727210752062
 20
-30.075615629797383
 30
0.0
 11
-36.61676629624165
 21
-30.491554994890326
 31
0.0
  0
LINE
  5
215
330
17
100
AcDbEntity
  8
ENGRAVE_LOG
100
AcDbLine
 10
-36.490047975674024
 20
-29.622228118982008
 30
0.0
 11
-35.985398376010444
 21
-29.212559006698214
 31
0.0
  0
LINE
  5
216
330
17
100
AcDbEntity
  8
ENGRAVE_LOG
100
AcDbLine
 10
-36.490047975674024
 20
-29.622228118982008
 30
0.0
 11
-36.9946975753376
 21
-30.0318972312658
 31
0.0
  0
LINE
  5
217
330
17
100
AcDbEntity
  8
ENGRAVE_LOG
100
AcDbLine
 10
-36.85547336716878
 20
-29.16631760922028
 30
0.0
 11
-35.93800732802862
 21
-28.440262468735433
 31
0.0
  0
LINE
  5
218
330
17
100
AcDbEntity
  8
ENGRAVE_LOG
100
AcDbLine
 10
-36.85547336716878
 20
-29.16631760922028
 30
0.0
 11
-37.772939406308936
 21
-29.892372749705125
 31
0.0
  0
LINE
  5
219
330
17
100
AcDbEntity
  8
ENGRAVE_LOG
100
AcDbLine
 10
-37.21358443493666
 20
-28.707997727181187
 30
0.0
 11
-36.698928479985405
 21
-28.310972226698897
 31
0.0
  0
LINE
  5
21A
330
17
100
AcDbEntity
  8
ENGRAVE_LOG
100
AcDbLine
 10
-37.21358443493666
 20
-28.707997727181187
 30
0.0
 11
-37.7282403898879
 21
-29.10502322766348
 31
0.0
  0
LINE
  5
21B
330
17
100
AcDbEntity
  8
ENGRAVE_LOG
100
AcDbLine
 10
-37.5644182298011
 20
-28.247380109606393
 30
0.0
 11
-37.04491031811236
 21
-27.856724852771414
 31
0.0
  0
LINE
  5
21C
330
17
100
AcDbEntity
  8
ENGRAVE_LOG
100
AcDbLine
 10
-37.5644182298011
 20
-28.247380109606393
 30
0.0
 11
-38.08392614148983
 21
-28.638035366441375
 31
0.0
  0
LINE
  5
21D
330
17
100
AcDbEntity
  8
ENGRAVE_LOG
100
AcDbLine
 10
-37.908012660083706
 20
-27.78457442832144
 30
0.0
 11
-37.38375291052935
 21
-27.400319675589337
 31
0.0
  0
LINE
  5
21E
330
17
100
AcDbEntity
  8
ENGRAVE_LOG
100
AcDbLine
 10
-37.908012660083706
 20
-27.78457442832144
 30
0.0
 11
-38.43227240963805
 21
-28.168829181053546
 31
0.0
  0
LINE
  5
21F
330
17
100
AcDbEntity
  8
ENGRAVE_LOG
100
AcDbLine
 10
-38.244406452419334
 20
-27.31968841517315
 30
0.0
 11
-37.71549444829013
 21
-26.94186293709097
 31
0.0
  0
LINE
  5
220
330
17
100
AcDbEntity
  8
ENGRAVE_LOG
100
AcDbLine
 10
-38.244406452419334
 20
-27.31968841517315
 30
0.0
 11
-38.77331845654854
 21
-27.697513893255334
 31
0.0
  0
LINE
  5
221
330
17
100
AcDbEntity
  8
ENGRAVE_LOG
100
AcDbLine
 10
-38.57363911374666
 20
-26.85282788688063
 30
0.0
 11
-36.439778226603224
 21
-25.367352301648932
 31
0.0
  0
LINE
  5
222
330
17
100
AcDbEntity
  8
ENGRAVE_LOG
100
AcDbLine
 10
-38.57363911374666
 20
-26.85282788688063
 30
0.0
 11
-40.70750000089009
 21
-28.338303472112322
 31
0.0
  0
TEXT
  5
223
330
17
100
AcDbEntity
  8
ENGRAVE_TEXT
100
AcDbText
 10
-34.96248992011931
 20
-24.33894612725776
 30
0.0
 40
3.5
  1
4.5
 50
-55.15650495912374
 72
1
 11
-34.96248992011931
 21
-24.33894612725776
 31
0.0
100
AcDbText
 73
2
  0
TEXT
  5
224
330
17
100
AcDbEntity
  8
ENGRAVE_TEXT
100
AcDbText
 10
-42.184788307374006
 20
-29.366709646503494
 30
0.0
 40
3.5
  1
4.5
 50
-55.15650495912374
 72
1
 11
-42.184788307374006
 21
-29.366709646503494
 31
0.0
100
AcDbText
 73
2
  0
LINE
  5
225
330
17
100
AcDbEntity
  8
ENGRAVE_LOG
100
AcDbLine
 10
-38.89575089444136
 20
-26.384096769788496
 30
0.0
 11
-38.357830935262925
 21
-26.019210325099934
 31
0.0
  0
LINE
  5
226
330
17
100
AcDbEntity
  8
ENGRAVE_LOG
100
AcDbLine
 10
-38.89575089444136
 20
-26.384096769788496
 30
0.0
 11
-39.43367085361981
 21
-26.74898321447706
 31
0.0
  0
LINE
  5
227
330
17
100
AcDbEntity
  8
ENGRAVE_LOG
100
AcDbLine
 10
-39.210782752561116
 20
-25.913597124510826
 30
0.0
 11
-38.668505969812934
 21
-25.555217589810145
 31
0.0
  0
LINE
  5
228
330
17
100
AcDbEntity
  8
ENGRAVE_LOG
100
AcDbLine
 10
-39.210782752561116
 20
-25.913597124510826
 30
0.0
 11
-39.7530595353093
 21
-26.271976659211507
 31
0.0
  0
LINE
  5
229
330
17
100
AcDbEntity
  8
ENGRAVE_LOG
100
AcDbLine
 10
-39.51877631917097
 20
-25.44142917045605
 30
0.0
 11
-38.97224005092711
 21
-25.08957961809868
 31
0.0
  0
LINE
  5
22A
330
17
100
AcDbEntity
  8
ENGRAVE_LOG
100
AcDbLine
 10
-39.51877631917097
 20
-25.44142917045605
 30
0.0
 11
-40.06531258741482
 21
-25.79327872281342
 31
0.0
  0
LINE
  5
22B
330
17
100
AcDbEntity
  8
ENGRAVE_LOG
100
AcDbLine
 10
-39.81977386471983
 20
-24.96769131022281
 30
0.0
 11
-39.269074864463065
 21
-24.622393451677176
 31
0.0
  0
LINE
  5
22C
330
17
100
AcDbEntity
  8
ENGRAVE_LOG
100
AcDbLine
 10
-39.81977386471983
 20
-24.96769131022281
 30
0.0
 11
-40.37047286497659
 21
-25.312989168768446
 31
0.0
  0
LINE
  5
22D
330
17
100
AcDbEntity
  8
ENGRAVE_LOG
100
AcDbLine
 10
-40.11381826643856
 20
-24.492480153858253
 30
0.0
 11
-39.11524023725275
 21
-23.882773733006886
 31
0.0
  0
LINE
  5
22E
330
17
100
AcDbEntity
  8
ENGRAVE_LOG
100
AcDbLine
 10
-40.11381826643856
 20
-24.492480153858253
 30
0.0
 11
-41.11239629562437
 21
-25.102186574709616
 31
0.0
  0
LINE
  5
22F
330
17
100
AcDbEntity
  8
ENGRAVE_LOG
100
AcDbLine
 10
-40.40095297673178
 20
-24.015890542969824
 30
0.0
 11
-39.84221639301102
 21
-23.683755886524498
 31
0.0
  0
LINE
  5
230
330
17
100
AcDbEntity
  8
ENGRAVE_LOG
100
AcDbLine
 10
-40.40095297673178
 20
-24.015890542969824
 30
0.0
 11
-40.95968956045254
 21
-24.34802519941515
 31
0.0
  0
LINE
  5
231
330
17
100
AcDbEntity
  8
ENGRAVE_LOG
100
AcDbLine
 10
-40.681221992535576
 20
-23.53801557468344
 30
0.0
 11
-40.11860934795796
 21
-23.212489827373986
 31
0.0
  0
LINE
  5
232
330
17
100
AcDbEntity
  8
ENGRAVE_LOG
100
AcDbLine
 10
-40.681221992535576
 20
-23.53801557468344
 30
0.0
 11
-41.243834637113196
 21
-23.86354132199289
 31
0.0
  0
LINE
  5
233
330
17
100
AcDbEntity
  8
ENGRAVE_LOG
100
AcDbLine
 10
-40.95466982561445
 20
-23.05894662544031
 30
0.0
 11
-40.38827545568574
 21
-22.74004629976933
 31
0.0
  0
LINE
  5
234
330
17
100
AcDbEntity
  8
ENGRAVE_LOG
100
AcDbLine
 10
-40.95466982561445
 20
-23.05894662544031
 30
0.0
 11
-41.52106419554316
 21
-23.37784695111129
 31
0.0
  0
LINE
  5
235
330
17
100
AcDbEntity
  8
ENGRAVE_LOG
100
AcDbLine
 10
-41.22134147377152
 20
-22.578773374626095
 30
0.0
 11
-40.65125909168744
 21
-22.26651374284935
 31
0.0
  0
LINE
  5
236
330
17
100
AcDbEntity
  8
ENGRAVE_LOG
100
AcDbLine
 10
-41.22134147377152
 20
-22.578773374626095
 30
0.0
 11
-41.79142385585559
 21
-22.89103300640284
 31
0.0
  0
LINE
  5
237
330
17
100
AcDbEntity
  8
ENGRAVE_LOG
100
AcDbLine
 10
-41.48128239294631
 20
-22.097583828026142
 30
0.0
 11
-40.44866323550488
 21
-21.547495039115706
 31
0.0
  0
LINE
  5
238
330
17
100
AcDbEntity
  8
ENGRAVE_LOG
100
AcDbLine
 10
-41.48128239294631
 20
-22.097583828026142
 30
0.0
 11
-42.51390155038774
 21
-22.647672616936582
 31
0.0
  0
LINE
  5
239
330
17
100
AcDbEntity
  8
ENGRAVE_LOG
100
AcDbLine
 10
-41.734538470176034
 20
-21.615464341100708
 30
0.0
 11
-41.15735868282254
 21
-21.316527068298253
 31
0.0
  0
LINE
  5
23A
330
17
100
AcDbEntity
  8
ENGRAVE_LOG
100
AcDbLine
 10
-41.734538470176034
 20
-21.615464341100708
 30
0.0
 11
-42.311718257529535
 21
-21.914401613903166
 31
0.0
  0
LINE
  5
23B
330
17
100
AcDbEntity
  8
ENGRAVE_LOG
100
AcDbLine
 10
-41.98115599739575
 20
-21.132499642075533
 30
0.0
 11
-41.40056554211262
 21
-20.84024166830215
 31
0.0
  0
LINE
  5
23C
330
17
100
AcDbEntity
  8
ENGRAVE_LOG
100
AcDbLine
 10
-41.98115599739575
 20
-21.132499642075533
 30
0.0
 11
-42.56174645267889
 21
-21.424757615848918
 31
0.0
  0
LINE
  5
23D
330
17
100
AcDbEntity
  8
ENGRAVE_LOG
100
AcDbLine
 10
-42.2211816460544
 20
-20.648772854842477
 30
0.0
 11
-41.6372716871196
 21
-20.363204719615933
 31
0.0
  0
LINE
  5
23E
330
17
100
AcDbEntity
  8
ENGRAVE_LOG
100
AcDbLine
 10
-42.2211816460544
 20
-20.648772854842477
 30
0.0
 11
-42.80509160498919
 21
-20.93434099006902
 31
0.0
  0
LINE
  5
23F
330
17
100
AcDbEntity
  8
ENGRAVE_LOG
100
AcDbLine
 10
-42.45466244252397
 20
-20.164365521665797
 30
0.0
 11
-41.86752349385077
 21
-19.885496636791697
 31
0.0
  0
LINE
  5
240
330
17
100
AcDbEntity
  8
ENGRAVE_LOG
100
AcDbLine
 10
-42.45466244252397
 20
-20.164365521665797
 30
0.0
 11
-43.041801391197176
 21
-20.4432344065399
 31
0.0
  0
LINE
  5
241
330
17
100
AcDbEntity
  8
ENGRAVE_LOG
100
AcDbLine
 10
-42.6816457442795
 20
-19.67935762569063
 30
0.0
 11
-41.6191452012836
 21
-19.18946723373195
 31
0.0
  0
LINE
  5
242
330
17
100
AcDbEntity
  8
ENGRAVE_LOG
100
AcDbLine
 10
-42.6816457442795
 20
-19.67935762569063
 30
0.0
 11
-43.74414628727539
 21
-20.169248017649313
 31
0.0
  0
LINE
  5
243
330
17
100
AcDbEntity
  8
ENGRAVE_LOG
100
AcDbLine
 10
-42.90217921682872
 20
-19.19382761324874
 30
0.0
 11
-42.30885120638322
 21
-18.92838106115062
 31
0.0
  0
LINE
  5
244
330
17
100
AcDbEntity
  8
ENGRAVE_LOG
100
AcDbLine
 10
-42.90217921682872
 20
-19.19382761324874
 30
0.0
 11
-43.49550722727422
 21
-19.459274165346862
 31
0.0
  0
LINE
  5
245
330
17
100
AcDbEntity
  8
ENGRAVE_LOG
100
AcDbLine
 10
-43.11631081137002
 20
-18.707852415959906
 30
0.0
 11
-42.520021406531924
 21
-18.449126797441313
 31
0.0
  0
LINE
  5
246
330
17
100
AcDbEntity
  8
ENGRAVE_LOG
100
AcDbLine
 10
-43.11631081137002
 20
-18.707852415959906
 30
0.0
 11
-43.71260021620811
 21
-18.966578034478502
 31
0.0
  0
LINE
  5
247
330
17
100
AcDbEntity
  8
ENGRAVE_LOG
100
AcDbLine
 10
-43.32408874315884
 20
-18.221507472624143
 30
0.0
 11
-42.72492581373218
 21
-17.969507901194234
 31
0.0
  0
LINE
  5
248
330
17
100
AcDbEntity
  8
ENGRAVE_LOG
100
AcDbLine
 10
-43.32408874315884
 20
-18.221507472624143
 30
0.0
 11
-43.92325167258551
 21
-18.473507044054053
 31
0.0
  0
LINE
  5
249
330
17
100
AcDbEntity
  8
ENGRAVE_LOG
100
AcDbLine
 10
-43.52556147056225
 20
-17.734866750903617
 30
0.0
 11
-42.923612216182136
 21
-17.489597317114526
 31
0.0
  0
LINE
  5
24A
330
17
100
AcDbEntity
  8
ENGRAVE_LOG
100
AcDbLine
 10
-43.52556147056225
 20
-17.734866750903617
 30
0.0
 11
-44.12751072494237
 21
-17.98013618469271
 31
0.0
  0
LINE
  5
24B
330
17
100
AcDbEntity
  8
ENGRAVE_LOG
100
AcDbLine
 10
-43.720777674782816
 20
-17.24800276879072
 30
0.0
 11
-42.63240937947439
 21
-16.818637593482524
 31
0.0
  0
LINE
  5
24C
330
17
100
AcDbEntity
  8
ENGRAVE_LOG
100
AcDbLine
 10
-43.720777674782816
 20
-17.24800276879072
 30
0.0
 11
-44.809145970091244
 21
-17.677367944098915
 31
0.0
  0
LINE
  5
24D
330
17
100
AcDbEntity
  8
ENGRAVE_LOG
100
AcDbLine
 10
-43.90978624023264
 20
-16.76098661586114
 30
0.0
 11
-43.30252323903794
 21
-16.529185737131144
 31
0.0
  0
LINE
  5
24E
330
17
100
AcDbEntity
  8
ENGRAVE_LOG
100
AcDbLine
 10
-43.90978624023264
 20
-16.76098661586114
 30
0.0
 11
-44.51704924142735
 21
-16.99278749459113
 31
0.0
  0
LINE
  5
24F
330
17
100
AcDbEntity
  8
ENGRAVE_LOG
100
AcDbLine
 10
-44.09263623553987
 20
-16.273887974308906
 30
0.0
 11
-43.48284445781432
 21
-16.04882356615357
 31
0.0
  0
LINE
  5
250
330
17
100
AcDbEntity
  8
ENGRAVE_LOG
100
AcDbLine
 10
-44.09263623553987
 20
-16.273887974308906
 30
0.0
 11
-44.702428013265425
 21
-16.49895238246424
 31
0.0
  0
LINE
  5
251
330
17
100
AcDbEntity
  8
ENGRAVE_LOG
100
AcDbLine
 10
-44.26937689516936
 20
-15.786775139763193
 30
0.0
 11
-43.65714083172553
 21
-15.568447398468598
 31
0.0
  0
LINE
  5
252
330
17
100
AcDbEntity
  8
ENGRAVE_LOG
100
AcDbLine
 10
-44.26937689516936
 20
-15.786775139763193
 30
0.0
 11
-44.88161295861319
 21
-16.00510288105779
 31
0.0
  0
LINE
  5
253
330
17
100
AcDbEntity
  8
ENGRAVE_LOG
100
AcDbLine
 10
-44.44005760164069
 20
-15.299715041884204
 30
0.0
 11
-43.825461060341404
 21
-15.088123238113466
 31
0.0
  0
LINE
  5
254
330
17
100
AcDbEntity
  8
ENGRAVE_LOG
100
AcDbLine
 10
-44.44005760164069
 20
-15.299715041884204
 30
0.0
 11
-45.054654142939974
 21
-15.511306845654943
 31
0.0
  0
LINE
  5
255
330
17
100
AcDbEntity
  8
ENGRAVE_LOG
100
AcDbLine
 10
-44.60472786832643
 20
-14.81277326473822
 30
0.0
 11
-42.13723228412113
 21
-13.993343254348446
 31
0.0
  0
LINE
  5
256
330
17
100
AcDbEntity
  8
ENGRAVE_LOG
100
AcDbLine
 10
-44.60472786832643
 20
-14.81277326473822
 30
0.0
 11
-47.07222345253172
 21
-15.632203275127994
 31
0.0
  0
TEXT
  5
257
330
17
100
AcDbEntity
  8
ENGRAVE_TEXT
100
AcDbText
 10
-40.428966110440555
 20
-13.426045554847834
 30
0.0
 40
3.5
  1
5
 50
-71.62920156096678
 72
1
 11
-40.428966110440555
 21
-13.426045554847834
 31
0.0
100
AcDbText
 73
2
  0
TEXT
  5
258
330
17
100
AcDbEntity
  8
ENGRAVE_TEXT
100
AcDbText
 10
-48.78048962621231
 20
-16.199500974628606
 30
0.0
 40
3.5
  1
5
 50
-71.62920156096678
 72
1
 11
-48.78048962621231
 21
-16.199500974628606
 31
0.0
100
AcDbText
 73
2
  0
LINE
  5
259
330
17
100
AcDbEntity
  8
ENGRAVE_LOG
100
AcDbLine
 10
-44.99043377966933
 20
-13.596354964371482
 30
0.0
 11
-44.368225652929226
 21
-13.408320268055707
 31
0.0
  0
LINE
  5
25A
330
17
100
AcDbEntity
  8
ENGRAVE_LOG
100
AcDbLine
 10
-44.99043377966933
 20
-13.596354964371482
 30
0.0
 11
-45.612641906409436
 21
-13.784389660687259
 31
0.0
  0
LINE
  5
25B
330
17
100
AcDbEntity
  8
ENGRAVE_LOG
100
AcDbLine
 10
-45.33966268189379
 20
-12.382042961163048
 30
0.0
 11
-44.71262479373994
 21
-12.21080194148739
 31
0.0
  0
LINE
  5
25C
330
17
100
AcDbEntity
  8
ENGRAVE_LOG
100
AcDbLine
 10
-45.33966268189379
 20
-12.382042961163048
 30
0.0
 11
-45.96670057004764
 21
-12.553283980838707
 31
0.0
  0
LINE
  5
25D
330
17
100
AcDbEntity
  8
ENGRAVE_LOG
100
AcDbLine
 10
-45.65319474224913
 20
-11.170756904806263
 30
0.0
 11
-45.02182077240951
 21
-11.016267713569581
 31
0.0
  0
LINE
  5
25E
330
17
100
AcDbEntity
  8
ENGRAVE_LOG
100
AcDbLine
 10
-45.65319474224913
 20
-11.170756904806263
 30
0.0
 11
-46.28456871208874
 21
-11.325246096042946
 31
0.0
  0
LINE
  5
25F
330
17
100
AcDbEntity
  8
ENGRAVE_LOG
100
AcDbLine
 10
-45.931811135047234
 20
-9.963369201949254
 30
0.0
 11
-45.296583959775305
 21
-9.825577925752082
 31
0.0
  0
LINE
  5
260
330
17
100
AcDbEntity
  8
ENGRAVE_LOG
100
AcDbLine
 10
-45.931811135047234
 20
-9.963369201949254
 30
0.0
 11
-46.56703831031916
 21
-10.101160478146424
 31
0.0
  0
LINE
  5
261
330
17
100
AcDbEntity
  8
ENGRAVE_LOG
100
AcDbLine
 10
-46.17629279299753
 20
-8.760706814827472
 30
0.0
 11
-45.53768448841352
 21
-8.639548103558582
 31
0.0
  0
LINE
  5
262
330
17
100
AcDbEntity
  8
ENGRAVE_LOG
100
AcDbLine
 10
-46.17629279299753
 20
-8.760706814827472
 30
0.0
 11
-46.81490109758153
 21
-8.881865526096362
 31
0.0
  0
LINE
  5
263
330
17
100
AcDbEntity
  8
ENGRAVE_LOG
100
AcDbLine
 10
-46.3874192635445
 20
-7.563553005574882
 30
0.0
 11
-45.74589112479335
 21
-7.4589506767743785
 31
0.0
  0
LINE
  5
264
330
17
100
AcDbEntity
  8
ENGRAVE_LOG
100
AcDbLine
 10
-46.3874192635445
 20
-7.563553005574882
 30
0.0
 11
-47.02894740229564
 21
-7.668155334375386
 31
0.0
  0
LINE
  5
265
330
17
100
AcDbEntity
  8
ENGRAVE_LOG
100
AcDbLine
 10
-46.5659676629056
 20
-6.37264902667879
 30
0.0
 11
-45.92197023778031
 21
-6.284516646522595
 31
0.0
  0
LINE
  5
266
330
17
100
AcDbEntity
  8
ENGRAVE_LOG
100
AcDbLine
 10
-46.5659676629056
 20
-6.37264902667879
 30
0.0
 11
-47.20996508803089
 21
-6.460781406834986
 31
0.0
  0
LINE
  5
267
330
17
100
AcDbEntity
  8
ENGRAVE_LOG
100
AcDbLine
 10
-46.71271172099656
 20
-5.188695758191184
 30
0.0
 11
-46.06668485677001
 21
-5.11693719983322
 31
0.0
  0
LINE
  5
268
330
17
100
AcDbEntity
  8
ENGRAVE_LOG
100
AcDbLine
 10
-46.71271172099656
 20
-5.188695758191184
 30
0.0
 11
-47.3587385852231
 21
-5.260454316549146
 31
0.0
  0
LINE
  5
269
330
17
100
AcDbEntity
  8
ENGRAVE_LOG
100
AcDbLine
 10
-46.82842091088768
 20
-4.012355292435793
 30
0.0
 11
-46.18079381318391
 21
-3.956865272434022
 31
0.0
  0
LINE
  5
26A
330
17
100
AcDbEntity
  8
ENGRAVE_LOG
100
AcDbLine
 10
-46.82842091088768
 20
-4.012355292435793
 30
0.0
 11
-47.47604800859144
 21
-4.067845312437565
 31
0.0
  0
LINE
  5
26B
330
17
100
AcDbEntity
  8
ENGRAVE_LOG
100
AcDbLine
 10
-46.9138596568609
 20
-2.844252467056887
 30
0.0
 11
-45.09719530419097
 21
-2.7341133289708544
 31
0.0
  0
LINE
  5
26C
330
17
100
AcDbEntity
  8
ENGRAVE_LOG
100
AcDbLine
 10
-46.9138596568609
 20
-2.844252467056887
 30
0.0
 11
-48.73052400953083
 21
-2.9543916051429195
 31
0.0
  0
LINE
  5
26D
330
17
100
AcDbEntity
  8
ENGRAVE_LOG
100
AcDbLine
 10
-46.9697866155351
 20
-1.6849763473413395
 30
0.0
 11
-46.32020446021387
 21
-1.6616734829632145
 31
0.0
  0
LINE
  5
26E
330
17
100
AcDbEntity
  8
ENGRAVE_LOG
100
AcDbLine
 10
-46.9697866155351
 20
-1.6849763473413395
 30
0.0
 11
-47.619368770856326
 21
-1.7082792117194643
 31
0.0
  0
LINE
  5
26F
330
17
100
AcDbEntity
  8
ENGRAVE_LOG
100
AcDbLine
 10
-46.99695402489819
 20
-0.5350816588204421
 30
0.0
 11
-46.34699615008577
 21
-0.5276815933261169
 31
0.0
  0
LINE
  5
270
330
17
100
AcDbEntity
  8
ENGRAVE_LOG
100
AcDbLine
 10
-46.99695402489819
 20
-0.5350816588204421
 30
0.0
 11
-47.64691189971061
 21
-0.5424817243147674
 31
0.0
  0
LINE
  5
271
330
17
100
AcDbEntity
  8
ENGRAVE_LOG
100
AcDbLine
 10
-46.99610711643082
 20
0.6049098287848643
 30
0.0
 11
-46.34616095418231
 21
0.5965440545569886
 31
0.0
  0
LINE
  5
272
330
17
100
AcDbEntity
  8
ENGRAVE_LOG
100
AcDbLine
 10
-46.99610711643082
 20
0.6049098287848643
 30
0.0
 11
-47.64605327867933
 21
0.6132756030127401
 31
0.0
  0
LINE
  5
273
330
17
100
AcDbEntity
  8
ENGRAVE_LOG
100
AcDbLine
 10
-46.96798358582976
 20
1.7345079651666588
 30
0.0
 11
-46.318426366025726
 21
1.710520089052652
 31
0.0
  0
LINE
  5
274
330
17
100
AcDbEntity
  8
ENGRAVE_LOG
100
AcDbLine
 10
-46.96798358582976
 20
1.7345079651666588
 30
0.0
 11
-47.61754080563378
 21
1.7584958412806657
 31
0.0
  0
LINE
  5
275
330
17
100
AcDbEntity
  8
ENGRAVE_LOG
100
AcDbLine
 10
-46.913313118140344
 20
2.8532529294335442
 30
0.0
 11
-46.26451197927245
 21
2.8137930484945697
 31
0.0
  0
LINE
  5
276
330
17
100
AcDbEntity
  8
ENGRAVE_LOG
100
AcDbLine
 10
-46.913313118140344
 20
2.8532529294335442
 30
0.0
 11
-47.56211425700825
 21
2.892712810372519
 31
0.0
  0
LINE
  5
277
330
17
100
AcDbEntity
  8
ENGRAVE_LOG
100
AcDbLine
 10
-46.83281696338904
 20
3.960713985344039
 30
0.0
 11
-46.18512906921451
 21
3.9059381536318343
 31
0.0
  0
LINE
  5
278
330
17
100
AcDbEntity
  8
ENGRAVE_LOG
100
AcDbLine
 10
-46.83281696338904
 20
3.960713985344039
 30
0.0
 11
-47.48050485756357
 21
4.015489817056244
 31
0.0
  0
LINE
  5
279
330
17
100
AcDbEntity
  8
ENGRAVE_LOG
100
AcDbLine
 10
-46.72720755906941
 20
5.056488280580371
 30
0.0
 11
-46.08098022048654
 21
4.986558123508516
 31
0.0
  0
LINE
  5
27A
330
17
100
AcDbEntity
  8
ENGRAVE_LOG
100
AcDbLine
 10
-46.72720755906941
 20
5.056488280580371
 30
0.0
 11
-47.37343489765228
 21
5.1264184376522275
 31
0.0
  0
LINE
  5
27B
330
17
100
AcDbEntity
  8
ENGRAVE_LOG
100
AcDbLine
 10
-46.59718819608012
 20
6.140199688861237
 30
0.0
 11
-45.9527589976237
 21
6.055282033589752
 31
0.0
  0
LINE
  5
27C
330
17
100
AcDbEntity
  8
ENGRAVE_LOG
100
AcDbLine
 10
-46.59718819608012
 20
6.140199688861237
 30
0.0
 11
-47.24161739453655
 21
6.225117344132722
 31
0.0
  0
LINE
  5
27D
330
17
100
AcDbEntity
  8
ENGRAVE_LOG
100
AcDbLine
 10
-46.44345272494202
 20
7.211497693688592
 30
0.0
 11
-45.80114965534176
 21
7.111764214946091
 31
0.0
  0
LINE
  5
27E
330
17
100
AcDbEntity
  8
ENGRAVE_LOG
100
AcDbLine
 10
-46.44345272494202
 20
7.211497693688592
 30
0.0
 11
-47.08575579454228
 21
7.311231172431094
 31
0.0
  0
LINE
  5
27F
330
17
100
AcDbEntity
  8
ENGRAVE_LOG
100
AcDbLine
 10
-46.266685299334846
 20
8.270056312523696
 30
0.0
 11
-43.70725164447802
 21
7.812563835660684
 31
0.0
  0
LINE
  5
280
330
17
100
AcDbEntity
  8
ENGRAVE_LOG
100
AcDbLine
 10
-46.266685299334846
 20
8.270056312523696
 30
0.0
 11
-48.826118954191664
 21
8.72754878938671
 31
0.0
  0
TEXT
  5
281
330
17
100
AcDbEntity
  8
ENGRAVE_TEXT
100
AcDbText
 10
-41.93533603726946
 20
7.4958382747555214
 30
0.0
 40
3.5
  1
6
 50
-280.13445013811173
 72
1
 11
-41.93533603726946
 21
7.4958382747555214
 31
0.0
100
AcDbText
 73
2
  0
TEXT
  5
282
330
17
100
AcDbEntity
  8
ENGRAVE_TEXT
100
AcDbText
 10
-50.59803456140023
 20
9.044274350291872
 30
0.0
 40
3.5
  1
6
 50
-280.13445013811173
 72
1
 11
-50.59803456140023
 21
9.044274350291872
 31
0.0
100
AcDbText
 73
2
  0
LINE
  5
283
330
17
100
AcDbEntity
  8
ENGRAVE_LOG
100
AcDbLine
 10
-46.067560154193366
 20
9.315573060192042
 30
0.0
 11
-45.430455598869415
 21
9.186740666806408
 31
0.0
  0
LINE
  5
284
330
17
100
AcDbEntity
  8
ENGRAVE_LOG
100
AcDbLine
 10
-46.067560154193366
 20
9.315573060192042
 30
0.0
 11
-46.70466470951732
 21
9.444405453577676
 31
0.0
  0
LINE
  5
285
330
17
100
AcDbEntity
  8
ENGRAVE_LOG
100
AcDbLine
 10
-45.84674141578828
 20
10.34776795032839
 30
0.0
 11
-45.21269073663377
 21
10.204660521228103
 31
0.0
  0
LINE
  5
286
330
17
100
AcDbEntity
  8
ENGRAVE_LOG
100
AcDbLine
 10
-45.84674141578828
 20
10.34776795032839
 30
0.0
 11
-46.4807920949428
 21
10.490875379428674
 31
0.0
  0
LINE
  5
287
330
17
100
AcDbEntity
  8
ENGRAVE_LOG
100
AcDbLine
 10
-45.60488294139132
 20
11.36638253368217
 30
0.0
 11
-44.97417711347846
 21
11.20918788162061
 31
0.0
  0
LINE
  5
288
330
17
100
AcDbEntity
  8
ENGRAVE_LOG
100
AcDbLine
 10
-45.60488294139132
 20
11.36638253368217
 30
0.0
 11
-46.23558876930417
 21
11.523577185743733
 31
0.0
  0
LINE
  5
289
330
17
100
AcDbEntity
  8
ENGRAVE_LOG
100
AcDbLine
 10
-45.34262818628522
 20
12.371178972122786
 30
0.0
 11
-44.715549285836595
 21
12.200088199104067
 31
0.0
  0
LINE
  5
28A
330
17
100
AcDbEntity
  8
ENGRAVE_LOG
100
AcDbLine
 10
-45.34262818628522
 20
12.371178972122786
 30
0.0
 11
-45.96970708673384
 21
12.542269745141505
 31
0.0
  0
LINE
  5
28B
330
17
100
AcDbEntity
  8
ENGRAVE_LOG
100
AcDbLine
 10
-45.060610096030956
 20
13.36193914719989
 30
0.0
 11
-44.4374314457667
 21
13.177146371759893
 31
0.0
  0
LINE
  5
28C
330
17
100
AcDbEntity
  8
ENGRAVE_LOG
100
AcDbLine
 10
-45.060610096030956
 20
13.36193914719989
 30
0.0
 11
-45.683788746295214
 21
13.546731922639887
 31
0.0
  0
LINE
  5
28D
330
17
100
AcDbEntity
  8
ENGRAVE_LOG
100
AcDbLine
 10
-44.7594510220456
 20
14.33846380213379
 30
0.0
 11
-44.14043733769816
 21
14.140165898487258
 31
0.0
  0
LINE
  5
28E
330
17
100
AcDbEntity
  8
ENGRAVE_LOG
100
AcDbLine
 10
-44.7594510220456
 20
14.33846380213379
 30
0.0
 11
-45.37846470639304
 21
14.53676170578032
 31
0.0
  0
LINE
  5
28F
330
17
100
AcDbEntity
  8
ENGRAVE_LOG
100
AcDbLine
 10
-44.439762658675726
 20
15.300571716134355
 30
0.0
 11
-43.82517019637489
 21
15.088968064741008
 31
0.0
  0
LINE
  5
290
330
17
100
AcDbEntity
  8
ENGRAVE_LOG
100
AcDbLine
 10
-44.439762658675726
 20
15.300571716134355
 30
0.0
 11
-45.05435512097656
 21
15.512175367527703
 31
0.0
  0
LINE
  5
291
330
17
100
AcDbEntity
  8
ENGRAVE_LOG
100
AcDbLine
 10
-44.102146000074576
 20
16.24809890996809
 30
0.0
 11
-43.49222270432887
 21
16.023391159085552
 31
0.0
  0
LINE
  5
292
330
17
100
AcDbEntity
  8
ENGRAVE_LOG
100
AcDbLine
 10
-44.102146000074576
 20
16.24809890996809
 30
0.0
 11
-44.712069295820285
 21
16.472806660850626
 31
0.0
  0
LINE
  5
293
330
17
100
AcDbEntity
  8
ENGRAVE_LOG
100
AcDbLine
 10
-43.74719131530572
 20
17.18089788171851
 30
0.0
 11
-43.14217696732809
 21
16.943289719524532
 31
0.0
  0
LINE
  5
294
330
17
100
AcDbEntity
  8
ENGRAVE_LOG
100
AcDbLine
 10
-43.74719131530572
 20
17.18089788171851
 30
0.0
 11
-44.35220566328335
 21
17.41850604391249
 31
0.0
  0
LINE
  5
295
330
17
100
AcDbEntity
  8
ENGRAVE_LOG
100
AcDbLine
 10
-43.37547814020366
 20
18.098836871708475
 30
0.0
 11
-41.6958319654128
 21
17.39798829497423
 31
0.0
  0
LINE
  5
296
330
17
100
AcDbEntity
  8
ENGRAVE_LOG
100
AcDbLine
 10
-43.37547814020366
 20
18.098836871708475
 30
0.0
 11
-45.05512431499453
 21
18.799685448442716
 31
0.0
  0
LINE
  5
297
330
17
100
AcDbEntity
  8
ENGRAVE_LOG
100
AcDbLine
 10
-42.98757528462133
 20
19.00179915558034
 30
0.0
 11
-42.39306626472763
 21
18.739008316194656
 31
0.0
  0
LINE
  5
298
330
17
100
AcDbEntity
  8
ENGRAVE_LOG
100
AcDbLine
 10
-42.98757528462133
 20
19.00179915558034
 30
0.0
 11
-43.58208430451502
 21
19.264589994966027
 31
0.0
  0
LINE
  5
299
330
17
100
AcDbEntity
  8
ENGRAVE_LOG
100
AcDbLine
 10
-42.584040853788444
 20
19.889682364554663
 30
0.0
 11
-41.99511262921477
 21
19.614612289300183
 31
0.0
  0
LINE
  5
29A
330
17
100
AcDbEntity
  8
ENGRAVE_LOG
100
AcDbLine
 10
-42.584040853788444
 20
19.889682364554663
 30
0.0
 11
-43.172969078362115
 21
20.164752439809142
 31
0.0
  0
LINE
  5
29B
330
17
100
AcDbEntity
  8
ENGRAVE_LOG
100
AcDbLine
 10
-42.16542228259188
 20
20.762397831914893
 30
0.0
 11
-41.58228346379008
 21
20.475258287430965
 31
0.0
  0
LINE
  5
29C
330
17
100
AcDbEntity
  8
ENGRAVE_LOG
100
AcDbLine
 10
-42.16542228259188
 20
20.762397831914893
 30
0.0
 11
-42.748561101393676
 21
21.049537376398824
 31
0.0
  0
LINE
  5
29D
330
17
100
AcDbEntity
  8
ENGRAVE_LOG
100
AcDbLine
 10
-41.73225638167044
 20
21.619869964792276
 30
0.0
 11
-41.15510815511542
 21
21.320871763151533
 31
0.0
  0
LINE
  5
29E
330
17
100
AcDbEntity
  8
ENGRAVE_LOG
100
AcDbLine
 10
-41.73225638167044
 20
21.619869964792276
 30
0.0
 11
-42.30940460822545
 21
21.918868166433022
 31
0.0
  0
LINE
  5
29F
330
17
100
AcDbEntity
  8
ENGRAVE_LOG
100
AcDbLine
 10
-41.28506939429305
 20
22.462035640351196
 30
0.0
 11
-40.7141056686273
 21
22.151390466601658
 31
0.0
  0
LINE
  5
2A0
330
17
100
AcDbEntity
  8
ENGRAVE_LOG
100
AcDbLine
 10
-41.28506939429305
 20
22.462035640351196
 30
0.0
 11
-41.8560331199588
 21
22.77268081410073
 31
0.0
  0
LINE
  5
2A1
330
17
100
AcDbEntity
  8
ENGRAVE_LOG
100
AcDbLine
 10
-40.824377063060254
 20
23.288843625501887
 30
0.0
 11
-40.259784614315805
 21
22.966763873234306
 31
0.0
  0
LINE
  5
2A2
330
17
100
AcDbEntity
  8
ENGRAVE_LOG
100
AcDbLine
 10
-40.824377063060254
 20
23.288843625501887
 30
0.0
 11
-41.3889695118047
 21
23.610923377769463
 31
0.0
  0
LINE
  5
2A3
330
17
100
AcDbEntity
  8
ENGRAVE_LOG
100
AcDbLine
 10
-40.350684705535144
 20
24.100254019293907
 30
0.0
 11
-39.79264332130966
 21
23.766952633920692
 31
0.0
  0
LINE
  5
2A4
330
17
100
AcDbEntity
  8
ENGRAVE_LOG
100
AcDbLine
 10
-40.350684705535144
 20
24.100254019293907
 30
0.0
 11
-40.908726089760634
 21
24.433555404667118
 31
0.0
  0
LINE
  5
2A5
330
17
100
AcDbEntity
  8
ENGRAVE_LOG
100
AcDbLine
 10
-39.86448729797251
 20
24.896237717169004
 30
0.0
 11
-39.31316992044736
 21
24.551928046612414
 31
0.0
  0
LINE
  5
2A6
330
17
100
AcDbEntity
  8
ENGRAVE_LOG
100
AcDbLine
 10
-39.86448729797251
 20
24.896237717169004
 30
0.0
 11
-40.41580467549766
 21
25.240547387725595
 31
0.0
  0
LINE
  5
2A7
330
17
100
AcDbEntity
  8
ENGRAVE_LOG
100
AcDbLine
 10
-39.366269566372154
 20
25.676775896278752
 30
0.0
 11
-38.821842434071264
 21
25.321671548777026
 31
0.0
  0
LINE
  5
2A8
330
17
100
AcDbEntity
  8
ENGRAVE_LOG
100
AcDbLine
 10
-39.366269566372154
 20
25.676775896278752
 30
0.0
 11
-39.91069669867304
 21
26.031880243780478
 31
0.0
  0
LINE
  5
2A9
330
17
100
AcDbEntity
  8
ENGRAVE_LOG
100
AcDbLine
 10
-38.856506084137095
 20
26.44185952109678
 30
0.0
 11
-36.70699723692951
 21
24.979118356099935
 31
0.0
  0
LINE
  5
2AA
330
17
100
AcDbEntity
  8
ENGRAVE_LOG
100
AcDbLine
 10
-38.856506084137095
 20
26.44185952109678
 30
0.0
 11
-41.00601493134469
 21
27.904600686093623
 31
0.0
  0
TEXT
  5
2AB
330
17
100
AcDbEntity
  8
ENGRAVE_TEXT
100
AcDbText
 10
-35.21887572732427
 20
23.966451395717506
 30
0.0
 40
3.5
  1
7
 50
-304.23529440513244
 72
1
 11
-35.21887572732427
 21
23.966451395717506
 31
0.0
100
AcDbText
 73
2
  0
TEXT
  5
2AC
330
17
100
AcDbEntity
  8
ENGRAVE_TEXT
100
AcDbText
 10
-42.49413644094993
 20
28.917267646476052
 30
0.0
 40
3.5
  1
7
 50
-304.23529440513244
 72
1
 11
-42.49413644094993
 21
28.917267646476052
 31
0.0
100
AcDbText
 73
2
  0
LINE
  5
2AD
330
17
100
AcDbEntity
  8
ENGRAVE_LOG
100
AcDbLine
 10
-38.33566137566744
 20
27.191488868580908
 30
0.0
 11
-37.80548733536566
 21
26.8154363629516
 31
0.0
  0
LINE
  5
2AE
330
17
100
AcDbEntity
  8
ENGRAVE_LOG
100
AcDbLine
 10
-38.33566137566744
 20
27.191488868580908
 30
0.0
 11
-38.86583541596922
 21
27.56754137421022
 31
0.0
  0
LINE
  5
2AF
330
17
100
AcDbEntity
  8
ENGRAVE_LOG
100
AcDbLine
 10
-37.80419002526871
 20
27.925673072163796
 30
0.0
 11
-37.281366120663925
 21
27.53946695520834
 31
0.0
  0
LINE
  5
2B0
330
17
100
AcDbEntity
  8
ENGRAVE_LOG
100
AcDbLine
 10
-37.80419002526871
 20
27.925673072163796
 30
0.0
 11
-38.32701392987349
 21
28.311879189119253
 31
0.0
  0
LINE
  5
2B1
330
17
100
AcDbEntity
  8
ENGRAVE_LOG
100
AcDbLine
 10
-37.26253679079621
 20
28.64442968387674
 30
0.0
 11
-36.747203835178816
 21
28.248283315908235
 31
0.0
  0
LINE
  5
2B2
330
17
100
AcDbEntity
  8
ENGRAVE_LOG
100
AcDbLine
 10
-37.26253679079621
 20
28.64442968387674
 30
0.0
 11
-37.7778697464136
 21
29.04057605184525
 31
0.0
  0
LINE
  5
2B3
330
17
100
AcDbEntity
  8
ENGRAVE_LOG
100
AcDbLine
 10
-36.71113672149975
 20
29.347784253932236
 30
0.0
 11
-36.20342951152156
 21
28.94191064190977
 31
0.0
  0
LINE
  5
2B4
330
17
100
AcDbEntity
  8
ENGRAVE_LOG
100
AcDbLine
 10
-36.71113672149975
 20
29.347784253932236
 30
0.0
 11
-37.218843931477934
 21
29.753657865954704
 31
0.0
  0
LINE
  5
2B5
330
17
100
AcDbEntity
  8
ENGRAVE_LOG
100
AcDbLine
 10
-36.15041527957032
 20
30.03576992711539
 30
0.0
 11
-35.65046272783158
 21
29.620381619612733
 31
0.0
  0
LINE
  5
2B6
330
17
100
AcDbEntity
  8
ENGRAVE_LOG
100
AcDbLine
 10
-36.15041527957032
 20
30.03576992711539
 30
0.0
 11
-36.650367831309055
 21
30.45115823461805
 31
0.0
  0
LINE
  5
2B7
330
17
100
AcDbEntity
  8
ENGRAVE_LOG
100
AcDbLine
 10
-35.58078846492685
 20
30.708427055356132
 30
0.0
 11
-35.08871373083743
 21
30.283736042888442
 31
0.0
  0
LINE
  5
2B8
330
17
100
AcDbEntity
  8
ENGRAVE_LOG
100
AcDbLine
 10
-35.58078846492685
 20
30.708427055356132
 30
0.0
 11
-36.07286319901626
 21
31.133118067823823
 31
0.0
  0
LINE
  5
2B9
330
17
100
AcDbEntity
  8
ENGRAVE_LOG
100
AcDbLine
 10
-35.002662942814794
 20
31.36580282587551
 30
0.0
 11
-34.51858356169076
 21
30.93202044636872
 31
0.0
  0
LINE
  5
2BA
330
17
100
AcDbEntity
  8
ENGRAVE_LOG
100
AcDbLine
 10
-35.002662942814794
 20
31.36580282587551
 30
0.0
 11
-35.48674232393883
 21
31.799585205382296
 31
0.0
  0
LINE
  5
2BB
330
17
100
AcDbEntity
  8
ENGRAVE_LOG
100
AcDbLine
 10
-34.41643617381905
 20
32.007950904321255
 30
0.0
 11
-33.94046418418113
 21
31.56528775351681
 31
0.0
  0
LINE
  5
2BC
330
17
100
AcDbEntity
  8
ENGRAVE_LOG
100
AcDbLine
 10
-34.41643617381905
 20
32.007950904321255
 30
0.0
 11
-34.89240816345697
 21
32.45061405512569
 31
0.0
  0
LINE
  5
2BD
330
17
100
AcDbEntity
  8
ENGRAVE_LOG
100
AcDbLine
 10
-33.82249654592409
 20
32.634931092327335
 30
0.0
 11
-33.35473861496982
 21
32.183596938922804
 31
0.0
  0
LINE
  5
2BE
330
17
100
AcDbEntity
  8
ENGRAVE_LOG
100
AcDbLine
 10
-33.82249654592409
 20
32.634931092327335
 30
0.0
 11
-34.29025447687835
 21
33.08626524573186
 31
0.0
  0
LINE
  5
2BF
330
17
100
AcDbEntity
  8
ENGRAVE_LOG
100
AcDbLine
 10
-33.22122350827999
 20
33.24680899895364
 30
0.0
 11
-31.934784640512554
 21
31.959379373887778
 31
0.0
  0
LINE
  5
2C0
330
17
100
AcDbEntity
  8
ENGRAVE_LOG
100
AcDbLine
 10
-33.22122350827999
 20
33.24680899895364
 30
0.0
 11
-34.50766237604743
 21
34.53423862401951
 31
0.0
  0
LINE
  5
2C1
330
17
100
AcDbEntity
  8
ENGRAVE_LOG
100
AcDbLine
 10
-32.61298770636046
 20
33.8436557254795
 30
0.0
 11
-32.16195702531505
 21
33.37560516757394
 31
0.0
  0
LINE
  5
2C2
330
17
100
AcDbEntity
  8
ENGRAVE_LOG
100
AcDbLine
 10
-32.61298770636046
 20
33.8436557254795
 30
0.0
 11
-33.064018387405866
 21
34.31170628338507
 31
0.0
  0
LINE
  5
2C3
330
17
100
AcDbEntity
  8
ENGRAVE_LOG
100
AcDbLine
 10
-31.998151118220814
 20
34.42554756304544
 30
0.0
 11
-31.555623496373084
 21
33.94944956483312
 31
0.0
  0
LINE
  5
2C4
330
17
100
AcDbEntity
  8
ENGRAVE_LOG
100
AcDbLine
 10
-31.998151118220814
 20
34.42554756304544
 30
0.0
 11
-32.44067874006855
 21
34.90164556125777
 31
0.0
  0
LINE
  5
2C5
330
17
100
AcDbEntity
  8
ENGRAVE_LOG
100
AcDbLine
 10
-31.377067191587784
 20
34.9925657026544
 30
0.0
 11
-30.94312902829987
 21
34.50862596421344
 31
0.0
  0
LINE
  5
2C6
330
17
100
AcDbEntity
  8
ENGRAVE_LOG
100
AcDbLine
 10
-31.377067191587784
 20
34.9925657026544
 30
0.0
 11
-31.8110053548757
 21
35.47650544109537
 31
0.0
  0
LINE
  5
2C7
330
17
100
AcDbEntity
  8
ENGRAVE_LOG
100
AcDbLine
 10
-30.750080981532978
 20
35.5447959570619
 30
0.0
 11
-30.3248139041288
 21
35.05321899169828
 31
0.0
  0
LINE
  5
2C8
330
17
100
AcDbEntity
  8
ENGRAVE_LOG
100
AcDbLine
 10
-30.750080981532978
 20
35.5447959570619
 30
0.0
 11
-31.175348058937157
 21
36.03637292242552
 31
0.0
  0
LINE
  5
2C9
330
17
100
AcDbEntity
  8
ENGRAVE_LOG
100
AcDbLine
 10
-30.11752928850106
 20
36.08232849410194
 30
0.0
 11
-29.701010266426046
 21
35.583317568119675
 31
0.0
  0
LINE
  5
2CA
330
17
100
AcDbEntity
  8
ENGRAVE_LOG
100
AcDbLine
 10
-30.11752928850106
 20
36.08232849410194
 30
0.0
 11
-30.534048310576072
 21
36.5813394200842
 31
0.0
  0
LINE
  5
2CB
330
17
100
AcDbEntity
  8
ENGRAVE_LOG
100
AcDbLine
 10
-29.47974079648264
 20
36.605257581011465
 30
0.0
 11
-29.07204225355256
 21
36.099014657018756
 31
0.0
  0
LINE
  5
2CC
330
17
100
AcDbEntity
  8
ENGRAVE_LOG
100
AcDbLine
 10
-29.47974079648264
 20
36.605257581011465
 30
0.0
 11
-29.88743933941272
 21
37.11150050500417
 31
0.0
  0
LINE
  5
2CD
330
17
100
AcDbEntity
  8
ENGRAVE_LOG
100
AcDbLine
 10
-28.837036211137644
 20
37.11368133933275
 30
0.0
 11
-28.438226135877233
 21
36.60040702293772
 31
0.0
  0
LINE
  5
2CE
330
17
100
AcDbEntity
  8
ENGRAVE_LOG
100
AcDbLine
 10
-28.837036211137644
 20
37.11368133933275
 30
0.0
 11
-29.235846286398058
 21
37.62695565572778
 31
0.0
  0
LINE
  5
2CF
330
17
100
AcDbEntity
  8
ENGRAVE_LOG
100
AcDbLine
 10
-28.1897283976919
 20
37.607701509988125
 30
0.0
 11
-27.799870451766377
 21
37.08759499974361
 31
0.0
  0
LINE
  5
2D0
330
17
100
AcDbEntity
  8
ENGRAVE_LOG
100
AcDbLine
 10
-28.1897283976919
 20
37.607701509988125
 30
0.0
 11
-28.579586343617425
 21
38.12780802023264
 31
0.0
  0
LINE
  5
2D1
330
17
100
AcDbEntity
  8
ENGRAVE_LOG
100
AcDbLine
 10
-27.538122518443508
 20
38.08742322813654
 30
0.0
 11
-27.15727614318844
 21
37.560682268598484
 31
0.0
  0
LINE
  5
2D2
330
17
100
AcDbEntity
  8
ENGRAVE_LOG
100
AcDbLine
 10
-27.538122518443508
 20
38.08742322813654
 30
0.0
 11
-27.918968893698576
 21
38.6141641876746
 31
0.0
  0
LINE
  5
2D3
330
17
100
AcDbEntity
  8
ENGRAVE_LOG
100
AcDbLine
 10
-26.882516169729175
 20
38.552954807436606
 30
0.0
 11
-25.39539825395692
 21
36.42023815851458
 31
0.0
  0
LINE
  5
2D4
330
17
100
AcDbEntity
  8
ENGRAVE_LOG
100
AcDbLine
 10
-26.882516169729175
 20
38.552954807436606
 30
0.0
 11
-28.369634085501428
 21
40.685671456358634
 31
0.0
  0
TEXT
  5
2D5
330
17
100
AcDbEntity
  8
ENGRAVE_TEXT
100
AcDbText
 10
-24.36585508149921
 20
34.94374201695318
 30
0.0
 40
3.5
  1
8
 50
-325.1123953170997
 72
1
 11
-24.36585508149921
 21
34.94374201695318
 31
0.0
100
AcDbText
 73
2
  0
TEXT
  5
2D6
330
17
100
AcDbEntity
  8
ENGRAVE_TEXT
100
AcDbText
 10
-29.39917725795914
 20
42.16216759792003
 30
0.0
 40
3.5
  1
8
 50
-325.1123953170997
 72
1
 11
-29.39917725795914
 21
42.16216759792003
 31
0.0
100
AcDbText
 73
2
  0
LINE
  5
2D7
330
17
100
AcDbEntity
  8
ENGRAVE_LOG
100
AcDbLine
 10
-26.223199518214823
 20
39.004407533353174
 30
0.0
 11
-25.860538248282065
 21
38.46498487597702
 31
0.0
  0
LINE
  5
2D8
330
17
100
AcDbEntity
  8
ENGRAVE_LOG
100
AcDbLine
 10
-26.223199518214823
 20
39.004407533353174
 30
0.0
 11
-26.58586078814758
 21
39.54383019072934
 31
0.0
  0
LINE
  5
2D9
330
17
100
AcDbEntity
  8
ENGRAVE_LOG
100
AcDbLine
 10
-25.560455436384608
 20
39.441895465159845
 30
0.0
 11
-25.20695977609418
 21
38.896422442769335
 31
0.0
  0
LINE
  5
2DA
330
17
100
AcDbEntity
  8
ENGRAVE_LOG
100
AcDbLine
 10
-25.560455436384608
 20
39.441895465159845
 30
0.0
 11
-25.91395109667503
 21
39.98736848755035
 31
0.0
  0
LINE
  5
2DB
330
17
100
AcDbEntity
  8
ENGRAVE_LOG
100
AcDbLine
 10
-24.89455963711553
 20
39.86553524630139
 30
0.0
 11
-24.55027317404904
 21
39.31420337587382
 31
0.0
  0
LINE
  5
2DC
330
17
100
AcDbEntity
  8
ENGRAVE_LOG
100
AcDbLine
 10
-24.89455963711553
 20
39.86553524630139
 30
0.0
 11
-25.23884610018202
 21
40.41686711672896
 31
0.0
  0
LINE
  5
2DD
330
17
100
AcDbEntity
  8
ENGRAVE_LOG
100
AcDbLine
 10
-24.2257808072343
 20
40.27544592279318
 30
0.0
 11
-23.8907434130917
 21
39.71844507492477
 31
0.0
  0
LINE
  5
2DE
330
17
100
AcDbEntity
  8
ENGRAVE_LOG
100
AcDbLine
 10
-24.2257808072343
 20
40.27544592279318
 30
0.0
 11
-24.5608182013769
 21
40.8324467706616
 31
0.0
  0
LINE
  5
2DF
330
17
100
AcDbEntity
  8
ENGRAVE_LOG
100
AcDbLine
 10
-23.554380739962177
 20
40.67174876934724
 30
0.0
 11
-23.22862866589887
 21
40.109267137430734
 31
0.0
  0
LINE
  5
2E0
330
17
100
AcDbEntity
  8
ENGRAVE_LOG
100
AcDbLine
 10
-23.554380739962177
 20
40.67174876934724
 30
0.0
 11
-23.880132814025483
 21
41.234230401263744
 31
0.0
  0
LINE
  5
2E1
330
17
100
AcDbEntity
  8
ENGRAVE_LOG
100
AcDbLine
 10
-22.880614466164293
 20
41.05456712292499
 30
0.0
 11
-22.564180436313087
 21
40.48679119462922
 31
0.0
  0
LINE
  5
2E2
330
17
100
AcDbEntity
  8
ENGRAVE_LOG
100
AcDbLine
 10
-22.880614466164293
 20
41.05456712292499
 30
0.0
 11
-23.1970484960155
 21
41.62234305122076
 31
0.0
  0
LINE
  5
2E3
330
17
100
AcDbEntity
  8
ENGRAVE_LOG
100
AcDbLine
 10
-22.204730384326123
 20
41.424026223429614
 30
0.0
 11
-21.89764368752161
 21
40.851140754382186
 31
0.0
  0
LINE
  5
2E4
330
17
100
AcDbEntity
  8
ENGRAVE_LOG
100
AcDbLine
 10
-22.204730384326123
 20
41.424026223429614
 30
0.0
 11
-22.51181708113063
 21
41.99691169247704
 31
0.0
  0
LINE
  5
2E5
330
17
100
AcDbEntity
  8
ENGRAVE_LOG
100
AcDbLine
 10
-21.526970389189348
 20
41.780253061260474
 30
0.0
 11
-21.229256968913326
 21
41.202441050838786
 31
0.0
  0
LINE
  5
2E6
330
17
100
AcDbEntity
  8
ENGRAVE_LOG
100
AcDbLine
 10
-21.526970389189348
 20
41.780253061260474
 30
0.0
 11
-21.82468380946537
 21
42.358065071682155
 31
0.0
  0
LINE
  5
2E7
330
17
100
AcDbEntity
  8
ENGRAVE_LOG
100
AcDbLine
 10
-20.847569998985755
 20
42.123376231463084
 30
0.0
 11
-20.559252541552972
 21
41.540818900602424
 31
0.0
  0
LINE
  5
2E8
330
17
100
AcDbEntity
  8
ENGRAVE_LOG
100
AcDbLine
 10
-20.847569998985755
 20
42.123376231463084
 30
0.0
 11
-21.135887456418534
 21
42.70593356232374
 31
0.0
  0
LINE
  5
2E9
330
17
100
AcDbEntity
  8
ENGRAVE_LOG
100
AcDbLine
 10
-20.166758481214153
 20
42.453525794218514
 30
0.0
 11
-19.385832940026713
 21
40.809580752825376
 31
0.0
  0
LINE
  5
2EA
330
17
100
AcDbEntity
  8
ENGRAVE_LOG
100
AcDbLine
 10
-20.166758481214153
 20
42.453525794218514
 30
0.0
 11
-20.947684022401596
 21
44.09747083561166
 31
0.0
  0
LINE
  5
2EB
330
17
100
AcDbEntity
  8
ENGRAVE_LOG
100
AcDbLine
 10
-19.48475897691307
 20
42.77083314142484
 30
0.0
 11
-19.215288905955763
 21
42.1793216192562
 31
0.0
  0
LINE
  5
2EC
330
17
100
AcDbEntity
  8
ENGRAVE_LOG
100
AcDbLine
 10
-19.48475897691307
 20
42.77083314142484
 30
0.0
 11
-19.75422904787038
 21
43.36234466359348
 31
0.0
  0
LINE
  5
2ED
330
17
100
AcDbEntity
  8
ENGRAVE_LOG
100
AcDbLine
 10
-18.801788623386113
 20
43.07543086913361
 30
0.0
 11
-18.54176388710524
 21
42.47970682519878
 31
0.0
  0
LINE
  5
2EE
330
17
100
AcDbEntity
  8
ENGRAVE_LOG
100
AcDbLine
 10
-18.801788623386113
 20
43.07543086913361
 30
0.0
 11
-19.061813359666985
 21
43.671154913068435
 31
0.0
  0
LINE
  5
2EF
330
17
100
AcDbEntity
  8
ENGRAVE_LOG
100
AcDbLine
 10
-18.11805867534303
 20
43.36745265561291
 30
0.0
 11
-17.867489778769137
 21
42.76769001250337
 31
0.0
  0
LINE
  5
2F0
330
17
100
AcDbEntity
  8
ENGRAVE_LOG
100
AcDbLine
 10
-18.11805867534303
 20
43.36745265561291
 30
0.0
 11
-18.36862757191692
 21
43.96721529872245
 31
0.0
  0
LINE
  5
2F1
330
17
100
AcDbEntity
  8
ENGRAVE_LOG
100
AcDbLine
 10
-17.433774624424895
 20
43.64703314481706
 30
0.0
 11
-17.19266923068285
 21
43.04340396302703
 31
0.0
  0
LINE
  5
2F2
330
17
100
AcDbEntity
  8
ENGRAVE_LOG
100
AcDbLine
 10
-17.433774624424895
 20
43.64703314481706
 30
0.0
 11
-17.67488001816694
 21
44.25066232660708
 31
0.0
  0
LINE
  5
2F3
330
17
100
AcDbEntity
  8
ENGRAVE_LOG
100
AcDbLine
 10
-16.749136317085767
 20
43.91430783505165
 30
0.0
 11
-16.517499325466495
 21
43.30698230116264
 31
0.0
  0
LINE
  5
2F4
330
17
100
AcDbEntity
  8
ENGRAVE_LOG
100
AcDbLine
 10
-16.749136317085767
 20
43.91430783505165
 30
0.0
 11
-16.980773308705036
 21
44.52163336894066
 31
0.0
  0
LINE
  5
2F5
330
17
100
AcDbEntity
  8
ENGRAVE_LOG
100
AcDbLine
 10
-16.064338070808006
 20
44.1694129726306
 30
0.0
 11
-15.842171693233
 21
43.558559388966565
 31
0.0
  0
LINE
  5
2F6
330
17
100
AcDbEntity
  8
ENGRAVE_LOG
100
AcDbLine
 10
-16.064338070808006
 20
44.1694129726306
 30
0.0
 11
-16.28650444838301
 21
44.78026655629464
 31
0.0
  0
LINE
  5
2F7
330
17
100
AcDbEntity
  8
ENGRAVE_LOG
100
AcDbLine
 10
-15.379568788632197
 20
44.41248545032951
 30
0.0
 11
-15.166872624534092
 21
43.79827022601644
 31
0.0
  0
LINE
  5
2F8
330
17
100
AcDbEntity
  8
ENGRAVE_LOG
100
AcDbLine
 10
-15.379568788632197
 20
44.41248545032951
 30
0.0
 11
-15.592264952730302
 21
45.026700674642576
 31
0.0
  0
LINE
  5
2F9
330
17
100
AcDbEntity
  8
ENGRAVE_LOG
100
AcDbLine
 10
-14.695012071985772
 20
44.64366271044741
 30
0.0
 11
-14.491783181628524
 21
44.026250353813566
 31
0.0
  0
LINE
  5
2FA
330
17
100
AcDbEntity
  8
ENGRAVE_LOG
100
AcDbLine
 10
-14.695012071985772
 20
44.64366271044741
 30
0.0
 11
-14.898240962343023
 21
45.26107506708126
 31
0.0
  0
LINE
  5
2FB
330
17
100
AcDbEntity
  8
ENGRAVE_LOG
100
AcDbLine
 10
-14.010846331800115
 20
44.86308265229534
 30
0.0
 11
-13.817079308062453
 21
44.24263576455083
 31
0.0
  0
LINE
  5
2FC
330
17
100
AcDbEntity
  8
ENGRAVE_LOG
100
AcDbLine
 10
-14.010846331800115
 20
44.86308265229534
 30
0.0
 11
-14.204613355537775
 21
45.48352954003985
 31
0.0
  0
LINE
  5
2FD
330
17
100
AcDbEntity
  8
ENGRAVE_LOG
100
AcDbLine
 10
-13.327244897905336
 20
45.070883543938386
 30
0.0
 11
-12.589993052489294
 21
42.57760062448647
 31
0.0
  0
LINE
  5
2FE
330
17
100
AcDbEntity
  8
ENGRAVE_LOG
100
AcDbLine
 10
-13.327244897905336
 20
45.070883543938386
 30
0.0
 11
-14.064496743321376
 21
47.5641664633903
 31
0.0
  0
TEXT
  5
2FF
330
17
100
AcDbEntity
  8
ENGRAVE_TEXT
100
AcDbText
 10
-12.07958792873973
 20
40.85148168025054
 30
0.0
 40
3.5
  1
9
 50
-343.52730339815696
 72
1
 11
-12.07958792873973
 21
40.85148168025054
 31
0.0
100
AcDbText
 73
2
  0
TEXT
  5
300
330
17
100
AcDbEntity
  8
ENGRAVE_TEXT
100
AcDbText
 10
-14.57490186707094
 20
49.290285407626236
 30
0.0
 40
3.5
  1
9
 50
-343.52730339815696
 72
1
 11
-14.57490186707094
 21
49.290285407626236
 31
0.0
100
AcDbText
 73
2
  0
LINE
  5
301
330
17
100
AcDbEntity
  8
ENGRAVE_LOG
100
AcDbLine
 10
-12.64437612669808
 20
45.26720393802325
 30
0.0
 11
-12.46950709515864
 21
44.641168138880374
 31
0.0
  0
LINE
  5
302
330
17
100
AcDbEntity
  8
ENGRAVE_LOG
100
AcDbLine
 10
-12.64437612669808
 20
45.26720393802325
 30
0.0
 11
-12.819245158237523
 21
45.89323973716612
 31
0.0
  0
LINE
  5
303
330
17
100
AcDbEntity
  8
ENGRAVE_LOG
100
AcDbLine
 10
-11.962403507079554
 20
45.45218259153031
 30
0.0
 11
-11.796966011768879
 21
44.82358857696659
 31
0.0
  0
LINE
  5
304
330
17
100
AcDbEntity
  8
ENGRAVE_LOG
100
AcDbLine
 10
-11.962403507079554
 20
45.45218259153031
 30
0.0
 11
-12.127841002390227
 21
46.08077660609402
 31
0.0
  0
LINE
  5
305
330
17
100
AcDbEntity
  8
ENGRAVE_LOG
100
AcDbLine
 10
-11.281485764661904
 20
45.62595838929557
 30
0.0
 11
-11.12546521685275
 21
44.994961092422336
 31
0.0
  0
LINE
  5
306
330
17
100
AcDbEntity
  8
ENGRAVE_LOG
100
AcDbLine
 10
-11.281485764661904
 20
45.62595838929557
 30
0.0
 11
-11.437506312471056
 21
46.25695568616881
 31
0.0
  0
LINE
  5
307
330
17
100
AcDbEntity
  8
ENGRAVE_LOG
100
AcDbLine
 10
-10.60177696424606
 20
45.78867027115312
 30
0.0
 11
-10.455156644527763
 21
45.15542270357334
 31
0.0
  0
LINE
  5
308
330
17
100
AcDbEntity
  8
ENGRAVE_LOG
100
AcDbLine
 10
-10.60177696424606
 20
45.78867027115312
 30
0.0
 11
-10.748397283964357
 21
46.421917838732895
 31
0.0
  0
LINE
  5
309
330
17
100
AcDbEntity
  8
ENGRAVE_LOG
100
AcDbLine
 10
-9.923426610573618
 20
45.94045716255509
 30
0.0
 11
-9.78618773191675
 21
45.305110414562314
 31
0.0
  0
LINE
  5
30A
330
17
100
AcDbEntity
  8
ENGRAVE_LOG
100
AcDbLine
 10
-9.923426610573618
 20
45.94045716255509
 30
0.0
 11
-10.060665489230486
 21
46.575803910547876
 31
0.0
  0
LINE
  5
30B
330
17
100
AcDbEntity
  8
ENGRAVE_LOG
100
AcDbLine
 10
-9.246579747359027
 20
46.08145790853117
 30
0.0
 11
-9.118701516810445
 21
45.444161150221696
 31
0.0
  0
LINE
  5
30C
330
17
100
AcDbEntity
  8
ENGRAVE_LOG
100
AcDbLine
 10
-9.246579747359027
 20
46.08145790853117
 30
0.0
 11
-9.374457977907609
 21
46.71875466684064
 31
0.0
  0
LINE
  5
30D
330
17
100
AcDbEntity
  8
ENGRAVE_LOG
100
AcDbLine
 10
-8.57137705460956
 20
46.211811210855096
 30
0.0
 11
-8.452836733641554
 21
45.57271169410923
 31
0.0
  0
LINE
  5
30E
330
17
100
AcDbEntity
  8
ENGRAVE_LOG
100
AcDbLine
 10
-8.57137705460956
 20
46.211811210855096
 30
0.0
 11
-8.689917375577563
 21
46.85091072760097
 31
0.0
  0
LINE
  5
30F
330
17
100
AcDbEntity
  8
ENGRAVE_LOG
100
AcDbLine
 10
-7.89795494424141
 20
46.331655568290806
 30
0.0
 11
-7.788727907778497
 21
45.6908986295804
 31
0.0
  0
LINE
  5
310
330
17
100
AcDbEntity
  8
ENGRAVE_LOG
100
AcDbLine
 10
-7.89795494424141
 20
46.331655568290806
 30
0.0
 11
-8.007181980704322
 21
46.97241250700121
 31
0.0
  0
LINE
  5
311
330
17
100
AcDbEntity
  8
ENGRAVE_LOG
100
AcDbLine
 10
-7.226445654004021
 20
46.441129219795314
 30
0.0
 11
-7.126505448150773
 21
45.79885828377687
 31
0.0
  0
LINE
  5
312
330
17
100
AcDbEntity
  8
ENGRAVE_LOG
100
AcDbLine
 10
-7.226445654004021
 20
46.441129219795314
 30
0.0
 11
-7.326385859857267
 21
47.08340015581376
 31
0.0
  0
LINE
  5
313
330
17
100
AcDbEntity
  8
ENGRAVE_LOG
100
AcDbLine
 10
-6.556977339722229
 20
46.540370090560835
 30
0.0
 11
-6.303068855503198
 21
44.73816852535188
 31
0.0
  0
LINE
  5
314
330
17
100
AcDbEntity
  8
ENGRAVE_LOG
100
AcDbLine
 10
-6.556977339722229
 20
46.540370090560835
 30
0.0
 11
-6.81088582394126
 21
48.34257165576979
 31
0.0
  0
LINE
  5
315
330
17
100
AcDbEntity
  8
ENGRAVE_LOG
100
AcDbLine
 10
-5.889674165871764
 20
46.62951574078229
 30
0.0
 11
-5.808221225279921
 21
45.98463945926083
 31
0.0
  0
LINE
  5
316
330
17
100
AcDbEntity
  8
ENGRAVE_LOG
100
AcDbLine
 10
-5.889674165871764
 20
46.62951574078229
 30
0.0
 11
-5.971127106463607
 21
47.27439202230374
 31
0.0
  0
LINE
  5
317
330
17
100
AcDbEntity
  8
ENGRAVE_LOG
100
AcDbLine
 10
-5.224656394500285
 20
46.70870331704154
 30
0.0
 11
-5.152400508193367
 21
46.062731888188836
 31
0.0
  0
LINE
  5
318
330
17
100
AcDbEntity
  8
ENGRAVE_LOG
100
AcDbLine
 10
-5.224656394500285
 20
46.70870331704154
 30
0.0
 11
-5.296912280807204
 21
47.354674745894236
 31
0.0
  0
LINE
  5
319
330
17
100
AcDbEntity
  8
ENGRAVE_LOG
100
AcDbLine
 10
-4.562040472510205
 20
46.77806950620321
 30
0.0
 11
-4.4989484234222985
 21
46.13113875771317
 31
0.0
  0
LINE
  5
31A
330
17
100
AcDbEntity
  8
ENGRAVE_LOG
100
AcDbLine
 10
-4.562040472510205
 20
46.77806950620321
 30
0.0
 11
-4.625132521598112
 21
47.42500025469325
 31
0.0
  0
LINE
  5
31B
330
17
100
AcDbEntity
  8
ENGRAVE_LOG
100
AcDbLine
 10
-3.9019391173196083
 20
46.837750491721216
 30
0.0
 11
-3.8479761295268906
 21
46.189994367899544
 31
0.0
  0
LINE
  5
31C
330
17
100
AcDbEntity
  8
ENGRAVE_LOG
100
AcDbLine
 10
-3.9019391173196083
 20
46.837750491721216
 30
0.0
 11
-3.9559021051123264
 21
47.485506615542896
 31
0.0
  0
LINE
  5
31D
330
17
100
AcDbEntity
  8
ENGRAVE_LOG
100
AcDbLine
 10
-3.244461400917033
 20
46.887881912259154
 30
0.0
 11
-3.199591190053287
 21
46.2394324815577
 31
0.0
  0
LINE
  5
31E
330
17
100
AcDbEntity
  8
ENGRAVE_LOG
100
AcDbLine
 10
-3.244461400917033
 20
46.887881912259154
 30
0.0
 11
-3.289331611780779
 21
47.53633134296061
 31
0.0
  0
LINE
  5
31F
330
17
100
AcDbEntity
  8
ENGRAVE_LOG
100
AcDbLine
 10
-2.5897128323290164
 20
46.928598822531136
 30
0.0
 11
-2.5538976548606365
 21
46.27958628562379
 31
0.0
  0
LINE
  5
320
330
17
100
AcDbEntity
  8
ENGRAVE_LOG
100
AcDbLine
 10
-2.5897128323290164
 20
46.928598822531136
 30
0.0
 11
-2.6255280097973963
 21
47.57761135943848
 31
0.0
  0
LINE
  5
321
330
17
100
AcDbEntity
  8
ENGRAVE_LOG
100
AcDbLine
 10
-1.9377954385181457
 20
46.960035656273284
 30
0.0
 11
-1.9109961399003417
 21
46.310588354643976
 31
0.0
  0
LINE
  5
322
330
17
100
AcDbEntity
  8
ENGRAVE_LOG
100
AcDbLine
 10
-1.9377954385181457
 20
46.960035656273284
 30
0.0
 11
-1.9645947371359498
 21
47.6094829579026
 31
0.0
  0
LINE
  5
323
330
17
100
AcDbEntity
  8
ENGRAVE_LOG
100
AcDbLine
 10
-1.288807843729585
 20
46.982326191259844
 30
0.0
 11
-1.2709839054652396
 21
46.33257061627434
 31
0.0
  0
LINE
  5
324
330
17
100
AcDbEntity
  8
ENGRAVE_LOG
100
AcDbLine
 10
-1.288807843729585
 20
46.982326191259844
 30
0.0
 11
-1.3066317819939302
 21
47.632081766245356
 31
0.0
  0
LINE
  5
325
330
17
100
AcDbEntity
  8
ENGRAVE_LOG
100
AcDbLine
 10
-0.6428453473077778
 20
46.99560351628059
 30
0.0
 11
-0.633954932930117
 21
46.34566431871501
 31
0.0
  0
LINE
  5
326
330
17
100
AcDbEntity
  8
ENGRAVE_LOG
100
AcDbLine
 10
-0.6428453473077778
 20
46.99560351628059
 30
0.0
 11
-0.6517357616854385
 21
47.645542713846176
 31
0.0
  0
LINE
  5
327
330
17
100
AcDbEntity
  8
ENGRAVE_LOG
100
AcDbLine
 10
-8.633759933988839e-15
 20
47.0
 30
0.0
 11
-8.156147682321371e-15
 21
44.4
 31
0.0
  0
LINE
  5
328
330
17
100
AcDbEntity
  8
ENGRAVE_LOG
100
AcDbLine
 10
-8.633759933988839e-15
 20
47.0
 30
0.0
 11
-9.111372185656307e-15
 21
49.6
 31
0.0
  0
ENDSEC
  0
SECTION
  2
OBJECTS
  0
DICTIONARY
  5
A
330
0
100
AcDbDictionary
281
1
  3
ACAD_COLOR
350
B
  3
ACAD_GROUP
350
C
  3
ACAD_LAYOUT
350
D
  3
ACAD_MATERIAL
350
E
  3
ACAD_MLEADERSTYLE
350
F
  3
ACAD_MLINESTYLE
350
10
  3
ACAD_PLOTSETTINGS
350
11
  3
ACAD_PLOTSTYLENAME
350
12
  3
ACAD_SCALELIST
350
14
  3
ACAD_TABLESTYLE
350
15
  3
ACAD_VISUALSTYLE
350
16
  3
EZDXF_META
350
2D
  0
DICTIONARY
  5
B
330
A
100
AcDbDictionary
281
1
  0
DICTIONARY
  5
C
330
A
100
AcDbDictionary
281
1
  0
DICTIONARY
  5
D
330
A
100
AcDbDictionary
281
1
  3
Model
350
1A
  3
Layout1
350
1E
  0
DICTIONARY
  5
E
330
A
100
AcDbDictionary
281
1
  3
ByBlock
350
1F
  3
ByLayer
350
20
  3
Global
350
21
  0
DICTIONARY
  5
F
330
A
100
AcDbDictionary
281
1
  3
Standard
350
2C
  0
DICTIONARY
  5
10
330
A
100
AcDbDictionary
281
1
  3
Standard
350
22
  0
DICTIONARY
  5
11
330
A
100
AcDbDictionary
281
1
  0
ACDBDICTIONARYWDFLT
  5
12
330
A
100
AcDbDictionary
281
1
  3
Normal
350
13
100
AcDbDictionaryWithDefault
340
13
  0
ACDBPLACEHOLDER
  5
13
330
12
  0
DICTIONARY
  5
14
330
A
100
AcDbDictionary
281
1
  0
DICTIONARY
  5
15
330
A
100
AcDbDictionary
281
1
  0
DICTIONARY
  5
16
330
A
100
AcDbDictionary
281
1
  0
LAYOUT
  5
1A
330
D
100
AcDbPlotSettings
  1

  4
A3
  6

 40
7.5
 41
20.0
 42
7.5
 43
20.0
 44
420.0
 45
297.0
 46
0.0
 47
0.0
 48
0.0
 49
0.0
140
0.0
141
0.0
142
1.0
143
1.0
 70
1024
 72
1
 73
0
 74
5
  7

 75
16
 76
0
 77
2
 78
300
147
1.0
148
0.0
149
0.0
100
AcDbLayout
  1
Model
 70
1
 71
0
 10
0.0
 20
0.0
 11
420.0
 21
297.0
 12
0.0
 22
0.0
 32
0.0
 14
1e+20
 24
1e+20
 34
1e+20
 15
-1e+20
 25
-1e+20
 35
-1e+20
146
0.0
 13
0.0
 23
0.0
 33
0.0
 16
1.0
 26
0.0
 36
0.0
 17
0.0
 27
1.0
 37
0.0
 76
1
330
17
  0
LAYOUT
  5
1E
330
D
100
AcDbPlotSettings
  1

  4
A3
  6

 40
7.5
 41
20.0
 42
7.5
 43
20.0
 44
420.0
 45
297.0
 46
0.0
 47
0.0
 48
0.0
 49
0.0
140
0.0
141
0.0
142
1.0
143
1.0
 70
0
 72
1
 73
0
 74
5
  7

 75
16
 76
0
 77
2
 78
300
147
1.0
148
0.0
149
0.0
100
AcDbLayout
  1
Layout1
 70
1
 71
1
 10
0.0
 20
0.0
 11
420.0
 21
297.0
 12
0.0
 22
0.0
 32
0.0
 14
1e+20
 24
1e+20
 34
1e+20
 15
-1e+20
 25
-1e+20
 35
-1e+20
146
0.0
 13
0.0
 23
0.0
 33
0.0
 16
1.0
 26
0.0
 36
0.0
 17
0.0
 27
1.0
 37
0.0
 76
1
330
1B
  0
MATERIAL
  5
1F
102
{ACAD_REACTORS
330
E
102
}
330
E
100
AcDbMaterial
  1
ByBlock
  2

 70
0
 40
1.0
 71
1
 41
1.0
 91
-1023410177
 42
1.0
 72
1
  3

 73
1
 74
1
 75
1
 44
0.5
 73
0
 45
1.0
 46
1.0
 77
1
  4

 78
1
 79
1
170
1
 48
1.0
171
1
  6

172
1
173
1
174
1
140
1.0
141
1.0
175
1
  7

176
1
177
1
178
1
143
1.0
179
1
  8

270
1
271
1
272
1
145
1.0
146
1.0
273
1
  9

274
1
275
1
276
1
 42
1.0
 72
1
  3

 73
1
 74
1
 75
1
 94
63
  0
MATERIAL
  5
20
102
{ACAD_REACTORS
330
E
102
}
330
E
100
AcDbMaterial
  1
ByLayer
  2

 70
0
 40
1.0
 71
1
 41
1.0
 91
-1023410177
 42
1.0
 72
1
  3

 73
1
 74
1
 75
1
 44
0.5
 73
0
 45
1.0
 46
1.0
 77
1
  4

 78
1
 79
1
170
1
 48
1.0
171
1
  6

172
1
173
1
174
1
140
1.0
141
1.0
175
1
  7

176
1
177
1
178
1
143
1.0
179
1
  8

270
1
271
1
272
1
145
1.0
146
1.0
273
1
  9

274
1
275
1
276
1
 42
1.0
 72
1
  3

 73
1
 74
1
 75
1
 94
63
  0
MATERIAL
  5
21
102
{ACAD_REACTORS
330
E
102
}
330
E
100
AcDbMaterial
  1
Global
  2

 70
0
 40
1.0
 71
1
 41
1.0
 91
-1023410177
 42
1.0
 72
1
  3

 73
1
 74
1
 75
1
 44
0.5
 73
0
 45
1.0
 46
1.0
 77
1
  4

 78
1
 79
1
170
1
 48
1.0
171
1
  6

172
1
173
1
174
1
140
1.0
141
1.0
175
1
  7

176
1
177
1
178
1
143
1.0
179
1
  8

270
1
271
1
272
1
145
1.0
146
1.0
273
1
  9

274
1
275
1
276
1
 42
1.0
 72
1
  3

 73
1
 74
1
 75
1
 94
63
  0
MLINESTYLE
  5
22
102
{ACAD_REACTORS
330
10
102
}
330
10
100
AcDbMlineStyle
  2
Standard
 70
0
  3

 62
256
 51
90.0
 52
90.0
 71
2
 49
0.5
 62
256
  6
BYLAYER
 49
-0.5
 62
256
  6
BYLAYER
  0
MLEADERSTYLE
  5
2C
102
{ACAD_REACTORS
330
F
102
}
330
F
100
AcDbMLeaderStyle
179
2
170
2
171
1
172
0
 90
2
 40
0.0
 41
0.0
173
1
 91
-1056964608
 92
-2
290
1
 42
2.0
291
1
 43
8.0
  3
Standard
 44
4.0
300

342
29
174
1
175
1
176
0
178
1
 93
-1056964608
 45
4.0
292
0
297
0
 46
4.0
 94
-1056964608
 47
1.0
 49
1.0
140
1.0
294
1
141
0.0
177
0
142
1.0
295
0
296
0
143
3.75
271
0
272
9
273
9
  0
DICTIONARY
  5
2D
330
A
100
AcDbDictionary
280
1
281
1
  3
CREATED_BY_EZDXF
350
2E
  3
WRITTEN_BY_EZDXF
350
32B
  0
DICTIONARYVAR
  5
2E
330
2D
100
DictionaryVariables
280
0
  1
1.4.4 @ 2026-08-30T09:22:13.657154+00:00
  0
DICTIONARYVAR
  5
32B
330
2D
100
DictionaryVariables
280
0
  1
1.4.4 @ 2026-08-30T09:22:13.873678+00:00
  0
ENDSEC
  0
EOF
